%TF.GenerationSoftware,KiCad,Pcbnew,8.0.5*%
%TF.CreationDate,2025-02-19T23:04:31-05:00*%
%TF.ProjectId,airbrake_mod,61697262-7261-46b6-955f-6d6f642e6b69,rev?*%
%TF.SameCoordinates,Original*%
%TF.FileFunction,Profile,NP*%
%FSLAX46Y46*%
G04 Gerber Fmt 4.6, Leading zero omitted, Abs format (unit mm)*
G04 Created by KiCad (PCBNEW 8.0.5) date 2025-02-19 23:04:31*
%MOMM*%
%LPD*%
G01*
G04 APERTURE LIST*
%TA.AperFunction,Profile*%
%ADD10C,0.264998*%
%TD*%
G04 APERTURE END LIST*
D10*
%TO.C,H1*%
X100077137Y-54076023D02*
X100153261Y-54081878D01*
X100228275Y-54091474D01*
X100302087Y-54104716D01*
X100374603Y-54121512D01*
X100445727Y-54141766D01*
X100515366Y-54165384D01*
X100583427Y-54192273D01*
X100649815Y-54222338D01*
X100714435Y-54255486D01*
X100777195Y-54291621D01*
X100837999Y-54330651D01*
X100896754Y-54372480D01*
X100953366Y-54417014D01*
X101007740Y-54464161D01*
X101059784Y-54513824D01*
X101109401Y-54565911D01*
X101156499Y-54620327D01*
X101200984Y-54676978D01*
X101242761Y-54735770D01*
X101281737Y-54796609D01*
X101317816Y-54859400D01*
X101350906Y-54924050D01*
X101380912Y-54990464D01*
X101407741Y-55058549D01*
X101431297Y-55128209D01*
X101451487Y-55199352D01*
X101468217Y-55271882D01*
X101481394Y-55345707D01*
X101490922Y-55420730D01*
X101496707Y-55496860D01*
X101498657Y-55574000D01*
X101496707Y-55651141D01*
X101490922Y-55727270D01*
X101481394Y-55802294D01*
X101468217Y-55876118D01*
X101451487Y-55948648D01*
X101431297Y-56019791D01*
X101407741Y-56089451D01*
X101380912Y-56157536D01*
X101350906Y-56223950D01*
X101317816Y-56288599D01*
X101281737Y-56351391D01*
X101242761Y-56412229D01*
X101200984Y-56471021D01*
X101156499Y-56527672D01*
X101109401Y-56582088D01*
X101059784Y-56634175D01*
X101007740Y-56683839D01*
X100953366Y-56730985D01*
X100896754Y-56775520D01*
X100837999Y-56817349D01*
X100777195Y-56856379D01*
X100714435Y-56892514D01*
X100649815Y-56925662D01*
X100583427Y-56955727D01*
X100515366Y-56982617D01*
X100445727Y-57006235D01*
X100374603Y-57026490D01*
X100302087Y-57043286D01*
X100228275Y-57056529D01*
X100153261Y-57066125D01*
X100077137Y-57071980D01*
X100000000Y-57074000D01*
X100000000Y-57073996D01*
X99922862Y-57071977D01*
X99846738Y-57066122D01*
X99771724Y-57056526D01*
X99697912Y-57043283D01*
X99625397Y-57026488D01*
X99554272Y-57006233D01*
X99484633Y-56982615D01*
X99416572Y-56955726D01*
X99350185Y-56925660D01*
X99285564Y-56892513D01*
X99222805Y-56856378D01*
X99162000Y-56817348D01*
X99103245Y-56775519D01*
X99046633Y-56730984D01*
X98992259Y-56683838D01*
X98940216Y-56634175D01*
X98890598Y-56582088D01*
X98843500Y-56527672D01*
X98799015Y-56471021D01*
X98757238Y-56412229D01*
X98718263Y-56351391D01*
X98682183Y-56288599D01*
X98649093Y-56223950D01*
X98619087Y-56157535D01*
X98592259Y-56089451D01*
X98568702Y-56019791D01*
X98548512Y-55948648D01*
X98531782Y-55876118D01*
X98518606Y-55802294D01*
X98509078Y-55727270D01*
X98503292Y-55651141D01*
X98501342Y-55574000D01*
X98503292Y-55496860D01*
X98509078Y-55420730D01*
X98518606Y-55345707D01*
X98531782Y-55271882D01*
X98548512Y-55199352D01*
X98568702Y-55128209D01*
X98592259Y-55058549D01*
X98619087Y-54990464D01*
X98649093Y-54924050D01*
X98682183Y-54859400D01*
X98718263Y-54796609D01*
X98757238Y-54735770D01*
X98799015Y-54676978D01*
X98843500Y-54620327D01*
X98890598Y-54565911D01*
X98940216Y-54513824D01*
X98992259Y-54464161D01*
X99046633Y-54417014D01*
X99103245Y-54372480D01*
X99162000Y-54330651D01*
X99222805Y-54291621D01*
X99285564Y-54255486D01*
X99350185Y-54222338D01*
X99416572Y-54192273D01*
X99484633Y-54165384D01*
X99554272Y-54141766D01*
X99625397Y-54121512D01*
X99697912Y-54104716D01*
X99771724Y-54091474D01*
X99846738Y-54081878D01*
X99922862Y-54076023D01*
X100000000Y-54074004D01*
X100077137Y-54076023D01*
X101803324Y-46079020D02*
X103596836Y-46168610D01*
X105379307Y-46317060D01*
X107149508Y-46523660D01*
X108906210Y-46787700D01*
X110648185Y-47108471D01*
X112374202Y-47485264D01*
X114083033Y-47917368D01*
X115773449Y-48404074D01*
X117444221Y-48944673D01*
X119094120Y-49538455D01*
X120721917Y-50184711D01*
X122326383Y-50882730D01*
X123906288Y-51631803D01*
X125460405Y-52431221D01*
X126987503Y-53280275D01*
X128486354Y-54178254D01*
X129955728Y-55124449D01*
X131394397Y-56118150D01*
X132801132Y-57158648D01*
X134174704Y-58245233D01*
X135513883Y-59377196D01*
X136817441Y-60553828D01*
X138084149Y-61774417D01*
X139312777Y-63038256D01*
X140502097Y-64344634D01*
X141650879Y-65692842D01*
X142757895Y-67082170D01*
X143821915Y-68511909D01*
X144841711Y-69981349D01*
X145816053Y-71489781D01*
X146743713Y-73036494D01*
X148438545Y-76211251D01*
X149907399Y-79465479D01*
X151150275Y-82787827D01*
X152167174Y-86166941D01*
X152958095Y-89591467D01*
X153523039Y-93050054D01*
X153862005Y-96531346D01*
X153974994Y-100023992D01*
X153862005Y-103516638D01*
X153523039Y-106997930D01*
X152958095Y-110456517D01*
X152167174Y-113881044D01*
X151150275Y-117260158D01*
X149907399Y-120582506D01*
X148438545Y-123836736D01*
X146743713Y-127011493D01*
X144841711Y-130066638D01*
X142757895Y-132965818D01*
X140502097Y-135703355D01*
X138084149Y-138273572D01*
X135513883Y-140670794D01*
X132801132Y-142889343D01*
X129955728Y-144923543D01*
X126987503Y-146767717D01*
X123906288Y-148416189D01*
X120721917Y-149863282D01*
X117444221Y-151103320D01*
X114083033Y-152130626D01*
X110648185Y-152939523D01*
X107149508Y-153524334D01*
X103596836Y-153879384D01*
X100000000Y-153998996D01*
X98196675Y-153968975D01*
X96403163Y-153879384D01*
X94620692Y-153730934D01*
X92850490Y-153524334D01*
X91093787Y-153260294D01*
X89351812Y-152939523D01*
X87625794Y-152562730D01*
X85916962Y-152130626D01*
X84226545Y-151643919D01*
X82555772Y-151103320D01*
X80905872Y-150509538D01*
X79278074Y-149863282D01*
X77673608Y-149165263D01*
X76093701Y-148416189D01*
X74539584Y-147616771D01*
X73012485Y-146767717D01*
X71513634Y-145869738D01*
X70044258Y-144923543D01*
X68605589Y-143929841D01*
X67198853Y-142889343D01*
X65825282Y-141802757D01*
X64486102Y-140670794D01*
X63182545Y-139494162D01*
X61915837Y-138273572D01*
X60687210Y-137009733D01*
X59497891Y-135703355D01*
X58349110Y-134355146D01*
X57242096Y-132965818D01*
X56178077Y-131536079D01*
X55158283Y-130066638D01*
X54183943Y-128558206D01*
X53256286Y-127011493D01*
X51561457Y-123836736D01*
X50092606Y-120582506D01*
X48849731Y-117260158D01*
X47832834Y-113881044D01*
X47041914Y-110456517D01*
X46476971Y-106997930D01*
X46138005Y-103516638D01*
X46025016Y-100023992D01*
X46138005Y-96531346D01*
X46476971Y-93050054D01*
X47041914Y-89591467D01*
X47832834Y-86166941D01*
X48849731Y-82787827D01*
X50092606Y-79465479D01*
X51561457Y-76211251D01*
X53256286Y-73036494D01*
X55158283Y-69981349D01*
X57242096Y-67082170D01*
X59497891Y-64344634D01*
X61915837Y-61774417D01*
X64486102Y-59377196D01*
X67198853Y-57158648D01*
X70044258Y-55124449D01*
X73012485Y-53280275D01*
X76093701Y-51631803D01*
X79278074Y-50184711D01*
X82555772Y-48944673D01*
X85916962Y-47917368D01*
X89351812Y-47108471D01*
X92850490Y-46523660D01*
X96403163Y-46168610D01*
X100000000Y-46048999D01*
X101803324Y-46079020D01*
X144500111Y-98524831D02*
X144549953Y-98527321D01*
X144599489Y-98531447D01*
X144648683Y-98537188D01*
X144697502Y-98544526D01*
X144745912Y-98553441D01*
X144793879Y-98563912D01*
X144841368Y-98575921D01*
X144888345Y-98589447D01*
X144934777Y-98604470D01*
X144980628Y-98620972D01*
X145025865Y-98638932D01*
X145070454Y-98658330D01*
X145114360Y-98679148D01*
X145157550Y-98701364D01*
X145199989Y-98724960D01*
X145241643Y-98749915D01*
X145282477Y-98776211D01*
X145322459Y-98803826D01*
X145361553Y-98832742D01*
X145399725Y-98862939D01*
X145436942Y-98894397D01*
X145473168Y-98927097D01*
X145508370Y-98961018D01*
X145542515Y-98996140D01*
X145575566Y-99032445D01*
X145607492Y-99069913D01*
X145638256Y-99108523D01*
X145667825Y-99148256D01*
X145696166Y-99189093D01*
X145723243Y-99231013D01*
X145749023Y-99273997D01*
X145796123Y-99362225D01*
X145836942Y-99452662D01*
X145871482Y-99544992D01*
X145899742Y-99638900D01*
X145921722Y-99734069D01*
X145937421Y-99830186D01*
X145946841Y-99926933D01*
X145949981Y-100023996D01*
X145946841Y-100121059D01*
X145937421Y-100217806D01*
X145921722Y-100313923D01*
X145899742Y-100409092D01*
X145871482Y-100503000D01*
X145836942Y-100595331D01*
X145796123Y-100685768D01*
X145749023Y-100773997D01*
X145696166Y-100858901D01*
X145638256Y-100939471D01*
X145575566Y-101015549D01*
X145508370Y-101086977D01*
X145436942Y-101153597D01*
X145361553Y-101215252D01*
X145282477Y-101271784D01*
X145199989Y-101323035D01*
X145114360Y-101368847D01*
X145025865Y-101409063D01*
X144934777Y-101443524D01*
X144841368Y-101472074D01*
X144745912Y-101494554D01*
X144648683Y-101510806D01*
X144549953Y-101520673D01*
X144449997Y-101523997D01*
X144399881Y-101523163D01*
X144350037Y-101520673D01*
X144300501Y-101516548D01*
X144251305Y-101510806D01*
X144202485Y-101503468D01*
X144154074Y-101494554D01*
X144106106Y-101484082D01*
X144058616Y-101472074D01*
X144011638Y-101458548D01*
X143965206Y-101443524D01*
X143919354Y-101427022D01*
X143874116Y-101409063D01*
X143829527Y-101389664D01*
X143785620Y-101368847D01*
X143742430Y-101346630D01*
X143699991Y-101323035D01*
X143658337Y-101298079D01*
X143617502Y-101271784D01*
X143577520Y-101244168D01*
X143538426Y-101215252D01*
X143500253Y-101185055D01*
X143463037Y-101153597D01*
X143426810Y-101120898D01*
X143391608Y-101086977D01*
X143357463Y-101051854D01*
X143324412Y-101015549D01*
X143292486Y-100978081D01*
X143261722Y-100939471D01*
X143232152Y-100899738D01*
X143203812Y-100858901D01*
X143176735Y-100816981D01*
X143150955Y-100773997D01*
X143103855Y-100685768D01*
X143063036Y-100595331D01*
X143028496Y-100503000D01*
X143000236Y-100409092D01*
X142978256Y-100313923D01*
X142962556Y-100217806D01*
X142953137Y-100121059D01*
X142949997Y-100023996D01*
X142953137Y-99926933D01*
X142962556Y-99830186D01*
X142978256Y-99734069D01*
X143000236Y-99638900D01*
X143028496Y-99544992D01*
X143063036Y-99452662D01*
X143103855Y-99362225D01*
X143150955Y-99273997D01*
X143203812Y-99189093D01*
X143261722Y-99108523D01*
X143324412Y-99032445D01*
X143391608Y-98961018D01*
X143463037Y-98894397D01*
X143538426Y-98832742D01*
X143617502Y-98776211D01*
X143699991Y-98724960D01*
X143785620Y-98679148D01*
X143874116Y-98638932D01*
X143965206Y-98604470D01*
X144058616Y-98575921D01*
X144154074Y-98553441D01*
X144251305Y-98537188D01*
X144350037Y-98527321D01*
X144449997Y-98523997D01*
X144500111Y-98524831D01*
X100077137Y-142976015D02*
X100153261Y-142981870D01*
X100228275Y-142991466D01*
X100302087Y-143004710D01*
X100374603Y-143021506D01*
X100445727Y-143041760D01*
X100515366Y-143065379D01*
X100583427Y-143092268D01*
X100649815Y-143122334D01*
X100714435Y-143155481D01*
X100777195Y-143191617D01*
X100837999Y-143230646D01*
X100896754Y-143272475D01*
X100953366Y-143317010D01*
X101007740Y-143364156D01*
X101059784Y-143413819D01*
X101109401Y-143465906D01*
X101156499Y-143520322D01*
X101200984Y-143576973D01*
X101242761Y-143635764D01*
X101281737Y-143696603D01*
X101317816Y-143759394D01*
X101350906Y-143824044D01*
X101380912Y-143890458D01*
X101407741Y-143958542D01*
X101431297Y-144028203D01*
X101451487Y-144099345D01*
X101468217Y-144171876D01*
X101481394Y-144245700D01*
X101490922Y-144320724D01*
X101496707Y-144396853D01*
X101498657Y-144473994D01*
X101496707Y-144551135D01*
X101490922Y-144627265D01*
X101481394Y-144702289D01*
X101468217Y-144776113D01*
X101451487Y-144848644D01*
X101431297Y-144919786D01*
X101407741Y-144989447D01*
X101380912Y-145057532D01*
X101350906Y-145123946D01*
X101317816Y-145188596D01*
X101281737Y-145251387D01*
X101242761Y-145312226D01*
X101200984Y-145371018D01*
X101156499Y-145427669D01*
X101109401Y-145482085D01*
X101059784Y-145534172D01*
X101007740Y-145583836D01*
X100953366Y-145630982D01*
X100896754Y-145675517D01*
X100837999Y-145717346D01*
X100777195Y-145756375D01*
X100714435Y-145792511D01*
X100649815Y-145825658D01*
X100583427Y-145855723D01*
X100515366Y-145882612D01*
X100445727Y-145906231D01*
X100374603Y-145926485D01*
X100302087Y-145943281D01*
X100228275Y-145956524D01*
X100153261Y-145966119D01*
X100077137Y-145971974D01*
X100000000Y-145973994D01*
X99922862Y-145971974D01*
X99846738Y-145966119D01*
X99771724Y-145956524D01*
X99697912Y-145943281D01*
X99625397Y-145926485D01*
X99554272Y-145906231D01*
X99484633Y-145882612D01*
X99416572Y-145855723D01*
X99350185Y-145825658D01*
X99285564Y-145792511D01*
X99222805Y-145756375D01*
X99162000Y-145717346D01*
X99103245Y-145675517D01*
X99046633Y-145630982D01*
X98992259Y-145583836D01*
X98940216Y-145534172D01*
X98890598Y-145482085D01*
X98843500Y-145427669D01*
X98799015Y-145371018D01*
X98757238Y-145312226D01*
X98718263Y-145251387D01*
X98682183Y-145188596D01*
X98649093Y-145123946D01*
X98619087Y-145057532D01*
X98592259Y-144989447D01*
X98568702Y-144919786D01*
X98548512Y-144848644D01*
X98531782Y-144776113D01*
X98518606Y-144702289D01*
X98509078Y-144627265D01*
X98503292Y-144551135D01*
X98501342Y-144473994D01*
X98503292Y-144396853D01*
X98509078Y-144320724D01*
X98518606Y-144245700D01*
X98531782Y-144171876D01*
X98548512Y-144099345D01*
X98568702Y-144028203D01*
X98592259Y-143958542D01*
X98619087Y-143890458D01*
X98649093Y-143824044D01*
X98682183Y-143759394D01*
X98718263Y-143696603D01*
X98757238Y-143635764D01*
X98799015Y-143576973D01*
X98843500Y-143520322D01*
X98890598Y-143465906D01*
X98940216Y-143413819D01*
X98992259Y-143364156D01*
X99046633Y-143317010D01*
X99103245Y-143272475D01*
X99162000Y-143230646D01*
X99222805Y-143191617D01*
X99285564Y-143155481D01*
X99350185Y-143122334D01*
X99416572Y-143092268D01*
X99484633Y-143065379D01*
X99554272Y-143041760D01*
X99625397Y-143021506D01*
X99697912Y-143004710D01*
X99771724Y-142991466D01*
X99846738Y-142981870D01*
X99922862Y-142976015D01*
X100000000Y-142973994D01*
X100077137Y-142976015D01*
X55600102Y-98524831D02*
X55649945Y-98527321D01*
X55699480Y-98531447D01*
X55748676Y-98537188D01*
X55797496Y-98544526D01*
X55845907Y-98553441D01*
X55893875Y-98563912D01*
X55941365Y-98575921D01*
X55988344Y-98589447D01*
X56034777Y-98604470D01*
X56080630Y-98620972D01*
X56125869Y-98638932D01*
X56170459Y-98658330D01*
X56214367Y-98679148D01*
X56257559Y-98701364D01*
X56299999Y-98724960D01*
X56341654Y-98749915D01*
X56382490Y-98776211D01*
X56422473Y-98803826D01*
X56461567Y-98832742D01*
X56499741Y-98862939D01*
X56536958Y-98894397D01*
X56573185Y-98927097D01*
X56608387Y-98961018D01*
X56642531Y-98996140D01*
X56675582Y-99032445D01*
X56707507Y-99069913D01*
X56738270Y-99108523D01*
X56767838Y-99148256D01*
X56796177Y-99189093D01*
X56823252Y-99231013D01*
X56849029Y-99273997D01*
X56896129Y-99362225D01*
X56936948Y-99452662D01*
X56971488Y-99544992D01*
X56999748Y-99638900D01*
X57021728Y-99734069D01*
X57037428Y-99830186D01*
X57046847Y-99926933D01*
X57049987Y-100023996D01*
X57046847Y-100121059D01*
X57037428Y-100217806D01*
X57021728Y-100313923D01*
X56999748Y-100409092D01*
X56971488Y-100503000D01*
X56936948Y-100595331D01*
X56896129Y-100685768D01*
X56849029Y-100773997D01*
X56796177Y-100858901D01*
X56738270Y-100939471D01*
X56675582Y-101015549D01*
X56608387Y-101086977D01*
X56536958Y-101153597D01*
X56461567Y-101215252D01*
X56382490Y-101271784D01*
X56299999Y-101323035D01*
X56214367Y-101368847D01*
X56125869Y-101409063D01*
X56034777Y-101443524D01*
X55941365Y-101472074D01*
X55845907Y-101494554D01*
X55748676Y-101510806D01*
X55649945Y-101520673D01*
X55549987Y-101523997D01*
X55499873Y-101523163D01*
X55450031Y-101520673D01*
X55400495Y-101516548D01*
X55351300Y-101510806D01*
X55302481Y-101503468D01*
X55254070Y-101494554D01*
X55206103Y-101484082D01*
X55158614Y-101472074D01*
X55111636Y-101458548D01*
X55065204Y-101443524D01*
X55019352Y-101427022D01*
X54974114Y-101409063D01*
X54929524Y-101389664D01*
X54885617Y-101368847D01*
X54842427Y-101346630D01*
X54799987Y-101323035D01*
X54758333Y-101298079D01*
X54717497Y-101271784D01*
X54677515Y-101244168D01*
X54638421Y-101215252D01*
X54600248Y-101185055D01*
X54563031Y-101153597D01*
X54526804Y-101120898D01*
X54491601Y-101086977D01*
X54457456Y-101051854D01*
X54424404Y-101015549D01*
X54392478Y-100978081D01*
X54361713Y-100939471D01*
X54332144Y-100899738D01*
X54303803Y-100858901D01*
X54276726Y-100816981D01*
X54250946Y-100773997D01*
X54203846Y-100685768D01*
X54163026Y-100595331D01*
X54128487Y-100503000D01*
X54100227Y-100409092D01*
X54078247Y-100313923D01*
X54062547Y-100217806D01*
X54053127Y-100121059D01*
X54049987Y-100023996D01*
X54053127Y-99926933D01*
X54062547Y-99830186D01*
X54078247Y-99734069D01*
X54100227Y-99638900D01*
X54128487Y-99544992D01*
X54163026Y-99452662D01*
X54203846Y-99362225D01*
X54250946Y-99273997D01*
X54303803Y-99189093D01*
X54361713Y-99108523D01*
X54424404Y-99032445D01*
X54491601Y-98961018D01*
X54563031Y-98894397D01*
X54638421Y-98832742D01*
X54717497Y-98776211D01*
X54799987Y-98724960D01*
X54885617Y-98679148D01*
X54974114Y-98638932D01*
X55065204Y-98604470D01*
X55158614Y-98575921D01*
X55254070Y-98553441D01*
X55351300Y-98537188D01*
X55450031Y-98527321D01*
X55549987Y-98523997D01*
X55600102Y-98524831D01*
X111713012Y-129399096D02*
X111713012Y-93598986D01*
X111713012Y-93598986D02*
X111712494Y-93598998D01*
X111712524Y-129398982D02*
X111713012Y-129399096D01*
X111712494Y-93598998D02*
X111707475Y-93396311D01*
X111707500Y-129601670D02*
X111712524Y-129398982D01*
X111707475Y-93396311D02*
X111692501Y-93194999D01*
X111692522Y-129802982D02*
X111707500Y-129601670D01*
X111692501Y-93194999D02*
X111667711Y-92995398D01*
X111667727Y-130002584D02*
X111692522Y-129802982D01*
X111667711Y-92995398D02*
X111633243Y-92797842D01*
X111633256Y-130200140D02*
X111667727Y-130002584D01*
X111633243Y-92797842D02*
X111589236Y-92602668D01*
X111589246Y-130395315D02*
X111633256Y-130200140D01*
X111589236Y-92602668D02*
X111535829Y-92410209D01*
X111535836Y-130587774D02*
X111589246Y-130395315D01*
X111535829Y-92410209D02*
X111473161Y-92220801D01*
X111473166Y-130777182D02*
X111535836Y-130587774D01*
X111473161Y-92220801D02*
X111401371Y-92034779D01*
X111401374Y-130963204D02*
X111473166Y-130777182D01*
X111401371Y-92034779D02*
X111320597Y-91852478D01*
X111320600Y-131145506D02*
X111401374Y-130963204D01*
X111320597Y-91852478D02*
X111230979Y-91674232D01*
X111230981Y-131323751D02*
X111320600Y-131145506D01*
X111230979Y-91674232D02*
X111132656Y-91500378D01*
X111132657Y-131497605D02*
X111230981Y-131323751D01*
X111132656Y-91500378D02*
X111025766Y-91331250D01*
X111025767Y-131666734D02*
X111132657Y-131497605D01*
X111025766Y-91331250D02*
X110910449Y-91167182D01*
X110910449Y-131830801D02*
X111025767Y-131666734D01*
X110910449Y-91167182D02*
X110786843Y-91008511D01*
X110786843Y-131989472D02*
X110910449Y-131830801D01*
X110786843Y-91008511D02*
X110655087Y-90855571D01*
X110655087Y-132142413D02*
X110786843Y-131989472D01*
X110655087Y-90855571D02*
X110515319Y-90708697D01*
X110515319Y-132289286D02*
X110655087Y-132142413D01*
X110515319Y-90708697D02*
X110368443Y-90568928D01*
X110368443Y-132429056D02*
X110515319Y-132289286D01*
X110368443Y-90568928D02*
X110215500Y-90437170D01*
X110215500Y-132560814D02*
X110368443Y-132429056D01*
X110215500Y-90437170D02*
X110056827Y-90313562D01*
X110056827Y-132684422D02*
X110215500Y-132560814D01*
X110056827Y-90313562D02*
X109892758Y-90198244D01*
X109892758Y-132799740D02*
X110056827Y-132684422D01*
X109892758Y-90198244D02*
X109723628Y-90091354D01*
X109723628Y-90091354D02*
X109549772Y-89993030D01*
X109723627Y-132906631D02*
X109892758Y-132799740D01*
X109549772Y-89993030D02*
X109371526Y-89903412D01*
X109549771Y-133004955D02*
X109723627Y-132906631D01*
X109371526Y-89903412D02*
X109189224Y-89822638D01*
X109371523Y-133094573D02*
X109549771Y-133004955D01*
X109189224Y-89822638D02*
X109003201Y-89750848D01*
X109189220Y-133175347D02*
X109371523Y-133094573D01*
X109003201Y-89750848D02*
X108813792Y-89688179D01*
X109003195Y-133247138D02*
X109189220Y-133175347D01*
X108813792Y-89688179D02*
X108621333Y-89634771D01*
X108813785Y-133309807D02*
X109003195Y-133247138D01*
X108621333Y-89634771D02*
X108426158Y-89590762D01*
X108621323Y-133363216D02*
X108813785Y-133309807D01*
X108426158Y-89590762D02*
X108228602Y-89556292D01*
X108426145Y-133407225D02*
X108621323Y-133363216D01*
X108228602Y-89556292D02*
X108029000Y-89531498D01*
X108228585Y-133441696D02*
X108426145Y-133407225D01*
X108029000Y-89531498D02*
X107827688Y-89516520D01*
X108028980Y-133466489D02*
X108228585Y-133441696D01*
X107827688Y-89516520D02*
X107625000Y-89511496D01*
X107827663Y-133481468D02*
X108028980Y-133466489D01*
X107625213Y-133486384D02*
X107624969Y-133486491D01*
X107625000Y-89511496D02*
X107625213Y-89511493D01*
X107624969Y-133486491D02*
X107827663Y-133481468D01*
X105238648Y-89511493D02*
X107625213Y-89511493D01*
X105175789Y-89509936D02*
X105238648Y-89511493D01*
X105113237Y-89505283D02*
X105175789Y-89509936D01*
X105051218Y-89497580D02*
X105113237Y-89505283D01*
X104989836Y-89486871D02*
X105051218Y-89497580D01*
X104929195Y-89473198D02*
X104989836Y-89486871D01*
X104869398Y-89456604D02*
X104929195Y-89473198D01*
X104810550Y-89437133D02*
X104869398Y-89456604D01*
X104752754Y-89414828D02*
X104810550Y-89437133D01*
X104696115Y-89389732D02*
X104752754Y-89414828D01*
X104640736Y-89361888D02*
X104696115Y-89389732D01*
X104586722Y-89331339D02*
X104640736Y-89361888D01*
X104534176Y-89298128D02*
X104586722Y-89331339D01*
X104483203Y-89262298D02*
X104534176Y-89298128D01*
X104433907Y-89223893D02*
X104483203Y-89262298D01*
X104386391Y-89182956D02*
X104433907Y-89223893D01*
X104340759Y-89139529D02*
X104386391Y-89182956D01*
X104297334Y-89093894D02*
X104340759Y-89139529D01*
X104256396Y-89046375D02*
X104297334Y-89093894D01*
X104217990Y-88997075D02*
X104256396Y-89046375D01*
X104182159Y-88946098D02*
X104217990Y-88997075D01*
X104148945Y-88893549D02*
X104182159Y-88946098D01*
X104118393Y-88839532D02*
X104148945Y-88893549D01*
X104090545Y-88784150D02*
X104118393Y-88839532D01*
X104065445Y-88727508D02*
X104090545Y-88784150D01*
X104043135Y-88669710D02*
X104065445Y-88727508D01*
X104023660Y-88610860D02*
X104043135Y-88669710D01*
X104007062Y-88551062D02*
X104023660Y-88610860D01*
X103993385Y-88490421D02*
X104007062Y-88551062D01*
X103982672Y-88429039D02*
X103993385Y-88490421D01*
X103974966Y-88367022D02*
X103982672Y-88429039D01*
X103970311Y-88304473D02*
X103974966Y-88367022D01*
X103968750Y-88241496D02*
X103970311Y-88304473D01*
X103968750Y-88241496D02*
X103968658Y-88241496D01*
X103968750Y-84431498D02*
X103967188Y-84368522D01*
X103968658Y-88241496D02*
X103968658Y-84431495D01*
X103968658Y-84431495D02*
X103968750Y-84431498D01*
X103967188Y-84368522D02*
X103962533Y-84305974D01*
X103962533Y-84305974D02*
X103954827Y-84243957D01*
X103954827Y-84243957D02*
X103944114Y-84182575D01*
X103944114Y-84182575D02*
X103930437Y-84121934D01*
X103930437Y-84121934D02*
X103913839Y-84062136D01*
X103913839Y-84062136D02*
X103894364Y-84003286D01*
X103894364Y-84003286D02*
X103872055Y-83945488D01*
X103872055Y-83945488D02*
X103846954Y-83888846D01*
X103846954Y-83888846D02*
X103819106Y-83833464D01*
X103819106Y-83833464D02*
X103788554Y-83779447D01*
X103788554Y-83779447D02*
X103755340Y-83726898D01*
X103755340Y-83726898D02*
X103719509Y-83675922D01*
X103719509Y-83675922D02*
X103681103Y-83626622D01*
X103681103Y-83626622D02*
X103640166Y-83579103D01*
X103640166Y-83579103D02*
X103596740Y-83533469D01*
X103596740Y-83533469D02*
X103551108Y-83490042D01*
X103551108Y-83490042D02*
X103503591Y-83449105D01*
X103503591Y-83449105D02*
X103454293Y-83410700D01*
X103454293Y-83410700D02*
X103403318Y-83374870D01*
X103403318Y-83374870D02*
X103350771Y-83341659D01*
X103350771Y-83341659D02*
X103296755Y-83311109D01*
X103296755Y-83311109D02*
X103241375Y-83283265D01*
X103241375Y-83283265D02*
X103184734Y-83258168D01*
X103184734Y-83258168D02*
X103126937Y-83235863D01*
X103126937Y-83235863D02*
X103068088Y-83216391D01*
X103068088Y-83216391D02*
X103008291Y-83199797D01*
X103008291Y-83199797D02*
X102947650Y-83186124D01*
X102947650Y-83186124D02*
X102886269Y-83175414D01*
X102886269Y-83175414D02*
X102824253Y-83167711D01*
X102824253Y-83167711D02*
X102761705Y-83163058D01*
X102761705Y-83163058D02*
X102698730Y-83161498D01*
X102698730Y-83161498D02*
X102698669Y-83161494D01*
X102698669Y-83161494D02*
X97301147Y-83161494D01*
X97301239Y-83161498D02*
X97238258Y-83163059D01*
X97301147Y-83161494D02*
X97301239Y-83161498D01*
X97238258Y-83163059D02*
X97175706Y-83167713D01*
X97175706Y-83167713D02*
X97113685Y-83175416D01*
X97113685Y-83175416D02*
X97052301Y-83186127D01*
X97052301Y-83186127D02*
X96991657Y-83199801D01*
X96991657Y-83199801D02*
X96931858Y-83216395D01*
X96931858Y-83216395D02*
X96873007Y-83235867D01*
X96873007Y-83235867D02*
X96815208Y-83258173D01*
X96815208Y-83258173D02*
X96758566Y-83283270D01*
X96758566Y-83283270D02*
X96703185Y-83311115D01*
X96703185Y-83311115D02*
X96649168Y-83341665D01*
X96649168Y-83341665D02*
X96596620Y-83374877D01*
X96596620Y-83374877D02*
X96545645Y-83410707D01*
X96545645Y-83410707D02*
X96496347Y-83449112D01*
X96496347Y-83449112D02*
X96448830Y-83490050D01*
X96448830Y-83490050D02*
X96403198Y-83533477D01*
X96403198Y-83533477D02*
X96359768Y-83579111D01*
X96359768Y-83579111D02*
X96318828Y-83626631D01*
X96318828Y-83626631D02*
X96280421Y-83675931D01*
X96280421Y-83675931D02*
X96244590Y-83726908D01*
X96244590Y-83726908D02*
X96211378Y-83779457D01*
X96211378Y-83779457D02*
X96180828Y-83833475D01*
X96180828Y-83833475D02*
X96152984Y-83888857D01*
X96152984Y-83888857D02*
X96127887Y-83945499D01*
X96127887Y-83945499D02*
X96105582Y-84003298D01*
X96105582Y-84003298D02*
X96086112Y-84062148D01*
X96086112Y-84062148D02*
X96069518Y-84121946D01*
X96069518Y-84121946D02*
X96055845Y-84182588D01*
X96055845Y-84182588D02*
X96045136Y-84243970D01*
X96045136Y-84243970D02*
X96037433Y-84305988D01*
X96037433Y-84305988D02*
X96032780Y-84368537D01*
X96032780Y-84368537D02*
X96031219Y-84431514D01*
X96031219Y-84431514D02*
X96031158Y-84431495D01*
X96031158Y-88241492D02*
X96031250Y-88241485D01*
X96031158Y-84431495D02*
X96031158Y-88241492D01*
X96029689Y-88304460D02*
X96031250Y-88241485D01*
X96025034Y-88367009D02*
X96029689Y-88304460D01*
X96017330Y-88429026D02*
X96025034Y-88367009D01*
X96006619Y-88490408D02*
X96017330Y-88429026D01*
X95992944Y-88551049D02*
X96006619Y-88490408D01*
X95976349Y-88610847D02*
X95992944Y-88551049D01*
X95956877Y-88669697D02*
X95976349Y-88610847D01*
X95934570Y-88727496D02*
X95956877Y-88669697D01*
X95909472Y-88784138D02*
X95934570Y-88727496D01*
X95881627Y-88839519D02*
X95909472Y-88784138D01*
X95851077Y-88893537D02*
X95881627Y-88839519D01*
X95817866Y-88946086D02*
X95851077Y-88893537D01*
X95782036Y-88997063D02*
X95817866Y-88946086D01*
X95743632Y-89046363D02*
X95782036Y-88997063D01*
X95702696Y-89093883D02*
X95743632Y-89046363D01*
X95659271Y-89139518D02*
X95702696Y-89093883D01*
X95613638Y-89182945D02*
X95659271Y-89139518D01*
X95566120Y-89223883D02*
X95613638Y-89182945D01*
X95516821Y-89262289D02*
X95566120Y-89223883D01*
X95465844Y-89298119D02*
X95516821Y-89262289D01*
X95413295Y-89331331D02*
X95465844Y-89298119D01*
X95359276Y-89361881D02*
X95413295Y-89331331D01*
X95303893Y-89389725D02*
X95359276Y-89361881D01*
X95247249Y-89414822D02*
X95303893Y-89389725D01*
X95189449Y-89437128D02*
X95247249Y-89414822D01*
X95130598Y-89456600D02*
X95189449Y-89437128D01*
X95070798Y-89473194D02*
X95130598Y-89456600D01*
X95010155Y-89486868D02*
X95070798Y-89473194D01*
X94948772Y-89497578D02*
X95010155Y-89486868D01*
X94886754Y-89505282D02*
X94948772Y-89497578D01*
X94824206Y-89509936D02*
X94886754Y-89505282D01*
X94761230Y-89511496D02*
X94824206Y-89509936D01*
X94761230Y-89511496D02*
X94761169Y-89511493D01*
X92374969Y-133486491D02*
X92374633Y-133486384D01*
X92374969Y-89511496D02*
X92172281Y-89516521D01*
X92374633Y-133486384D02*
X107625213Y-133486384D01*
X92374633Y-89511493D02*
X94761169Y-89511493D01*
X92374633Y-89511493D02*
X92374969Y-89511496D01*
X92172281Y-133481469D02*
X92374969Y-133486491D01*
X92172281Y-89516521D02*
X91970969Y-89531499D01*
X91970969Y-133466492D02*
X92172281Y-133481469D01*
X91970969Y-89531499D02*
X91771367Y-89556293D01*
X91771367Y-133441699D02*
X91970969Y-133466492D01*
X91771367Y-89556293D02*
X91573812Y-89590764D01*
X91573812Y-133407229D02*
X91771367Y-133441699D01*
X91573812Y-89590764D02*
X91378637Y-89634773D01*
X91378637Y-133363221D02*
X91573812Y-133407229D01*
X91378637Y-89634773D02*
X91186178Y-89688182D01*
X91186178Y-133309813D02*
X91378637Y-133363221D01*
X91186178Y-89688182D02*
X90996770Y-89750851D01*
X90996770Y-133247145D02*
X91186178Y-133309813D01*
X90996770Y-89750851D02*
X90810749Y-89822642D01*
X90810749Y-133175355D02*
X90996770Y-133247145D01*
X90810749Y-89822642D02*
X90628448Y-89903416D01*
X90628448Y-133094582D02*
X90810749Y-133175355D01*
X90628448Y-89903416D02*
X90450204Y-89993034D01*
X90450204Y-133004964D02*
X90628448Y-133094582D01*
X90450204Y-89993034D02*
X90276351Y-90091357D01*
X90276351Y-132906641D02*
X90450204Y-133004964D01*
X90276351Y-90091357D02*
X90107224Y-90198248D01*
X90107224Y-132799751D02*
X90276351Y-132906641D01*
X90107224Y-90198248D02*
X89943158Y-90313566D01*
X89943158Y-132684434D02*
X90107224Y-132799751D01*
X89943158Y-90313566D02*
X89784489Y-90437173D01*
X89784489Y-132560827D02*
X89943158Y-132684434D01*
X89784489Y-90437173D02*
X89631551Y-90568931D01*
X89631551Y-132429070D02*
X89784489Y-132560827D01*
X89631551Y-90568931D02*
X89484680Y-90708701D01*
X89484680Y-132289302D02*
X89631551Y-132429070D01*
X89484680Y-90708701D02*
X89344913Y-90855576D01*
X89344913Y-132142427D02*
X89484680Y-132289302D01*
X89344913Y-90855576D02*
X89213156Y-91008516D01*
X89213156Y-131989485D02*
X89344913Y-132142427D01*
X89213156Y-91008516D02*
X89089550Y-91167188D01*
X89089550Y-131830814D02*
X89213156Y-131989485D01*
X89089550Y-91167188D02*
X88974232Y-91331256D01*
X88974233Y-131666746D02*
X89089550Y-131830814D01*
X88974232Y-91331256D02*
X88867342Y-91500384D01*
X88867343Y-131497617D02*
X88974233Y-131666746D01*
X88867342Y-91500384D02*
X88769018Y-91674239D01*
X88769020Y-131323763D02*
X88867343Y-131497617D01*
X88769018Y-91674239D02*
X88679399Y-91852485D01*
X88679402Y-131145518D02*
X88769020Y-131323763D01*
X88679399Y-91852485D02*
X88598625Y-92034786D01*
X88598629Y-130963217D02*
X88679402Y-131145518D01*
X88598625Y-92034786D02*
X88526833Y-92220808D01*
X88526838Y-130777195D02*
X88598629Y-130963217D01*
X88526833Y-92220808D02*
X88464163Y-92410216D01*
X88464170Y-130587787D02*
X88526838Y-130777195D01*
X88464163Y-92410216D02*
X88410754Y-92602675D01*
X88410764Y-130395328D02*
X88464170Y-130587787D01*
X88410754Y-92602675D02*
X88366744Y-92797850D01*
X88366757Y-130200154D02*
X88410764Y-130395328D01*
X88366744Y-92797850D02*
X88332272Y-92995405D01*
X88332288Y-130002598D02*
X88366757Y-130200154D01*
X88332272Y-92995405D02*
X88307477Y-93195006D01*
X88307498Y-129802997D02*
X88332288Y-130002598D01*
X88307477Y-93195006D02*
X88292499Y-93396318D01*
X88292524Y-129601685D02*
X88307498Y-129802997D01*
X88292499Y-93396318D02*
X88287475Y-93599006D01*
X88287506Y-129398997D02*
X88292524Y-129601685D01*
X88287475Y-93599006D02*
X88286773Y-93598986D01*
X88286773Y-129399096D02*
X88287506Y-129398997D01*
X88286773Y-129399096D02*
X88286773Y-93598986D01*
%TD*%
M02*
