M48
; DRILL file {KiCad 8.0.5} date 2025-02-19T23:04:37-0500
; FORMAT={-:-/ absolute / inch / decimal}
; #@! TF.CreationDate,2025-02-19T23:04:37-05:00
; #@! TF.GenerationSoftware,Kicad,Pcbnew,8.0.5
; #@! TF.FileFunction,NonPlated,1,2,NPTH
FMAT,2
INCH
; #@! TA.AperFunction,NonPlated,NPTH,ComponentDrill
T1C0.0256
; #@! TA.AperFunction,NonPlated,NPTH,ComponentDrill
T2C0.0276
; #@! TA.AperFunction,NonPlated,NPTH,ComponentDrill
T3C0.0394
; #@! TA.AperFunction,NonPlated,NPTH,ComponentDrill
T4C0.0500
; #@! TA.AperFunction,NonPlated,NPTH,ComponentDrill
T5C0.0941
; #@! TA.AperFunction,NonPlated,NPTH,ComponentDrill
T6C0.1260
; #@! TA.AperFunction,NonPlated,NPTH,ComponentDrill
T7C0.1358
%
G90
G05
T1
X3.3458Y-2.1679
X3.5656Y-2.109
T2
X3.937Y-1.878
X3.937Y-1.9567
X4.1096Y-1.9642
X4.1165Y-1.8858
X4.2362Y-2.378
X4.2362Y-2.4567
X4.2809Y-1.9868
X4.2946Y-1.9092
X4.4496Y-2.0242
X4.4699Y-1.9481
X5.4409Y-3.748
X5.4409Y-3.8268
T3
X5.8976Y-3.8031
X5.8976Y-4.0709
T4
X5.6787Y-3.2362
X5.6787Y-3.7087
T5
X2.622Y-5.3516
X5.252Y-2.5224
T6
X2.187Y-3.937
X3.937Y-2.187
X3.937Y-5.687
X5.687Y-3.937
T7
X2.622Y-2.8504
X3.252Y-5.0236
X4.622Y-2.8504
X5.252Y-5.0236
M30
