M48
; DRILL file {KiCad 8.0.5} date 2025-02-19T23:04:37-0500
; FORMAT={-:-/ absolute / inch / decimal}
; #@! TF.CreationDate,2025-02-19T23:04:37-05:00
; #@! TF.GenerationSoftware,Kicad,Pcbnew,8.0.5
; #@! TF.FileFunction,Plated,1,2,PTH
FMAT,2
INCH
; #@! TA.AperFunction,Plated,PTH,ComponentDrill
T1C0.0079
; #@! TA.AperFunction,Plated,PTH,ViaDrill
T2C0.0118
; #@! TA.AperFunction,Plated,PTH,ViaDrill
T3C0.0138
; #@! TA.AperFunction,Plated,PTH,ViaDrill
T4C0.0157
; #@! TA.AperFunction,Plated,PTH,ComponentDrill
T5C0.0197
; #@! TA.AperFunction,Plated,PTH,ViaDrill
T6C0.0236
; #@! TA.AperFunction,Plated,PTH,ComponentDrill
T7C0.0236
; #@! TA.AperFunction,Plated,PTH,ComponentDrill
T8C0.0256
; #@! TA.AperFunction,Plated,PTH,ComponentDrill
T9C0.0300
; #@! TA.AperFunction,Plated,PTH,ViaDrill
T10C0.0315
; #@! TA.AperFunction,Plated,PTH,ComponentDrill
T11C0.0315
; #@! TA.AperFunction,Plated,PTH,ComponentDrill
T12C0.0374
; #@! TA.AperFunction,Plated,PTH,ComponentDrill
T13C0.0394
; #@! TA.AperFunction,Plated,PTH,ComponentDrill
T14C0.0402
; #@! TA.AperFunction,Plated,PTH,ComponentDrill
T15C0.0591
; #@! TA.AperFunction,Plated,PTH,ViaDrill
T16C0.0630
; #@! TA.AperFunction,Plated,PTH,ComponentDrill
T17C0.0669
%
G90
G05
T1
X4.1831Y-5.3217
X4.1831Y-5.3728
X4.1831Y-5.424
X4.2343Y-5.3217
X4.2343Y-5.3728
X4.2343Y-5.424
T2
X2.2835Y-2.8228
X2.4803Y-3.7421
X2.491Y-3.6014
X3.5152Y-2.9366
X3.5327Y-3.0527
X3.5352Y-2.9618
X3.9764Y-3.1394
X4.0591Y-3.1693
X4.0669Y-2.3661
X4.0748Y-2.4291
X4.1276Y-2.4331
X4.1398Y-2.6654
X4.15Y-2.0709
X4.1654Y-2.1654
X4.189Y-2.1654
X4.3386Y-2.5669
X5.1548Y-3.046
X5.171Y-3.0209
X5.2493Y-3.1405
X5.2715Y-3.1197
X5.4921Y-3.1575
T3
X2.0974Y-4.1929
X2.3583Y-4.2323
X2.3661Y-4.1693
X2.3701Y-2.811
X2.5Y-4.1378
X3.4016Y-2.5335
X3.4344Y-2.9852
X3.437Y-2.8661
X3.4429Y-2.53
X3.4494Y-2.7839
X3.4724Y-2.6693
X3.5157Y-2.7476
X3.626Y-3.0984
X3.6344Y-2.8018
X3.6594Y-2.3386
X3.6772Y-2.5354
X3.6811Y-2.7362
X3.6827Y-2.998
X3.7071Y-2.5354
X3.8366Y-1.9005
X3.8465Y-3.1732
X3.8681Y-3.1492
X3.8706Y-2.4146
X3.9094Y-1.9094
X3.9331Y-2.4291
X3.9665Y-3.0
X3.9796Y-3.1882
X3.9921Y-1.8543
X4.0705Y-2.5413
X4.0787Y-1.8819
X4.0825Y-2.3187
X4.0906Y-2.2126
X4.098Y-2.6504
X4.0992Y-3.0396
X4.1299Y-2.8033
X4.1299Y-2.9528
X4.1339Y-2.6024
X4.1811Y-3.0669
X4.1811Y-3.0969
X4.1894Y-3.2087
X4.234Y-2.8658
X4.2593Y-1.9055
X4.2697Y-2.8453
X4.2717Y-2.8012
X4.2992Y-3.0591
X4.304Y-2.7412
X4.3652Y-2.9639
X4.4094Y-2.3095
X4.4094Y-2.6181
X4.4213Y-2.7943
X4.424Y-2.4567
X4.4368Y-1.9354
X4.4705Y-2.6575
X4.4715Y-2.5882
X4.6063Y-1.9646
X5.0925Y-2.4035
X5.1772Y-2.7402
X5.3465Y-2.5
X5.4409Y-2.9094
X5.4488Y-2.9415
X5.5384Y-2.5974
X5.622Y-2.9567
T4
X2.0748Y-3.622
X2.1158Y-4.8796
X2.1177Y-3.4016
X2.1181Y-3.4803
X2.1575Y-3.7047
X2.1878Y-2.9122
X2.1965Y-3.4016
X2.1969Y-3.0394
X2.1969Y-3.4803
X2.248Y-3.622
X2.2919Y-2.9209
X2.3779Y-2.9133
X2.4291Y-5.1732
X2.4374Y-4.3031
X2.4961Y-3.0236
X3.1503Y-2.2297
X3.3028Y-5.5197
X3.3067Y-5.6496
X3.4277Y-3.0673
X3.4488Y-5.7323
X3.6142Y-5.2992
X3.8311Y-3.2205
X3.8425Y-5.3425
X3.8742Y-1.8505
X3.9252Y-5.3337
X4.0185Y-3.0378
X4.0653Y-5.3813
X4.2411Y-2.3199
X4.3386Y-2.2283
X4.3422Y-3.4883
X4.3819Y-5.4992
X4.3819Y-3.4646
X4.4044Y-3.4297
X4.4276Y-5.302
X4.4276Y-5.3793
X4.5846Y-2.4508
X4.7697Y-2.1024
X4.7717Y-2.374
X5.0315Y-2.9882
X5.0315Y-3.2075
X5.2086Y-3.02
X5.4488Y-4.0354
X5.4803Y-2.685
X5.5118Y-3.9921
X5.5394Y-3.7224
X5.5965Y-2.685
X5.5984Y-3.0079
X5.6969Y-3.0827
X5.7776Y-3.25
T5
X5.502Y-3.2717
X5.502Y-3.311
X5.5413Y-3.2717
X5.5413Y-3.311
T6
X3.4685Y-3.4091
X3.4685Y-3.1378
X3.7549Y-3.2549
X5.2581Y-3.014
X5.4724Y-4.2441
X5.5197Y-3.4134
X5.5866Y-4.122
X5.7988Y-3.4169
T8
X4.2652Y-3.3376
X4.2652Y-3.3876
X4.3152Y-3.3376
X4.3152Y-3.3876
X4.3652Y-3.3376
X4.3652Y-3.3876
T9
X2.1083Y-4.2717
X2.1359Y-4.3679
X2.1634Y-4.464
X2.191Y-4.5601
X2.3006Y-4.2166
X2.3281Y-4.3127
X2.3557Y-4.4089
X2.3833Y-4.505
X5.8037Y-4.3336
T10
X2.0748Y-4.7598
X2.141Y-4.9902
X2.1853Y-2.8151
X2.2827Y-5.0146
X2.389Y-5.0146
X2.862Y-2.287
X2.862Y-2.387
X2.862Y-2.487
X2.937Y-2.287
X2.937Y-2.387
X2.937Y-2.487
X3.012Y-2.287
X3.012Y-2.387
X3.012Y-2.487
X3.6142Y-3.2598
X3.6142Y-3.4016
X4.1654Y-5.8661
X4.1654Y-5.9134
X4.2047Y-5.8898
X4.2441Y-5.8661
X4.2441Y-5.9134
X5.5005Y-2.7869
T12
X4.4606Y-5.7638
X4.5591Y-5.7638
X4.6575Y-5.7638
T13
X3.8872Y-5.9843
X3.9872Y-5.9843
T14
X5.7559Y-3.3543
X5.7559Y-3.4724
X5.7559Y-3.5906
T15
X2.1575Y-3.622
T16
X5.6339Y-4.5037
T17
X2.0575Y-3.522
X2.0575Y-3.722
X2.2575Y-3.522
X2.2575Y-3.722
T7
G00X3.258Y-2.0577
M15
G01X3.2498Y-2.0273
M16
G05
G00X3.3021Y-2.2224
M15
G01X3.2909Y-2.1806
M16
G05
G00X3.5865Y-1.9697
M15
G01X3.5784Y-1.9393
M16
G05
G00X3.6307Y-2.1343
M15
G01X3.6195Y-2.0925
M16
G05
T11
G00X5.6185Y-4.8423
M15
G01X5.6253Y-4.8238
M16
G05
G00X5.8003Y-4.3429
M15
G01X5.8071Y-4.3244
M16
G05
M30
