%TF.GenerationSoftware,KiCad,Pcbnew,8.0.5*%
%TF.CreationDate,2025-02-19T23:04:31-05:00*%
%TF.ProjectId,airbrake_mod,61697262-7261-46b6-955f-6d6f642e6b69,rev?*%
%TF.SameCoordinates,Original*%
%TF.FileFunction,Soldermask,Bot*%
%TF.FilePolarity,Negative*%
%FSLAX46Y46*%
G04 Gerber Fmt 4.6, Leading zero omitted, Abs format (unit mm)*
G04 Created by KiCad (PCBNEW 8.0.5) date 2025-02-19 23:04:31*
%MOMM*%
%LPD*%
G01*
G04 APERTURE LIST*
G04 Aperture macros list*
%AMRoundRect*
0 Rectangle with rounded corners*
0 $1 Rounding radius*
0 $2 $3 $4 $5 $6 $7 $8 $9 X,Y pos of 4 corners*
0 Add a 4 corners polygon primitive as box body*
4,1,4,$2,$3,$4,$5,$6,$7,$8,$9,$2,$3,0*
0 Add four circle primitives for the rounded corners*
1,1,$1+$1,$2,$3*
1,1,$1+$1,$4,$5*
1,1,$1+$1,$6,$7*
1,1,$1+$1,$8,$9*
0 Add four rect primitives between the rounded corners*
20,1,$1+$1,$2,$3,$4,$5,0*
20,1,$1+$1,$4,$5,$6,$7,0*
20,1,$1+$1,$6,$7,$8,$9,0*
20,1,$1+$1,$8,$9,$2,$3,0*%
%AMHorizOval*
0 Thick line with rounded ends*
0 $1 width*
0 $2 $3 position (X,Y) of the first rounded end (center of the circle)*
0 $4 $5 position (X,Y) of the second rounded end (center of the circle)*
0 Add line between two ends*
20,1,$1,$2,$3,$4,$5,0*
0 Add two circle primitives to create the rounded ends*
1,1,$1,$2,$3*
1,1,$1,$4,$5*%
G04 Aperture macros list end*
%ADD10C,0.000000*%
%ADD11C,1.000000*%
%ADD12R,1.700000X1.700000*%
%ADD13O,1.700000X1.700000*%
%ADD14R,0.850000X0.850000*%
%ADD15O,0.850000X0.850000*%
%ADD16C,2.390000*%
%ADD17C,3.450000*%
%ADD18C,1.524000*%
%ADD19RoundRect,0.250000X0.600000X0.725000X-0.600000X0.725000X-0.600000X-0.725000X0.600000X-0.725000X0*%
%ADD20O,1.700000X1.950000*%
%ADD21O,2.020000X1.500000*%
%ADD22RoundRect,0.250001X0.759999X-0.499999X0.759999X0.499999X-0.759999X0.499999X-0.759999X-0.499999X0*%
%ADD23C,1.270000*%
%ADD24C,0.700000*%
%ADD25C,3.200000*%
%ADD26C,2.050000*%
%ADD27C,2.250000*%
%ADD28HorizOval,1.600000X0.085505X0.234923X-0.085505X-0.234923X0*%
%ADD29HorizOval,1.000000X-0.103528X0.386370X0.103528X-0.386370X0*%
%ADD30HorizOval,1.000000X-0.142350X0.531259X0.142350X-0.531259X0*%
%ADD31C,0.650000*%
%ADD32R,1.000000X1.000000*%
%ADD33O,1.000000X1.000000*%
%ADD34RoundRect,0.218750X0.256250X-0.218750X0.256250X0.218750X-0.256250X0.218750X-0.256250X-0.218750X0*%
G04 APERTURE END LIST*
D10*
%TO.C,GL4*%
G36*
X128039041Y-84653285D02*
G01*
X128246237Y-84756029D01*
X128512946Y-84902876D01*
X128800785Y-85072672D01*
X129071372Y-85244262D01*
X129282419Y-85389205D01*
X129403926Y-85493552D01*
X129423697Y-85560843D01*
X129360471Y-85615117D01*
X129284582Y-85666077D01*
X129100524Y-85811763D01*
X128890022Y-85995943D01*
X128755199Y-86116000D01*
X128596838Y-86245360D01*
X128514656Y-86296417D01*
X128506630Y-86293055D01*
X128444796Y-86194048D01*
X128350965Y-85982064D01*
X128237976Y-85689914D01*
X128118670Y-85350412D01*
X128005890Y-84996369D01*
X127967513Y-84859816D01*
X127929095Y-84684395D01*
X127930996Y-84615770D01*
X128039041Y-84653285D01*
G37*
G36*
X131429492Y-108591413D02*
G01*
X131866975Y-108602064D01*
X132331990Y-108617421D01*
X132684731Y-108636682D01*
X132952650Y-108662716D01*
X133163196Y-108698391D01*
X133343820Y-108746577D01*
X133521971Y-108810144D01*
X133854592Y-108968214D01*
X134321373Y-109325113D01*
X134685069Y-109802415D01*
X134946867Y-110401853D01*
X135107955Y-111125161D01*
X135153057Y-111697285D01*
X135113474Y-112406925D01*
X134973682Y-113075668D01*
X134741143Y-113670450D01*
X134423321Y-114158206D01*
X134176777Y-114379144D01*
X133806321Y-114604352D01*
X133382268Y-114787463D01*
X132959863Y-114900457D01*
X132840918Y-114914721D01*
X132545877Y-114933714D01*
X132150982Y-114947533D01*
X131693111Y-114955028D01*
X131209145Y-114955050D01*
X129847000Y-114943530D01*
X129823307Y-114402679D01*
X129799615Y-113861827D01*
X131288184Y-113861827D01*
X131529106Y-113861385D01*
X132045044Y-113855680D01*
X132433829Y-113842081D01*
X132719199Y-113818936D01*
X132924894Y-113784589D01*
X133074652Y-113737387D01*
X133358848Y-113587212D01*
X133672662Y-113298970D01*
X133888685Y-112910203D01*
X134013484Y-112407774D01*
X134053625Y-111778546D01*
X134025473Y-111263225D01*
X133904352Y-110707643D01*
X133686364Y-110277009D01*
X133370082Y-109968729D01*
X132954080Y-109780209D01*
X132826831Y-109758403D01*
X132546005Y-109733531D01*
X132163985Y-109713708D01*
X131713974Y-109700559D01*
X131229177Y-109695712D01*
X129806937Y-109695265D01*
X129806937Y-109125165D01*
X129806937Y-108555065D01*
X131429492Y-108591413D01*
G37*
G36*
X124037852Y-110819605D02*
G01*
X124038077Y-111148959D01*
X124041425Y-111819868D01*
X124051175Y-112355020D01*
X124070357Y-112771614D01*
X124102001Y-113086848D01*
X124149138Y-113317919D01*
X124214798Y-113482024D01*
X124302010Y-113596361D01*
X124413806Y-113678128D01*
X124553215Y-113744521D01*
X124713370Y-113791390D01*
X125041990Y-113838980D01*
X125444717Y-113863387D01*
X125874983Y-113864832D01*
X126286223Y-113843535D01*
X126631872Y-113799715D01*
X126865363Y-113733593D01*
X126977454Y-113678607D01*
X127091420Y-113609277D01*
X127180586Y-113522108D01*
X127248252Y-113399300D01*
X127297717Y-113223052D01*
X127332284Y-112975564D01*
X127355252Y-112639034D01*
X127369922Y-112195662D01*
X127379595Y-111627648D01*
X127387571Y-110917190D01*
X127412053Y-108573499D01*
X127932534Y-108573499D01*
X128453014Y-108573499D01*
X128428871Y-111157568D01*
X128404729Y-113741638D01*
X128180925Y-114122372D01*
X127897289Y-114474121D01*
X127497363Y-114736292D01*
X126974977Y-114904955D01*
X126802757Y-114931569D01*
X126442523Y-114957126D01*
X126005901Y-114964538D01*
X125532293Y-114955414D01*
X125061101Y-114931363D01*
X124631729Y-114893994D01*
X124283579Y-114844917D01*
X124056053Y-114785742D01*
X123898079Y-114706672D01*
X123543285Y-114426791D01*
X123257080Y-114060928D01*
X123084669Y-113661404D01*
X123068941Y-113572173D01*
X123043981Y-113294499D01*
X123023769Y-112878532D01*
X123008765Y-112338366D01*
X122999426Y-111688092D01*
X122996211Y-110941803D01*
X122996211Y-108573499D01*
X123517031Y-108573499D01*
X124037852Y-108573499D01*
X124037852Y-110819605D01*
G37*
G36*
X129630961Y-85702301D02*
G01*
X129766832Y-85856506D01*
X129977373Y-86104622D01*
X130248701Y-86430103D01*
X130566933Y-86816404D01*
X130918183Y-87246978D01*
X131157053Y-87540882D01*
X131505637Y-87966483D01*
X131785116Y-88298829D01*
X132015555Y-88557889D01*
X132217018Y-88763635D01*
X132409569Y-88936039D01*
X132613272Y-89095070D01*
X132848190Y-89260700D01*
X133134389Y-89452900D01*
X134059835Y-90069255D01*
X133776288Y-90336674D01*
X133589461Y-90529782D01*
X133510051Y-90683319D01*
X133552348Y-90820582D01*
X133712338Y-90982062D01*
X133931934Y-91170951D01*
X133772432Y-91350259D01*
X133591717Y-91518423D01*
X133372552Y-91678047D01*
X133228590Y-91764023D01*
X133094442Y-91812540D01*
X133012042Y-91756870D01*
X132931858Y-91586748D01*
X132880427Y-91487413D01*
X132723319Y-91360314D01*
X132520222Y-91384737D01*
X132276037Y-91560875D01*
X132229969Y-91603758D01*
X132093449Y-91713883D01*
X132025299Y-91741159D01*
X132018063Y-91727814D01*
X131960191Y-91600351D01*
X131856563Y-91362144D01*
X131719066Y-91040702D01*
X131559591Y-90663537D01*
X131514983Y-90557741D01*
X131381506Y-90248772D01*
X131258872Y-89987391D01*
X131131113Y-89749018D01*
X130982262Y-89509072D01*
X130796350Y-89242975D01*
X130557409Y-88926145D01*
X130249473Y-88534002D01*
X129856573Y-88041965D01*
X129570323Y-87681308D01*
X129258661Y-87280176D01*
X128996485Y-86933259D01*
X128796739Y-86658053D01*
X128672370Y-86472054D01*
X128636323Y-86392759D01*
X128641650Y-86385366D01*
X128738448Y-86292635D01*
X128912882Y-86146962D01*
X129124822Y-85979475D01*
X129334135Y-85821303D01*
X129500692Y-85703572D01*
X129584360Y-85657410D01*
X129630961Y-85702301D01*
G37*
G36*
X121457443Y-109154414D02*
G01*
X121481136Y-109695265D01*
X119574478Y-109696447D01*
X119077313Y-109697423D01*
X118528830Y-109702842D01*
X118106390Y-109716687D01*
X117790315Y-109743026D01*
X117560924Y-109785927D01*
X117398540Y-109849459D01*
X117283482Y-109937688D01*
X117196072Y-110054684D01*
X117116630Y-110204513D01*
X117044810Y-110402661D01*
X117032044Y-110749904D01*
X117157572Y-111061374D01*
X117411774Y-111301321D01*
X117484466Y-111341723D01*
X117598639Y-111386113D01*
X117748682Y-111417589D01*
X117959470Y-111438320D01*
X118255875Y-111450476D01*
X118662771Y-111456227D01*
X119205033Y-111457742D01*
X119212473Y-111457744D01*
X119705472Y-111461847D01*
X120154035Y-111472862D01*
X120529209Y-111489511D01*
X120802043Y-111510514D01*
X120943587Y-111534591D01*
X121076313Y-111595193D01*
X121208480Y-111698171D01*
X121305280Y-111850684D01*
X121372868Y-112074862D01*
X121417396Y-112392835D01*
X121445017Y-112826734D01*
X121461885Y-113398689D01*
X121467297Y-113728961D01*
X121469556Y-114151144D01*
X121465987Y-114501404D01*
X121456972Y-114750323D01*
X121442891Y-114868478D01*
X121434451Y-114886539D01*
X121355567Y-114947222D01*
X121186845Y-114972116D01*
X120893936Y-114967412D01*
X120392110Y-114943530D01*
X120352047Y-113741638D01*
X120311984Y-112539745D01*
X119384867Y-112517295D01*
X118457751Y-112494845D01*
X117736810Y-113719188D01*
X117015869Y-114943530D01*
X116440425Y-114967072D01*
X116405008Y-114968399D01*
X116131593Y-114969532D01*
X115938284Y-114954421D01*
X115864981Y-114925920D01*
X115886408Y-114873267D01*
X115976863Y-114699549D01*
X116125752Y-114430060D01*
X116319653Y-114088979D01*
X116545147Y-113700486D01*
X116713325Y-113410922D01*
X116916955Y-113052515D01*
X117078930Y-112758121D01*
X117185809Y-112552302D01*
X117224152Y-112459619D01*
X117211843Y-112432389D01*
X117097747Y-112338234D01*
X116903051Y-112231954D01*
X116724760Y-112132476D01*
X116390675Y-111826287D01*
X116146836Y-111428481D01*
X115997890Y-110970216D01*
X115948488Y-110482649D01*
X116003277Y-109996936D01*
X116166908Y-109544235D01*
X116444030Y-109155703D01*
X116540342Y-109060176D01*
X116701905Y-108924920D01*
X116879274Y-108819848D01*
X117093077Y-108741214D01*
X117363944Y-108685274D01*
X117712500Y-108648283D01*
X118159376Y-108626497D01*
X118725199Y-108616172D01*
X119430596Y-108613562D01*
X121433751Y-108613562D01*
X121457443Y-109154414D01*
G37*
G36*
X134408758Y-91287578D02*
G01*
X134538285Y-91360084D01*
X134682937Y-91514561D01*
X134773788Y-91763855D01*
X134797815Y-91851083D01*
X134885319Y-92129852D01*
X135004058Y-92478074D01*
X135135456Y-92840450D01*
X135237779Y-93119005D01*
X135429655Y-93696789D01*
X135561220Y-94210514D01*
X135642390Y-94714803D01*
X135683075Y-95264278D01*
X135693191Y-95913562D01*
X135690630Y-96303896D01*
X135680684Y-96679148D01*
X135658496Y-96967369D01*
X135618979Y-97209214D01*
X135557045Y-97445339D01*
X135467607Y-97716401D01*
X135456098Y-97749266D01*
X135060397Y-98643149D01*
X134543803Y-99437881D01*
X133915367Y-100125038D01*
X133184141Y-100696192D01*
X132359176Y-101142918D01*
X131449524Y-101456790D01*
X131027216Y-101531708D01*
X130476363Y-101575314D01*
X129845425Y-101586258D01*
X129173070Y-101565745D01*
X128497967Y-101514976D01*
X127858783Y-101435156D01*
X127294187Y-101327488D01*
X126714010Y-101181237D01*
X125084107Y-100661809D01*
X123525300Y-99998808D01*
X122036695Y-99191821D01*
X120617397Y-98240434D01*
X120453881Y-98116576D01*
X119942810Y-97697870D01*
X119403205Y-97215667D01*
X118861271Y-96696461D01*
X118343215Y-96166751D01*
X117875244Y-95653030D01*
X117483563Y-95181797D01*
X117194380Y-94779547D01*
X117198901Y-94760747D01*
X117298957Y-94837928D01*
X117483145Y-95003019D01*
X117736561Y-95242627D01*
X118044304Y-95543359D01*
X118264491Y-95758240D01*
X119590279Y-96924946D01*
X120996876Y-97953416D01*
X122484874Y-98843975D01*
X124054867Y-99596948D01*
X125707450Y-100212661D01*
X127443214Y-100691438D01*
X127474557Y-100698658D01*
X127850108Y-100780825D01*
X128174592Y-100839162D01*
X128490263Y-100877640D01*
X128839374Y-100900232D01*
X129264181Y-100910911D01*
X129806937Y-100913649D01*
X129808224Y-100913649D01*
X130339178Y-100911413D01*
X130740689Y-100902734D01*
X131043457Y-100884896D01*
X131278183Y-100855188D01*
X131475567Y-100810896D01*
X131666311Y-100749306D01*
X132431047Y-100393337D01*
X133111913Y-99906764D01*
X133688712Y-99302880D01*
X134149586Y-98591987D01*
X134161780Y-98568634D01*
X134427011Y-97988071D01*
X134600583Y-97422306D01*
X134695322Y-96816015D01*
X134724052Y-96113877D01*
X134684053Y-95314076D01*
X134552550Y-94597295D01*
X134320783Y-93971789D01*
X133980043Y-93414291D01*
X133521618Y-92901533D01*
X133398508Y-92779746D01*
X133131136Y-92466686D01*
X133007714Y-92223295D01*
X133028129Y-92049243D01*
X133192268Y-91944201D01*
X133319955Y-91876606D01*
X133526809Y-91722717D01*
X133751661Y-91522619D01*
X134130769Y-91155015D01*
X134408758Y-91287578D01*
G37*
G36*
X136737852Y-107692111D02*
G01*
X136737852Y-114382647D01*
X136513538Y-114863404D01*
X136246899Y-115327381D01*
X135789181Y-115852116D01*
X135225782Y-116266345D01*
X134574445Y-116554593D01*
X134504743Y-116569262D01*
X134369385Y-116584118D01*
X134166716Y-116597159D01*
X133888992Y-116608458D01*
X133528467Y-116618086D01*
X133077396Y-116626117D01*
X132528035Y-116632623D01*
X131872639Y-116637677D01*
X131103463Y-116641350D01*
X130212762Y-116643716D01*
X129192790Y-116644846D01*
X128035804Y-116644813D01*
X126734058Y-116643690D01*
X125279807Y-116641549D01*
X116305675Y-116626180D01*
X115824918Y-116401950D01*
X115540203Y-116247188D01*
X115035625Y-115862194D01*
X114603690Y-115389187D01*
X114288202Y-114871783D01*
X114062142Y-114382647D01*
X114062142Y-107692111D01*
X114337481Y-107692111D01*
X114360064Y-110997316D01*
X114382647Y-114302521D01*
X114594818Y-114755070D01*
X114928554Y-115291525D01*
X115386842Y-115751837D01*
X115933252Y-116093504D01*
X116385801Y-116305675D01*
X125279807Y-116323803D01*
X125524090Y-116324299D01*
X126886392Y-116326926D01*
X128099166Y-116328915D01*
X129171593Y-116330141D01*
X130112855Y-116330478D01*
X130932131Y-116329802D01*
X131638604Y-116327988D01*
X132241453Y-116324912D01*
X132749861Y-116320448D01*
X133173007Y-116314472D01*
X133520072Y-116306858D01*
X133800239Y-116297483D01*
X134022687Y-116286222D01*
X134196598Y-116272949D01*
X134331151Y-116257540D01*
X134435530Y-116239870D01*
X134518913Y-116219814D01*
X134590483Y-116197247D01*
X135056531Y-115995663D01*
X135559582Y-115644975D01*
X135958837Y-115181113D01*
X136269689Y-114589334D01*
X136307722Y-114494761D01*
X136346709Y-114383571D01*
X136378069Y-114261992D01*
X136402645Y-114113373D01*
X136421280Y-113921063D01*
X136434816Y-113668409D01*
X136444097Y-113338761D01*
X136449963Y-112915466D01*
X136453259Y-112381874D01*
X136454826Y-111721332D01*
X136455508Y-110917190D01*
X136457410Y-107692111D01*
X125397446Y-107692111D01*
X114337481Y-107692111D01*
X114062142Y-107692111D01*
X114062142Y-107211354D01*
X114340867Y-107211354D01*
X125399997Y-107211354D01*
X136459127Y-107211354D01*
X136438237Y-96454414D01*
X136417347Y-85697474D01*
X136205176Y-85244924D01*
X135871439Y-84708470D01*
X135413152Y-84248158D01*
X134866742Y-83906490D01*
X134414192Y-83694319D01*
X125399997Y-83694319D01*
X116385801Y-83694319D01*
X115933252Y-83906490D01*
X115396797Y-84240227D01*
X114936485Y-84698514D01*
X114594818Y-85244924D01*
X114382647Y-85697474D01*
X114361757Y-96454414D01*
X114340867Y-107211354D01*
X114062142Y-107211354D01*
X114062142Y-99999997D01*
X114062142Y-85617347D01*
X114286372Y-85136590D01*
X114441134Y-84851875D01*
X114826128Y-84347298D01*
X115299135Y-83915363D01*
X115816539Y-83599874D01*
X116305675Y-83373814D01*
X125399997Y-83373814D01*
X134494319Y-83373814D01*
X134983455Y-83599874D01*
X135263270Y-83751597D01*
X135762335Y-84134862D01*
X136193658Y-84611128D01*
X136513621Y-85136590D01*
X136737852Y-85617347D01*
X136737852Y-99999997D01*
X136737852Y-107211354D01*
X136737852Y-107692111D01*
G37*
G36*
X123418410Y-89313064D02*
G01*
X124210774Y-89384383D01*
X124920160Y-89522870D01*
X125056899Y-89560244D01*
X126141388Y-89943526D01*
X127130241Y-90454286D01*
X128019657Y-91089423D01*
X128805836Y-91845837D01*
X129484976Y-92720426D01*
X130053277Y-93710092D01*
X130089380Y-93784298D01*
X130344871Y-94343931D01*
X130532843Y-94843290D01*
X130662949Y-95326248D01*
X130744843Y-95836680D01*
X130788181Y-96418458D01*
X130802615Y-97115455D01*
X130802785Y-97164117D01*
X130796021Y-97798482D01*
X130766693Y-98319627D01*
X130707174Y-98770962D01*
X130609839Y-99195898D01*
X130467060Y-99637847D01*
X130271210Y-100140218D01*
X130032361Y-100721133D01*
X129539050Y-100720811D01*
X129126431Y-100703922D01*
X128391765Y-100615591D01*
X127570141Y-100459295D01*
X126692374Y-100243643D01*
X125789279Y-99977247D01*
X124891671Y-99668715D01*
X124030364Y-99326659D01*
X123236174Y-98959689D01*
X122429225Y-98534456D01*
X121143712Y-97758262D01*
X119940994Y-96895183D01*
X118788475Y-95920997D01*
X117653558Y-94811482D01*
X117427283Y-94577159D01*
X117166770Y-94315888D01*
X116983428Y-94148723D01*
X116858820Y-94061065D01*
X116774515Y-94038314D01*
X116712076Y-94065871D01*
X116642553Y-94141457D01*
X116586117Y-94277355D01*
X116591101Y-94306000D01*
X116672425Y-94468933D01*
X116839862Y-94720814D01*
X117075875Y-95039782D01*
X117362925Y-95403975D01*
X117683474Y-95791534D01*
X118019985Y-96180599D01*
X118354920Y-96549308D01*
X118670742Y-96875801D01*
X119260417Y-97433945D01*
X120546708Y-98489025D01*
X121934536Y-99424836D01*
X123413299Y-100234588D01*
X124972397Y-100911495D01*
X125319821Y-101035442D01*
X125875663Y-101210474D01*
X126483566Y-101381098D01*
X127102996Y-101537251D01*
X127693414Y-101668868D01*
X128214287Y-101765889D01*
X128625076Y-101818249D01*
X128699105Y-101824408D01*
X128977341Y-101855407D01*
X129172470Y-101889811D01*
X129246054Y-101921247D01*
X129212763Y-101993538D01*
X129081213Y-102161892D01*
X128873333Y-102390107D01*
X128614542Y-102652601D01*
X128330256Y-102923789D01*
X128045893Y-103178091D01*
X127786870Y-103389922D01*
X127173708Y-103814034D01*
X126191354Y-104336874D01*
X125146066Y-104722710D01*
X124065137Y-104960025D01*
X124026585Y-104965520D01*
X123156047Y-105026965D01*
X122232149Y-104986370D01*
X121316881Y-104849561D01*
X120472237Y-104622366D01*
X119923068Y-104411583D01*
X118934584Y-103906577D01*
X118038669Y-103277687D01*
X117244190Y-102535099D01*
X116560010Y-101688997D01*
X115994996Y-100749568D01*
X115558012Y-99726997D01*
X115257923Y-98631469D01*
X115227647Y-98464281D01*
X115159160Y-97804615D01*
X115146666Y-97070586D01*
X115187630Y-96319174D01*
X115279519Y-95607356D01*
X115419797Y-94992111D01*
X115599987Y-94453738D01*
X116064958Y-93423812D01*
X116655170Y-92488203D01*
X117362737Y-91654410D01*
X118179773Y-90929932D01*
X119098392Y-90322268D01*
X120110709Y-89838915D01*
X121208838Y-89487373D01*
X121819484Y-89374174D01*
X122601751Y-89309474D01*
X123418410Y-89313064D01*
G37*
%TO.C,GL1*%
G36*
X118491962Y-137729691D02*
G01*
X117989834Y-138171669D01*
X116995919Y-139046522D01*
X116982493Y-139058339D01*
X116963746Y-139074839D01*
X116814089Y-139206519D01*
X116668684Y-139334389D01*
X116528272Y-139457800D01*
X116393592Y-139576106D01*
X116265386Y-139688656D01*
X116144393Y-139794804D01*
X116031353Y-139893902D01*
X115927006Y-139985300D01*
X115832094Y-140068351D01*
X115747356Y-140142407D01*
X115673532Y-140206820D01*
X115611363Y-140260942D01*
X115561588Y-140304123D01*
X115524949Y-140335718D01*
X115502184Y-140355076D01*
X115494035Y-140361551D01*
X115492468Y-140360422D01*
X115478363Y-140348628D01*
X115450919Y-140325042D01*
X115411584Y-140290928D01*
X115361807Y-140247551D01*
X115303038Y-140196174D01*
X115236724Y-140138062D01*
X115164316Y-140074477D01*
X115087262Y-140006686D01*
X114686329Y-139653623D01*
X114688872Y-139166201D01*
X114689226Y-139098418D01*
X115101880Y-139098418D01*
X115117070Y-139193982D01*
X115151561Y-139287244D01*
X115155528Y-139295253D01*
X115209704Y-139380967D01*
X115277794Y-139451973D01*
X115358769Y-139507386D01*
X115451606Y-139546321D01*
X115474232Y-139552680D01*
X115569522Y-139566840D01*
X115665980Y-139562367D01*
X115759982Y-139540036D01*
X115847906Y-139500621D01*
X115926127Y-139444898D01*
X115968218Y-139403151D01*
X116025096Y-139325582D01*
X116064987Y-139240546D01*
X116087828Y-139150610D01*
X116093555Y-139058339D01*
X116082105Y-138966300D01*
X116053415Y-138877058D01*
X116007421Y-138793179D01*
X115944061Y-138717229D01*
X115931792Y-138705517D01*
X115853954Y-138646672D01*
X115768722Y-138605454D01*
X115678614Y-138581829D01*
X115586146Y-138575764D01*
X115493837Y-138587226D01*
X115404204Y-138616181D01*
X115319764Y-138662597D01*
X115243035Y-138726441D01*
X115225694Y-138744809D01*
X115167896Y-138823748D01*
X115127714Y-138910718D01*
X115105568Y-139003136D01*
X115101880Y-139098418D01*
X114689226Y-139098418D01*
X114691415Y-138678778D01*
X115205251Y-138226277D01*
X116100286Y-138226277D01*
X116102360Y-138267808D01*
X116106367Y-138305446D01*
X116113887Y-138336966D01*
X116126899Y-138370208D01*
X116147378Y-138413009D01*
X116184092Y-138475823D01*
X116247368Y-138551833D01*
X116322939Y-138613283D01*
X116408588Y-138658468D01*
X116502098Y-138685683D01*
X116572982Y-138694688D01*
X116637304Y-138693068D01*
X116706078Y-138680539D01*
X116742621Y-138670242D01*
X116831362Y-138631779D01*
X116908810Y-138578577D01*
X116973857Y-138512927D01*
X117025396Y-138437120D01*
X117062321Y-138353447D01*
X117083523Y-138264200D01*
X117087896Y-138171669D01*
X117074334Y-138078145D01*
X117041728Y-137985919D01*
X117034333Y-137971169D01*
X116997725Y-137913764D01*
X116950943Y-137856976D01*
X116899572Y-137807061D01*
X116849196Y-137770273D01*
X116779418Y-137736128D01*
X116685576Y-137708829D01*
X116589954Y-137700151D01*
X116495189Y-137709770D01*
X116403918Y-137737359D01*
X116318780Y-137782594D01*
X116242410Y-137845149D01*
X116215243Y-137874139D01*
X116160396Y-137949962D01*
X116123521Y-138032407D01*
X116103767Y-138123754D01*
X116100286Y-138226277D01*
X115205251Y-138226277D01*
X116098546Y-137439612D01*
X116227226Y-137326292D01*
X117090849Y-137326292D01*
X117100295Y-137415980D01*
X117126072Y-137502611D01*
X117167738Y-137583888D01*
X117224855Y-137657517D01*
X117296981Y-137721202D01*
X117383675Y-137772647D01*
X117415894Y-137787442D01*
X117448099Y-137799722D01*
X117478972Y-137807003D01*
X117515777Y-137810896D01*
X117565783Y-137813013D01*
X117620241Y-137813237D01*
X117675957Y-137809765D01*
X117716370Y-137802526D01*
X117749556Y-137791737D01*
X117838593Y-137749523D01*
X117915335Y-137693059D01*
X117978806Y-137624594D01*
X118028031Y-137546375D01*
X118062036Y-137460649D01*
X118079846Y-137369666D01*
X118080486Y-137275672D01*
X118062981Y-137180915D01*
X118026358Y-137087644D01*
X118005391Y-137053295D01*
X117965507Y-137003275D01*
X117917489Y-136954109D01*
X117867136Y-136911595D01*
X117820247Y-136881533D01*
X117766625Y-136857940D01*
X117671125Y-136832068D01*
X117574755Y-136825006D01*
X117480035Y-136836347D01*
X117389482Y-136865685D01*
X117305617Y-136912612D01*
X117230960Y-136976721D01*
X117225181Y-136982873D01*
X117164900Y-137061837D01*
X117122711Y-137146926D01*
X117098175Y-137235842D01*
X117090849Y-137326292D01*
X116227226Y-137326292D01*
X117505678Y-136200446D01*
X117999453Y-136200101D01*
X118493228Y-136199756D01*
X118492595Y-136964723D01*
X118492338Y-137275672D01*
X118491962Y-137729691D01*
G37*
%TD*%
D11*
%TO.C,SW8*%
X149800000Y-103400000D03*
X149800000Y-96600000D03*
%TD*%
D12*
%TO.C,J7*%
X101275000Y-152000000D03*
D13*
X98735000Y-152000000D03*
%TD*%
D14*
%TO.C,J6*%
X140750000Y-83100000D03*
D15*
X140750000Y-84100000D03*
X139750000Y-83100000D03*
X139750000Y-84100000D03*
%TD*%
D16*
%TO.C,BT2*%
X66599997Y-135929997D03*
D17*
X82599997Y-127599997D03*
X66599997Y-72399997D03*
%TD*%
D18*
%TO.C,SW3*%
X55651661Y-115826899D03*
X54951542Y-113385294D03*
X54251424Y-110943690D03*
X53551305Y-108502085D03*
X60534871Y-114426661D03*
X59834752Y-111985057D03*
X59134633Y-109543452D03*
X58434514Y-107101847D03*
%TD*%
D19*
%TO.C,J5*%
X118300000Y-146400000D03*
D20*
X115800000Y-146400000D03*
X113300000Y-146400000D03*
%TD*%
D21*
%TO.C,J4*%
X146200000Y-85200000D03*
X146200000Y-88200000D03*
D22*
X146200000Y-91200000D03*
D23*
X144240000Y-82200000D03*
X144240000Y-94200000D03*
%TD*%
D24*
%TO.C,SW2*%
X138200000Y-97200000D03*
X138200000Y-95200000D03*
%TD*%
%TO.C,SW1*%
X107600000Y-60400000D03*
X107600000Y-62400000D03*
%TD*%
D25*
%TO.C,H2*%
X144449997Y-99999997D03*
%TD*%
D26*
%TO.C,J1*%
X54799997Y-91999997D03*
D27*
X57339997Y-89459997D03*
X52259997Y-89459997D03*
X57339997Y-94539997D03*
X52259997Y-94539997D03*
%TD*%
D25*
%TO.C,H5*%
X99999997Y-144449997D03*
%TD*%
D24*
%TO.C,SW6*%
X104383931Y-49891404D03*
X104558243Y-47899014D03*
%TD*%
D25*
%TO.C,H3*%
X99999997Y-55549997D03*
%TD*%
D28*
%TO.C,U7*%
X142796607Y-122759889D03*
D18*
X147413879Y-110074039D03*
D28*
X147413879Y-110074039D03*
%TD*%
D29*
%TO.C,J2*%
X82648967Y-51879725D03*
D30*
X83730831Y-55917295D03*
D29*
X90994566Y-49643528D03*
D30*
X92076430Y-53681098D03*
D31*
X84982695Y-55064221D03*
X90565746Y-53568247D03*
%TD*%
D32*
%TO.C,J3*%
X110874997Y-84774997D03*
D33*
X110874997Y-86044997D03*
X109604997Y-84774997D03*
X109604997Y-86044997D03*
X108334997Y-84774997D03*
X108334997Y-86044997D03*
%TD*%
D24*
%TO.C,SW5*%
X108734501Y-50464167D03*
X109081797Y-48494551D03*
%TD*%
%TO.C,SW7*%
X99999997Y-49699997D03*
X99999997Y-47699997D03*
%TD*%
D25*
%TO.C,H4*%
X55549997Y-99999997D03*
%TD*%
D24*
%TO.C,SW4*%
X113018595Y-51413928D03*
X113536233Y-49482076D03*
%TD*%
D34*
%TO.C,D1*%
X98999997Y-73187497D03*
X98999997Y-71612497D03*
%TD*%
%TO.C,D2*%
X98899997Y-67387497D03*
X98899997Y-65812497D03*
%TD*%
D17*
%TO.C,BT1*%
X133399997Y-127599997D03*
X117399997Y-72399997D03*
D16*
X133399997Y-64069997D03*
%TD*%
M02*
