M48
; DRILL file {KiCad 9.0.5} date 2026-01-21T09:40:06-0500
; FORMAT={-:-/ absolute / metric / decimal}
; #@! TF.CreationDate,2026-01-21T09:40:06-05:00
; #@! TF.GenerationSoftware,Kicad,Pcbnew,9.0.5
; #@! TF.FileFunction,MixedPlating,1,4
FMAT,2
METRIC
; #@! TA.AperFunction,Plated,PTH,ViaDrill
T1C0.300
; #@! TA.AperFunction,Plated,PTH,ComponentDrill
T2C0.600
; #@! TA.AperFunction,Plated,PTH,ComponentDrill
T3C0.700
; #@! TA.AperFunction,Plated,PTH,ComponentDrill
T4C0.762
; #@! TA.AperFunction,Plated,PTH,ComponentDrill
T5C0.800
; #@! TA.AperFunction,Plated,PTH,ComponentDrill
T6C1.000
; #@! TA.AperFunction,Plated,PTH,ComponentDrill
T7C1.020
; #@! TA.AperFunction,Plated,PTH,ComponentDrill
T8C1.900
; #@! TA.AperFunction,NonPlated,NPTH,ComponentDrill
T9C1.270
; #@! TA.AperFunction,NonPlated,NPTH,ComponentDrill
T10C3.200
%
G90
G05
T1
X47.3Y-104.3
X47.425Y-99.963
X47.5Y-96.0
X48.393Y-110.0
X49.5Y-85.5
X50.881Y-117.1
X52.6Y-83.933
X54.1Y-79.398
X55.9Y-111.3
X56.0Y-126.5
X56.067Y-75.133
X57.0Y-86.5
X58.0Y-116.0
X58.603Y-71.197
X59.3Y-131.4
X59.6Y-101.7
X60.0Y-114.0
X60.0Y-118.0
X60.3Y-103.4
X60.3Y-108.9
X60.6Y-100.6
X61.163Y-132.763
X61.4Y-110.0
X61.434Y-111.934
X61.5Y-96.5
X61.9Y-104.9
X62.0Y-120.0
X62.2Y-110.8
X62.5Y-96.5
X62.993Y-102.993
X63.0Y-111.631
X64.775Y-108.775
X64.961Y-104.239
X65.179Y-100.921
X65.5Y-90.2
X65.6Y-105.8
X65.75Y-86.25
X65.96Y-116.46
X66.3Y-106.5
X66.47Y-110.4
X66.5Y-99.0
X66.525Y-102.975
X66.9Y-115.7
X67.0Y-92.5
X67.21Y-128.51
X67.9Y-108.5
X68.0Y-75.833
X68.0Y-86.9
X68.0Y-93.5
X68.0Y-116.8
X68.0Y-120.5
X68.8Y-72.9
X68.8Y-117.7
X68.95Y-89.2
X69.0Y-94.5
X69.05Y-120.95
X69.4Y-69.6
X70.0Y-95.5
X70.0Y-106.5
X70.0Y-108.0
X70.0Y-132.0
X70.1Y-133.9
X70.5Y-135.5
X71.0Y-92.5
X71.0Y-109.0
X71.0Y-131.5
X71.021Y-111.721
X71.25Y-123.25
X71.4Y-87.862
X71.5Y-98.5
X72.0Y-93.5
X72.0Y-110.0
X72.383Y-69.183
X72.5Y-97.5
X72.5Y-134.7
X72.5Y-141.5
X72.7Y-71.1
X73.0Y-86.9
X73.0Y-111.0
X73.5Y-65.0
X74.0Y-128.5
X74.261Y-96.461
X74.377Y-114.977
X74.5Y-76.8
X74.5Y-104.0
X74.684Y-94.234
X74.9Y-68.3
X75.1Y-118.8
X75.5Y-128.5
X75.6Y-91.9
X75.75Y-115.95
X76.072Y-111.802
X76.5Y-121.0
X76.7Y-89.7
X76.8Y-68.3
X77.0Y-91.7
X77.1Y-83.4
X77.5Y-120.0
X77.7Y-113.7
X77.7Y-114.5
X78.0Y-67.1
X78.2Y-53.3
X78.35Y-135.2
X78.8Y-108.9
X78.9Y-74.4
X78.9Y-124.7
X79.0Y-129.0
X79.0Y-138.5
X79.0Y-148.0
X80.0Y-143.59
X80.15Y-56.5
X80.3Y-73.4
X80.5Y-126.5
X80.6Y-51.0
X80.928Y-106.772
X81.5Y-115.5
X81.5Y-126.5
X81.725Y-138.5
X81.775Y-56.5
X82.041Y-105.759
X82.25Y-136.5
X82.5Y-100.0
X82.5Y-144.9
X82.5Y-146.6
X82.9Y-148.0
X83.0Y-50.2
X83.275Y-136.5
X83.275Y-138.5
X83.4Y-56.5
X83.5Y-100.0
X83.5Y-119.025
X83.9Y-57.6
X83.913Y-133.313
X84.3Y-106.7
X84.5Y-99.0
X84.5Y-119.7
X84.5Y-121.5
X84.5Y-123.3
X84.7Y-49.0
X84.7Y-50.1
X84.819Y-111.1
X84.819Y-115.981
X85.1Y-56.4
X85.2Y-74.4
X85.4Y-52.0
X85.5Y-98.5
X85.6Y-118.8
X86.0Y-105.0
X86.0Y-129.0
X86.0Y-136.0
X86.1Y-67.2
X86.2Y-112.5
X86.3Y-73.4
X86.6Y-50.1
X86.6Y-52.6
X86.65Y-109.65
X86.8Y-120.6
X86.812Y-118.812
X86.812Y-122.4
X87.0Y-84.3
X87.0Y-100.0
X87.0Y-101.0
X87.15Y-107.15
X87.4Y-51.1
X87.5Y-102.5
X87.6Y-53.6
X88.0Y-134.0
X88.1Y-138.1
X89.4Y-71.4
X89.6Y-48.4
X89.6Y-51.2
X90.1Y-136.1
X90.3Y-69.2
X91.0Y-62.0
X91.1Y-70.1
X91.5Y-48.4
X91.5Y-51.2
X91.5Y-75.2
X91.5Y-86.3
X91.75Y-82.25
X92.0Y-64.3
X92.0Y-70.6
X92.1Y-72.4
X92.7Y-82.7
X92.7Y-88.0
X93.4Y-48.4
X93.4Y-51.2
X93.4Y-84.0
X93.4Y-85.0
X93.5Y-75.5
X93.5Y-78.8
X95.2Y-78.8
X95.2Y-82.8
X95.3Y-81.5
X95.5Y-141.5
X95.5Y-152.5
X96.2Y-49.5
X97.0Y-48.2
X97.0Y-50.8
X97.05Y-62.4
X97.8Y-49.5
X101.5Y-48.5
X101.9Y-71.2
X102.2Y-150.0
X103.8Y-151.2
X106.0Y-82.0
X106.3Y-135.0
X106.5Y-51.0
X108.98Y-48.5
X109.0Y-137.2
X109.0Y-138.8
X109.0Y-141.2
X109.0Y-142.8
X109.0Y-145.2
X109.0Y-146.8
X109.0Y-149.2
X109.0Y-150.8
X110.2Y-76.9
X110.6Y-67.5
T4
X67.5Y-81.5
X67.5Y-82.77
X68.77Y-81.5
X68.77Y-82.77
X70.04Y-81.5
X70.04Y-82.77
X71.31Y-81.5
X71.31Y-82.77
X72.58Y-81.5
X72.58Y-82.77
X73.85Y-81.5
X73.85Y-82.77
X75.12Y-81.5
X75.12Y-82.77
T5
X71.504Y-57.36
X73.2Y-56.3
X74.896Y-55.24
X90.5Y-143.5
X90.5Y-150.0
T6
X54.0Y-93.472
X54.441Y-90.971
X54.882Y-88.47
X56.501Y-93.914
X56.942Y-91.412
X57.384Y-88.911
X108.5Y-68.5
X108.5Y-79.5
T7
X107.915Y-53.5
X107.915Y-56.5
X107.915Y-59.5
X107.915Y-62.5
T8
X98.5Y-71.5
X98.5Y-76.5
T9
X109.875Y-50.5
X109.875Y-65.5
T10
X55.55Y-100.0
X100.0Y-55.55
X100.0Y-144.45
T2
G00X60.791Y-66.901
M15
G01X59.943Y-66.052
M16
G05
G00X63.478Y-69.588
M15
G01X62.913Y-69.022
M16
G05
G00X66.901Y-60.791
M15
G01X66.052Y-59.943
M16
G05
G00X69.588Y-63.478
M15
G01X69.022Y-62.913
M16
G05
T3
G00X69.935Y-58.812
M15
G01X69.511Y-58.133
M16
G05
G00X76.889Y-54.467
M15
G01X76.465Y-53.788
M16
G05
M30
