M48
; DRILL file {KiCad 9.0.5} date 2025-12-13T23:41:56-0500
; FORMAT={-:-/ absolute / metric / decimal}
; #@! TF.CreationDate,2025-12-13T23:41:56-05:00
; #@! TF.GenerationSoftware,Kicad,Pcbnew,9.0.5
; #@! TF.FileFunction,MixedPlating,1,4
FMAT,2
METRIC
; #@! TA.AperFunction,Plated,PTH,ViaDrill
T1C0.300
; #@! TA.AperFunction,Plated,PTH,ComponentDrill
T2C0.600
; #@! TA.AperFunction,Plated,PTH,ComponentDrill
T3C0.700
; #@! TA.AperFunction,Plated,PTH,ComponentDrill
T4C0.762
; #@! TA.AperFunction,Plated,PTH,ComponentDrill
T5C0.800
; #@! TA.AperFunction,Plated,PTH,ComponentDrill
T6C1.000
; #@! TA.AperFunction,Plated,PTH,ComponentDrill
T7C1.020
; #@! TA.AperFunction,Plated,PTH,ComponentDrill
T8C1.900
; #@! TA.AperFunction,NonPlated,NPTH,ComponentDrill
T9C1.270
; #@! TA.AperFunction,NonPlated,NPTH,ComponentDrill
T10C3.200
%
G90
G05
T1
X47.3Y-104.3
X47.425Y-99.963
X48.332Y-110.002
X49.0Y-93.5
X50.5Y-87.5
X51.1Y-83.6
X52.6Y-78.9
X54.0Y-84.6
X54.6Y-74.5
X55.4Y-80.2
X57.2Y-76.3
X57.3Y-70.3
X58.0Y-116.0
X59.3Y-131.4
X59.6Y-101.7
X59.7Y-72.2
X60.0Y-114.0
X60.0Y-118.0
X60.3Y-108.9
X60.6Y-100.6
X60.7Y-103.7
X61.3Y-132.7
X61.4Y-110.0
X61.434Y-111.934
X61.6Y-96.5
X62.0Y-120.0
X62.0Y-128.102
X62.2Y-110.8
X62.5Y-96.5
X62.5Y-104.3
X63.007Y-102.993
X63.533Y-102.463
X63.7Y-112.3
X64.0Y-118.0
X64.775Y-108.775
X64.915Y-104.193
X65.2Y-100.3
X65.6Y-105.8
X65.75Y-86.25
X65.96Y-116.46
X66.3Y-106.5
X66.47Y-110.4
X66.5Y-99.0
X66.9Y-115.7
X67.0Y-92.5
X67.21Y-128.51
X67.699Y-108.696
X67.749Y-134.851
X68.0Y-87.0
X68.0Y-93.5
X68.0Y-116.8
X68.8Y-72.9
X69.0Y-89.3
X69.0Y-94.5
X69.1Y-117.9
X69.4Y-69.6
X70.0Y-95.5
X70.0Y-106.45
X70.1Y-133.9
X70.5Y-135.5
X70.925Y-111.817
X71.0Y-92.5
X71.6Y-88.0
X72.0Y-93.5
X72.5Y-97.5
X72.5Y-134.7
X72.8Y-121.7
X72.9Y-68.8
X73.0Y-87.0
X73.3Y-112.2
X73.5Y-98.5
X74.0Y-128.5
X74.307Y-96.415
X74.4Y-76.7
X74.5Y-114.9
X74.684Y-94.234
X74.9Y-68.3
X75.1Y-118.8
X75.5Y-128.5
X75.506Y-91.944
X75.9Y-115.5
X76.0Y-79.2
X76.072Y-111.802
X76.5Y-121.0
X76.8Y-68.3
X77.0Y-91.8
X77.5Y-120.5
X77.7Y-113.75
X77.7Y-114.5
X78.0Y-101.0
X78.0Y-102.5
X78.1Y-67.2
X78.35Y-135.2
X78.8Y-108.9
X79.0Y-103.0
X79.0Y-126.5
X79.25Y-53.15
X80.15Y-56.35
X80.5Y-117.3
X80.8Y-116.3
X81.1Y-137.3
X81.1Y-139.0
X81.6Y-136.3
X81.775Y-56.325
X82.0Y-73.1
X82.084Y-105.802
X82.35Y-136.3
X82.5Y-100.0
X82.5Y-125.5
X82.5Y-134.9
X82.5Y-144.9
X82.5Y-146.6
X82.9Y-148.0
X83.0Y-50.3
X83.1Y-114.1
X83.1Y-136.3
X83.4Y-56.3
X83.5Y-100.0
X83.5Y-119.7
X83.7Y-107.763
X83.9Y-133.5
X84.0Y-57.1
X84.143Y-107.157
X84.5Y-56.2
X84.5Y-99.0
X84.6Y-114.5
X84.6Y-119.7
X84.6Y-121.5
X84.675Y-117.687
X84.7Y-50.2
X85.3Y-110.4
X85.5Y-71.5
X85.5Y-98.5
X85.538Y-118.762
X85.769Y-117.566
X85.9Y-114.5
X86.0Y-136.0
X86.4Y-109.4
X86.5Y-73.1
X86.6Y-52.7
X86.7Y-66.7
X86.7Y-115.7
X86.75Y-101.25
X86.8Y-112.3
X86.8Y-118.8
X86.8Y-120.6
X86.812Y-122.4
X87.0Y-100.0
X87.3Y-53.6
X87.4Y-84.2
X87.5Y-49.5
X87.5Y-51.5
X88.0Y-134.0
X88.1Y-138.1
X89.4Y-71.4
X89.5Y-49.5
X89.5Y-51.5
X90.1Y-136.1
X90.3Y-69.2
X90.5Y-80.0
X91.1Y-70.1
X91.2Y-61.7
X91.2Y-63.5
X91.5Y-47.5
X91.5Y-51.5
X91.5Y-75.2
X91.5Y-86.3
X91.75Y-82.25
X92.0Y-70.6
X92.1Y-72.4
X92.6Y-82.8
X92.8Y-76.4
X92.8Y-88.0
X93.4Y-84.0
X93.4Y-85.0
X93.5Y-47.5
X93.5Y-51.5
X93.5Y-78.7
X95.2Y-78.7
X95.2Y-81.5
X95.2Y-83.5
X95.5Y-47.5
X95.5Y-49.5
X95.5Y-51.5
X97.1Y-62.5
X97.5Y-47.5
X97.5Y-51.5
X101.5Y-71.0
X102.2Y-150.0
X103.7Y-151.2
X104.5Y-74.5
X105.0Y-66.0
X107.7Y-138.0
X107.7Y-142.0
X107.7Y-146.0
X107.7Y-150.0
X109.0Y-137.2
X109.0Y-138.8
X109.0Y-141.2
X109.0Y-142.8
X109.0Y-145.2
X109.0Y-146.8
X109.0Y-149.2
X109.0Y-150.8
X110.0Y-70.0
X110.0Y-75.0
X110.3Y-138.0
X110.3Y-142.0
X110.3Y-146.0
X110.3Y-150.0
T4
X67.5Y-81.5
X67.5Y-82.77
X68.77Y-81.5
X68.77Y-82.77
X70.04Y-81.5
X70.04Y-82.77
X71.31Y-81.5
X71.31Y-82.77
X72.58Y-81.5
X72.58Y-82.77
X73.85Y-81.5
X73.85Y-82.77
X75.12Y-81.5
X75.12Y-82.77
T5
X71.504Y-57.36
X73.2Y-56.3
X74.896Y-55.24
X90.5Y-143.5
X90.5Y-150.0
T6
X54.0Y-93.472
X54.441Y-90.971
X54.882Y-88.47
X56.501Y-93.914
X56.942Y-91.412
X57.384Y-88.911
X108.5Y-68.5
X108.5Y-79.5
T7
X107.915Y-53.5
X107.915Y-56.5
X107.915Y-59.5
X107.915Y-62.5
T8
X98.5Y-71.5
X98.5Y-76.5
T9
X109.875Y-50.5
X109.875Y-65.5
T10
X55.55Y-100.0
X100.0Y-55.55
X100.0Y-144.45
T2
G00X60.791Y-66.901
M15
G01X59.943Y-66.052
M16
G05
G00X63.478Y-69.588
M15
G01X62.913Y-69.022
M16
G05
G00X66.901Y-60.791
M15
G01X66.052Y-59.943
M16
G05
G00X69.588Y-63.478
M15
G01X69.022Y-62.913
M16
G05
T3
G00X69.935Y-58.812
M15
G01X69.511Y-58.133
M16
G05
G00X76.889Y-54.467
M15
G01X76.465Y-53.788
M16
G05
M30
