%TF.GenerationSoftware,KiCad,Pcbnew,9.0.5*%
%TF.CreationDate,2025-12-13T23:41:19-05:00*%
%TF.ProjectId,airbrake_mod,61697262-7261-46b6-955f-6d6f642e6b69,rev?*%
%TF.SameCoordinates,Original*%
%TF.FileFunction,Legend,Top*%
%TF.FilePolarity,Positive*%
%FSLAX46Y46*%
G04 Gerber Fmt 4.6, Leading zero omitted, Abs format (unit mm)*
G04 Created by KiCad (PCBNEW 9.0.5) date 2025-12-13 23:41:19*
%MOMM*%
%LPD*%
G01*
G04 APERTURE LIST*
%ADD10C,0.300000*%
%ADD11C,0.375000*%
%ADD12C,0.150000*%
%ADD13C,0.200000*%
%ADD14C,0.120000*%
%ADD15C,0.250000*%
%ADD16C,0.000000*%
%ADD17C,0.152400*%
%ADD18C,0.127000*%
%ADD19C,0.250001*%
%ADD20C,0.100000*%
G04 APERTURE END LIST*
D10*
G36*
X110570100Y-57843562D02*
G01*
X110611503Y-57853803D01*
X110648958Y-57871024D01*
X110680197Y-57894286D01*
X110711376Y-57930178D01*
X110734968Y-57976809D01*
X110748936Y-58029977D01*
X110753927Y-58094138D01*
X110753927Y-58307270D01*
X110286721Y-58307270D01*
X110286721Y-58095145D01*
X110290511Y-58037640D01*
X110301101Y-57989632D01*
X110318871Y-57946326D01*
X110342042Y-57911688D01*
X110375459Y-57880515D01*
X110417330Y-57857924D01*
X110465124Y-57844681D01*
X110522385Y-57839972D01*
X110570100Y-57843562D01*
G37*
G36*
X111015237Y-55334132D02*
G01*
X111109484Y-55350985D01*
X111162728Y-55368125D01*
X111208402Y-55389453D01*
X111248649Y-55416570D01*
X111280668Y-55448346D01*
X111301295Y-55477899D01*
X111316480Y-55511911D01*
X111325586Y-55548905D01*
X111328753Y-55590771D01*
X111325282Y-55634378D01*
X111315472Y-55671279D01*
X111299308Y-55704784D01*
X111277554Y-55734294D01*
X111246605Y-55761402D01*
X111205380Y-55786043D01*
X111159016Y-55805120D01*
X111106461Y-55819290D01*
X111013222Y-55833670D01*
X110908716Y-55837792D01*
X110689356Y-55837792D01*
X110579813Y-55833212D01*
X110483459Y-55818283D01*
X110428491Y-55801876D01*
X110382984Y-55780914D01*
X110343144Y-55753805D01*
X110311268Y-55721929D01*
X110281592Y-55664135D01*
X110271334Y-55591870D01*
X110274258Y-55551032D01*
X110282600Y-55515483D01*
X110314382Y-55453476D01*
X110345459Y-55421443D01*
X110385640Y-55393025D01*
X110431312Y-55370295D01*
X110484467Y-55352084D01*
X110580271Y-55334132D01*
X110689356Y-55328454D01*
X110908716Y-55328454D01*
X111015237Y-55334132D01*
G37*
G36*
X111732183Y-61322511D02*
G01*
X109865889Y-61322511D01*
X109865889Y-60584132D01*
X110032556Y-60584132D01*
X110040064Y-60694160D01*
X110061774Y-60793143D01*
X110097897Y-60884322D01*
X110145305Y-60960114D01*
X110205480Y-61023344D01*
X110276463Y-61070847D01*
X110356768Y-61100588D01*
X110447555Y-61110781D01*
X110527165Y-61103084D01*
X110599230Y-61080556D01*
X110665191Y-61043483D01*
X110726267Y-60990888D01*
X110779716Y-60925286D01*
X110831871Y-60837748D01*
X110875321Y-60739221D01*
X110913754Y-60619944D01*
X110937213Y-60543705D01*
X110960465Y-60486313D01*
X110987708Y-60435878D01*
X111015237Y-60398660D01*
X111047772Y-60370078D01*
X111080816Y-60352041D01*
X111116623Y-60341724D01*
X111155646Y-60338210D01*
X111194255Y-60342382D01*
X111228919Y-60354605D01*
X111259610Y-60374446D01*
X111285797Y-60401683D01*
X111306365Y-60435044D01*
X111322708Y-60477062D01*
X111332485Y-60523416D01*
X111335989Y-60579003D01*
X111332258Y-60641980D01*
X111321609Y-60697339D01*
X111302784Y-60747889D01*
X111276546Y-60789022D01*
X111241733Y-60823375D01*
X111197686Y-60849472D01*
X111146480Y-60865758D01*
X111081823Y-60873102D01*
X111081823Y-61155844D01*
X111157949Y-61150578D01*
X111224755Y-61135512D01*
X111283690Y-61111331D01*
X111363898Y-61058873D01*
X111433350Y-60989881D01*
X111489462Y-60903015D01*
X111531169Y-60799829D01*
X111556218Y-60689740D01*
X111564508Y-60579003D01*
X111557512Y-60467938D01*
X111537397Y-60368985D01*
X111503010Y-60277941D01*
X111456889Y-60202930D01*
X111398475Y-60140710D01*
X111328295Y-60093845D01*
X111247871Y-60064571D01*
X111153539Y-60054370D01*
X111079229Y-60060430D01*
X111012774Y-60077985D01*
X110952772Y-60106668D01*
X110871781Y-60167180D01*
X110800089Y-60246986D01*
X110762714Y-60307668D01*
X110729381Y-60375122D01*
X110677083Y-60521576D01*
X110635134Y-60650170D01*
X110610488Y-60704276D01*
X110584850Y-60746981D01*
X110555689Y-60782969D01*
X110524400Y-60807981D01*
X110488802Y-60823640D01*
X110448563Y-60828955D01*
X110409780Y-60824941D01*
X110374282Y-60813110D01*
X110342339Y-60793692D01*
X110314382Y-60766490D01*
X110292850Y-60733069D01*
X110275914Y-60691202D01*
X110265725Y-60644751D01*
X110262083Y-60589261D01*
X110266575Y-60529069D01*
X110279028Y-60480085D01*
X110299484Y-60436547D01*
X110325648Y-60401683D01*
X110359016Y-60374808D01*
X110398371Y-60355155D01*
X110441820Y-60342799D01*
X110490603Y-60337111D01*
X110490603Y-60056385D01*
X110393403Y-60066310D01*
X110306230Y-60095311D01*
X110227831Y-60141911D01*
X110160692Y-60203938D01*
X110107518Y-60279338D01*
X110066445Y-60370450D01*
X110041304Y-60470552D01*
X110032556Y-60584132D01*
X109865889Y-60584132D01*
X109865889Y-58835476D01*
X110053073Y-58835476D01*
X110053073Y-59837574D01*
X111545000Y-59837574D01*
X111545000Y-58832362D01*
X111312358Y-58832362D01*
X111312358Y-59548695D01*
X110891222Y-59548695D01*
X110891222Y-58935859D01*
X110663802Y-58935859D01*
X110663802Y-59548695D01*
X110287729Y-59548695D01*
X110287729Y-58835476D01*
X110053073Y-58835476D01*
X109865889Y-58835476D01*
X109865889Y-58095145D01*
X110053073Y-58095145D01*
X110053073Y-58595141D01*
X111545000Y-58595141D01*
X111545000Y-58307270D01*
X110987576Y-58307270D01*
X110987576Y-58089008D01*
X111545000Y-57808190D01*
X111545000Y-57499803D01*
X111531719Y-57499803D01*
X110915860Y-57820555D01*
X110885326Y-57761459D01*
X110850281Y-57709364D01*
X110809037Y-57663105D01*
X110761163Y-57623817D01*
X110708052Y-57593192D01*
X110646857Y-57569962D01*
X110580498Y-57555962D01*
X110502876Y-57551003D01*
X110396699Y-57561060D01*
X110308245Y-57589471D01*
X110230913Y-57636078D01*
X110167836Y-57698556D01*
X110119016Y-57775996D01*
X110082290Y-57870747D01*
X110060696Y-57974615D01*
X110053073Y-58095145D01*
X109865889Y-58095145D01*
X109865889Y-56560628D01*
X110053073Y-56560628D01*
X111026502Y-56814794D01*
X111127985Y-56842454D01*
X111027510Y-56868100D01*
X110053073Y-57121166D01*
X110053073Y-57438803D01*
X111545000Y-56987992D01*
X111545000Y-56694901D01*
X110053073Y-56242991D01*
X110053073Y-56560628D01*
X109865889Y-56560628D01*
X109865889Y-55591870D01*
X110032556Y-55591870D01*
X110038088Y-55674919D01*
X110054080Y-55749681D01*
X110080469Y-55819368D01*
X110115538Y-55880748D01*
X110160579Y-55936637D01*
X110213998Y-55985803D01*
X110274240Y-56027693D01*
X110342042Y-56063197D01*
X110419251Y-56091738D01*
X110504983Y-56112931D01*
X110594591Y-56125474D01*
X110691462Y-56129784D01*
X110908716Y-56129784D01*
X110999547Y-56125993D01*
X111083930Y-56114946D01*
X111164789Y-56096359D01*
X111237620Y-56071349D01*
X111311143Y-56035377D01*
X111375464Y-55992489D01*
X111432211Y-55941940D01*
X111479420Y-55885877D01*
X111515571Y-55822551D01*
X111542984Y-55751696D01*
X111559713Y-55675756D01*
X111565516Y-55590771D01*
X111560373Y-55510527D01*
X111545457Y-55437630D01*
X111521312Y-55368818D01*
X111489678Y-55306930D01*
X111443746Y-55245181D01*
X111387188Y-55190151D01*
X111322806Y-55143134D01*
X111251908Y-55104056D01*
X111175858Y-55075391D01*
X111091624Y-55053864D01*
X111003538Y-55040904D01*
X110908716Y-55036461D01*
X110691462Y-55036461D01*
X110591667Y-55041316D01*
X110499854Y-55055421D01*
X110412265Y-55078913D01*
X110333799Y-55110192D01*
X110269776Y-55146350D01*
X110211892Y-55188594D01*
X110160685Y-55237898D01*
X110117644Y-55294657D01*
X110081650Y-55358245D01*
X110054630Y-55430486D01*
X110038201Y-55507559D01*
X110032556Y-55591870D01*
X109865889Y-55591870D01*
X109865889Y-54869794D01*
X111732183Y-54869794D01*
X111732183Y-61322511D01*
G37*
D11*
G36*
X68702704Y-75752772D02*
G01*
X68740337Y-75797310D01*
X68765008Y-75838262D01*
X68780254Y-75880507D01*
X68784567Y-75920124D01*
X68779885Y-75958505D01*
X68765396Y-75996547D01*
X68742756Y-76032577D01*
X68710670Y-76069407D01*
X68674719Y-76099184D01*
X68637097Y-76119017D01*
X68596887Y-76129808D01*
X68554911Y-76130998D01*
X68516720Y-76123242D01*
X68474862Y-76105999D01*
X68434625Y-76080678D01*
X68393388Y-76044731D01*
X68212241Y-75863585D01*
X68512879Y-75562947D01*
X68702704Y-75752772D01*
G37*
G36*
X69087471Y-75289770D02*
G01*
X69131784Y-75340614D01*
X69162468Y-75386528D01*
X69182453Y-75433709D01*
X69188180Y-75477393D01*
X69184930Y-75509562D01*
X69173284Y-75542287D01*
X69154357Y-75573496D01*
X69125876Y-75606404D01*
X69093968Y-75633220D01*
X69061759Y-75650962D01*
X69027607Y-75661216D01*
X68993303Y-75663591D01*
X68950875Y-75657167D01*
X68904511Y-75637880D01*
X68859599Y-75608761D01*
X68811379Y-75567286D01*
X68659959Y-75415867D01*
X68936764Y-75139062D01*
X69087471Y-75289770D01*
G37*
G36*
X71708191Y-77284457D02*
G01*
X70359061Y-78633588D01*
X69338934Y-77613461D01*
X69791010Y-77613461D01*
X69812756Y-77714562D01*
X69856228Y-77817017D01*
X69916360Y-77912573D01*
X69988801Y-77996738D01*
X70072283Y-78070326D01*
X70156477Y-78126074D01*
X70245169Y-78166136D01*
X70330823Y-78186564D01*
X70416124Y-78189255D01*
X70498887Y-78172769D01*
X70576455Y-78136601D01*
X70650372Y-78077111D01*
X70698632Y-78020280D01*
X70733209Y-77960877D01*
X70755355Y-77898167D01*
X70769836Y-77798109D01*
X70764099Y-77690984D01*
X70747618Y-77621648D01*
X70723491Y-77550380D01*
X70656913Y-77409841D01*
X70595646Y-77289249D01*
X70574814Y-77233563D01*
X70562745Y-77185237D01*
X70557918Y-77139170D01*
X70562357Y-77099359D01*
X70576456Y-77063115D01*
X70601151Y-77030903D01*
X70631412Y-77006318D01*
X70664879Y-76989583D01*
X70701198Y-76980727D01*
X70740200Y-76980192D01*
X70779058Y-76988600D01*
X70820638Y-77006228D01*
X70860689Y-77031869D01*
X70902501Y-77068531D01*
X70941887Y-77114270D01*
X70967719Y-77157712D01*
X70984040Y-77202963D01*
X70990192Y-77246116D01*
X70985600Y-77288715D01*
X70971669Y-77330440D01*
X70949683Y-77369899D01*
X70919210Y-77408416D01*
X71117714Y-77606920D01*
X71179426Y-77531171D01*
X71220560Y-77449024D01*
X71243045Y-77360636D01*
X71246660Y-77269302D01*
X71230944Y-77178386D01*
X71195561Y-77084917D01*
X71142555Y-76996357D01*
X71068428Y-76909858D01*
X70985317Y-76837365D01*
X70899975Y-76782725D01*
X70809959Y-76743795D01*
X70722844Y-76723724D01*
X70635583Y-76721564D01*
X70551800Y-76738167D01*
X70473986Y-76773921D01*
X70402582Y-76830910D01*
X70351732Y-76892645D01*
X70316704Y-76959532D01*
X70296277Y-77032388D01*
X70290280Y-77112766D01*
X70298874Y-77196948D01*
X70323893Y-77295726D01*
X70362839Y-77396119D01*
X70420004Y-77507636D01*
X70457326Y-77578133D01*
X70481466Y-77635157D01*
X70497865Y-77690084D01*
X70504716Y-77735866D01*
X70501921Y-77779083D01*
X70491310Y-77815203D01*
X70473285Y-77847818D01*
X70448177Y-77877895D01*
X70417926Y-77902246D01*
X70384772Y-77918114D01*
X70349040Y-77925786D01*
X70311264Y-77925044D01*
X70273130Y-77915998D01*
X70231863Y-77897843D01*
X70192172Y-77871979D01*
X70150389Y-77835151D01*
X70108496Y-77787981D01*
X70076881Y-77741307D01*
X70054448Y-77692252D01*
X70043916Y-77644613D01*
X70044240Y-77595705D01*
X70056933Y-77546106D01*
X70081625Y-77498382D01*
X70122151Y-77447469D01*
X69922223Y-77247541D01*
X69872117Y-77305093D01*
X69835532Y-77362986D01*
X69810957Y-77421758D01*
X69791335Y-77515566D01*
X69791010Y-77613461D01*
X69338934Y-77613461D01*
X68450946Y-76725473D01*
X68908850Y-76725473D01*
X68917535Y-76816715D01*
X68946867Y-76907008D01*
X68995325Y-76991921D01*
X69066099Y-77075461D01*
X69154410Y-77150897D01*
X69241740Y-77201882D01*
X69334215Y-77232907D01*
X69426903Y-77242101D01*
X69518567Y-77230157D01*
X69612777Y-77196118D01*
X69702527Y-77142202D01*
X69794313Y-77063156D01*
X70492735Y-76363179D01*
X70290604Y-76161049D01*
X69590692Y-76859536D01*
X69537668Y-76906059D01*
X69489271Y-76939196D01*
X69439541Y-76962833D01*
X69393614Y-76973975D01*
X69350057Y-76974892D01*
X69308059Y-76964584D01*
X69268748Y-76943947D01*
X69229888Y-76911671D01*
X69200277Y-76875843D01*
X69181639Y-76839588D01*
X69172563Y-76800792D01*
X69173349Y-76759539D01*
X69185239Y-76714281D01*
X69209941Y-76664270D01*
X69244154Y-76615390D01*
X69292192Y-76561035D01*
X69990679Y-75861124D01*
X69787059Y-75657504D01*
X69087147Y-76355990D01*
X69008260Y-76447961D01*
X68954509Y-76538627D01*
X68920687Y-76633750D01*
X68908850Y-76725473D01*
X68450946Y-76725473D01*
X67549227Y-75823754D01*
X67843406Y-75823754D01*
X67883237Y-75863585D01*
X68228173Y-76208521D01*
X68317714Y-76287816D01*
X68404204Y-76345434D01*
X68494580Y-76385837D01*
X68581011Y-76404888D01*
X68667538Y-76403992D01*
X68752702Y-76382414D01*
X68832968Y-76340704D01*
X68912865Y-76274452D01*
X68949533Y-76232472D01*
X68979443Y-76186760D01*
X69002159Y-76137433D01*
X69016489Y-76085339D01*
X69020892Y-76034233D01*
X69016748Y-75981327D01*
X69002168Y-75927501D01*
X68970830Y-75861447D01*
X68971542Y-75860735D01*
X69045050Y-75885022D01*
X69116486Y-75892599D01*
X69178897Y-75886102D01*
X69238891Y-75866564D01*
X69294747Y-75835441D01*
X69346141Y-75793380D01*
X69409640Y-75715599D01*
X69447239Y-75637880D01*
X69464005Y-75555499D01*
X69459933Y-75470917D01*
X69436449Y-75386655D01*
X69392124Y-75297412D01*
X69332151Y-75211688D01*
X69252686Y-75123130D01*
X68898358Y-74768803D01*
X68251293Y-75415867D01*
X67843406Y-75823754D01*
X67549227Y-75823754D01*
X66906891Y-75181418D01*
X67201071Y-75181418D01*
X67408317Y-75388665D01*
X68782818Y-74653263D01*
X68558214Y-74428659D01*
X67690173Y-74937256D01*
X67598855Y-74989456D01*
X67651768Y-74900275D01*
X68161854Y-74032299D01*
X67937250Y-73807695D01*
X67201071Y-75181418D01*
X66906891Y-75181418D01*
X66602627Y-74877154D01*
X67951757Y-73528023D01*
X71708191Y-77284457D01*
G37*
G36*
X51542686Y-100378546D02*
G01*
X51639040Y-100393475D01*
X51694008Y-100409882D01*
X51739515Y-100430844D01*
X51779355Y-100457953D01*
X51811231Y-100489829D01*
X51840907Y-100547623D01*
X51851165Y-100619888D01*
X51848241Y-100660725D01*
X51839899Y-100696275D01*
X51808117Y-100758282D01*
X51777040Y-100790314D01*
X51736859Y-100818732D01*
X51691187Y-100841463D01*
X51638032Y-100859674D01*
X51542228Y-100877625D01*
X51433143Y-100883304D01*
X51213783Y-100883304D01*
X51107262Y-100877625D01*
X51013015Y-100860773D01*
X50959771Y-100843632D01*
X50914097Y-100822304D01*
X50873850Y-100795188D01*
X50841831Y-100763411D01*
X50821204Y-100733858D01*
X50806019Y-100699847D01*
X50796913Y-100662853D01*
X50793746Y-100620987D01*
X50797217Y-100577380D01*
X50807027Y-100540479D01*
X50823191Y-100506974D01*
X50844945Y-100477464D01*
X50875894Y-100450355D01*
X50917119Y-100425715D01*
X50963483Y-100406637D01*
X51016038Y-100392467D01*
X51109277Y-100378088D01*
X51213783Y-100373966D01*
X51433143Y-100373966D01*
X51542686Y-100378546D01*
G37*
G36*
X51542686Y-99119718D02*
G01*
X51639040Y-99134647D01*
X51694008Y-99151054D01*
X51739515Y-99172017D01*
X51779355Y-99199125D01*
X51811231Y-99231001D01*
X51840907Y-99288795D01*
X51851165Y-99361060D01*
X51848241Y-99401898D01*
X51839899Y-99437447D01*
X51808117Y-99499455D01*
X51777040Y-99531487D01*
X51736859Y-99559905D01*
X51691187Y-99582635D01*
X51638032Y-99600846D01*
X51542228Y-99618798D01*
X51433143Y-99624476D01*
X51213783Y-99624476D01*
X51107262Y-99618798D01*
X51013015Y-99601945D01*
X50959771Y-99584805D01*
X50914097Y-99563477D01*
X50873850Y-99536360D01*
X50841831Y-99504584D01*
X50821204Y-99475031D01*
X50806019Y-99441019D01*
X50796913Y-99404025D01*
X50793746Y-99362160D01*
X50797217Y-99318552D01*
X50807027Y-99281651D01*
X50823191Y-99248147D01*
X50844945Y-99218636D01*
X50875894Y-99191528D01*
X50917119Y-99166887D01*
X50963483Y-99147810D01*
X51016038Y-99133640D01*
X51109277Y-99119260D01*
X51213783Y-99115138D01*
X51433143Y-99115138D01*
X51542686Y-99119718D01*
G37*
G36*
X51235307Y-98117620D02*
G01*
X51235307Y-98171934D01*
X51230425Y-98230037D01*
X51218912Y-98276439D01*
X51199820Y-98317091D01*
X51174856Y-98348155D01*
X51144407Y-98371984D01*
X51107262Y-98388638D01*
X51065776Y-98398106D01*
X51017045Y-98401461D01*
X50970568Y-98397096D01*
X50929942Y-98384517D01*
X50893878Y-98363714D01*
X50863355Y-98334874D01*
X50841835Y-98302385D01*
X50824429Y-98260594D01*
X50813882Y-98214237D01*
X50810141Y-98159660D01*
X50810141Y-97903480D01*
X51235307Y-97903480D01*
X51235307Y-98117620D01*
G37*
G36*
X51834770Y-98116613D02*
G01*
X51830152Y-98183899D01*
X51819383Y-98238062D01*
X51800152Y-98285556D01*
X51773312Y-98320494D01*
X51748267Y-98340944D01*
X51716892Y-98355849D01*
X51681440Y-98364533D01*
X51638032Y-98367664D01*
X51596509Y-98364063D01*
X51561188Y-98353834D01*
X51529788Y-98336934D01*
X51503852Y-98314358D01*
X51478394Y-98279814D01*
X51459247Y-98233391D01*
X51448080Y-98181044D01*
X51443310Y-98117620D01*
X51443310Y-97903480D01*
X51834770Y-97903480D01*
X51834770Y-98116613D01*
G37*
G36*
X52277443Y-102676945D02*
G01*
X50369483Y-102676945D01*
X50369483Y-101740413D01*
X50577500Y-101740413D01*
X50577500Y-102029383D01*
X51834770Y-102029383D01*
X51834770Y-102489445D01*
X52069426Y-102489445D01*
X52069426Y-101286488D01*
X51834770Y-101286488D01*
X51834770Y-101740413D01*
X50577500Y-101740413D01*
X50369483Y-101740413D01*
X50369483Y-100620987D01*
X50556983Y-100620987D01*
X50562126Y-100701231D01*
X50577042Y-100774127D01*
X50601187Y-100842940D01*
X50632821Y-100904828D01*
X50678753Y-100966577D01*
X50735311Y-101021607D01*
X50799693Y-101068624D01*
X50870591Y-101107702D01*
X50946641Y-101136367D01*
X51030875Y-101157894D01*
X51118961Y-101170854D01*
X51213783Y-101175296D01*
X51431037Y-101175296D01*
X51530832Y-101170442D01*
X51622645Y-101156337D01*
X51710234Y-101132845D01*
X51788700Y-101101566D01*
X51852723Y-101065408D01*
X51910607Y-101023164D01*
X51961814Y-100973859D01*
X52004855Y-100917101D01*
X52040849Y-100853513D01*
X52067869Y-100781272D01*
X52084298Y-100704199D01*
X52089943Y-100619888D01*
X52084411Y-100536839D01*
X52068419Y-100462077D01*
X52042030Y-100392390D01*
X52006961Y-100331010D01*
X51961920Y-100275121D01*
X51908501Y-100225955D01*
X51848259Y-100184064D01*
X51780457Y-100148560D01*
X51703248Y-100120020D01*
X51617516Y-100098827D01*
X51527908Y-100086284D01*
X51431037Y-100081974D01*
X51213783Y-100081974D01*
X51122952Y-100085765D01*
X51038569Y-100096812D01*
X50957710Y-100115399D01*
X50884879Y-100140409D01*
X50811356Y-100176381D01*
X50747035Y-100219269D01*
X50690288Y-100269818D01*
X50643079Y-100325881D01*
X50606928Y-100389207D01*
X50579515Y-100460062D01*
X50562786Y-100536002D01*
X50556983Y-100620987D01*
X50369483Y-100620987D01*
X50369483Y-99362160D01*
X50556983Y-99362160D01*
X50562126Y-99442403D01*
X50577042Y-99515300D01*
X50601187Y-99584112D01*
X50632821Y-99646000D01*
X50678753Y-99707749D01*
X50735311Y-99762779D01*
X50799693Y-99809796D01*
X50870591Y-99848875D01*
X50946641Y-99877539D01*
X51030875Y-99899066D01*
X51118961Y-99912026D01*
X51213783Y-99916469D01*
X51431037Y-99916469D01*
X51530832Y-99911614D01*
X51622645Y-99897509D01*
X51710234Y-99874017D01*
X51788700Y-99842738D01*
X51852723Y-99806580D01*
X51910607Y-99764336D01*
X51961814Y-99715032D01*
X52004855Y-99658273D01*
X52040849Y-99594685D01*
X52067869Y-99522444D01*
X52084298Y-99445371D01*
X52089943Y-99361060D01*
X52084411Y-99278012D01*
X52068419Y-99203249D01*
X52042030Y-99133563D01*
X52006961Y-99072182D01*
X51961920Y-99016293D01*
X51908501Y-98967127D01*
X51848259Y-98925237D01*
X51780457Y-98889733D01*
X51703248Y-98861192D01*
X51617516Y-98839999D01*
X51527908Y-98827456D01*
X51431037Y-98823146D01*
X51213783Y-98823146D01*
X51122952Y-98826937D01*
X51038569Y-98837984D01*
X50957710Y-98856571D01*
X50884879Y-98881581D01*
X50811356Y-98917554D01*
X50747035Y-98960441D01*
X50690288Y-99010991D01*
X50643079Y-99067053D01*
X50606928Y-99130379D01*
X50579515Y-99201234D01*
X50562786Y-99277174D01*
X50556983Y-99362160D01*
X50369483Y-99362160D01*
X50369483Y-98158653D01*
X50577500Y-98158653D01*
X50577561Y-98159660D01*
X50584745Y-98278037D01*
X50605160Y-98379937D01*
X50640497Y-98472412D01*
X50688142Y-98546999D01*
X50749959Y-98607550D01*
X50825437Y-98652512D01*
X50911687Y-98679774D01*
X51015030Y-98689423D01*
X51070642Y-98685667D01*
X51124115Y-98674494D01*
X51175057Y-98655676D01*
X51222026Y-98628973D01*
X51261277Y-98595949D01*
X51295757Y-98555609D01*
X51323508Y-98507238D01*
X51348055Y-98438372D01*
X51349063Y-98438372D01*
X51383867Y-98507523D01*
X51429022Y-98563394D01*
X51477748Y-98602931D01*
X51533985Y-98631538D01*
X51595488Y-98649026D01*
X51661571Y-98655626D01*
X51761471Y-98645527D01*
X51843013Y-98617158D01*
X51913121Y-98570762D01*
X51970050Y-98508073D01*
X52013027Y-98431886D01*
X52044788Y-98337439D01*
X52062997Y-98234416D01*
X52069426Y-98115605D01*
X52069426Y-97614510D01*
X50577500Y-97614510D01*
X50577500Y-98158653D01*
X50369483Y-98158653D01*
X50369483Y-97427010D01*
X52277443Y-97427010D01*
X52277443Y-102676945D01*
G37*
D12*
X93136779Y-87069819D02*
X93136779Y-86069819D01*
X93612969Y-87069819D02*
X93612969Y-86069819D01*
X93612969Y-86069819D02*
X94184397Y-87069819D01*
X94184397Y-87069819D02*
X94184397Y-86069819D01*
X94517731Y-86069819D02*
X95089159Y-86069819D01*
X94803445Y-87069819D02*
X94803445Y-86069819D01*
X95946302Y-87069819D02*
X95374874Y-87069819D01*
X95660588Y-87069819D02*
X95660588Y-86069819D01*
X95660588Y-86069819D02*
X95565350Y-86212676D01*
X95565350Y-86212676D02*
X95470112Y-86307914D01*
X95470112Y-86307914D02*
X95374874Y-86355533D01*
D11*
G36*
X81005473Y-73975025D02*
G01*
X81005473Y-74024667D01*
X81005473Y-74197866D01*
X81002020Y-74278072D01*
X80992650Y-74341847D01*
X80975900Y-74399139D01*
X80954182Y-74441773D01*
X80926258Y-74474130D01*
X80892725Y-74496544D01*
X80853858Y-74509829D01*
X80807728Y-74514496D01*
X80757930Y-74509115D01*
X80717511Y-74493980D01*
X80683403Y-74468571D01*
X80655046Y-74431515D01*
X80636529Y-74393793D01*
X80621707Y-74344412D01*
X80612556Y-74290123D01*
X80607876Y-74224519D01*
X81005473Y-73929412D01*
X81005473Y-73975025D01*
G37*
G36*
X80847219Y-73443172D02*
G01*
X80883016Y-73453414D01*
X80914647Y-73470967D01*
X80940901Y-73496004D01*
X80967121Y-73536187D01*
X80987521Y-73591808D01*
X80999564Y-73654840D01*
X81005473Y-73735697D01*
X80607876Y-74031903D01*
X80607876Y-73983726D01*
X80607876Y-73918147D01*
X80607876Y-73753191D01*
X80611338Y-73672970D01*
X80620699Y-73609668D01*
X80637719Y-73553029D01*
X80660175Y-73511299D01*
X80687932Y-73479726D01*
X80721083Y-73457535D01*
X80759488Y-73444267D01*
X80805621Y-73439583D01*
X80847219Y-73443172D01*
G37*
G36*
X79483149Y-73467270D02*
G01*
X79528842Y-73476037D01*
X79571902Y-73490365D01*
X79610358Y-73509284D01*
X79655410Y-73541924D01*
X79694897Y-73583107D01*
X79727580Y-73630854D01*
X79753790Y-73685505D01*
X79781908Y-73791568D01*
X79791708Y-73914025D01*
X79791708Y-74039047D01*
X79781908Y-74166633D01*
X79769761Y-74223847D01*
X79753790Y-74273703D01*
X79728590Y-74326409D01*
X79699934Y-74370515D01*
X79666365Y-74408696D01*
X79629775Y-74438659D01*
X79590056Y-74461126D01*
X79545786Y-74477677D01*
X79498555Y-74487550D01*
X79446410Y-74490957D01*
X79335768Y-74490957D01*
X79335768Y-73464221D01*
X79432030Y-73464221D01*
X79483149Y-73467270D01*
G37*
G36*
X81479836Y-74931523D02*
G01*
X76366189Y-74931523D01*
X76366189Y-74722500D01*
X76553689Y-74722500D01*
X77541499Y-74722500D01*
X77809494Y-74722500D01*
X78814706Y-74722500D01*
X78814706Y-74490957D01*
X79045699Y-74490957D01*
X79045699Y-74722500D01*
X79446410Y-74722500D01*
X79543847Y-74716229D01*
X79633347Y-74697953D01*
X79717811Y-74667717D01*
X79793723Y-74627245D01*
X79853306Y-74583836D01*
X79908487Y-74530341D01*
X79957382Y-74469860D01*
X79999712Y-74403854D01*
X80035784Y-74324052D01*
X80063276Y-74234777D01*
X80080055Y-74140762D01*
X80085807Y-74039047D01*
X80085807Y-73916040D01*
X80079651Y-73810459D01*
X80077399Y-73798254D01*
X80320922Y-73798254D01*
X80320922Y-74154818D01*
X80325460Y-74224519D01*
X80330013Y-74294447D01*
X80355268Y-74409533D01*
X80397960Y-74512479D01*
X80453179Y-74593356D01*
X80522530Y-74658937D01*
X80605770Y-74706105D01*
X80699712Y-74734230D01*
X80807728Y-74744023D01*
X80916532Y-74734208D01*
X81010511Y-74706105D01*
X81093844Y-74658935D01*
X81163285Y-74593356D01*
X81217399Y-74512533D01*
X81258997Y-74409533D01*
X81283504Y-74294498D01*
X81292336Y-74154818D01*
X81292336Y-73798254D01*
X81283384Y-73658608D01*
X81258539Y-73543631D01*
X81216544Y-73440359D01*
X81162185Y-73358617D01*
X81092082Y-73293879D01*
X81008496Y-73246967D01*
X80914506Y-73218867D01*
X80805621Y-73209049D01*
X80697761Y-73218853D01*
X80604304Y-73246967D01*
X80521351Y-73293886D01*
X80452080Y-73358617D01*
X80396985Y-73440430D01*
X80354719Y-73543631D01*
X80329873Y-73658608D01*
X80323810Y-73753191D01*
X80320922Y-73798254D01*
X80077399Y-73798254D01*
X80061719Y-73713258D01*
X80032288Y-73621115D01*
X79993575Y-73538960D01*
X79952441Y-73476893D01*
X79904915Y-73419708D01*
X79850745Y-73369087D01*
X79789693Y-73326926D01*
X79712497Y-73286347D01*
X79625654Y-73255669D01*
X79533387Y-73237003D01*
X79432030Y-73230573D01*
X79045699Y-73230573D01*
X79045699Y-74490957D01*
X78814706Y-74490957D01*
X78814706Y-74489858D01*
X78098373Y-74489858D01*
X78098373Y-74068722D01*
X78711209Y-74068722D01*
X78711209Y-73841302D01*
X78098373Y-73841302D01*
X78098373Y-73465229D01*
X78811592Y-73465229D01*
X78811592Y-73230573D01*
X77809494Y-73230573D01*
X77809494Y-74722500D01*
X77541499Y-74722500D01*
X77541499Y-74489858D01*
X76842659Y-74489858D01*
X76842659Y-73230573D01*
X76553689Y-73230573D01*
X76553689Y-74722500D01*
X76366189Y-74722500D01*
X76366189Y-73021549D01*
X81479836Y-73021549D01*
X81479836Y-74931523D01*
G37*
D12*
X89769819Y-89463220D02*
X88769819Y-89463220D01*
X88769819Y-89463220D02*
X89484104Y-89129887D01*
X89484104Y-89129887D02*
X88769819Y-88796554D01*
X88769819Y-88796554D02*
X89769819Y-88796554D01*
X89769819Y-88320363D02*
X88769819Y-88320363D01*
X89722200Y-87891792D02*
X89769819Y-87748935D01*
X89769819Y-87748935D02*
X89769819Y-87510840D01*
X89769819Y-87510840D02*
X89722200Y-87415602D01*
X89722200Y-87415602D02*
X89674580Y-87367983D01*
X89674580Y-87367983D02*
X89579342Y-87320364D01*
X89579342Y-87320364D02*
X89484104Y-87320364D01*
X89484104Y-87320364D02*
X89388866Y-87367983D01*
X89388866Y-87367983D02*
X89341247Y-87415602D01*
X89341247Y-87415602D02*
X89293628Y-87510840D01*
X89293628Y-87510840D02*
X89246009Y-87701316D01*
X89246009Y-87701316D02*
X89198390Y-87796554D01*
X89198390Y-87796554D02*
X89150771Y-87844173D01*
X89150771Y-87844173D02*
X89055533Y-87891792D01*
X89055533Y-87891792D02*
X88960295Y-87891792D01*
X88960295Y-87891792D02*
X88865057Y-87844173D01*
X88865057Y-87844173D02*
X88817438Y-87796554D01*
X88817438Y-87796554D02*
X88769819Y-87701316D01*
X88769819Y-87701316D02*
X88769819Y-87463221D01*
X88769819Y-87463221D02*
X88817438Y-87320364D01*
X88769819Y-86701316D02*
X88769819Y-86510840D01*
X88769819Y-86510840D02*
X88817438Y-86415602D01*
X88817438Y-86415602D02*
X88912676Y-86320364D01*
X88912676Y-86320364D02*
X89103152Y-86272745D01*
X89103152Y-86272745D02*
X89436485Y-86272745D01*
X89436485Y-86272745D02*
X89626961Y-86320364D01*
X89626961Y-86320364D02*
X89722200Y-86415602D01*
X89722200Y-86415602D02*
X89769819Y-86510840D01*
X89769819Y-86510840D02*
X89769819Y-86701316D01*
X89769819Y-86701316D02*
X89722200Y-86796554D01*
X89722200Y-86796554D02*
X89626961Y-86891792D01*
X89626961Y-86891792D02*
X89436485Y-86939411D01*
X89436485Y-86939411D02*
X89103152Y-86939411D01*
X89103152Y-86939411D02*
X88912676Y-86891792D01*
X88912676Y-86891792D02*
X88817438Y-86796554D01*
X88817438Y-86796554D02*
X88769819Y-86701316D01*
X84469819Y-129463220D02*
X83469819Y-129463220D01*
X83469819Y-129463220D02*
X84184104Y-129129887D01*
X84184104Y-129129887D02*
X83469819Y-128796554D01*
X83469819Y-128796554D02*
X84469819Y-128796554D01*
X83469819Y-128129887D02*
X83469819Y-127939411D01*
X83469819Y-127939411D02*
X83517438Y-127844173D01*
X83517438Y-127844173D02*
X83612676Y-127748935D01*
X83612676Y-127748935D02*
X83803152Y-127701316D01*
X83803152Y-127701316D02*
X84136485Y-127701316D01*
X84136485Y-127701316D02*
X84326961Y-127748935D01*
X84326961Y-127748935D02*
X84422200Y-127844173D01*
X84422200Y-127844173D02*
X84469819Y-127939411D01*
X84469819Y-127939411D02*
X84469819Y-128129887D01*
X84469819Y-128129887D02*
X84422200Y-128225125D01*
X84422200Y-128225125D02*
X84326961Y-128320363D01*
X84326961Y-128320363D02*
X84136485Y-128367982D01*
X84136485Y-128367982D02*
X83803152Y-128367982D01*
X83803152Y-128367982D02*
X83612676Y-128320363D01*
X83612676Y-128320363D02*
X83517438Y-128225125D01*
X83517438Y-128225125D02*
X83469819Y-128129887D01*
X84422200Y-127320363D02*
X84469819Y-127177506D01*
X84469819Y-127177506D02*
X84469819Y-126939411D01*
X84469819Y-126939411D02*
X84422200Y-126844173D01*
X84422200Y-126844173D02*
X84374580Y-126796554D01*
X84374580Y-126796554D02*
X84279342Y-126748935D01*
X84279342Y-126748935D02*
X84184104Y-126748935D01*
X84184104Y-126748935D02*
X84088866Y-126796554D01*
X84088866Y-126796554D02*
X84041247Y-126844173D01*
X84041247Y-126844173D02*
X83993628Y-126939411D01*
X83993628Y-126939411D02*
X83946009Y-127129887D01*
X83946009Y-127129887D02*
X83898390Y-127225125D01*
X83898390Y-127225125D02*
X83850771Y-127272744D01*
X83850771Y-127272744D02*
X83755533Y-127320363D01*
X83755533Y-127320363D02*
X83660295Y-127320363D01*
X83660295Y-127320363D02*
X83565057Y-127272744D01*
X83565057Y-127272744D02*
X83517438Y-127225125D01*
X83517438Y-127225125D02*
X83469819Y-127129887D01*
X83469819Y-127129887D02*
X83469819Y-126891792D01*
X83469819Y-126891792D02*
X83517438Y-126748935D01*
X84469819Y-126320363D02*
X83469819Y-126320363D01*
D13*
G36*
X110288274Y-140654788D02*
G01*
X107704468Y-140654788D01*
X107704468Y-140259501D01*
X107815579Y-140259501D01*
X107818936Y-140307092D01*
X107828528Y-140348683D01*
X107843911Y-140385225D01*
X107877126Y-140434017D01*
X107919443Y-140473274D01*
X107969442Y-140504085D01*
X108026971Y-140526275D01*
X108088167Y-140539318D01*
X108150985Y-140543677D01*
X108223113Y-140538688D01*
X108288616Y-140524199D01*
X108348889Y-140499811D01*
X108398953Y-140467168D01*
X108440350Y-140425981D01*
X108472042Y-140375638D01*
X108491827Y-140318273D01*
X108498726Y-140251257D01*
X108496287Y-140212368D01*
X108489139Y-140176153D01*
X108476963Y-140141898D01*
X108459769Y-140110573D01*
X108437516Y-140082989D01*
X108409516Y-140058000D01*
X108376994Y-140037151D01*
X108337465Y-140019715D01*
X108371285Y-140000777D01*
X108400296Y-139979049D01*
X108425631Y-139954145D01*
X108446092Y-139927513D01*
X108462356Y-139898611D01*
X108474057Y-139868407D01*
X108481255Y-139837020D01*
X108483644Y-139805209D01*
X108477308Y-139738344D01*
X108459403Y-139682599D01*
X108430187Y-139633704D01*
X108391442Y-139593450D01*
X108344117Y-139562707D01*
X108286235Y-139539839D01*
X108265221Y-139535382D01*
X108610406Y-139535382D01*
X108910947Y-140530000D01*
X109106341Y-140530000D01*
X109188276Y-140259501D01*
X109494016Y-140259501D01*
X109497373Y-140307092D01*
X109506965Y-140348683D01*
X109522348Y-140385225D01*
X109555563Y-140434017D01*
X109597880Y-140473274D01*
X109647879Y-140504085D01*
X109705408Y-140526275D01*
X109766604Y-140539318D01*
X109829422Y-140543677D01*
X109901550Y-140538688D01*
X109967053Y-140524199D01*
X110027326Y-140499811D01*
X110077390Y-140467168D01*
X110118787Y-140425981D01*
X110150479Y-140375638D01*
X110170264Y-140318273D01*
X110177163Y-140251257D01*
X110174724Y-140212368D01*
X110167576Y-140176153D01*
X110155400Y-140141898D01*
X110138206Y-140110573D01*
X110115953Y-140082989D01*
X110087953Y-140058000D01*
X110055431Y-140037151D01*
X110015901Y-140019715D01*
X110049722Y-140000777D01*
X110078733Y-139979049D01*
X110104068Y-139954145D01*
X110124528Y-139927513D01*
X110140793Y-139898611D01*
X110152494Y-139868407D01*
X110159691Y-139837020D01*
X110162081Y-139805209D01*
X110155745Y-139738344D01*
X110137840Y-139682599D01*
X110108624Y-139633704D01*
X110069879Y-139593450D01*
X110022554Y-139562707D01*
X109964672Y-139539839D01*
X109901299Y-139526398D01*
X109829422Y-139521704D01*
X109762687Y-139526777D01*
X109701988Y-139541549D01*
X109646144Y-139565611D01*
X109599223Y-139596870D01*
X109560118Y-139636589D01*
X109530530Y-139682965D01*
X109511980Y-139734942D01*
X109505617Y-139793607D01*
X109695516Y-139793607D01*
X109698325Y-139767284D01*
X109706446Y-139744392D01*
X109719411Y-139724106D01*
X109736549Y-139706840D01*
X109756348Y-139693668D01*
X109779902Y-139683637D01*
X109805468Y-139677500D01*
X109833513Y-139675394D01*
X109867087Y-139677928D01*
X109894635Y-139684980D01*
X109919048Y-139696676D01*
X109938049Y-139711603D01*
X109952927Y-139730895D01*
X109963633Y-139753674D01*
X109969974Y-139778754D01*
X109972182Y-139807285D01*
X109969989Y-139836588D01*
X109963633Y-139862972D01*
X109952853Y-139886840D01*
X109938049Y-139906325D01*
X109917216Y-139924206D01*
X109889872Y-139938077D01*
X109858522Y-139946359D01*
X109819164Y-139949373D01*
X109716032Y-139949373D01*
X109716032Y-140096896D01*
X109819164Y-140096896D01*
X109856983Y-140099232D01*
X109889200Y-140105811D01*
X109918486Y-140117236D01*
X109942812Y-140133105D01*
X109961944Y-140153880D01*
X109976273Y-140180244D01*
X109984819Y-140210677D01*
X109987936Y-140249242D01*
X109985357Y-140280340D01*
X109977983Y-140307311D01*
X109965675Y-140331383D01*
X109948979Y-140351031D01*
X109927069Y-140368239D01*
X109899764Y-140381072D01*
X109869223Y-140388655D01*
X109833513Y-140391331D01*
X109801638Y-140388784D01*
X109773368Y-140381439D01*
X109747693Y-140369395D01*
X109726290Y-140353778D01*
X109708162Y-140334884D01*
X109694844Y-140312440D01*
X109686698Y-140287332D01*
X109683914Y-140259501D01*
X109494016Y-140259501D01*
X109188276Y-140259501D01*
X109407615Y-139535382D01*
X109195856Y-139535382D01*
X109026413Y-140184335D01*
X109007972Y-140251990D01*
X108990875Y-140185006D01*
X108822165Y-139535382D01*
X108610406Y-139535382D01*
X108265221Y-139535382D01*
X108222862Y-139526398D01*
X108150985Y-139521704D01*
X108084251Y-139526777D01*
X108023551Y-139541549D01*
X107967708Y-139565611D01*
X107920786Y-139596870D01*
X107881681Y-139636589D01*
X107852093Y-139682965D01*
X107833544Y-139734942D01*
X107827180Y-139793607D01*
X108017079Y-139793607D01*
X108019888Y-139767284D01*
X108028009Y-139744392D01*
X108040975Y-139724106D01*
X108058112Y-139706840D01*
X108077911Y-139693668D01*
X108101465Y-139683637D01*
X108127031Y-139677500D01*
X108155076Y-139675394D01*
X108188650Y-139677928D01*
X108216198Y-139684980D01*
X108240611Y-139696676D01*
X108259612Y-139711603D01*
X108274490Y-139730895D01*
X108285197Y-139753674D01*
X108291537Y-139778754D01*
X108293745Y-139807285D01*
X108291552Y-139836588D01*
X108285197Y-139862972D01*
X108274417Y-139886840D01*
X108259612Y-139906325D01*
X108238779Y-139924206D01*
X108211435Y-139938077D01*
X108180085Y-139946359D01*
X108140727Y-139949373D01*
X108037595Y-139949373D01*
X108037595Y-140096896D01*
X108140727Y-140096896D01*
X108178546Y-140099232D01*
X108210764Y-140105811D01*
X108240050Y-140117236D01*
X108264375Y-140133105D01*
X108283507Y-140153880D01*
X108297836Y-140180244D01*
X108306382Y-140210677D01*
X108309499Y-140249242D01*
X108306920Y-140280340D01*
X108299546Y-140307311D01*
X108287238Y-140331383D01*
X108270542Y-140351031D01*
X108248633Y-140368239D01*
X108221327Y-140381072D01*
X108190787Y-140388655D01*
X108155076Y-140391331D01*
X108123201Y-140388784D01*
X108094931Y-140381439D01*
X108069256Y-140369395D01*
X108047854Y-140353778D01*
X108029726Y-140334884D01*
X108016407Y-140312440D01*
X108008261Y-140287332D01*
X108005478Y-140259501D01*
X107815579Y-140259501D01*
X107704468Y-140259501D01*
X107704468Y-139410593D01*
X110288274Y-139410593D01*
X110288274Y-140654788D01*
G37*
D12*
X84069819Y-124763220D02*
X83069819Y-124763220D01*
X84069819Y-124287030D02*
X83069819Y-124287030D01*
X83069819Y-124287030D02*
X84069819Y-123715602D01*
X84069819Y-123715602D02*
X83069819Y-123715602D01*
X83069819Y-123382268D02*
X83069819Y-122810840D01*
X84069819Y-123096554D02*
X83069819Y-123096554D01*
X85936779Y-81969819D02*
X85936779Y-80969819D01*
X86412969Y-81969819D02*
X86412969Y-80969819D01*
X86412969Y-80969819D02*
X86984397Y-81969819D01*
X86984397Y-81969819D02*
X86984397Y-80969819D01*
X87317731Y-80969819D02*
X87889159Y-80969819D01*
X87603445Y-81969819D02*
X87603445Y-80969819D01*
X88174874Y-81065057D02*
X88222493Y-81017438D01*
X88222493Y-81017438D02*
X88317731Y-80969819D01*
X88317731Y-80969819D02*
X88555826Y-80969819D01*
X88555826Y-80969819D02*
X88651064Y-81017438D01*
X88651064Y-81017438D02*
X88698683Y-81065057D01*
X88698683Y-81065057D02*
X88746302Y-81160295D01*
X88746302Y-81160295D02*
X88746302Y-81255533D01*
X88746302Y-81255533D02*
X88698683Y-81398390D01*
X88698683Y-81398390D02*
X88127255Y-81969819D01*
X88127255Y-81969819D02*
X88746302Y-81969819D01*
X98741541Y-81369819D02*
X99408207Y-81369819D01*
X99408207Y-81369819D02*
X98979636Y-82369819D01*
X99789160Y-82274580D02*
X99836779Y-82322200D01*
X99836779Y-82322200D02*
X99789160Y-82369819D01*
X99789160Y-82369819D02*
X99741541Y-82322200D01*
X99741541Y-82322200D02*
X99789160Y-82274580D01*
X99789160Y-82274580D02*
X99789160Y-82369819D01*
X100693921Y-81703152D02*
X100693921Y-82369819D01*
X100455826Y-81322200D02*
X100217731Y-82036485D01*
X100217731Y-82036485D02*
X100836778Y-82036485D01*
X101074874Y-81369819D02*
X101408207Y-82369819D01*
X101408207Y-82369819D02*
X101741540Y-81369819D01*
X103312969Y-82369819D02*
X102836779Y-82369819D01*
X102836779Y-82369819D02*
X102836779Y-81369819D01*
X103646303Y-82369819D02*
X103646303Y-81703152D01*
X103646303Y-81369819D02*
X103598684Y-81417438D01*
X103598684Y-81417438D02*
X103646303Y-81465057D01*
X103646303Y-81465057D02*
X103693922Y-81417438D01*
X103693922Y-81417438D02*
X103646303Y-81369819D01*
X103646303Y-81369819D02*
X103646303Y-81465057D01*
X104122493Y-81988866D02*
X104884398Y-81988866D01*
X105360588Y-82369819D02*
X105360588Y-81703152D01*
X105360588Y-81369819D02*
X105312969Y-81417438D01*
X105312969Y-81417438D02*
X105360588Y-81465057D01*
X105360588Y-81465057D02*
X105408207Y-81417438D01*
X105408207Y-81417438D02*
X105360588Y-81369819D01*
X105360588Y-81369819D02*
X105360588Y-81465057D01*
X105979635Y-82369819D02*
X105884397Y-82322200D01*
X105884397Y-82322200D02*
X105836778Y-82274580D01*
X105836778Y-82274580D02*
X105789159Y-82179342D01*
X105789159Y-82179342D02*
X105789159Y-81893628D01*
X105789159Y-81893628D02*
X105836778Y-81798390D01*
X105836778Y-81798390D02*
X105884397Y-81750771D01*
X105884397Y-81750771D02*
X105979635Y-81703152D01*
X105979635Y-81703152D02*
X106122492Y-81703152D01*
X106122492Y-81703152D02*
X106217730Y-81750771D01*
X106217730Y-81750771D02*
X106265349Y-81798390D01*
X106265349Y-81798390D02*
X106312968Y-81893628D01*
X106312968Y-81893628D02*
X106312968Y-82179342D01*
X106312968Y-82179342D02*
X106265349Y-82274580D01*
X106265349Y-82274580D02*
X106217730Y-82322200D01*
X106217730Y-82322200D02*
X106122492Y-82369819D01*
X106122492Y-82369819D02*
X105979635Y-82369819D01*
X106741540Y-81703152D02*
X106741540Y-82369819D01*
X106741540Y-81798390D02*
X106789159Y-81750771D01*
X106789159Y-81750771D02*
X106884397Y-81703152D01*
X106884397Y-81703152D02*
X107027254Y-81703152D01*
X107027254Y-81703152D02*
X107122492Y-81750771D01*
X107122492Y-81750771D02*
X107170111Y-81846009D01*
X107170111Y-81846009D02*
X107170111Y-82369819D01*
D11*
G36*
X86029771Y-74910000D02*
G01*
X84989728Y-74910000D01*
X84989728Y-73465229D01*
X85177228Y-73465229D01*
X85177228Y-73713166D01*
X85554309Y-73577978D01*
X85554309Y-74722500D01*
X85842271Y-74722500D01*
X85842271Y-73230573D01*
X85826884Y-73230573D01*
X85177228Y-73465229D01*
X84989728Y-73465229D01*
X84989728Y-73043073D01*
X86029771Y-73043073D01*
X86029771Y-74910000D01*
G37*
D12*
X88326037Y-64274874D02*
X88373656Y-64132017D01*
X88373656Y-64132017D02*
X88421275Y-64084398D01*
X88421275Y-64084398D02*
X88516513Y-64036779D01*
X88516513Y-64036779D02*
X88659370Y-64036779D01*
X88659370Y-64036779D02*
X88754608Y-64084398D01*
X88754608Y-64084398D02*
X88802228Y-64132017D01*
X88802228Y-64132017D02*
X88849847Y-64227255D01*
X88849847Y-64227255D02*
X88849847Y-64608207D01*
X88849847Y-64608207D02*
X87849847Y-64608207D01*
X87849847Y-64608207D02*
X87849847Y-64274874D01*
X87849847Y-64274874D02*
X87897466Y-64179636D01*
X87897466Y-64179636D02*
X87945085Y-64132017D01*
X87945085Y-64132017D02*
X88040323Y-64084398D01*
X88040323Y-64084398D02*
X88135561Y-64084398D01*
X88135561Y-64084398D02*
X88230799Y-64132017D01*
X88230799Y-64132017D02*
X88278418Y-64179636D01*
X88278418Y-64179636D02*
X88326037Y-64274874D01*
X88326037Y-64274874D02*
X88326037Y-64608207D01*
X87849847Y-63608207D02*
X88659370Y-63608207D01*
X88659370Y-63608207D02*
X88754608Y-63560588D01*
X88754608Y-63560588D02*
X88802228Y-63512969D01*
X88802228Y-63512969D02*
X88849847Y-63417731D01*
X88849847Y-63417731D02*
X88849847Y-63227255D01*
X88849847Y-63227255D02*
X88802228Y-63132017D01*
X88802228Y-63132017D02*
X88754608Y-63084398D01*
X88754608Y-63084398D02*
X88659370Y-63036779D01*
X88659370Y-63036779D02*
X87849847Y-63036779D01*
X88754608Y-61989160D02*
X88802228Y-62036779D01*
X88802228Y-62036779D02*
X88849847Y-62179636D01*
X88849847Y-62179636D02*
X88849847Y-62274874D01*
X88849847Y-62274874D02*
X88802228Y-62417731D01*
X88802228Y-62417731D02*
X88706989Y-62512969D01*
X88706989Y-62512969D02*
X88611751Y-62560588D01*
X88611751Y-62560588D02*
X88421275Y-62608207D01*
X88421275Y-62608207D02*
X88278418Y-62608207D01*
X88278418Y-62608207D02*
X88087942Y-62560588D01*
X88087942Y-62560588D02*
X87992704Y-62512969D01*
X87992704Y-62512969D02*
X87897466Y-62417731D01*
X87897466Y-62417731D02*
X87849847Y-62274874D01*
X87849847Y-62274874D02*
X87849847Y-62179636D01*
X87849847Y-62179636D02*
X87897466Y-62036779D01*
X87897466Y-62036779D02*
X87945085Y-61989160D01*
X88849847Y-61560588D02*
X87849847Y-61560588D01*
X88849847Y-60989160D02*
X88278418Y-61417731D01*
X87849847Y-60989160D02*
X88421275Y-61560588D01*
X90459791Y-62084397D02*
X89459791Y-62084397D01*
X90459791Y-61608207D02*
X89459791Y-61608207D01*
X89459791Y-61608207D02*
X90459791Y-61036779D01*
X90459791Y-61036779D02*
X89459791Y-61036779D01*
X84646087Y-93069809D02*
X83938980Y-92362702D01*
X83938980Y-92362702D02*
X84679758Y-92632076D01*
X84679758Y-92632076D02*
X84410384Y-91891297D01*
X84410384Y-91891297D02*
X85117491Y-92598404D01*
X84881789Y-91419893D02*
X85016476Y-91285206D01*
X85016476Y-91285206D02*
X85117491Y-91251534D01*
X85117491Y-91251534D02*
X85252178Y-91251534D01*
X85252178Y-91251534D02*
X85420537Y-91352550D01*
X85420537Y-91352550D02*
X85656239Y-91588252D01*
X85656239Y-91588252D02*
X85757254Y-91756611D01*
X85757254Y-91756611D02*
X85757254Y-91891298D01*
X85757254Y-91891298D02*
X85723582Y-91992313D01*
X85723582Y-91992313D02*
X85588895Y-92127000D01*
X85588895Y-92127000D02*
X85487880Y-92160672D01*
X85487880Y-92160672D02*
X85353193Y-92160672D01*
X85353193Y-92160672D02*
X85184834Y-92059656D01*
X85184834Y-92059656D02*
X84949132Y-91823954D01*
X84949132Y-91823954D02*
X84848117Y-91655595D01*
X84848117Y-91655595D02*
X84848117Y-91520908D01*
X84848117Y-91520908D02*
X84881789Y-91419893D01*
X86127643Y-91520908D02*
X86262330Y-91453565D01*
X86262330Y-91453565D02*
X86430689Y-91285206D01*
X86430689Y-91285206D02*
X86464361Y-91184191D01*
X86464361Y-91184191D02*
X86464361Y-91116847D01*
X86464361Y-91116847D02*
X86430689Y-91015832D01*
X86430689Y-91015832D02*
X86363346Y-90948489D01*
X86363346Y-90948489D02*
X86262330Y-90914817D01*
X86262330Y-90914817D02*
X86194987Y-90914817D01*
X86194987Y-90914817D02*
X86093972Y-90948489D01*
X86093972Y-90948489D02*
X85925613Y-91049504D01*
X85925613Y-91049504D02*
X85824598Y-91083176D01*
X85824598Y-91083176D02*
X85757254Y-91083176D01*
X85757254Y-91083176D02*
X85656239Y-91049504D01*
X85656239Y-91049504D02*
X85588895Y-90982160D01*
X85588895Y-90982160D02*
X85555224Y-90881145D01*
X85555224Y-90881145D02*
X85555224Y-90813802D01*
X85555224Y-90813802D02*
X85588895Y-90712786D01*
X85588895Y-90712786D02*
X85757254Y-90544428D01*
X85757254Y-90544428D02*
X85891941Y-90477084D01*
X86868422Y-90847473D02*
X86161315Y-90140367D01*
X81969819Y-129463220D02*
X80969819Y-129463220D01*
X80969819Y-129463220D02*
X81684104Y-129129887D01*
X81684104Y-129129887D02*
X80969819Y-128796554D01*
X80969819Y-128796554D02*
X81969819Y-128796554D01*
X81969819Y-128320363D02*
X80969819Y-128320363D01*
X81922200Y-127891792D02*
X81969819Y-127748935D01*
X81969819Y-127748935D02*
X81969819Y-127510840D01*
X81969819Y-127510840D02*
X81922200Y-127415602D01*
X81922200Y-127415602D02*
X81874580Y-127367983D01*
X81874580Y-127367983D02*
X81779342Y-127320364D01*
X81779342Y-127320364D02*
X81684104Y-127320364D01*
X81684104Y-127320364D02*
X81588866Y-127367983D01*
X81588866Y-127367983D02*
X81541247Y-127415602D01*
X81541247Y-127415602D02*
X81493628Y-127510840D01*
X81493628Y-127510840D02*
X81446009Y-127701316D01*
X81446009Y-127701316D02*
X81398390Y-127796554D01*
X81398390Y-127796554D02*
X81350771Y-127844173D01*
X81350771Y-127844173D02*
X81255533Y-127891792D01*
X81255533Y-127891792D02*
X81160295Y-127891792D01*
X81160295Y-127891792D02*
X81065057Y-127844173D01*
X81065057Y-127844173D02*
X81017438Y-127796554D01*
X81017438Y-127796554D02*
X80969819Y-127701316D01*
X80969819Y-127701316D02*
X80969819Y-127463221D01*
X80969819Y-127463221D02*
X81017438Y-127320364D01*
X80969819Y-126701316D02*
X80969819Y-126510840D01*
X80969819Y-126510840D02*
X81017438Y-126415602D01*
X81017438Y-126415602D02*
X81112676Y-126320364D01*
X81112676Y-126320364D02*
X81303152Y-126272745D01*
X81303152Y-126272745D02*
X81636485Y-126272745D01*
X81636485Y-126272745D02*
X81826961Y-126320364D01*
X81826961Y-126320364D02*
X81922200Y-126415602D01*
X81922200Y-126415602D02*
X81969819Y-126510840D01*
X81969819Y-126510840D02*
X81969819Y-126701316D01*
X81969819Y-126701316D02*
X81922200Y-126796554D01*
X81922200Y-126796554D02*
X81826961Y-126891792D01*
X81826961Y-126891792D02*
X81636485Y-126939411D01*
X81636485Y-126939411D02*
X81303152Y-126939411D01*
X81303152Y-126939411D02*
X81112676Y-126891792D01*
X81112676Y-126891792D02*
X81017438Y-126796554D01*
X81017438Y-126796554D02*
X80969819Y-126701316D01*
X73982804Y-128598404D02*
X73982804Y-128665748D01*
X73982804Y-128665748D02*
X73915461Y-128800435D01*
X73915461Y-128800435D02*
X73848117Y-128867778D01*
X73848117Y-128867778D02*
X73713430Y-128935122D01*
X73713430Y-128935122D02*
X73578743Y-128935122D01*
X73578743Y-128935122D02*
X73477728Y-128901450D01*
X73477728Y-128901450D02*
X73309369Y-128800435D01*
X73309369Y-128800435D02*
X73208354Y-128699420D01*
X73208354Y-128699420D02*
X73107339Y-128531061D01*
X73107339Y-128531061D02*
X73073667Y-128430046D01*
X73073667Y-128430046D02*
X73073667Y-128295358D01*
X73073667Y-128295358D02*
X73141010Y-128160671D01*
X73141010Y-128160671D02*
X73208354Y-128093328D01*
X73208354Y-128093328D02*
X73343041Y-128025984D01*
X73343041Y-128025984D02*
X73410384Y-128025984D01*
X74689911Y-128025984D02*
X74353193Y-128362702D01*
X74353193Y-128362702D02*
X73646087Y-127655595D01*
X74925613Y-127790282D02*
X74218506Y-127083175D01*
X75329674Y-127386221D02*
X74622567Y-127285206D01*
X74622567Y-126679114D02*
X74622567Y-127487236D01*
X69346087Y-124369809D02*
X68638980Y-123662702D01*
X69110384Y-123191298D02*
X69245071Y-123056611D01*
X69245071Y-123056611D02*
X69346086Y-123022939D01*
X69346086Y-123022939D02*
X69480773Y-123022939D01*
X69480773Y-123022939D02*
X69649132Y-123123954D01*
X69649132Y-123123954D02*
X69884834Y-123359657D01*
X69884834Y-123359657D02*
X69985849Y-123528015D01*
X69985849Y-123528015D02*
X69985849Y-123662702D01*
X69985849Y-123662702D02*
X69952178Y-123763718D01*
X69952178Y-123763718D02*
X69817491Y-123898405D01*
X69817491Y-123898405D02*
X69716475Y-123932076D01*
X69716475Y-123932076D02*
X69581788Y-123932076D01*
X69581788Y-123932076D02*
X69413430Y-123831061D01*
X69413430Y-123831061D02*
X69177727Y-123595359D01*
X69177727Y-123595359D02*
X69076712Y-123427000D01*
X69076712Y-123427000D02*
X69076712Y-123292313D01*
X69076712Y-123292313D02*
X69110384Y-123191298D01*
X69750147Y-122686222D02*
X69750147Y-122618878D01*
X69750147Y-122618878D02*
X69783819Y-122517863D01*
X69783819Y-122517863D02*
X69952178Y-122349504D01*
X69952178Y-122349504D02*
X70053193Y-122315832D01*
X70053193Y-122315832D02*
X70120536Y-122315832D01*
X70120536Y-122315832D02*
X70221552Y-122349504D01*
X70221552Y-122349504D02*
X70288895Y-122416848D01*
X70288895Y-122416848D02*
X70356239Y-122551535D01*
X70356239Y-122551535D02*
X70356239Y-123359657D01*
X70356239Y-123359657D02*
X70793971Y-122921924D01*
D11*
G36*
X72346458Y-61195795D02*
G01*
X72166566Y-61308204D01*
X72115791Y-61335464D01*
X72069466Y-61351923D01*
X72023324Y-61359802D01*
X71981670Y-61358507D01*
X71937526Y-61346687D01*
X71896179Y-61323150D01*
X71859622Y-61289636D01*
X71825285Y-61243571D01*
X71803044Y-61201204D01*
X71789788Y-61160666D01*
X71784545Y-61119777D01*
X71787718Y-61080958D01*
X71801634Y-61035497D01*
X71828677Y-60990778D01*
X71866365Y-60950758D01*
X71918130Y-60912525D01*
X72098877Y-60799582D01*
X72346458Y-61195795D01*
G37*
G36*
X74465861Y-59871445D02*
G01*
X74277347Y-59989242D01*
X74224615Y-60016106D01*
X74176597Y-60029193D01*
X74128815Y-60031643D01*
X74084084Y-60024253D01*
X74042917Y-60007089D01*
X74004497Y-59980886D01*
X73970549Y-59947523D01*
X73940291Y-59906308D01*
X73919965Y-59866698D01*
X73907037Y-59824918D01*
X73902064Y-59781892D01*
X73905957Y-59739190D01*
X73919813Y-59697407D01*
X73943673Y-59656437D01*
X73976864Y-59619746D01*
X74024330Y-59584329D01*
X74212844Y-59466533D01*
X74465861Y-59871445D01*
G37*
G36*
X75092252Y-59976644D02*
G01*
X71725854Y-62080202D01*
X70773806Y-60556607D01*
X70994902Y-60556607D01*
X71001940Y-60567870D01*
X71600308Y-60920175D01*
X71566372Y-60977385D01*
X71540764Y-61034712D01*
X71523390Y-61094202D01*
X71520080Y-61119777D01*
X71515442Y-61155620D01*
X71517615Y-61216891D01*
X71530343Y-61281096D01*
X71553635Y-61344791D01*
X71590563Y-61413246D01*
X71655357Y-61497960D01*
X71726324Y-61557918D01*
X71806829Y-61598801D01*
X71893239Y-61619185D01*
X71984783Y-61619549D01*
X72084598Y-61600485D01*
X72184126Y-61563756D01*
X72290381Y-61506350D01*
X72714402Y-61241392D01*
X71923801Y-59976167D01*
X71679673Y-60128715D01*
X71975062Y-60601437D01*
X71789966Y-60717098D01*
X71256429Y-60393187D01*
X70994902Y-60556607D01*
X70773806Y-60556607D01*
X70736533Y-60496957D01*
X71878103Y-59783625D01*
X72231932Y-59783625D01*
X72846991Y-61158542D01*
X73071157Y-61018467D01*
X72714135Y-60255607D01*
X72687092Y-60198848D01*
X72727505Y-60246064D01*
X73277069Y-60889799D01*
X73451757Y-60780641D01*
X73111357Y-60013443D01*
X73086557Y-59956470D01*
X73123611Y-60002114D01*
X73649903Y-60656826D01*
X73873215Y-60517286D01*
X73269681Y-59793406D01*
X73625329Y-59793406D01*
X73628927Y-59884541D01*
X73651906Y-59974000D01*
X73695444Y-60061682D01*
X73758808Y-60144900D01*
X73830933Y-60207819D01*
X73912937Y-60253483D01*
X74001255Y-60280242D01*
X74094566Y-60286810D01*
X74195545Y-60274183D01*
X74296044Y-60242244D01*
X74401162Y-60187387D01*
X74833882Y-59916994D01*
X74043281Y-58651768D01*
X73799075Y-58804365D01*
X74089029Y-59268387D01*
X73900515Y-59386184D01*
X73805033Y-59456512D01*
X73732076Y-59532477D01*
X73676285Y-59617391D01*
X73641216Y-59704059D01*
X73627376Y-59781892D01*
X73625329Y-59793406D01*
X73269681Y-59793406D01*
X72908858Y-59360635D01*
X72688109Y-59498574D01*
X73008861Y-60247809D01*
X73039495Y-60318093D01*
X72989753Y-60259749D01*
X72452603Y-59645734D01*
X72231932Y-59783625D01*
X71878103Y-59783625D01*
X74102931Y-58393399D01*
X75092252Y-59976644D01*
G37*
D12*
X75436779Y-137269819D02*
X75436779Y-136269819D01*
X75912969Y-137269819D02*
X75912969Y-136269819D01*
X75912969Y-136269819D02*
X76484397Y-137269819D01*
X76484397Y-137269819D02*
X76484397Y-136269819D01*
X76817731Y-136269819D02*
X77389159Y-136269819D01*
X77103445Y-137269819D02*
X77103445Y-136269819D01*
D11*
G36*
X65337120Y-74794157D02*
G01*
X65309353Y-74830344D01*
X65279133Y-74869728D01*
X65173696Y-75007136D01*
X65122130Y-75068665D01*
X65075873Y-75113558D01*
X65027707Y-75148813D01*
X64984523Y-75169416D01*
X64942672Y-75178088D01*
X64902423Y-75175456D01*
X64863500Y-75162335D01*
X64824062Y-75137956D01*
X64787830Y-75103371D01*
X64764978Y-75066758D01*
X64753386Y-75025836D01*
X64753447Y-74979175D01*
X64761720Y-74937976D01*
X64780022Y-74889776D01*
X64805811Y-74841136D01*
X64842036Y-74786239D01*
X65337120Y-74794157D01*
G37*
G36*
X65398759Y-74246666D02*
G01*
X65437305Y-74259520D01*
X65476756Y-74283888D01*
X65507573Y-74312058D01*
X65529738Y-74341975D01*
X65544148Y-74375157D01*
X65549735Y-74411002D01*
X65546074Y-74458844D01*
X65528399Y-74515389D01*
X65499582Y-74572727D01*
X65455047Y-74640473D01*
X64959293Y-74633427D01*
X64988621Y-74595206D01*
X65028544Y-74543178D01*
X65128962Y-74412310D01*
X65180544Y-74350774D01*
X65226506Y-74306251D01*
X65274489Y-74271677D01*
X65317708Y-74252242D01*
X65358949Y-74244090D01*
X65398759Y-74246666D01*
G37*
G36*
X62148087Y-72517643D02*
G01*
X62191211Y-72556887D01*
X62221016Y-72594269D01*
X62241646Y-72634162D01*
X62251093Y-72672878D01*
X62251461Y-72711541D01*
X62242062Y-72751149D01*
X62224318Y-72789826D01*
X62197314Y-72830529D01*
X62165557Y-72864744D01*
X62130846Y-72889317D01*
X62092388Y-72905265D01*
X62050927Y-72911924D01*
X62012050Y-72909219D01*
X61968299Y-72897587D01*
X61925101Y-72877734D01*
X61879525Y-72847478D01*
X61676284Y-72691525D01*
X61935109Y-72354219D01*
X62148087Y-72517643D01*
G37*
G36*
X62469128Y-72008379D02*
G01*
X62519699Y-72053004D01*
X62556113Y-72094521D01*
X62582085Y-72138690D01*
X62593465Y-72181252D01*
X62594442Y-72213570D01*
X62587167Y-72247535D01*
X62572475Y-72280948D01*
X62548534Y-72317292D01*
X62520399Y-72348043D01*
X62490782Y-72369838D01*
X62458259Y-72384461D01*
X62424559Y-72391294D01*
X62381656Y-72390462D01*
X62333171Y-72377392D01*
X62284842Y-72354384D01*
X62231622Y-72319559D01*
X62061733Y-72189199D01*
X62300039Y-71878632D01*
X62469128Y-72008379D01*
G37*
G36*
X66266130Y-74362675D02*
G01*
X65103411Y-75877960D01*
X63939271Y-74984684D01*
X64494773Y-74984684D01*
X64501365Y-75025836D01*
X64509870Y-75078931D01*
X64547194Y-75167025D01*
X64604602Y-75246527D01*
X64684335Y-75320052D01*
X64776630Y-75378501D01*
X64868296Y-75413415D01*
X64963124Y-75426723D01*
X65058137Y-75416969D01*
X65150271Y-75385791D01*
X65245976Y-75329398D01*
X65335447Y-75253054D01*
X65427486Y-75147615D01*
X65644548Y-74864734D01*
X65722457Y-74748496D01*
X65772740Y-74642153D01*
X65802291Y-74534657D01*
X65808927Y-74436715D01*
X65792720Y-74342679D01*
X65754964Y-74254577D01*
X65697504Y-74175066D01*
X65617097Y-74100992D01*
X65525557Y-74043109D01*
X65434298Y-74008521D01*
X65339924Y-73995245D01*
X65245562Y-74004430D01*
X65152048Y-74035797D01*
X65055691Y-74091942D01*
X64965986Y-74168035D01*
X64873873Y-74273374D01*
X64656811Y-74556255D01*
X64605198Y-74633427D01*
X64579023Y-74672565D01*
X64528999Y-74779243D01*
X64500199Y-74886904D01*
X64494773Y-74984684D01*
X63939271Y-74984684D01*
X62954567Y-74229094D01*
X63297928Y-74229094D01*
X63527982Y-74405621D01*
X64113710Y-73642285D01*
X63857223Y-74658257D01*
X64084879Y-74832944D01*
X64993107Y-73649318D01*
X64763852Y-73473405D01*
X64179833Y-74232858D01*
X64436210Y-73221996D01*
X64206155Y-73045469D01*
X63297928Y-74229094D01*
X62954567Y-74229094D01*
X62237955Y-73679218D01*
X62581314Y-73679218D01*
X62810570Y-73855131D01*
X63575947Y-72857671D01*
X63940939Y-73137739D01*
X64083789Y-72951574D01*
X63129419Y-72219260D01*
X62986569Y-72405425D01*
X63346692Y-72681758D01*
X62581314Y-73679218D01*
X62237955Y-73679218D01*
X61029406Y-72751866D01*
X61069068Y-72700178D01*
X61305406Y-72700178D01*
X61737103Y-73031431D01*
X61836228Y-73098360D01*
X61929498Y-73144196D01*
X62024375Y-73172457D01*
X62112553Y-73180063D01*
X62198223Y-73167881D01*
X62279842Y-73135372D01*
X62353977Y-73083542D01*
X62424543Y-73007428D01*
X62455417Y-72961021D01*
X62479106Y-72911796D01*
X62495188Y-72859926D01*
X62502596Y-72806407D01*
X62500291Y-72755163D01*
X62489276Y-72703251D01*
X62467796Y-72651788D01*
X62428104Y-72590391D01*
X62428717Y-72589591D01*
X62504766Y-72604076D01*
X62576579Y-72602264D01*
X62637609Y-72587676D01*
X62694539Y-72560474D01*
X62745855Y-72522327D01*
X62791320Y-72473917D01*
X62844123Y-72388514D01*
X62871255Y-72306552D01*
X62877126Y-72222687D01*
X62862048Y-72139360D01*
X62827767Y-72058885D01*
X62772172Y-71976191D01*
X62701523Y-71899028D01*
X62611179Y-71821600D01*
X62213633Y-71516553D01*
X61697494Y-72189199D01*
X61312046Y-72691525D01*
X61305406Y-72700178D01*
X61069068Y-72700178D01*
X62192125Y-71236580D01*
X66266130Y-74362675D01*
G37*
D12*
X72346087Y-127269809D02*
X71638980Y-126562702D01*
X72110384Y-126091298D02*
X72245071Y-125956611D01*
X72245071Y-125956611D02*
X72346086Y-125922939D01*
X72346086Y-125922939D02*
X72480773Y-125922939D01*
X72480773Y-125922939D02*
X72649132Y-126023954D01*
X72649132Y-126023954D02*
X72884834Y-126259657D01*
X72884834Y-126259657D02*
X72985849Y-126428015D01*
X72985849Y-126428015D02*
X72985849Y-126562702D01*
X72985849Y-126562702D02*
X72952178Y-126663718D01*
X72952178Y-126663718D02*
X72817491Y-126798405D01*
X72817491Y-126798405D02*
X72716475Y-126832076D01*
X72716475Y-126832076D02*
X72581788Y-126832076D01*
X72581788Y-126832076D02*
X72413430Y-126731061D01*
X72413430Y-126731061D02*
X72177727Y-126495359D01*
X72177727Y-126495359D02*
X72076712Y-126327000D01*
X72076712Y-126327000D02*
X72076712Y-126192313D01*
X72076712Y-126192313D02*
X72110384Y-126091298D01*
X72851162Y-125350519D02*
X72918506Y-125283176D01*
X72918506Y-125283176D02*
X73019521Y-125249504D01*
X73019521Y-125249504D02*
X73086865Y-125249504D01*
X73086865Y-125249504D02*
X73187880Y-125283176D01*
X73187880Y-125283176D02*
X73356239Y-125384191D01*
X73356239Y-125384191D02*
X73524597Y-125552550D01*
X73524597Y-125552550D02*
X73625613Y-125720909D01*
X73625613Y-125720909D02*
X73659284Y-125821924D01*
X73659284Y-125821924D02*
X73659284Y-125889267D01*
X73659284Y-125889267D02*
X73625613Y-125990283D01*
X73625613Y-125990283D02*
X73558269Y-126057626D01*
X73558269Y-126057626D02*
X73457254Y-126091298D01*
X73457254Y-126091298D02*
X73389910Y-126091298D01*
X73389910Y-126091298D02*
X73288895Y-126057626D01*
X73288895Y-126057626D02*
X73120536Y-125956611D01*
X73120536Y-125956611D02*
X72952178Y-125788252D01*
X72952178Y-125788252D02*
X72851162Y-125619893D01*
X72851162Y-125619893D02*
X72817491Y-125518878D01*
X72817491Y-125518878D02*
X72817491Y-125451535D01*
X72817491Y-125451535D02*
X72851162Y-125350519D01*
D11*
G36*
X59414854Y-92621133D02*
G01*
X59398138Y-92715932D01*
X59386260Y-92765746D01*
X59369691Y-92809222D01*
X59348103Y-92849140D01*
X59322794Y-92883726D01*
X59282827Y-92922425D01*
X59235413Y-92954161D01*
X59182716Y-92978056D01*
X59124343Y-92994378D01*
X59015009Y-93003652D01*
X58892711Y-92992039D01*
X58769588Y-92970329D01*
X58645642Y-92938522D01*
X58591407Y-92916624D01*
X58545081Y-92892239D01*
X58497552Y-92858270D01*
X58459092Y-92822390D01*
X58427320Y-92782701D01*
X58404167Y-92741464D01*
X58388938Y-92698447D01*
X58380326Y-92651976D01*
X58378805Y-92603747D01*
X58384504Y-92551803D01*
X58403717Y-92442842D01*
X59414854Y-92621133D01*
G37*
G36*
X58924934Y-91215857D02*
G01*
X59028568Y-91229945D01*
X59244596Y-91268036D01*
X59351679Y-91291568D01*
X59443977Y-91323003D01*
X59495260Y-91348705D01*
X59536437Y-91377251D01*
X59570963Y-91410866D01*
X59596820Y-91447793D01*
X59616009Y-91509862D01*
X59613563Y-91582811D01*
X59603592Y-91622520D01*
X59589204Y-91656081D01*
X59547137Y-91711627D01*
X59510970Y-91737776D01*
X59466465Y-91758785D01*
X59417540Y-91773240D01*
X59362030Y-91781944D01*
X59264564Y-91782986D01*
X59156150Y-91769636D01*
X58940122Y-91731545D01*
X58836206Y-91707455D01*
X58746317Y-91674493D01*
X58696858Y-91648367D01*
X58655582Y-91619432D01*
X58620655Y-91585739D01*
X58594641Y-91548885D01*
X58579458Y-91516199D01*
X58570411Y-91480068D01*
X58567866Y-91442054D01*
X58572018Y-91400275D01*
X58583008Y-91357932D01*
X58599077Y-91323295D01*
X58620814Y-91293107D01*
X58647362Y-91267823D01*
X58682548Y-91246500D01*
X58727425Y-91229393D01*
X58776397Y-91218656D01*
X58830614Y-91213827D01*
X58924934Y-91215857D01*
G37*
G36*
X60369558Y-89750181D02*
G01*
X59470545Y-94848739D01*
X57591572Y-94517426D01*
X57617762Y-94368896D01*
X57828987Y-94368896D01*
X58058094Y-94409294D01*
X58182484Y-93703843D01*
X58597222Y-93776972D01*
X58490804Y-94380498D01*
X58714770Y-94419989D01*
X58821188Y-93816463D01*
X59191547Y-93881768D01*
X59067698Y-94584152D01*
X59298789Y-94624899D01*
X59472802Y-93638026D01*
X58003540Y-93378955D01*
X57828987Y-94368896D01*
X57617762Y-94368896D01*
X57928142Y-92608641D01*
X58145735Y-92608641D01*
X58148191Y-92699956D01*
X58163301Y-92788386D01*
X58189976Y-92870174D01*
X58222379Y-92936389D01*
X58265479Y-93000021D01*
X58316551Y-93058676D01*
X58374204Y-93111824D01*
X58446529Y-93161206D01*
X58529674Y-93203782D01*
X58619347Y-93236632D01*
X58718518Y-93259960D01*
X58839656Y-93281320D01*
X58944702Y-93293591D01*
X59043541Y-93292810D01*
X59139394Y-93279827D01*
X59227024Y-93255968D01*
X59295290Y-93226236D01*
X59359860Y-93189363D01*
X59419119Y-93144806D01*
X59471240Y-93092003D01*
X59524608Y-93023026D01*
X59569900Y-92942829D01*
X59604304Y-92855205D01*
X59628237Y-92756505D01*
X59695323Y-92376043D01*
X58226062Y-92116973D01*
X58156479Y-92511596D01*
X58146277Y-92603747D01*
X58145735Y-92608641D01*
X57928142Y-92608641D01*
X58134367Y-91439079D01*
X58329982Y-91439079D01*
X58330063Y-91442054D01*
X58332013Y-91513458D01*
X58343842Y-91585418D01*
X58364249Y-91651859D01*
X58398761Y-91720646D01*
X58444903Y-91784660D01*
X58500143Y-91842143D01*
X58563178Y-91892939D01*
X58633095Y-91934374D01*
X58712312Y-91970202D01*
X58796808Y-91998260D01*
X58889418Y-92019101D01*
X59103372Y-92056827D01*
X59202494Y-92069375D01*
X59295361Y-92071428D01*
X59385699Y-92063503D01*
X59468404Y-92046324D01*
X59537734Y-92021833D01*
X59602074Y-91990282D01*
X59661065Y-91950619D01*
X59713307Y-91902197D01*
X59759796Y-91845825D01*
X59798951Y-91779373D01*
X59828514Y-91706324D01*
X59848713Y-91624274D01*
X59857687Y-91541527D01*
X59854920Y-91465123D01*
X59841033Y-91391913D01*
X59817156Y-91325375D01*
X59782503Y-91262514D01*
X59738434Y-91204819D01*
X59686381Y-91153104D01*
X59625774Y-91106366D01*
X59554694Y-91064852D01*
X59473945Y-91029093D01*
X59387876Y-91001181D01*
X59293225Y-90980114D01*
X59079272Y-90942389D01*
X58989163Y-90930349D01*
X58904143Y-90926575D01*
X58821285Y-90930839D01*
X58745218Y-90942822D01*
X58666565Y-90965481D01*
X58595774Y-90996548D01*
X58531111Y-91036475D01*
X58474884Y-91083488D01*
X58428286Y-91139575D01*
X58388985Y-91204593D01*
X58359324Y-91276474D01*
X58338852Y-91359161D01*
X58329982Y-91439079D01*
X58134367Y-91439079D01*
X58274972Y-90641668D01*
X58486198Y-90641668D01*
X59955459Y-90900739D01*
X60017551Y-90548599D01*
X59493474Y-90292782D01*
X60070052Y-90250851D01*
X60132144Y-89898711D01*
X58662882Y-89639641D01*
X58616982Y-89899957D01*
X59051924Y-89976649D01*
X59713956Y-90080921D01*
X59073059Y-90145830D01*
X59048327Y-90286090D01*
X59652141Y-90591308D01*
X58967041Y-90458044D01*
X58532099Y-90381352D01*
X58486198Y-90641668D01*
X58274972Y-90641668D01*
X58490585Y-89418867D01*
X60369558Y-89750181D01*
G37*
D10*
G36*
X69987253Y-85189770D02*
G01*
X70032946Y-85198537D01*
X70076006Y-85212865D01*
X70114462Y-85231784D01*
X70159513Y-85264424D01*
X70199000Y-85305607D01*
X70231683Y-85353354D01*
X70257893Y-85408005D01*
X70286012Y-85514068D01*
X70295812Y-85636525D01*
X70295812Y-85761547D01*
X70286012Y-85889133D01*
X70273864Y-85946347D01*
X70257893Y-85996203D01*
X70232694Y-86048909D01*
X70204038Y-86093015D01*
X70170469Y-86131196D01*
X70133879Y-86161159D01*
X70094160Y-86183626D01*
X70049890Y-86200177D01*
X70002659Y-86210050D01*
X69950514Y-86213457D01*
X69839872Y-86213457D01*
X69839872Y-85186721D01*
X69936134Y-85186721D01*
X69987253Y-85189770D01*
G37*
G36*
X71428278Y-85792074D02*
G01*
X71474681Y-85803587D01*
X71515333Y-85822679D01*
X71546396Y-85847643D01*
X71570226Y-85878092D01*
X71586880Y-85915237D01*
X71596348Y-85956723D01*
X71599702Y-86005454D01*
X71595337Y-86051931D01*
X71582758Y-86092557D01*
X71561955Y-86128621D01*
X71533116Y-86159144D01*
X71500626Y-86180664D01*
X71458835Y-86198070D01*
X71412479Y-86208617D01*
X71357902Y-86212358D01*
X71101722Y-86212358D01*
X71101722Y-85787192D01*
X71370175Y-85787192D01*
X71428278Y-85792074D01*
G37*
G36*
X71382141Y-85192347D02*
G01*
X71436304Y-85203116D01*
X71483797Y-85222347D01*
X71518736Y-85249187D01*
X71539185Y-85274232D01*
X71554090Y-85305607D01*
X71562775Y-85341059D01*
X71565905Y-85384467D01*
X71562304Y-85425990D01*
X71552075Y-85461311D01*
X71535176Y-85492711D01*
X71512599Y-85518647D01*
X71478056Y-85544105D01*
X71431633Y-85563252D01*
X71379285Y-85574419D01*
X71315862Y-85579189D01*
X71101722Y-85579189D01*
X71101722Y-85187729D01*
X71314854Y-85187729D01*
X71382141Y-85192347D01*
G37*
G36*
X73265990Y-86632183D02*
G01*
X69383136Y-86632183D01*
X69383136Y-86213457D01*
X69549803Y-86213457D01*
X69549803Y-86445000D01*
X69950514Y-86445000D01*
X70047950Y-86438729D01*
X70137451Y-86420453D01*
X70221914Y-86390217D01*
X70297827Y-86349745D01*
X70357410Y-86306336D01*
X70412591Y-86252841D01*
X70461486Y-86192360D01*
X70503815Y-86126354D01*
X70539888Y-86046552D01*
X70567380Y-85957277D01*
X70584158Y-85863262D01*
X70589911Y-85761547D01*
X70589911Y-85638540D01*
X70586450Y-85579189D01*
X70812752Y-85579189D01*
X70812752Y-86212358D01*
X70812752Y-86445000D01*
X71356895Y-86445000D01*
X71476279Y-86437754D01*
X71578179Y-86417339D01*
X71670654Y-86382002D01*
X71745241Y-86334357D01*
X71805791Y-86272540D01*
X71850754Y-86197062D01*
X71878016Y-86110812D01*
X71887665Y-86007469D01*
X71883908Y-85951857D01*
X71872735Y-85898384D01*
X71853918Y-85847442D01*
X71827215Y-85800473D01*
X71794191Y-85761222D01*
X71753850Y-85726742D01*
X71705480Y-85698991D01*
X71636614Y-85674444D01*
X71636614Y-85673436D01*
X71705765Y-85638632D01*
X71755290Y-85598606D01*
X72028532Y-85598606D01*
X72028532Y-85801481D01*
X72033699Y-85910927D01*
X72048499Y-86008568D01*
X72073768Y-86100372D01*
X72107483Y-86179569D01*
X72145285Y-86244852D01*
X72189915Y-86301568D01*
X72241520Y-86350873D01*
X72298084Y-86391693D01*
X72360988Y-86423163D01*
X72430708Y-86446557D01*
X72504523Y-86460668D01*
X72584948Y-86465516D01*
X72677422Y-86461013D01*
X72761169Y-86448022D01*
X72840685Y-86427379D01*
X72909821Y-86401952D01*
X72972356Y-86371773D01*
X73023486Y-86339487D01*
X73068074Y-86303462D01*
X73099323Y-86270793D01*
X73098316Y-85682595D01*
X72564431Y-85682595D01*
X72564431Y-85897834D01*
X72811452Y-85897834D01*
X72810353Y-86168303D01*
X72777014Y-86193490D01*
X72726364Y-86214465D01*
X72664907Y-86228753D01*
X72598320Y-86233882D01*
X72544816Y-86228718D01*
X72499402Y-86216022D01*
X72458543Y-86195096D01*
X72423106Y-86166288D01*
X72387660Y-86121683D01*
X72359542Y-86066912D01*
X72342620Y-86013389D01*
X72329225Y-85949034D01*
X72321319Y-85880626D01*
X72318509Y-85801481D01*
X72318509Y-85596591D01*
X72326203Y-85476699D01*
X72348276Y-85376223D01*
X72369649Y-85320593D01*
X72394896Y-85274832D01*
X72425388Y-85235185D01*
X72457911Y-85205131D01*
X72515247Y-85175456D01*
X72578811Y-85165198D01*
X72636809Y-85169461D01*
X72682767Y-85181134D01*
X72722997Y-85201182D01*
X72755032Y-85228670D01*
X72777608Y-85260110D01*
X72795515Y-85299470D01*
X72817589Y-85395732D01*
X73098316Y-85395732D01*
X73080334Y-85291732D01*
X73050688Y-85202109D01*
X73006935Y-85121933D01*
X72949755Y-85055563D01*
X72879057Y-85003717D01*
X72791394Y-84964338D01*
X72693035Y-84941006D01*
X72571667Y-84932556D01*
X72491163Y-84938271D01*
X72415871Y-84955088D01*
X72344877Y-84983051D01*
X72279583Y-85021766D01*
X72228833Y-85063993D01*
X72181764Y-85113998D01*
X72140208Y-85170025D01*
X72103362Y-85233799D01*
X72071982Y-85311590D01*
X72047949Y-85400403D01*
X72033545Y-85494193D01*
X72028532Y-85598606D01*
X71755290Y-85598606D01*
X71761636Y-85593477D01*
X71801173Y-85544751D01*
X71829779Y-85488514D01*
X71847268Y-85427011D01*
X71853868Y-85360928D01*
X71843769Y-85261028D01*
X71815399Y-85179486D01*
X71769003Y-85109378D01*
X71706315Y-85052449D01*
X71630128Y-85009472D01*
X71535680Y-84977711D01*
X71432657Y-84959502D01*
X71313847Y-84953073D01*
X70812752Y-84953073D01*
X70812752Y-85579189D01*
X70586450Y-85579189D01*
X70583755Y-85532959D01*
X70565823Y-85435758D01*
X70536392Y-85343615D01*
X70497679Y-85261460D01*
X70456544Y-85199393D01*
X70409019Y-85142208D01*
X70354849Y-85091587D01*
X70293797Y-85049426D01*
X70216601Y-85008847D01*
X70129757Y-84978169D01*
X70037491Y-84959503D01*
X69936134Y-84953073D01*
X69549803Y-84953073D01*
X69549803Y-86213457D01*
X69383136Y-86213457D01*
X69383136Y-84765889D01*
X73265990Y-84765889D01*
X73265990Y-86632183D01*
G37*
D12*
X83146087Y-88469809D02*
X82438980Y-87762702D01*
X82438980Y-87762702D02*
X83550148Y-88065748D01*
X83550148Y-88065748D02*
X82843041Y-87358641D01*
X83819522Y-87729030D02*
X83954209Y-87661687D01*
X83954209Y-87661687D02*
X84122567Y-87493328D01*
X84122567Y-87493328D02*
X84156239Y-87392313D01*
X84156239Y-87392313D02*
X84156239Y-87324969D01*
X84156239Y-87324969D02*
X84122567Y-87223954D01*
X84122567Y-87223954D02*
X84055224Y-87156611D01*
X84055224Y-87156611D02*
X83954209Y-87122939D01*
X83954209Y-87122939D02*
X83886865Y-87122939D01*
X83886865Y-87122939D02*
X83785850Y-87156611D01*
X83785850Y-87156611D02*
X83617491Y-87257626D01*
X83617491Y-87257626D02*
X83516476Y-87291298D01*
X83516476Y-87291298D02*
X83449132Y-87291298D01*
X83449132Y-87291298D02*
X83348117Y-87257626D01*
X83348117Y-87257626D02*
X83280774Y-87190282D01*
X83280774Y-87190282D02*
X83247102Y-87089267D01*
X83247102Y-87089267D02*
X83247102Y-87021924D01*
X83247102Y-87021924D02*
X83280774Y-86920908D01*
X83280774Y-86920908D02*
X83449132Y-86752549D01*
X83449132Y-86752549D02*
X83583819Y-86685206D01*
X84492957Y-87055595D02*
X84627644Y-86988252D01*
X84627644Y-86988252D02*
X84796002Y-86819893D01*
X84796002Y-86819893D02*
X84829674Y-86718878D01*
X84829674Y-86718878D02*
X84829674Y-86651534D01*
X84829674Y-86651534D02*
X84796002Y-86550519D01*
X84796002Y-86550519D02*
X84728659Y-86483175D01*
X84728659Y-86483175D02*
X84627644Y-86449504D01*
X84627644Y-86449504D02*
X84560300Y-86449504D01*
X84560300Y-86449504D02*
X84459285Y-86483175D01*
X84459285Y-86483175D02*
X84290926Y-86584191D01*
X84290926Y-86584191D02*
X84189911Y-86617862D01*
X84189911Y-86617862D02*
X84122567Y-86617862D01*
X84122567Y-86617862D02*
X84021552Y-86584191D01*
X84021552Y-86584191D02*
X83954209Y-86516847D01*
X83954209Y-86516847D02*
X83920537Y-86415832D01*
X83920537Y-86415832D02*
X83920537Y-86348488D01*
X83920537Y-86348488D02*
X83954209Y-86247473D01*
X83954209Y-86247473D02*
X84122567Y-86079114D01*
X84122567Y-86079114D02*
X84257254Y-86011771D01*
X79036779Y-115969819D02*
X79036779Y-114969819D01*
X79036779Y-114969819D02*
X79608207Y-115969819D01*
X79608207Y-115969819D02*
X79608207Y-114969819D01*
X80036779Y-115922200D02*
X80179636Y-115969819D01*
X80179636Y-115969819D02*
X80417731Y-115969819D01*
X80417731Y-115969819D02*
X80512969Y-115922200D01*
X80512969Y-115922200D02*
X80560588Y-115874580D01*
X80560588Y-115874580D02*
X80608207Y-115779342D01*
X80608207Y-115779342D02*
X80608207Y-115684104D01*
X80608207Y-115684104D02*
X80560588Y-115588866D01*
X80560588Y-115588866D02*
X80512969Y-115541247D01*
X80512969Y-115541247D02*
X80417731Y-115493628D01*
X80417731Y-115493628D02*
X80227255Y-115446009D01*
X80227255Y-115446009D02*
X80132017Y-115398390D01*
X80132017Y-115398390D02*
X80084398Y-115350771D01*
X80084398Y-115350771D02*
X80036779Y-115255533D01*
X80036779Y-115255533D02*
X80036779Y-115160295D01*
X80036779Y-115160295D02*
X80084398Y-115065057D01*
X80084398Y-115065057D02*
X80132017Y-115017438D01*
X80132017Y-115017438D02*
X80227255Y-114969819D01*
X80227255Y-114969819D02*
X80465350Y-114969819D01*
X80465350Y-114969819D02*
X80608207Y-115017438D01*
X80989160Y-115922200D02*
X81132017Y-115969819D01*
X81132017Y-115969819D02*
X81370112Y-115969819D01*
X81370112Y-115969819D02*
X81465350Y-115922200D01*
X81465350Y-115922200D02*
X81512969Y-115874580D01*
X81512969Y-115874580D02*
X81560588Y-115779342D01*
X81560588Y-115779342D02*
X81560588Y-115684104D01*
X81560588Y-115684104D02*
X81512969Y-115588866D01*
X81512969Y-115588866D02*
X81465350Y-115541247D01*
X81465350Y-115541247D02*
X81370112Y-115493628D01*
X81370112Y-115493628D02*
X81179636Y-115446009D01*
X81179636Y-115446009D02*
X81084398Y-115398390D01*
X81084398Y-115398390D02*
X81036779Y-115350771D01*
X81036779Y-115350771D02*
X80989160Y-115255533D01*
X80989160Y-115255533D02*
X80989160Y-115160295D01*
X80989160Y-115160295D02*
X81036779Y-115065057D01*
X81036779Y-115065057D02*
X81084398Y-115017438D01*
X81084398Y-115017438D02*
X81179636Y-114969819D01*
X81179636Y-114969819D02*
X81417731Y-114969819D01*
X81417731Y-114969819D02*
X81560588Y-115017438D01*
X79469819Y-129463220D02*
X78469819Y-129463220D01*
X78469819Y-129463220D02*
X79469819Y-128891792D01*
X79469819Y-128891792D02*
X78469819Y-128891792D01*
X79422200Y-128463220D02*
X79469819Y-128320363D01*
X79469819Y-128320363D02*
X79469819Y-128082268D01*
X79469819Y-128082268D02*
X79422200Y-127987030D01*
X79422200Y-127987030D02*
X79374580Y-127939411D01*
X79374580Y-127939411D02*
X79279342Y-127891792D01*
X79279342Y-127891792D02*
X79184104Y-127891792D01*
X79184104Y-127891792D02*
X79088866Y-127939411D01*
X79088866Y-127939411D02*
X79041247Y-127987030D01*
X79041247Y-127987030D02*
X78993628Y-128082268D01*
X78993628Y-128082268D02*
X78946009Y-128272744D01*
X78946009Y-128272744D02*
X78898390Y-128367982D01*
X78898390Y-128367982D02*
X78850771Y-128415601D01*
X78850771Y-128415601D02*
X78755533Y-128463220D01*
X78755533Y-128463220D02*
X78660295Y-128463220D01*
X78660295Y-128463220D02*
X78565057Y-128415601D01*
X78565057Y-128415601D02*
X78517438Y-128367982D01*
X78517438Y-128367982D02*
X78469819Y-128272744D01*
X78469819Y-128272744D02*
X78469819Y-128034649D01*
X78469819Y-128034649D02*
X78517438Y-127891792D01*
X79422200Y-127510839D02*
X79469819Y-127367982D01*
X79469819Y-127367982D02*
X79469819Y-127129887D01*
X79469819Y-127129887D02*
X79422200Y-127034649D01*
X79422200Y-127034649D02*
X79374580Y-126987030D01*
X79374580Y-126987030D02*
X79279342Y-126939411D01*
X79279342Y-126939411D02*
X79184104Y-126939411D01*
X79184104Y-126939411D02*
X79088866Y-126987030D01*
X79088866Y-126987030D02*
X79041247Y-127034649D01*
X79041247Y-127034649D02*
X78993628Y-127129887D01*
X78993628Y-127129887D02*
X78946009Y-127320363D01*
X78946009Y-127320363D02*
X78898390Y-127415601D01*
X78898390Y-127415601D02*
X78850771Y-127463220D01*
X78850771Y-127463220D02*
X78755533Y-127510839D01*
X78755533Y-127510839D02*
X78660295Y-127510839D01*
X78660295Y-127510839D02*
X78565057Y-127463220D01*
X78565057Y-127463220D02*
X78517438Y-127415601D01*
X78517438Y-127415601D02*
X78469819Y-127320363D01*
X78469819Y-127320363D02*
X78469819Y-127082268D01*
X78469819Y-127082268D02*
X78517438Y-126939411D01*
X83330190Y-112346087D02*
X84037297Y-111638980D01*
X84037297Y-111638980D02*
X83767923Y-112379758D01*
X83767923Y-112379758D02*
X84508702Y-112110384D01*
X84508702Y-112110384D02*
X83801595Y-112817491D01*
X84980106Y-112581789D02*
X85114793Y-112716476D01*
X85114793Y-112716476D02*
X85148465Y-112817491D01*
X85148465Y-112817491D02*
X85148465Y-112952178D01*
X85148465Y-112952178D02*
X85047449Y-113120537D01*
X85047449Y-113120537D02*
X84811747Y-113356239D01*
X84811747Y-113356239D02*
X84643388Y-113457254D01*
X84643388Y-113457254D02*
X84508701Y-113457254D01*
X84508701Y-113457254D02*
X84407686Y-113423582D01*
X84407686Y-113423582D02*
X84272999Y-113288895D01*
X84272999Y-113288895D02*
X84239327Y-113187880D01*
X84239327Y-113187880D02*
X84239327Y-113053193D01*
X84239327Y-113053193D02*
X84340343Y-112884834D01*
X84340343Y-112884834D02*
X84576045Y-112649132D01*
X84576045Y-112649132D02*
X84744404Y-112548117D01*
X84744404Y-112548117D02*
X84879091Y-112548117D01*
X84879091Y-112548117D02*
X84980106Y-112581789D01*
X84879091Y-113827643D02*
X84946434Y-113962330D01*
X84946434Y-113962330D02*
X85114793Y-114130689D01*
X85114793Y-114130689D02*
X85215808Y-114164361D01*
X85215808Y-114164361D02*
X85283152Y-114164361D01*
X85283152Y-114164361D02*
X85384167Y-114130689D01*
X85384167Y-114130689D02*
X85451510Y-114063346D01*
X85451510Y-114063346D02*
X85485182Y-113962330D01*
X85485182Y-113962330D02*
X85485182Y-113894987D01*
X85485182Y-113894987D02*
X85451510Y-113793972D01*
X85451510Y-113793972D02*
X85350495Y-113625613D01*
X85350495Y-113625613D02*
X85316823Y-113524598D01*
X85316823Y-113524598D02*
X85316823Y-113457254D01*
X85316823Y-113457254D02*
X85350495Y-113356239D01*
X85350495Y-113356239D02*
X85417839Y-113288895D01*
X85417839Y-113288895D02*
X85518854Y-113255224D01*
X85518854Y-113255224D02*
X85586197Y-113255224D01*
X85586197Y-113255224D02*
X85687213Y-113288895D01*
X85687213Y-113288895D02*
X85855571Y-113457254D01*
X85855571Y-113457254D02*
X85922915Y-113591941D01*
X85552526Y-114568422D02*
X86259632Y-113861315D01*
D10*
G36*
X103237692Y-68192074D02*
G01*
X103284094Y-68203587D01*
X103324746Y-68222679D01*
X103355810Y-68247643D01*
X103379639Y-68278092D01*
X103396293Y-68315237D01*
X103405761Y-68356723D01*
X103409116Y-68405454D01*
X103404751Y-68451931D01*
X103392172Y-68492557D01*
X103371369Y-68528621D01*
X103342529Y-68559144D01*
X103310040Y-68580664D01*
X103268249Y-68598070D01*
X103221892Y-68608617D01*
X103167315Y-68612358D01*
X102911135Y-68612358D01*
X102911135Y-68187192D01*
X103179589Y-68187192D01*
X103237692Y-68192074D01*
G37*
G36*
X103191554Y-67592347D02*
G01*
X103245717Y-67603116D01*
X103293211Y-67622347D01*
X103328149Y-67649187D01*
X103348599Y-67674232D01*
X103363504Y-67705607D01*
X103372188Y-67741059D01*
X103375319Y-67784467D01*
X103371718Y-67825990D01*
X103361489Y-67861311D01*
X103344589Y-67892711D01*
X103322013Y-67918647D01*
X103287469Y-67944105D01*
X103241046Y-67963252D01*
X103188699Y-67974419D01*
X103125275Y-67979189D01*
X102911135Y-67979189D01*
X102911135Y-67587729D01*
X103124268Y-67587729D01*
X103191554Y-67592347D01*
G37*
G36*
X104549058Y-68288584D02*
G01*
X104239664Y-68288584D01*
X104396468Y-67739404D01*
X104549058Y-68288584D01*
G37*
G36*
X107663767Y-69011667D02*
G01*
X102455498Y-69011667D01*
X102455498Y-67979189D01*
X102622165Y-67979189D01*
X102622165Y-68612358D01*
X102622165Y-68845000D01*
X103166308Y-68845000D01*
X103777495Y-68845000D01*
X104080845Y-68845000D01*
X104168955Y-68533498D01*
X104616744Y-68533498D01*
X104703847Y-68845000D01*
X105007105Y-68845000D01*
X104603040Y-67587729D01*
X105035315Y-67587729D01*
X105489241Y-67587729D01*
X105489241Y-68845000D01*
X105778210Y-68845000D01*
X105778210Y-67587729D01*
X106238272Y-67587729D01*
X106294143Y-67587729D01*
X106748068Y-67587729D01*
X106748068Y-68845000D01*
X107037038Y-68845000D01*
X107037038Y-67587729D01*
X107497100Y-67587729D01*
X107497100Y-67353073D01*
X106294143Y-67353073D01*
X106294143Y-67587729D01*
X106238272Y-67587729D01*
X106238272Y-67353073D01*
X105035315Y-67353073D01*
X105035315Y-67587729D01*
X104603040Y-67587729D01*
X104527626Y-67353073D01*
X104266317Y-67353073D01*
X103959802Y-68288584D01*
X103777495Y-68845000D01*
X103166308Y-68845000D01*
X103285692Y-68837754D01*
X103387592Y-68817339D01*
X103480067Y-68782002D01*
X103554654Y-68734357D01*
X103615205Y-68672540D01*
X103660167Y-68597062D01*
X103687429Y-68510812D01*
X103697078Y-68407469D01*
X103693322Y-68351857D01*
X103682149Y-68298384D01*
X103663331Y-68247442D01*
X103636628Y-68200473D01*
X103603604Y-68161222D01*
X103563264Y-68126742D01*
X103514893Y-68098991D01*
X103446027Y-68074444D01*
X103446027Y-68073436D01*
X103515178Y-68038632D01*
X103571049Y-67993477D01*
X103610586Y-67944751D01*
X103639193Y-67888514D01*
X103656681Y-67827011D01*
X103663281Y-67760928D01*
X103653182Y-67661028D01*
X103624813Y-67579486D01*
X103578417Y-67509378D01*
X103515728Y-67452449D01*
X103439541Y-67409472D01*
X103345094Y-67377711D01*
X103242071Y-67359502D01*
X103123260Y-67353073D01*
X102622165Y-67353073D01*
X102622165Y-67979189D01*
X102455498Y-67979189D01*
X102455498Y-67186406D01*
X107663767Y-67186406D01*
X107663767Y-69011667D01*
G37*
D12*
X101789160Y-47822200D02*
X101932017Y-47869819D01*
X101932017Y-47869819D02*
X102170112Y-47869819D01*
X102170112Y-47869819D02*
X102265350Y-47822200D01*
X102265350Y-47822200D02*
X102312969Y-47774580D01*
X102312969Y-47774580D02*
X102360588Y-47679342D01*
X102360588Y-47679342D02*
X102360588Y-47584104D01*
X102360588Y-47584104D02*
X102312969Y-47488866D01*
X102312969Y-47488866D02*
X102265350Y-47441247D01*
X102265350Y-47441247D02*
X102170112Y-47393628D01*
X102170112Y-47393628D02*
X101979636Y-47346009D01*
X101979636Y-47346009D02*
X101884398Y-47298390D01*
X101884398Y-47298390D02*
X101836779Y-47250771D01*
X101836779Y-47250771D02*
X101789160Y-47155533D01*
X101789160Y-47155533D02*
X101789160Y-47060295D01*
X101789160Y-47060295D02*
X101836779Y-46965057D01*
X101836779Y-46965057D02*
X101884398Y-46917438D01*
X101884398Y-46917438D02*
X101979636Y-46869819D01*
X101979636Y-46869819D02*
X102217731Y-46869819D01*
X102217731Y-46869819D02*
X102360588Y-46917438D01*
X102789160Y-47869819D02*
X102789160Y-46869819D01*
X103789159Y-46917438D02*
X103693921Y-46869819D01*
X103693921Y-46869819D02*
X103551064Y-46869819D01*
X103551064Y-46869819D02*
X103408207Y-46917438D01*
X103408207Y-46917438D02*
X103312969Y-47012676D01*
X103312969Y-47012676D02*
X103265350Y-47107914D01*
X103265350Y-47107914D02*
X103217731Y-47298390D01*
X103217731Y-47298390D02*
X103217731Y-47441247D01*
X103217731Y-47441247D02*
X103265350Y-47631723D01*
X103265350Y-47631723D02*
X103312969Y-47726961D01*
X103312969Y-47726961D02*
X103408207Y-47822200D01*
X103408207Y-47822200D02*
X103551064Y-47869819D01*
X103551064Y-47869819D02*
X103646302Y-47869819D01*
X103646302Y-47869819D02*
X103789159Y-47822200D01*
X103789159Y-47822200D02*
X103836778Y-47774580D01*
X103836778Y-47774580D02*
X103836778Y-47441247D01*
X103836778Y-47441247D02*
X103646302Y-47441247D01*
D11*
G36*
X52508369Y-107754676D02*
G01*
X52514622Y-107811965D01*
X52512529Y-107861083D01*
X52502550Y-107906817D01*
X52485745Y-107944952D01*
X52458249Y-107981454D01*
X52420937Y-108010973D01*
X52376169Y-108032314D01*
X52320595Y-108046894D01*
X52272982Y-108051645D01*
X52230430Y-108048749D01*
X52190554Y-108038293D01*
X52155750Y-108020810D01*
X52118812Y-107990877D01*
X52087481Y-107949051D01*
X52064492Y-107899116D01*
X52048435Y-107836797D01*
X52011425Y-107626903D01*
X52471533Y-107545773D01*
X52508369Y-107754676D01*
G37*
G36*
X53516624Y-110929329D02*
G01*
X51638643Y-111260468D01*
X51469678Y-110302217D01*
X51679880Y-110302217D01*
X51730059Y-110586797D01*
X52968229Y-110368474D01*
X53048118Y-110821547D01*
X53279209Y-110780799D01*
X53070318Y-109596117D01*
X52839226Y-109636865D01*
X52918050Y-110083894D01*
X51679880Y-110302217D01*
X51469678Y-110302217D01*
X51264581Y-109139054D01*
X51463391Y-109139054D01*
X51474456Y-109249548D01*
X51500633Y-109357711D01*
X51537624Y-109451668D01*
X51587299Y-109535357D01*
X51645745Y-109601219D01*
X51714075Y-109652351D01*
X51791328Y-109686317D01*
X51875613Y-109701181D01*
X51970283Y-109694847D01*
X52042412Y-109675974D01*
X52104809Y-109647147D01*
X52158919Y-109608480D01*
X52228172Y-109534824D01*
X52284916Y-109443781D01*
X52311186Y-109377531D01*
X52332300Y-109305314D01*
X52358372Y-109152003D01*
X52377353Y-109018079D01*
X52392230Y-108960515D01*
X52410062Y-108914006D01*
X52432531Y-108873501D01*
X52459001Y-108843436D01*
X52491339Y-108821834D01*
X52530044Y-108809611D01*
X52568935Y-108806830D01*
X52605947Y-108812317D01*
X52640778Y-108825894D01*
X52673033Y-108847827D01*
X52700042Y-108877002D01*
X52723991Y-108915291D01*
X52742091Y-108959267D01*
X52755313Y-109013282D01*
X52761342Y-109073340D01*
X52757584Y-109123742D01*
X52744999Y-109170171D01*
X52725287Y-109209048D01*
X52697092Y-109241310D01*
X52661748Y-109267498D01*
X52621105Y-109287211D01*
X52574050Y-109301283D01*
X52622798Y-109577745D01*
X52716798Y-109551091D01*
X52797610Y-109507394D01*
X52866726Y-109447888D01*
X52922075Y-109375145D01*
X52961348Y-109291657D01*
X52985975Y-109194796D01*
X52993352Y-109091850D01*
X52982244Y-108978476D01*
X52955743Y-108871423D01*
X52917176Y-108777714D01*
X52865768Y-108694193D01*
X52805920Y-108627785D01*
X52735679Y-108575965D01*
X52657525Y-108541509D01*
X52573276Y-108526165D01*
X52482098Y-108531892D01*
X52405034Y-108553297D01*
X52337976Y-108587996D01*
X52279455Y-108635959D01*
X52228440Y-108698361D01*
X52187194Y-108772248D01*
X52151032Y-108867513D01*
X52125352Y-108972088D01*
X52108215Y-109096226D01*
X52098351Y-109175382D01*
X52085418Y-109235939D01*
X52067347Y-109290338D01*
X52046699Y-109331771D01*
X52019621Y-109365569D01*
X51990212Y-109389070D01*
X51956740Y-109405448D01*
X51918920Y-109415684D01*
X51880173Y-109418281D01*
X51843914Y-109412262D01*
X51810243Y-109398052D01*
X51779725Y-109375776D01*
X51753676Y-109346494D01*
X51730285Y-109307952D01*
X51712607Y-109264000D01*
X51699504Y-109209866D01*
X51692242Y-109147198D01*
X51693117Y-109090831D01*
X51702877Y-109037780D01*
X51721574Y-108992716D01*
X51749893Y-108952840D01*
X51788739Y-108919490D01*
X51836339Y-108894559D01*
X51898738Y-108876100D01*
X51849641Y-108597653D01*
X51775585Y-108616058D01*
X51712411Y-108642497D01*
X51658570Y-108676544D01*
X51588690Y-108742133D01*
X51532274Y-108822137D01*
X51492099Y-108917427D01*
X51468943Y-109026287D01*
X51463391Y-109139054D01*
X51264581Y-109139054D01*
X50972182Y-107480774D01*
X51182383Y-107480774D01*
X51208149Y-107626903D01*
X51232371Y-107764271D01*
X51781326Y-107667476D01*
X51819227Y-107882421D01*
X51319036Y-108255769D01*
X51372587Y-108559471D01*
X51385666Y-108557164D01*
X51936470Y-108134343D01*
X51976802Y-108187239D01*
X52020361Y-108232457D01*
X52069011Y-108270851D01*
X52122980Y-108301229D01*
X52180603Y-108322166D01*
X52244901Y-108334417D01*
X52312683Y-108336681D01*
X52389987Y-108328086D01*
X52492804Y-108299745D01*
X52574981Y-108256405D01*
X52643045Y-108197077D01*
X52694315Y-108124596D01*
X52728945Y-108039854D01*
X52748660Y-107940165D01*
X52751890Y-107834126D01*
X52738468Y-107714103D01*
X52651644Y-107221703D01*
X51182383Y-107480774D01*
X50972182Y-107480774D01*
X50945961Y-107332069D01*
X52823942Y-107000930D01*
X53516624Y-110929329D01*
G37*
D12*
X98336779Y-47869819D02*
X98336779Y-46869819D01*
X98336779Y-46869819D02*
X98717731Y-46869819D01*
X98717731Y-46869819D02*
X98812969Y-46917438D01*
X98812969Y-46917438D02*
X98860588Y-46965057D01*
X98860588Y-46965057D02*
X98908207Y-47060295D01*
X98908207Y-47060295D02*
X98908207Y-47203152D01*
X98908207Y-47203152D02*
X98860588Y-47298390D01*
X98860588Y-47298390D02*
X98812969Y-47346009D01*
X98812969Y-47346009D02*
X98717731Y-47393628D01*
X98717731Y-47393628D02*
X98336779Y-47393628D01*
X99241541Y-46869819D02*
X99479636Y-47869819D01*
X99479636Y-47869819D02*
X99670112Y-47155533D01*
X99670112Y-47155533D02*
X99860588Y-47869819D01*
X99860588Y-47869819D02*
X100098684Y-46869819D01*
X101051064Y-47869819D02*
X100717731Y-47393628D01*
X100479636Y-47869819D02*
X100479636Y-46869819D01*
X100479636Y-46869819D02*
X100860588Y-46869819D01*
X100860588Y-46869819D02*
X100955826Y-46917438D01*
X100955826Y-46917438D02*
X101003445Y-46965057D01*
X101003445Y-46965057D02*
X101051064Y-47060295D01*
X101051064Y-47060295D02*
X101051064Y-47203152D01*
X101051064Y-47203152D02*
X101003445Y-47298390D01*
X101003445Y-47298390D02*
X100955826Y-47346009D01*
X100955826Y-47346009D02*
X100860588Y-47393628D01*
X100860588Y-47393628D02*
X100479636Y-47393628D01*
X84178743Y-90569809D02*
X84313430Y-90502465D01*
X84313430Y-90502465D02*
X84481789Y-90334107D01*
X84481789Y-90334107D02*
X84515461Y-90233091D01*
X84515461Y-90233091D02*
X84515461Y-90165748D01*
X84515461Y-90165748D02*
X84481789Y-90064733D01*
X84481789Y-90064733D02*
X84414445Y-89997389D01*
X84414445Y-89997389D02*
X84313430Y-89963717D01*
X84313430Y-89963717D02*
X84246087Y-89963717D01*
X84246087Y-89963717D02*
X84145071Y-89997389D01*
X84145071Y-89997389D02*
X83976713Y-90098404D01*
X83976713Y-90098404D02*
X83875697Y-90132076D01*
X83875697Y-90132076D02*
X83808354Y-90132076D01*
X83808354Y-90132076D02*
X83707339Y-90098404D01*
X83707339Y-90098404D02*
X83639995Y-90031061D01*
X83639995Y-90031061D02*
X83606323Y-89930046D01*
X83606323Y-89930046D02*
X83606323Y-89862702D01*
X83606323Y-89862702D02*
X83639995Y-89761687D01*
X83639995Y-89761687D02*
X83808354Y-89593328D01*
X83808354Y-89593328D02*
X83943041Y-89525984D01*
X85256239Y-89424969D02*
X85256239Y-89492313D01*
X85256239Y-89492313D02*
X85188896Y-89627000D01*
X85188896Y-89627000D02*
X85121552Y-89694343D01*
X85121552Y-89694343D02*
X84986865Y-89761687D01*
X84986865Y-89761687D02*
X84852178Y-89761687D01*
X84852178Y-89761687D02*
X84751163Y-89728015D01*
X84751163Y-89728015D02*
X84582804Y-89627000D01*
X84582804Y-89627000D02*
X84481789Y-89525984D01*
X84481789Y-89525984D02*
X84380774Y-89357626D01*
X84380774Y-89357626D02*
X84347102Y-89256610D01*
X84347102Y-89256610D02*
X84347102Y-89121923D01*
X84347102Y-89121923D02*
X84414445Y-88987236D01*
X84414445Y-88987236D02*
X84481789Y-88919893D01*
X84481789Y-88919893D02*
X84616476Y-88852549D01*
X84616476Y-88852549D02*
X84683819Y-88852549D01*
X85626628Y-89189267D02*
X84919522Y-88482160D01*
X86030689Y-88785206D02*
X85323583Y-88684191D01*
X85323583Y-88078099D02*
X85323583Y-88886221D01*
D13*
G36*
X109805433Y-147643180D02*
G01*
X109835894Y-147649024D01*
X109864601Y-147658577D01*
X109890239Y-147671189D01*
X109920273Y-147692949D01*
X109946598Y-147720404D01*
X109968386Y-147752236D01*
X109985860Y-147788670D01*
X110004605Y-147859378D01*
X110011139Y-147941017D01*
X110011139Y-148024364D01*
X110004605Y-148109422D01*
X109996507Y-148147565D01*
X109985860Y-148180802D01*
X109969060Y-148215939D01*
X109949956Y-148245343D01*
X109927577Y-148270797D01*
X109903183Y-148290772D01*
X109876704Y-148305750D01*
X109847191Y-148316784D01*
X109815703Y-148323366D01*
X109780940Y-148325638D01*
X109707178Y-148325638D01*
X109707178Y-147641147D01*
X109771353Y-147641147D01*
X109805433Y-147643180D01*
G37*
G36*
X110318316Y-148604788D02*
G01*
X107698301Y-148604788D01*
X107698301Y-147915737D01*
X107809412Y-147915737D01*
X107809412Y-148050987D01*
X107812856Y-148123951D01*
X107822723Y-148189045D01*
X107839569Y-148250248D01*
X107862046Y-148303046D01*
X107887247Y-148346568D01*
X107917001Y-148384378D01*
X107951404Y-148417248D01*
X107989113Y-148444462D01*
X108031049Y-148465442D01*
X108077529Y-148481038D01*
X108126739Y-148490445D01*
X108180355Y-148493677D01*
X108242005Y-148490675D01*
X108297836Y-148482015D01*
X108305597Y-148480000D01*
X108673237Y-148480000D01*
X108866556Y-148480000D01*
X108866556Y-147838557D01*
X109143222Y-148480000D01*
X109334525Y-148480000D01*
X109334525Y-148325638D01*
X109513799Y-148325638D01*
X109513799Y-148480000D01*
X109780940Y-148480000D01*
X109845898Y-148475819D01*
X109905565Y-148463635D01*
X109961874Y-148443478D01*
X110012482Y-148416496D01*
X110052204Y-148387557D01*
X110088991Y-148351894D01*
X110121588Y-148311573D01*
X110149808Y-148267569D01*
X110173856Y-148214368D01*
X110192184Y-148154851D01*
X110203370Y-148092175D01*
X110207205Y-148024364D01*
X110207205Y-147942360D01*
X110203101Y-147871973D01*
X110191146Y-147807172D01*
X110171525Y-147745743D01*
X110145717Y-147690973D01*
X110118294Y-147649595D01*
X110086610Y-147611472D01*
X110050497Y-147577724D01*
X110009795Y-147549617D01*
X109958331Y-147522564D01*
X109900436Y-147502112D01*
X109838924Y-147489669D01*
X109771353Y-147485382D01*
X109513799Y-147485382D01*
X109513799Y-148325638D01*
X109334525Y-148325638D01*
X109334525Y-147485382D01*
X109141878Y-147485382D01*
X109141207Y-148124077D01*
X108866556Y-147485382D01*
X108673237Y-147485382D01*
X108673237Y-148480000D01*
X108305597Y-148480000D01*
X108350847Y-148468252D01*
X108396938Y-148451301D01*
X108438627Y-148431182D01*
X108472714Y-148409658D01*
X108502440Y-148385641D01*
X108523272Y-148363862D01*
X108522601Y-147971730D01*
X108166678Y-147971730D01*
X108166678Y-148115223D01*
X108331359Y-148115223D01*
X108330626Y-148295535D01*
X108308400Y-148312327D01*
X108274633Y-148326310D01*
X108233661Y-148335835D01*
X108189270Y-148339255D01*
X108153601Y-148335812D01*
X108123325Y-148327348D01*
X108096086Y-148313397D01*
X108072461Y-148294192D01*
X108048831Y-148264455D01*
X108030085Y-148227941D01*
X108018804Y-148192259D01*
X108009874Y-148149356D01*
X108004603Y-148103751D01*
X108002730Y-148050987D01*
X108002730Y-147914394D01*
X108007859Y-147834466D01*
X108022575Y-147767482D01*
X108036823Y-147730395D01*
X108053654Y-147699888D01*
X108073983Y-147673456D01*
X108095664Y-147653421D01*
X108133888Y-147633637D01*
X108176264Y-147626798D01*
X108214930Y-147629640D01*
X108245568Y-147637423D01*
X108272388Y-147650788D01*
X108293745Y-147669113D01*
X108308796Y-147690073D01*
X108320734Y-147716313D01*
X108335450Y-147780488D01*
X108522601Y-147780488D01*
X108510613Y-147711155D01*
X108490849Y-147651406D01*
X108461680Y-147597955D01*
X108423560Y-147553709D01*
X108376428Y-147519144D01*
X108317986Y-147492892D01*
X108252414Y-147477337D01*
X108171502Y-147471704D01*
X108117832Y-147475514D01*
X108067637Y-147486725D01*
X108020308Y-147505367D01*
X107976779Y-147531177D01*
X107942945Y-147559329D01*
X107911566Y-147592665D01*
X107883863Y-147630017D01*
X107859298Y-147672533D01*
X107838378Y-147724393D01*
X107822356Y-147783602D01*
X107812753Y-147846129D01*
X107809412Y-147915737D01*
X107698301Y-147915737D01*
X107698301Y-147360593D01*
X110318316Y-147360593D01*
X110318316Y-148604788D01*
G37*
G36*
X93655566Y-134999269D02*
G01*
X93198526Y-134999269D01*
X93198526Y-136245000D01*
X92891147Y-136245000D01*
X92891147Y-134999269D01*
X92440335Y-134999269D01*
X92440335Y-134750233D01*
X93655566Y-134750233D01*
X93655566Y-134999269D01*
G37*
G36*
X94100423Y-135255358D02*
G01*
X94164340Y-135192381D01*
X94233983Y-135148785D01*
X94310681Y-135122626D01*
X94396537Y-135113667D01*
X94495168Y-135122794D01*
X94573954Y-135148096D01*
X94637096Y-135187982D01*
X94687391Y-135243011D01*
X94725889Y-135315804D01*
X94751752Y-135410732D01*
X94762352Y-135533520D01*
X94762352Y-136245000D01*
X94466238Y-136245000D01*
X94466238Y-135541397D01*
X94460886Y-135478896D01*
X94446648Y-135433171D01*
X94425205Y-135400163D01*
X94394668Y-135376260D01*
X94350809Y-135360447D01*
X94288918Y-135354460D01*
X94226049Y-135361275D01*
X94175268Y-135380407D01*
X94133895Y-135411266D01*
X94100423Y-135455118D01*
X94100423Y-136245000D01*
X93804309Y-136245000D01*
X93804309Y-134668168D01*
X94100423Y-134668168D01*
X94100423Y-135255358D01*
G37*
G36*
X95539635Y-135120883D02*
G01*
X95626332Y-135141216D01*
X95699902Y-135173347D01*
X95762435Y-135216890D01*
X95814208Y-135272431D01*
X95851448Y-135337819D01*
X95874671Y-135415026D01*
X95882877Y-135506867D01*
X95882877Y-135988361D01*
X95889254Y-136093827D01*
X95904767Y-136171525D01*
X95926932Y-136227506D01*
X95926932Y-136245000D01*
X95627704Y-136245000D01*
X95610634Y-136203057D01*
X95598029Y-136148005D01*
X95540259Y-136200647D01*
X95475448Y-136237835D01*
X95402164Y-136260560D01*
X95318310Y-136268447D01*
X95237874Y-136262112D01*
X95167098Y-136243906D01*
X95104328Y-136214431D01*
X95048299Y-136173467D01*
X95001082Y-136122332D01*
X94968067Y-136066164D01*
X94948099Y-136003861D01*
X94941229Y-135933773D01*
X94943366Y-135912616D01*
X95237343Y-135912616D01*
X95247211Y-135964321D01*
X95276270Y-136005489D01*
X95320747Y-136032325D01*
X95382882Y-136042034D01*
X95446215Y-136034513D01*
X95503782Y-136012267D01*
X95552456Y-135976908D01*
X95585756Y-135932399D01*
X95585756Y-135738226D01*
X95475022Y-135738226D01*
X95384872Y-135746285D01*
X95321957Y-135767357D01*
X95279101Y-135798641D01*
X95251665Y-135840181D01*
X95238351Y-135894847D01*
X95237343Y-135912616D01*
X94943366Y-135912616D01*
X94949945Y-135847490D01*
X94974723Y-135775021D01*
X95014928Y-135713493D01*
X95071838Y-135661106D01*
X95138352Y-135622236D01*
X95221128Y-135592311D01*
X95323521Y-135572562D01*
X95449468Y-135565027D01*
X95585756Y-135565027D01*
X95585756Y-135501646D01*
X95580964Y-135451953D01*
X95567580Y-135411736D01*
X95546280Y-135379006D01*
X95516812Y-135354505D01*
X95476518Y-135338765D01*
X95421808Y-135332936D01*
X95352753Y-135342504D01*
X95304388Y-135368381D01*
X95281001Y-135394525D01*
X95266864Y-135426275D01*
X95261890Y-135465376D01*
X94965776Y-135465376D01*
X94972315Y-135403398D01*
X94991872Y-135344693D01*
X95025218Y-135288056D01*
X95069128Y-135238664D01*
X95124566Y-135196039D01*
X95193288Y-135160103D01*
X95267036Y-135134738D01*
X95347960Y-135119076D01*
X95437195Y-135113667D01*
X95539635Y-135120883D01*
G37*
G36*
X96383331Y-135137114D02*
G01*
X96392490Y-135265067D01*
X96457390Y-135198506D01*
X96530825Y-135151894D01*
X96614525Y-135123521D01*
X96711227Y-135113667D01*
X96798731Y-135121028D01*
X96869565Y-135141479D01*
X96927015Y-135173583D01*
X96973452Y-135217348D01*
X97008735Y-135270706D01*
X97035996Y-135338036D01*
X97054246Y-135422377D01*
X97061654Y-135527383D01*
X97061654Y-136245000D01*
X96765540Y-136245000D01*
X96765540Y-135534253D01*
X96760131Y-135472460D01*
X96745860Y-135428238D01*
X96724507Y-135397141D01*
X96694241Y-135374957D01*
X96650413Y-135360113D01*
X96588220Y-135354460D01*
X96528533Y-135361402D01*
X96478703Y-135381235D01*
X96436486Y-135413908D01*
X96400733Y-135461255D01*
X96400733Y-136245000D01*
X96104619Y-136245000D01*
X96104619Y-135137114D01*
X96383331Y-135137114D01*
G37*
G36*
X97688778Y-135800600D02*
G01*
X97582166Y-135907120D01*
X97582166Y-136245000D01*
X97286052Y-136245000D01*
X97286052Y-134668168D01*
X97582166Y-134668168D01*
X97582166Y-135543595D01*
X97639594Y-135469864D01*
X97923343Y-135137114D01*
X98278991Y-135137114D01*
X97878280Y-135598916D01*
X98313796Y-136245000D01*
X97973626Y-136245000D01*
X97688778Y-135800600D01*
G37*
G36*
X99342821Y-135825329D02*
G01*
X99547711Y-135137114D01*
X99865348Y-135137114D01*
X99419666Y-136415450D01*
X99395028Y-136473702D01*
X99348244Y-136554314D01*
X99293140Y-136613926D01*
X99229255Y-136655826D01*
X99154853Y-136681507D01*
X99067132Y-136690498D01*
X99002630Y-136685706D01*
X98935974Y-136670990D01*
X98935974Y-136446591D01*
X98981037Y-136447691D01*
X99058979Y-136440339D01*
X99106608Y-136422137D01*
X99142478Y-136389617D01*
X99171638Y-136337323D01*
X99206534Y-136246282D01*
X98818188Y-135137114D01*
X99136833Y-135137114D01*
X99342821Y-135825329D01*
G37*
G36*
X100554296Y-135122877D02*
G01*
X100650575Y-135149280D01*
X100735219Y-135192025D01*
X100810110Y-135251603D01*
X100871783Y-135324604D01*
X100918818Y-135409865D01*
X100951377Y-135509472D01*
X100968471Y-135626210D01*
X100970578Y-135702414D01*
X100960818Y-135829599D01*
X100933111Y-135938558D01*
X100888846Y-136032412D01*
X100828062Y-136113566D01*
X100751977Y-136180479D01*
X100664555Y-136228393D01*
X100563561Y-136258051D01*
X100445853Y-136268447D01*
X100328166Y-136258092D01*
X100227086Y-136228538D01*
X100139499Y-136180789D01*
X100063185Y-136114116D01*
X100002581Y-136033240D01*
X99958147Y-135938236D01*
X99930138Y-135826382D01*
X99920830Y-135702414D01*
X100216417Y-135702414D01*
X100224110Y-135807203D01*
X100244743Y-135886392D01*
X100275768Y-135945588D01*
X100320881Y-135992142D01*
X100376468Y-136019917D01*
X100445944Y-136029669D01*
X100513411Y-136020130D01*
X100568372Y-135992762D01*
X100613922Y-135946596D01*
X100644796Y-135887618D01*
X100666151Y-135801937D01*
X100674372Y-135680707D01*
X100666637Y-135578171D01*
X100645713Y-135499340D01*
X100613922Y-135439181D01*
X100568111Y-135391520D01*
X100512495Y-135363297D01*
X100443838Y-135353452D01*
X100375849Y-135363238D01*
X100320906Y-135391276D01*
X100275768Y-135438632D01*
X100245295Y-135498705D01*
X100224397Y-135583993D01*
X100216417Y-135702414D01*
X99920830Y-135702414D01*
X99920211Y-135694171D01*
X99920211Y-135680799D01*
X99927629Y-135571758D01*
X99949058Y-135473860D01*
X99983776Y-135385417D01*
X100032873Y-135304778D01*
X100093552Y-135238377D01*
X100166683Y-135184741D01*
X100248888Y-135145843D01*
X100340602Y-135121945D01*
X100443838Y-135113667D01*
X100554296Y-135122877D01*
G37*
G36*
X101817337Y-136134999D02*
G01*
X101757924Y-136192881D01*
X101688992Y-136234069D01*
X101608650Y-136259514D01*
X101514079Y-136268447D01*
X101425503Y-136261237D01*
X101352441Y-136241065D01*
X101291980Y-136209231D01*
X101241962Y-136165773D01*
X101203017Y-136112297D01*
X101173468Y-136046207D01*
X101153998Y-135964863D01*
X101146249Y-135864988D01*
X101146249Y-135137114D01*
X101442363Y-135137114D01*
X101442363Y-135855096D01*
X101449754Y-135922090D01*
X101469336Y-135968943D01*
X101499457Y-136001097D01*
X101541634Y-136021233D01*
X101600175Y-136028661D01*
X101673857Y-136021193D01*
X101730564Y-136000716D01*
X101774192Y-135968563D01*
X101807079Y-135923881D01*
X101807079Y-135137114D01*
X102104292Y-135137114D01*
X102104292Y-136245000D01*
X101825580Y-136245000D01*
X101817337Y-136134999D01*
G37*
G36*
X103203476Y-134861608D02*
G01*
X103203476Y-135137114D01*
X103392978Y-135137114D01*
X103392978Y-135354368D01*
X103203476Y-135354368D01*
X103203476Y-135909410D01*
X103210260Y-135965533D01*
X103227015Y-135997795D01*
X103257556Y-136016660D01*
X103317233Y-136024540D01*
X103404244Y-136017396D01*
X103404244Y-136241794D01*
X103316072Y-136261762D01*
X103225000Y-136268447D01*
X103124313Y-136258571D01*
X103047926Y-136231706D01*
X102990163Y-136189930D01*
X102947523Y-136132373D01*
X102919226Y-136055388D01*
X102907363Y-135953099D01*
X102907363Y-135354368D01*
X102745430Y-135354368D01*
X102745430Y-135137114D01*
X102907363Y-135137114D01*
X102907363Y-134861608D01*
X103203476Y-134861608D01*
G37*
G36*
X104115356Y-135122877D02*
G01*
X104211636Y-135149280D01*
X104296280Y-135192025D01*
X104371171Y-135251603D01*
X104432844Y-135324604D01*
X104479879Y-135409865D01*
X104512438Y-135509472D01*
X104529532Y-135626210D01*
X104531639Y-135702414D01*
X104521879Y-135829599D01*
X104494171Y-135938558D01*
X104449907Y-136032412D01*
X104389123Y-136113566D01*
X104313038Y-136180479D01*
X104225615Y-136228393D01*
X104124622Y-136258051D01*
X104006913Y-136268447D01*
X103889227Y-136258092D01*
X103788147Y-136228538D01*
X103700559Y-136180789D01*
X103624246Y-136114116D01*
X103563642Y-136033240D01*
X103519208Y-135938236D01*
X103491198Y-135826382D01*
X103481891Y-135702414D01*
X103777478Y-135702414D01*
X103785170Y-135807203D01*
X103805804Y-135886392D01*
X103836829Y-135945588D01*
X103881942Y-135992142D01*
X103937529Y-136019917D01*
X104007005Y-136029669D01*
X104074472Y-136020130D01*
X104129432Y-135992762D01*
X104174983Y-135946596D01*
X104205857Y-135887618D01*
X104227212Y-135801937D01*
X104235433Y-135680707D01*
X104227698Y-135578171D01*
X104206774Y-135499340D01*
X104174983Y-135439181D01*
X104129172Y-135391520D01*
X104073556Y-135363297D01*
X104004898Y-135353452D01*
X103936910Y-135363238D01*
X103881966Y-135391276D01*
X103836829Y-135438632D01*
X103806356Y-135498705D01*
X103785458Y-135583993D01*
X103777478Y-135702414D01*
X103481891Y-135702414D01*
X103481272Y-135694171D01*
X103481272Y-135680799D01*
X103488690Y-135571758D01*
X103510118Y-135473860D01*
X103544836Y-135385417D01*
X103593934Y-135304778D01*
X103654613Y-135238377D01*
X103727744Y-135184741D01*
X103809949Y-135145843D01*
X103901663Y-135121945D01*
X104004898Y-135113667D01*
X104115356Y-135122877D01*
G37*
D12*
X67682804Y-127598404D02*
X67682804Y-127665748D01*
X67682804Y-127665748D02*
X67615461Y-127800435D01*
X67615461Y-127800435D02*
X67548117Y-127867778D01*
X67548117Y-127867778D02*
X67413430Y-127935122D01*
X67413430Y-127935122D02*
X67278743Y-127935122D01*
X67278743Y-127935122D02*
X67177728Y-127901450D01*
X67177728Y-127901450D02*
X67009369Y-127800435D01*
X67009369Y-127800435D02*
X66908354Y-127699420D01*
X66908354Y-127699420D02*
X66807339Y-127531061D01*
X66807339Y-127531061D02*
X66773667Y-127430046D01*
X66773667Y-127430046D02*
X66773667Y-127295358D01*
X66773667Y-127295358D02*
X66841010Y-127160671D01*
X66841010Y-127160671D02*
X66908354Y-127093328D01*
X66908354Y-127093328D02*
X67043041Y-127025984D01*
X67043041Y-127025984D02*
X67110384Y-127025984D01*
X67985850Y-127362702D02*
X68120537Y-127295358D01*
X68120537Y-127295358D02*
X68288896Y-127127000D01*
X68288896Y-127127000D02*
X68322567Y-127025984D01*
X68322567Y-127025984D02*
X68322567Y-126958641D01*
X68322567Y-126958641D02*
X68288896Y-126857626D01*
X68288896Y-126857626D02*
X68221552Y-126790282D01*
X68221552Y-126790282D02*
X68120537Y-126756610D01*
X68120537Y-126756610D02*
X68053193Y-126756610D01*
X68053193Y-126756610D02*
X67952178Y-126790282D01*
X67952178Y-126790282D02*
X67783819Y-126891297D01*
X67783819Y-126891297D02*
X67682804Y-126924969D01*
X67682804Y-126924969D02*
X67615461Y-126924969D01*
X67615461Y-126924969D02*
X67514445Y-126891297D01*
X67514445Y-126891297D02*
X67447102Y-126823954D01*
X67447102Y-126823954D02*
X67413430Y-126722939D01*
X67413430Y-126722939D02*
X67413430Y-126655595D01*
X67413430Y-126655595D02*
X67447102Y-126554580D01*
X67447102Y-126554580D02*
X67615461Y-126386221D01*
X67615461Y-126386221D02*
X67750148Y-126318878D01*
X66345025Y-127264044D02*
X67584146Y-126024923D01*
X70846087Y-125769809D02*
X70138980Y-125062702D01*
X70610384Y-124591298D02*
X70745071Y-124456611D01*
X70745071Y-124456611D02*
X70846086Y-124422939D01*
X70846086Y-124422939D02*
X70980773Y-124422939D01*
X70980773Y-124422939D02*
X71149132Y-124523954D01*
X71149132Y-124523954D02*
X71384834Y-124759657D01*
X71384834Y-124759657D02*
X71485849Y-124928015D01*
X71485849Y-124928015D02*
X71485849Y-125062702D01*
X71485849Y-125062702D02*
X71452178Y-125163718D01*
X71452178Y-125163718D02*
X71317491Y-125298405D01*
X71317491Y-125298405D02*
X71216475Y-125332076D01*
X71216475Y-125332076D02*
X71081788Y-125332076D01*
X71081788Y-125332076D02*
X70913430Y-125231061D01*
X70913430Y-125231061D02*
X70677727Y-124995359D01*
X70677727Y-124995359D02*
X70576712Y-124827000D01*
X70576712Y-124827000D02*
X70576712Y-124692313D01*
X70576712Y-124692313D02*
X70610384Y-124591298D01*
X72293971Y-124321924D02*
X71889910Y-124725985D01*
X72091941Y-124523954D02*
X71384834Y-123816848D01*
X71384834Y-123816848D02*
X71418506Y-123985206D01*
X71418506Y-123985206D02*
X71418506Y-124119893D01*
X71418506Y-124119893D02*
X71384834Y-124220909D01*
X105170112Y-47346009D02*
X104836779Y-47346009D01*
X104836779Y-47869819D02*
X104836779Y-46869819D01*
X104836779Y-46869819D02*
X105312969Y-46869819D01*
X105693922Y-47869819D02*
X105693922Y-46869819D01*
X105693922Y-46869819D02*
X105932017Y-46869819D01*
X105932017Y-46869819D02*
X106074874Y-46917438D01*
X106074874Y-46917438D02*
X106170112Y-47012676D01*
X106170112Y-47012676D02*
X106217731Y-47107914D01*
X106217731Y-47107914D02*
X106265350Y-47298390D01*
X106265350Y-47298390D02*
X106265350Y-47441247D01*
X106265350Y-47441247D02*
X106217731Y-47631723D01*
X106217731Y-47631723D02*
X106170112Y-47726961D01*
X106170112Y-47726961D02*
X106074874Y-47822200D01*
X106074874Y-47822200D02*
X105932017Y-47869819D01*
X105932017Y-47869819D02*
X105693922Y-47869819D01*
X107027255Y-47346009D02*
X107170112Y-47393628D01*
X107170112Y-47393628D02*
X107217731Y-47441247D01*
X107217731Y-47441247D02*
X107265350Y-47536485D01*
X107265350Y-47536485D02*
X107265350Y-47679342D01*
X107265350Y-47679342D02*
X107217731Y-47774580D01*
X107217731Y-47774580D02*
X107170112Y-47822200D01*
X107170112Y-47822200D02*
X107074874Y-47869819D01*
X107074874Y-47869819D02*
X106693922Y-47869819D01*
X106693922Y-47869819D02*
X106693922Y-46869819D01*
X106693922Y-46869819D02*
X107027255Y-46869819D01*
X107027255Y-46869819D02*
X107122493Y-46917438D01*
X107122493Y-46917438D02*
X107170112Y-46965057D01*
X107170112Y-46965057D02*
X107217731Y-47060295D01*
X107217731Y-47060295D02*
X107217731Y-47155533D01*
X107217731Y-47155533D02*
X107170112Y-47250771D01*
X107170112Y-47250771D02*
X107122493Y-47298390D01*
X107122493Y-47298390D02*
X107027255Y-47346009D01*
X107027255Y-47346009D02*
X106693922Y-47346009D01*
X107693922Y-47869819D02*
X107693922Y-46869819D01*
X108265350Y-47869819D02*
X107836779Y-47298390D01*
X108265350Y-46869819D02*
X107693922Y-47441247D01*
X95241541Y-46869819D02*
X95860588Y-46869819D01*
X95860588Y-46869819D02*
X95527255Y-47250771D01*
X95527255Y-47250771D02*
X95670112Y-47250771D01*
X95670112Y-47250771D02*
X95765350Y-47298390D01*
X95765350Y-47298390D02*
X95812969Y-47346009D01*
X95812969Y-47346009D02*
X95860588Y-47441247D01*
X95860588Y-47441247D02*
X95860588Y-47679342D01*
X95860588Y-47679342D02*
X95812969Y-47774580D01*
X95812969Y-47774580D02*
X95765350Y-47822200D01*
X95765350Y-47822200D02*
X95670112Y-47869819D01*
X95670112Y-47869819D02*
X95384398Y-47869819D01*
X95384398Y-47869819D02*
X95289160Y-47822200D01*
X95289160Y-47822200D02*
X95241541Y-47774580D01*
X96146303Y-46869819D02*
X96479636Y-47869819D01*
X96479636Y-47869819D02*
X96812969Y-46869819D01*
X97051065Y-46869819D02*
X97670112Y-46869819D01*
X97670112Y-46869819D02*
X97336779Y-47250771D01*
X97336779Y-47250771D02*
X97479636Y-47250771D01*
X97479636Y-47250771D02*
X97574874Y-47298390D01*
X97574874Y-47298390D02*
X97622493Y-47346009D01*
X97622493Y-47346009D02*
X97670112Y-47441247D01*
X97670112Y-47441247D02*
X97670112Y-47679342D01*
X97670112Y-47679342D02*
X97622493Y-47774580D01*
X97622493Y-47774580D02*
X97574874Y-47822200D01*
X97574874Y-47822200D02*
X97479636Y-47869819D01*
X97479636Y-47869819D02*
X97193922Y-47869819D01*
X97193922Y-47869819D02*
X97098684Y-47822200D01*
X97098684Y-47822200D02*
X97051065Y-47774580D01*
D11*
G36*
X57921601Y-79779057D02*
G01*
X57973413Y-79805803D01*
X58011878Y-79834197D01*
X58042130Y-79867392D01*
X58061275Y-79902343D01*
X58071638Y-79939593D01*
X58072810Y-79980284D01*
X58065681Y-80022236D01*
X58050132Y-80068541D01*
X58028313Y-80109810D01*
X58001144Y-80142529D01*
X57968124Y-80167887D01*
X57929799Y-80185050D01*
X57891547Y-80192500D01*
X57846277Y-80192587D01*
X57799412Y-80184592D01*
X57747558Y-80167163D01*
X57510879Y-80069127D01*
X57673583Y-79676325D01*
X57921601Y-79779057D01*
G37*
G36*
X58099896Y-79204055D02*
G01*
X58160294Y-79234071D01*
X58206213Y-79264748D01*
X58242731Y-79300690D01*
X58264739Y-79338856D01*
X58274048Y-79369821D01*
X58275811Y-79404511D01*
X58270268Y-79440588D01*
X58256549Y-79481890D01*
X58237331Y-79518875D01*
X58214364Y-79547593D01*
X58186735Y-79570135D01*
X58155952Y-79585457D01*
X58114295Y-79595758D01*
X58064079Y-79595682D01*
X58011443Y-79585967D01*
X57951022Y-79566103D01*
X57753182Y-79484155D01*
X57902987Y-79122493D01*
X58099896Y-79204055D01*
G37*
G36*
X62380277Y-80497902D02*
G01*
X61657984Y-82241672D01*
X60126513Y-81607316D01*
X60616476Y-81607316D01*
X61556510Y-81996691D01*
X61643961Y-81785566D01*
X61039019Y-81534991D01*
X61412164Y-81367951D01*
X61588983Y-81286439D01*
X61667288Y-81244455D01*
X61734761Y-81202081D01*
X61795099Y-81154865D01*
X61845678Y-81104473D01*
X61887825Y-81047814D01*
X61920945Y-80983077D01*
X61949772Y-80892762D01*
X61960545Y-80807055D01*
X61954229Y-80723157D01*
X61930962Y-80645599D01*
X61889785Y-80574121D01*
X61829168Y-80506973D01*
X61753540Y-80450288D01*
X61655337Y-80400570D01*
X61545044Y-80365611D01*
X61440323Y-80353146D01*
X61338191Y-80360672D01*
X61246402Y-80386433D01*
X61161725Y-80429482D01*
X61087529Y-80488762D01*
X61026528Y-80561903D01*
X60980573Y-80647890D01*
X61244670Y-80757282D01*
X61270782Y-80704811D01*
X61300035Y-80663828D01*
X61334733Y-80630619D01*
X61371965Y-80608166D01*
X61411692Y-80595729D01*
X61456451Y-80592799D01*
X61503143Y-80599437D01*
X61555800Y-80616701D01*
X61593854Y-80636470D01*
X61624593Y-80660760D01*
X61649438Y-80689970D01*
X61667143Y-80722700D01*
X61676483Y-80759139D01*
X61678555Y-80799500D01*
X61672793Y-80841138D01*
X61657736Y-80887337D01*
X61621043Y-80947681D01*
X61560023Y-81005483D01*
X61466002Y-81066369D01*
X61335272Y-81133068D01*
X60690993Y-81427416D01*
X60616476Y-81607316D01*
X60126513Y-81607316D01*
X58985257Y-81134592D01*
X59475218Y-81134592D01*
X59743122Y-81245561D01*
X60111327Y-80356638D01*
X60126531Y-81404375D01*
X60391643Y-81514187D01*
X60962579Y-80135827D01*
X60695606Y-80025243D01*
X60328048Y-80909973D01*
X60314058Y-79867201D01*
X60046154Y-79756231D01*
X59475218Y-81134592D01*
X58985257Y-81134592D01*
X58150743Y-80788925D01*
X58640704Y-80788925D01*
X58907678Y-80899509D01*
X59388814Y-79737942D01*
X59813856Y-79914000D01*
X59903655Y-79697206D01*
X58792268Y-79236854D01*
X58702469Y-79453649D01*
X59121841Y-79627358D01*
X58640704Y-80788925D01*
X58150743Y-80788925D01*
X56909896Y-80274949D01*
X56951928Y-80173475D01*
X57154877Y-80173475D01*
X57657600Y-80381710D01*
X57770669Y-80420702D01*
X57872625Y-80440836D01*
X57971583Y-80443578D01*
X58058725Y-80428103D01*
X58138323Y-80394163D01*
X58208747Y-80341637D01*
X58266941Y-80272385D01*
X58315403Y-80180601D01*
X58333214Y-80127784D01*
X58343355Y-80074106D01*
X58345464Y-80019841D01*
X58338768Y-79966229D01*
X58323279Y-79917328D01*
X58299204Y-79870035D01*
X58265136Y-79825885D01*
X58210905Y-79776853D01*
X58211291Y-79775922D01*
X58288497Y-79770230D01*
X58357395Y-79749893D01*
X58412569Y-79720007D01*
X58460519Y-79678997D01*
X58500213Y-79628868D01*
X58531599Y-79570341D01*
X58560499Y-79474181D01*
X58565494Y-79387989D01*
X58549459Y-79305463D01*
X58513328Y-79228878D01*
X58459386Y-79160017D01*
X58384283Y-79094530D01*
X58296071Y-79038282D01*
X58188764Y-78986875D01*
X57725813Y-78795114D01*
X57440403Y-79484155D01*
X57198099Y-80069127D01*
X57154877Y-80173475D01*
X56951928Y-80173475D01*
X57632189Y-78531179D01*
X62380277Y-80497902D01*
G37*
D12*
X67846087Y-122869809D02*
X67138980Y-122162702D01*
X67610384Y-121691298D02*
X67745071Y-121556611D01*
X67745071Y-121556611D02*
X67846086Y-121522939D01*
X67846086Y-121522939D02*
X67980773Y-121522939D01*
X67980773Y-121522939D02*
X68149132Y-121623954D01*
X68149132Y-121623954D02*
X68384834Y-121859657D01*
X68384834Y-121859657D02*
X68485849Y-122028015D01*
X68485849Y-122028015D02*
X68485849Y-122162702D01*
X68485849Y-122162702D02*
X68452178Y-122263718D01*
X68452178Y-122263718D02*
X68317491Y-122398405D01*
X68317491Y-122398405D02*
X68216475Y-122432076D01*
X68216475Y-122432076D02*
X68081788Y-122432076D01*
X68081788Y-122432076D02*
X67913430Y-122331061D01*
X67913430Y-122331061D02*
X67677727Y-122095359D01*
X67677727Y-122095359D02*
X67576712Y-121927000D01*
X67576712Y-121927000D02*
X67576712Y-121792313D01*
X67576712Y-121792313D02*
X67610384Y-121691298D01*
X68149132Y-121152550D02*
X68586865Y-120714817D01*
X68586865Y-120714817D02*
X68620536Y-121219893D01*
X68620536Y-121219893D02*
X68721552Y-121118878D01*
X68721552Y-121118878D02*
X68822567Y-121085206D01*
X68822567Y-121085206D02*
X68889910Y-121085206D01*
X68889910Y-121085206D02*
X68990926Y-121118878D01*
X68990926Y-121118878D02*
X69159284Y-121287237D01*
X69159284Y-121287237D02*
X69192956Y-121388252D01*
X69192956Y-121388252D02*
X69192956Y-121455596D01*
X69192956Y-121455596D02*
X69159284Y-121556611D01*
X69159284Y-121556611D02*
X68957254Y-121758641D01*
X68957254Y-121758641D02*
X68856239Y-121792313D01*
X68856239Y-121792313D02*
X68788895Y-121792313D01*
D11*
G36*
X56472333Y-83820650D02*
G01*
X56527192Y-83840404D01*
X56569034Y-83863534D01*
X56603360Y-83892497D01*
X56626904Y-83924650D01*
X56642040Y-83960229D01*
X56648513Y-84000419D01*
X56646921Y-84042942D01*
X56637549Y-84090881D01*
X56621303Y-84134644D01*
X56598638Y-84170630D01*
X56569210Y-84200081D01*
X56533453Y-84222100D01*
X56496501Y-84234478D01*
X56451629Y-84240474D01*
X56404122Y-84238664D01*
X56350437Y-84228152D01*
X56102986Y-84161848D01*
X56213027Y-83751169D01*
X56472333Y-83820650D01*
G37*
G36*
X56574049Y-83227295D02*
G01*
X56637848Y-83249170D01*
X56687378Y-83273591D01*
X56728276Y-83304459D01*
X56755077Y-83339427D01*
X56768348Y-83368911D01*
X56774624Y-83403075D01*
X56773837Y-83439567D01*
X56765627Y-83482306D01*
X56751401Y-83521483D01*
X56732379Y-83552953D01*
X56707928Y-83578909D01*
X56679408Y-83598118D01*
X56639453Y-83613768D01*
X56589656Y-83620247D01*
X56536202Y-83617485D01*
X56473705Y-83605677D01*
X56266862Y-83550254D01*
X56368179Y-83172132D01*
X56574049Y-83227295D01*
G37*
G36*
X60989700Y-83952176D02*
G01*
X60495884Y-85795124D01*
X57385877Y-84961800D01*
X58189591Y-84961800D01*
X58469687Y-85036852D01*
X58718714Y-84107473D01*
X58870546Y-85144262D01*
X59147723Y-85218531D01*
X59200177Y-85022770D01*
X59467961Y-85022770D01*
X59476063Y-85081686D01*
X59505245Y-85165276D01*
X59551317Y-85238584D01*
X59611798Y-85302636D01*
X59686537Y-85357122D01*
X59770139Y-85399777D01*
X59859464Y-85430481D01*
X59965906Y-85451255D01*
X60066437Y-85455692D01*
X60163234Y-85443756D01*
X60248444Y-85415896D01*
X60324414Y-85372293D01*
X60389877Y-85311655D01*
X60440813Y-85236220D01*
X60476827Y-85141801D01*
X60488391Y-85084507D01*
X60492095Y-85029261D01*
X60487751Y-84974903D01*
X60475001Y-84922841D01*
X60453467Y-84874235D01*
X60422600Y-84827159D01*
X60383573Y-84784324D01*
X60333069Y-84743715D01*
X60389423Y-84729407D01*
X60439892Y-84709187D01*
X60486269Y-84682940D01*
X60526252Y-84652298D01*
X60561039Y-84616736D01*
X60589719Y-84577516D01*
X60612332Y-84534833D01*
X60628144Y-84489671D01*
X60644922Y-84390331D01*
X60640622Y-84302612D01*
X60617273Y-84220426D01*
X60576764Y-84147061D01*
X60520131Y-84084144D01*
X60445144Y-84028539D01*
X60358542Y-83984462D01*
X60256223Y-83949756D01*
X60157562Y-83931198D01*
X60063881Y-83929035D01*
X59973628Y-83942218D01*
X59893509Y-83969293D01*
X59821429Y-84011660D01*
X59760555Y-84067367D01*
X59713500Y-84135474D01*
X59681505Y-84218003D01*
X59956647Y-84291728D01*
X59970937Y-84254678D01*
X59991590Y-84224664D01*
X60018252Y-84200304D01*
X60049785Y-84181942D01*
X60083586Y-84170543D01*
X60121606Y-84165154D01*
X60161032Y-84166187D01*
X60202484Y-84174024D01*
X60250145Y-84190729D01*
X60287320Y-84211643D01*
X60318152Y-84238067D01*
X60339887Y-84267070D01*
X60353953Y-84300798D01*
X60360623Y-84337959D01*
X60360072Y-84376760D01*
X60352195Y-84418955D01*
X60337642Y-84460561D01*
X60318190Y-84496321D01*
X60293305Y-84526717D01*
X60264290Y-84549202D01*
X60227163Y-84567020D01*
X60182160Y-84576503D01*
X60133522Y-84576332D01*
X60075326Y-84565419D01*
X59925900Y-84525380D01*
X59868628Y-84739124D01*
X60018054Y-84779163D01*
X60071943Y-84797230D01*
X60116068Y-84819269D01*
X60154065Y-84847194D01*
X60183149Y-84879629D01*
X60202803Y-84917158D01*
X60213330Y-84960919D01*
X60213897Y-85008331D01*
X60203440Y-85065418D01*
X60187631Y-85109473D01*
X60166476Y-85145689D01*
X60139298Y-85175788D01*
X60107479Y-85197773D01*
X60069054Y-85214201D01*
X60024509Y-85222194D01*
X59977315Y-85221324D01*
X59924536Y-85211337D01*
X59879342Y-85195272D01*
X59841234Y-85173655D01*
X59808708Y-85146236D01*
X59783762Y-85115301D01*
X59764831Y-85080888D01*
X59754248Y-85043198D01*
X59752193Y-85003656D01*
X59758965Y-84962251D01*
X59483822Y-84888527D01*
X59470210Y-84958785D01*
X59467961Y-85022770D01*
X59200177Y-85022770D01*
X59533862Y-83777440D01*
X59254739Y-83702649D01*
X59005806Y-84627787D01*
X58855827Y-83595761D01*
X58575730Y-83520710D01*
X58189591Y-84961800D01*
X57385877Y-84961800D01*
X55528700Y-84464171D01*
X55569536Y-84311771D01*
X55763650Y-84311771D01*
X56289251Y-84452606D01*
X56406443Y-84476507D01*
X56510154Y-84483160D01*
X56608624Y-84472962D01*
X56693001Y-84446245D01*
X56767488Y-84402206D01*
X56830453Y-84340937D01*
X56879110Y-84264682D01*
X56915177Y-84167357D01*
X56925942Y-84112668D01*
X56928990Y-84058125D01*
X56923998Y-84004049D01*
X56910361Y-83951769D01*
X56888622Y-83905308D01*
X56858580Y-83861562D01*
X56819040Y-83822237D01*
X56758874Y-83780703D01*
X56759135Y-83779730D01*
X56834938Y-83764009D01*
X56900591Y-83734853D01*
X56951393Y-83698021D01*
X56993580Y-83651103D01*
X57026391Y-83596222D01*
X57049869Y-83534099D01*
X57065970Y-83434989D01*
X57063126Y-83396102D01*
X57204045Y-83396102D01*
X57642504Y-83513586D01*
X57317098Y-84728016D01*
X57596221Y-84802807D01*
X57921627Y-83588377D01*
X58366013Y-83707450D01*
X58426746Y-83480789D01*
X57264779Y-83169441D01*
X57204045Y-83396102D01*
X57063126Y-83396102D01*
X57059672Y-83348883D01*
X57033002Y-83269156D01*
X56987184Y-83197942D01*
X56924716Y-83136711D01*
X56841708Y-83081587D01*
X56746908Y-83037334D01*
X56633810Y-83000374D01*
X56149789Y-82870681D01*
X55967698Y-83550254D01*
X55803822Y-84161848D01*
X55763650Y-84311771D01*
X55569536Y-84311771D01*
X56022517Y-82621223D01*
X60989700Y-83952176D01*
G37*
G36*
X59812326Y-76013868D02*
G01*
X59860203Y-76047148D01*
X59894633Y-76080319D01*
X59920293Y-76117179D01*
X59934713Y-76154330D01*
X59940125Y-76192615D01*
X59935975Y-76233110D01*
X59923432Y-76273773D01*
X59901971Y-76317652D01*
X59874953Y-76355719D01*
X59843746Y-76384613D01*
X59807698Y-76405444D01*
X59767461Y-76417458D01*
X59728564Y-76419851D01*
X59683669Y-76414029D01*
X59638249Y-76399984D01*
X59589114Y-76375936D01*
X59367255Y-76247846D01*
X59579838Y-75879642D01*
X59812326Y-76013868D01*
G37*
G36*
X60064148Y-75467057D02*
G01*
X60120111Y-75504700D01*
X60161633Y-75541108D01*
X60193148Y-75581509D01*
X60209986Y-75622222D01*
X60215173Y-75654136D01*
X60212394Y-75688760D01*
X60202189Y-75723805D01*
X60183196Y-75762962D01*
X60159315Y-75797123D01*
X60132796Y-75822597D01*
X60102461Y-75841340D01*
X60069941Y-75852514D01*
X60027296Y-75857289D01*
X59977520Y-75850659D01*
X59926602Y-75834156D01*
X59869291Y-75806575D01*
X59683840Y-75699505D01*
X59879570Y-75360491D01*
X60064148Y-75467057D01*
G37*
G36*
X63888273Y-77187452D02*
G01*
X62954809Y-78804259D01*
X62261795Y-78404147D01*
X62636796Y-78404147D01*
X62886179Y-78548128D01*
X63632143Y-77256082D01*
X63618817Y-77248388D01*
X62938870Y-77126779D01*
X62814902Y-77341499D01*
X63209057Y-77412962D01*
X62636796Y-78404147D01*
X62261795Y-78404147D01*
X60800718Y-77560594D01*
X61175719Y-77560594D01*
X61426846Y-77705582D01*
X61907928Y-76872324D01*
X61786246Y-77913082D01*
X62034756Y-78056559D01*
X62780720Y-76764513D01*
X62530464Y-76620028D01*
X62050571Y-77449213D01*
X62172810Y-76413536D01*
X61921682Y-76268547D01*
X61175719Y-77560594D01*
X60800718Y-77560594D01*
X60018462Y-77108958D01*
X60393463Y-77108958D01*
X60643718Y-77253443D01*
X61272353Y-76164615D01*
X61670779Y-76394646D01*
X61788107Y-76191427D01*
X60746315Y-75589949D01*
X60628987Y-75793167D01*
X61022098Y-76020130D01*
X60393463Y-77108958D01*
X60018462Y-77108958D01*
X58744549Y-76373464D01*
X58784173Y-76304834D01*
X59000680Y-76304834D01*
X59471921Y-76576906D01*
X59578933Y-76630323D01*
X59677389Y-76663593D01*
X59775143Y-76679228D01*
X59863559Y-76675260D01*
X59946906Y-76652000D01*
X60023584Y-76609115D01*
X60090319Y-76548052D01*
X60150347Y-76463378D01*
X60174899Y-76413338D01*
X60191960Y-76361443D01*
X60201134Y-76307917D01*
X60201493Y-76253889D01*
X60192519Y-76203385D01*
X60174823Y-76153354D01*
X60146809Y-76105136D01*
X60099442Y-76049444D01*
X60099946Y-76048572D01*
X60177235Y-76053006D01*
X60248198Y-76041836D01*
X60306801Y-76019407D01*
X60359694Y-75985007D01*
X60405591Y-75940488D01*
X60444348Y-75886558D01*
X60485552Y-75794993D01*
X60501755Y-75710191D01*
X60496628Y-75626277D01*
X60470803Y-75545631D01*
X60426311Y-75470319D01*
X60360398Y-75395589D01*
X60280282Y-75328308D01*
X60180604Y-75263335D01*
X59746643Y-75012788D01*
X59350167Y-75699505D01*
X59033582Y-76247846D01*
X59000680Y-76304834D01*
X58784173Y-76304834D01*
X59678013Y-74756658D01*
X63888273Y-77187452D01*
G37*
D12*
X86922200Y-129610839D02*
X86969819Y-129467982D01*
X86969819Y-129467982D02*
X86969819Y-129229887D01*
X86969819Y-129229887D02*
X86922200Y-129134649D01*
X86922200Y-129134649D02*
X86874580Y-129087030D01*
X86874580Y-129087030D02*
X86779342Y-129039411D01*
X86779342Y-129039411D02*
X86684104Y-129039411D01*
X86684104Y-129039411D02*
X86588866Y-129087030D01*
X86588866Y-129087030D02*
X86541247Y-129134649D01*
X86541247Y-129134649D02*
X86493628Y-129229887D01*
X86493628Y-129229887D02*
X86446009Y-129420363D01*
X86446009Y-129420363D02*
X86398390Y-129515601D01*
X86398390Y-129515601D02*
X86350771Y-129563220D01*
X86350771Y-129563220D02*
X86255533Y-129610839D01*
X86255533Y-129610839D02*
X86160295Y-129610839D01*
X86160295Y-129610839D02*
X86065057Y-129563220D01*
X86065057Y-129563220D02*
X86017438Y-129515601D01*
X86017438Y-129515601D02*
X85969819Y-129420363D01*
X85969819Y-129420363D02*
X85969819Y-129182268D01*
X85969819Y-129182268D02*
X86017438Y-129039411D01*
X86874580Y-128039411D02*
X86922200Y-128087030D01*
X86922200Y-128087030D02*
X86969819Y-128229887D01*
X86969819Y-128229887D02*
X86969819Y-128325125D01*
X86969819Y-128325125D02*
X86922200Y-128467982D01*
X86922200Y-128467982D02*
X86826961Y-128563220D01*
X86826961Y-128563220D02*
X86731723Y-128610839D01*
X86731723Y-128610839D02*
X86541247Y-128658458D01*
X86541247Y-128658458D02*
X86398390Y-128658458D01*
X86398390Y-128658458D02*
X86207914Y-128610839D01*
X86207914Y-128610839D02*
X86112676Y-128563220D01*
X86112676Y-128563220D02*
X86017438Y-128467982D01*
X86017438Y-128467982D02*
X85969819Y-128325125D01*
X85969819Y-128325125D02*
X85969819Y-128229887D01*
X85969819Y-128229887D02*
X86017438Y-128087030D01*
X86017438Y-128087030D02*
X86065057Y-128039411D01*
X86969819Y-127610839D02*
X85969819Y-127610839D01*
X86969819Y-127039411D02*
X86398390Y-127467982D01*
X85969819Y-127039411D02*
X86541247Y-127610839D01*
X82930190Y-113778743D02*
X82997534Y-113913430D01*
X82997534Y-113913430D02*
X83165892Y-114081789D01*
X83165892Y-114081789D02*
X83266908Y-114115461D01*
X83266908Y-114115461D02*
X83334251Y-114115461D01*
X83334251Y-114115461D02*
X83435266Y-114081789D01*
X83435266Y-114081789D02*
X83502610Y-114014445D01*
X83502610Y-114014445D02*
X83536282Y-113913430D01*
X83536282Y-113913430D02*
X83536282Y-113846087D01*
X83536282Y-113846087D02*
X83502610Y-113745071D01*
X83502610Y-113745071D02*
X83401595Y-113576713D01*
X83401595Y-113576713D02*
X83367923Y-113475697D01*
X83367923Y-113475697D02*
X83367923Y-113408354D01*
X83367923Y-113408354D02*
X83401595Y-113307339D01*
X83401595Y-113307339D02*
X83468938Y-113239995D01*
X83468938Y-113239995D02*
X83569953Y-113206323D01*
X83569953Y-113206323D02*
X83637297Y-113206323D01*
X83637297Y-113206323D02*
X83738312Y-113239995D01*
X83738312Y-113239995D02*
X83906671Y-113408354D01*
X83906671Y-113408354D02*
X83974015Y-113543041D01*
X84075030Y-114856239D02*
X84007686Y-114856239D01*
X84007686Y-114856239D02*
X83872999Y-114788896D01*
X83872999Y-114788896D02*
X83805656Y-114721552D01*
X83805656Y-114721552D02*
X83738312Y-114586865D01*
X83738312Y-114586865D02*
X83738312Y-114452178D01*
X83738312Y-114452178D02*
X83771984Y-114351163D01*
X83771984Y-114351163D02*
X83872999Y-114182804D01*
X83872999Y-114182804D02*
X83974015Y-114081789D01*
X83974015Y-114081789D02*
X84142373Y-113980774D01*
X84142373Y-113980774D02*
X84243389Y-113947102D01*
X84243389Y-113947102D02*
X84378076Y-113947102D01*
X84378076Y-113947102D02*
X84512763Y-114014445D01*
X84512763Y-114014445D02*
X84580106Y-114081789D01*
X84580106Y-114081789D02*
X84647450Y-114216476D01*
X84647450Y-114216476D02*
X84647450Y-114283819D01*
X84310732Y-115226628D02*
X85017839Y-114519522D01*
X84714793Y-115630689D02*
X84815808Y-114923583D01*
X85421900Y-114923583D02*
X84613778Y-114923583D01*
X91261905Y-57954819D02*
X91833333Y-57954819D01*
X91547619Y-58954819D02*
X91547619Y-57954819D01*
X92166667Y-58954819D02*
X92166667Y-57954819D01*
X92166667Y-57954819D02*
X92547619Y-57954819D01*
X92547619Y-57954819D02*
X92642857Y-58002438D01*
X92642857Y-58002438D02*
X92690476Y-58050057D01*
X92690476Y-58050057D02*
X92738095Y-58145295D01*
X92738095Y-58145295D02*
X92738095Y-58288152D01*
X92738095Y-58288152D02*
X92690476Y-58383390D01*
X92690476Y-58383390D02*
X92642857Y-58431009D01*
X92642857Y-58431009D02*
X92547619Y-58478628D01*
X92547619Y-58478628D02*
X92166667Y-58478628D01*
X93690476Y-58954819D02*
X93119048Y-58954819D01*
X93404762Y-58954819D02*
X93404762Y-57954819D01*
X93404762Y-57954819D02*
X93309524Y-58097676D01*
X93309524Y-58097676D02*
X93214286Y-58192914D01*
X93214286Y-58192914D02*
X93119048Y-58240533D01*
X94261905Y-58383390D02*
X94166667Y-58335771D01*
X94166667Y-58335771D02*
X94119048Y-58288152D01*
X94119048Y-58288152D02*
X94071429Y-58192914D01*
X94071429Y-58192914D02*
X94071429Y-58145295D01*
X94071429Y-58145295D02*
X94119048Y-58050057D01*
X94119048Y-58050057D02*
X94166667Y-58002438D01*
X94166667Y-58002438D02*
X94261905Y-57954819D01*
X94261905Y-57954819D02*
X94452381Y-57954819D01*
X94452381Y-57954819D02*
X94547619Y-58002438D01*
X94547619Y-58002438D02*
X94595238Y-58050057D01*
X94595238Y-58050057D02*
X94642857Y-58145295D01*
X94642857Y-58145295D02*
X94642857Y-58192914D01*
X94642857Y-58192914D02*
X94595238Y-58288152D01*
X94595238Y-58288152D02*
X94547619Y-58335771D01*
X94547619Y-58335771D02*
X94452381Y-58383390D01*
X94452381Y-58383390D02*
X94261905Y-58383390D01*
X94261905Y-58383390D02*
X94166667Y-58431009D01*
X94166667Y-58431009D02*
X94119048Y-58478628D01*
X94119048Y-58478628D02*
X94071429Y-58573866D01*
X94071429Y-58573866D02*
X94071429Y-58764342D01*
X94071429Y-58764342D02*
X94119048Y-58859580D01*
X94119048Y-58859580D02*
X94166667Y-58907200D01*
X94166667Y-58907200D02*
X94261905Y-58954819D01*
X94261905Y-58954819D02*
X94452381Y-58954819D01*
X94452381Y-58954819D02*
X94547619Y-58907200D01*
X94547619Y-58907200D02*
X94595238Y-58859580D01*
X94595238Y-58859580D02*
X94642857Y-58764342D01*
X94642857Y-58764342D02*
X94642857Y-58573866D01*
X94642857Y-58573866D02*
X94595238Y-58478628D01*
X94595238Y-58478628D02*
X94547619Y-58431009D01*
X94547619Y-58431009D02*
X94452381Y-58383390D01*
X78738095Y-68954819D02*
X79309523Y-68954819D01*
X79023809Y-69954819D02*
X79023809Y-68954819D01*
X79642857Y-69954819D02*
X79642857Y-68954819D01*
X79642857Y-68954819D02*
X80023809Y-68954819D01*
X80023809Y-68954819D02*
X80119047Y-69002438D01*
X80119047Y-69002438D02*
X80166666Y-69050057D01*
X80166666Y-69050057D02*
X80214285Y-69145295D01*
X80214285Y-69145295D02*
X80214285Y-69288152D01*
X80214285Y-69288152D02*
X80166666Y-69383390D01*
X80166666Y-69383390D02*
X80119047Y-69431009D01*
X80119047Y-69431009D02*
X80023809Y-69478628D01*
X80023809Y-69478628D02*
X79642857Y-69478628D01*
X81071428Y-69288152D02*
X81071428Y-69954819D01*
X80833333Y-68907200D02*
X80595238Y-69621485D01*
X80595238Y-69621485D02*
X81214285Y-69621485D01*
X77138095Y-61354819D02*
X77709523Y-61354819D01*
X77423809Y-62354819D02*
X77423809Y-61354819D01*
X78042857Y-62354819D02*
X78042857Y-61354819D01*
X78042857Y-61354819D02*
X78423809Y-61354819D01*
X78423809Y-61354819D02*
X78519047Y-61402438D01*
X78519047Y-61402438D02*
X78566666Y-61450057D01*
X78566666Y-61450057D02*
X78614285Y-61545295D01*
X78614285Y-61545295D02*
X78614285Y-61688152D01*
X78614285Y-61688152D02*
X78566666Y-61783390D01*
X78566666Y-61783390D02*
X78519047Y-61831009D01*
X78519047Y-61831009D02*
X78423809Y-61878628D01*
X78423809Y-61878628D02*
X78042857Y-61878628D01*
X78995238Y-61450057D02*
X79042857Y-61402438D01*
X79042857Y-61402438D02*
X79138095Y-61354819D01*
X79138095Y-61354819D02*
X79376190Y-61354819D01*
X79376190Y-61354819D02*
X79471428Y-61402438D01*
X79471428Y-61402438D02*
X79519047Y-61450057D01*
X79519047Y-61450057D02*
X79566666Y-61545295D01*
X79566666Y-61545295D02*
X79566666Y-61640533D01*
X79566666Y-61640533D02*
X79519047Y-61783390D01*
X79519047Y-61783390D02*
X78947619Y-62354819D01*
X78947619Y-62354819D02*
X79566666Y-62354819D01*
X80038095Y-61354819D02*
X80609523Y-61354819D01*
X80323809Y-62354819D02*
X80323809Y-61354819D01*
X80942857Y-62354819D02*
X80942857Y-61354819D01*
X80942857Y-61354819D02*
X81323809Y-61354819D01*
X81323809Y-61354819D02*
X81419047Y-61402438D01*
X81419047Y-61402438D02*
X81466666Y-61450057D01*
X81466666Y-61450057D02*
X81514285Y-61545295D01*
X81514285Y-61545295D02*
X81514285Y-61688152D01*
X81514285Y-61688152D02*
X81466666Y-61783390D01*
X81466666Y-61783390D02*
X81419047Y-61831009D01*
X81419047Y-61831009D02*
X81323809Y-61878628D01*
X81323809Y-61878628D02*
X80942857Y-61878628D01*
X82419047Y-61354819D02*
X81942857Y-61354819D01*
X81942857Y-61354819D02*
X81895238Y-61831009D01*
X81895238Y-61831009D02*
X81942857Y-61783390D01*
X81942857Y-61783390D02*
X82038095Y-61735771D01*
X82038095Y-61735771D02*
X82276190Y-61735771D01*
X82276190Y-61735771D02*
X82371428Y-61783390D01*
X82371428Y-61783390D02*
X82419047Y-61831009D01*
X82419047Y-61831009D02*
X82466666Y-61926247D01*
X82466666Y-61926247D02*
X82466666Y-62164342D01*
X82466666Y-62164342D02*
X82419047Y-62259580D01*
X82419047Y-62259580D02*
X82371428Y-62307200D01*
X82371428Y-62307200D02*
X82276190Y-62354819D01*
X82276190Y-62354819D02*
X82038095Y-62354819D01*
X82038095Y-62354819D02*
X81942857Y-62307200D01*
X81942857Y-62307200D02*
X81895238Y-62259580D01*
X97461905Y-65354819D02*
X98033333Y-65354819D01*
X97747619Y-66354819D02*
X97747619Y-65354819D01*
X98366667Y-66354819D02*
X98366667Y-65354819D01*
X98366667Y-65354819D02*
X98747619Y-65354819D01*
X98747619Y-65354819D02*
X98842857Y-65402438D01*
X98842857Y-65402438D02*
X98890476Y-65450057D01*
X98890476Y-65450057D02*
X98938095Y-65545295D01*
X98938095Y-65545295D02*
X98938095Y-65688152D01*
X98938095Y-65688152D02*
X98890476Y-65783390D01*
X98890476Y-65783390D02*
X98842857Y-65831009D01*
X98842857Y-65831009D02*
X98747619Y-65878628D01*
X98747619Y-65878628D02*
X98366667Y-65878628D01*
X99890476Y-66354819D02*
X99319048Y-66354819D01*
X99604762Y-66354819D02*
X99604762Y-65354819D01*
X99604762Y-65354819D02*
X99509524Y-65497676D01*
X99509524Y-65497676D02*
X99414286Y-65592914D01*
X99414286Y-65592914D02*
X99319048Y-65640533D01*
X100366667Y-66354819D02*
X100557143Y-66354819D01*
X100557143Y-66354819D02*
X100652381Y-66307200D01*
X100652381Y-66307200D02*
X100700000Y-66259580D01*
X100700000Y-66259580D02*
X100795238Y-66116723D01*
X100795238Y-66116723D02*
X100842857Y-65926247D01*
X100842857Y-65926247D02*
X100842857Y-65545295D01*
X100842857Y-65545295D02*
X100795238Y-65450057D01*
X100795238Y-65450057D02*
X100747619Y-65402438D01*
X100747619Y-65402438D02*
X100652381Y-65354819D01*
X100652381Y-65354819D02*
X100461905Y-65354819D01*
X100461905Y-65354819D02*
X100366667Y-65402438D01*
X100366667Y-65402438D02*
X100319048Y-65450057D01*
X100319048Y-65450057D02*
X100271429Y-65545295D01*
X100271429Y-65545295D02*
X100271429Y-65783390D01*
X100271429Y-65783390D02*
X100319048Y-65878628D01*
X100319048Y-65878628D02*
X100366667Y-65926247D01*
X100366667Y-65926247D02*
X100461905Y-65973866D01*
X100461905Y-65973866D02*
X100652381Y-65973866D01*
X100652381Y-65973866D02*
X100747619Y-65926247D01*
X100747619Y-65926247D02*
X100795238Y-65878628D01*
X100795238Y-65878628D02*
X100842857Y-65783390D01*
X89454819Y-75261904D02*
X89454819Y-74690476D01*
X90454819Y-74976190D02*
X89454819Y-74976190D01*
X90454819Y-74357142D02*
X89454819Y-74357142D01*
X89454819Y-74357142D02*
X89454819Y-73976190D01*
X89454819Y-73976190D02*
X89502438Y-73880952D01*
X89502438Y-73880952D02*
X89550057Y-73833333D01*
X89550057Y-73833333D02*
X89645295Y-73785714D01*
X89645295Y-73785714D02*
X89788152Y-73785714D01*
X89788152Y-73785714D02*
X89883390Y-73833333D01*
X89883390Y-73833333D02*
X89931009Y-73880952D01*
X89931009Y-73880952D02*
X89978628Y-73976190D01*
X89978628Y-73976190D02*
X89978628Y-74357142D01*
X89454819Y-73452380D02*
X89454819Y-72785714D01*
X89454819Y-72785714D02*
X90454819Y-73214285D01*
X90574030Y-152131713D02*
X90574030Y-151368285D01*
X90955744Y-151749999D02*
X90192315Y-151749999D01*
X90573995Y-142131548D02*
X90573995Y-141368450D01*
X87545180Y-115637100D02*
X87307085Y-115637100D01*
X87402323Y-115399005D02*
X87307085Y-115637100D01*
X87307085Y-115637100D02*
X87402323Y-115875195D01*
X87116609Y-115494243D02*
X87307085Y-115637100D01*
X87307085Y-115637100D02*
X87116609Y-115779957D01*
X87545180Y-115637100D02*
X87307085Y-115637100D01*
X87402323Y-115399005D02*
X87307085Y-115637100D01*
X87307085Y-115637100D02*
X87402323Y-115875195D01*
X87116609Y-115494243D02*
X87307085Y-115637100D01*
X87307085Y-115637100D02*
X87116609Y-115779957D01*
X91954819Y-75261904D02*
X91954819Y-74690476D01*
X92954819Y-74976190D02*
X91954819Y-74976190D01*
X92954819Y-74357142D02*
X91954819Y-74357142D01*
X91954819Y-74357142D02*
X91954819Y-73976190D01*
X91954819Y-73976190D02*
X92002438Y-73880952D01*
X92002438Y-73880952D02*
X92050057Y-73833333D01*
X92050057Y-73833333D02*
X92145295Y-73785714D01*
X92145295Y-73785714D02*
X92288152Y-73785714D01*
X92288152Y-73785714D02*
X92383390Y-73833333D01*
X92383390Y-73833333D02*
X92431009Y-73880952D01*
X92431009Y-73880952D02*
X92478628Y-73976190D01*
X92478628Y-73976190D02*
X92478628Y-74357142D01*
X91954819Y-73452380D02*
X91954819Y-72833333D01*
X91954819Y-72833333D02*
X92335771Y-73166666D01*
X92335771Y-73166666D02*
X92335771Y-73023809D01*
X92335771Y-73023809D02*
X92383390Y-72928571D01*
X92383390Y-72928571D02*
X92431009Y-72880952D01*
X92431009Y-72880952D02*
X92526247Y-72833333D01*
X92526247Y-72833333D02*
X92764342Y-72833333D01*
X92764342Y-72833333D02*
X92859580Y-72880952D01*
X92859580Y-72880952D02*
X92907200Y-72928571D01*
X92907200Y-72928571D02*
X92954819Y-73023809D01*
X92954819Y-73023809D02*
X92954819Y-73309523D01*
X92954819Y-73309523D02*
X92907200Y-73404761D01*
X92907200Y-73404761D02*
X92859580Y-73452380D01*
X98614700Y-69071428D02*
X98614700Y-67928571D01*
X99186128Y-68499999D02*
X98043271Y-68499999D01*
X98614700Y-80071428D02*
X98614700Y-78928571D01*
D14*
%TO.C,R42*%
X72762770Y-76598303D02*
X73098303Y-76262770D01*
X73501697Y-77337230D02*
X73837230Y-77001697D01*
%TO.C,D2*%
X67869777Y-73730330D02*
X66254038Y-72114591D01*
X66830330Y-74769777D02*
X67869777Y-73730330D01*
X65214591Y-73154038D02*
X66830330Y-74769777D01*
%TO.C,C18*%
X80890000Y-51865580D02*
X80890000Y-51584420D01*
X81910000Y-51865580D02*
X81910000Y-51584420D01*
%TO.C,C10*%
X74590000Y-117234420D02*
X74590000Y-117515580D01*
X75610000Y-117234420D02*
X75610000Y-117515580D01*
D12*
%TO.C,D3*%
X83500000Y-73100000D02*
X82500000Y-73100000D01*
X83500000Y-74900000D02*
X82500000Y-74900000D01*
D15*
X84725000Y-73500000D02*
G75*
G02*
X84475000Y-73500000I-125000J0D01*
G01*
X84475000Y-73500000D02*
G75*
G02*
X84725000Y-73500000I125000J0D01*
G01*
D14*
%TO.C,C4*%
X62180544Y-113401793D02*
X61981733Y-113202982D01*
X62901793Y-112680544D02*
X62702982Y-112481733D01*
%TO.C,R17*%
X72001697Y-67162770D02*
X72337230Y-67498303D01*
X71262770Y-67901697D02*
X71598303Y-68237230D01*
%TO.C,R7*%
X94677500Y-73787742D02*
X94677500Y-74262258D01*
X95722500Y-73787742D02*
X95722500Y-74262258D01*
D16*
%TO.C,G\u002A\u002A\u002A*%
G36*
X94304881Y-138129090D02*
G01*
X94849804Y-138924001D01*
X94856349Y-138129090D01*
X94862894Y-137334179D01*
X95147804Y-137334179D01*
X95432714Y-137334179D01*
X95432714Y-138624023D01*
X95432714Y-139913867D01*
X95190869Y-139913318D01*
X94949023Y-139912769D01*
X94403320Y-139121231D01*
X93857617Y-138329693D01*
X93851072Y-139121780D01*
X93844527Y-139913867D01*
X93559617Y-139913867D01*
X93274707Y-139913867D01*
X93274707Y-138624023D01*
X93274707Y-137334179D01*
X93517333Y-137334179D01*
X93759959Y-137334179D01*
X94304881Y-138129090D01*
G37*
G36*
X92174815Y-139578441D02*
G01*
X92239907Y-139600611D01*
X92346977Y-139664931D01*
X92414162Y-139753166D01*
X92446537Y-139872750D01*
X92449760Y-139908005D01*
X92441773Y-140044296D01*
X92396365Y-140149954D01*
X92310847Y-140229768D01*
X92251001Y-140262030D01*
X92155211Y-140298648D01*
X92078052Y-140306130D01*
X91997650Y-140283982D01*
X91936143Y-140254931D01*
X91832490Y-140177575D01*
X91766369Y-140077630D01*
X91737800Y-139964969D01*
X91746803Y-139849469D01*
X91793398Y-139741002D01*
X91877605Y-139649442D01*
X91934866Y-139612530D01*
X92054611Y-139571491D01*
X92174815Y-139578441D01*
G37*
G36*
X90422167Y-138065918D02*
G01*
X90422167Y-138375976D01*
X90781835Y-138375976D01*
X91141503Y-138375976D01*
X91141503Y-138065918D01*
X91141503Y-137755859D01*
X91389550Y-137755859D01*
X91637597Y-137755859D01*
X91637597Y-138624023D01*
X91637597Y-139492187D01*
X91389550Y-139492187D01*
X91141503Y-139492187D01*
X91141503Y-139182129D01*
X91141503Y-138872070D01*
X90781835Y-138872070D01*
X90422167Y-138872070D01*
X90422167Y-139182129D01*
X90422167Y-139492187D01*
X90174121Y-139492187D01*
X89926074Y-139492187D01*
X89926074Y-138624023D01*
X89926074Y-137755859D01*
X90174121Y-137755859D01*
X90422167Y-137755859D01*
X90422167Y-138065918D01*
G37*
G36*
X101367236Y-137363359D02*
G01*
X101564060Y-137365913D01*
X101718080Y-137368554D01*
X101836095Y-137371907D01*
X101924909Y-137376600D01*
X101991320Y-137383257D01*
X102042133Y-137392503D01*
X102084146Y-137404966D01*
X102124163Y-137421269D01*
X102155916Y-137435906D01*
X102331476Y-137541193D01*
X102465645Y-137673586D01*
X102559499Y-137834544D01*
X102614110Y-138025523D01*
X102620217Y-138065918D01*
X102628249Y-138286883D01*
X102591955Y-138487614D01*
X102511878Y-138666484D01*
X102388563Y-138821864D01*
X102358222Y-138850462D01*
X102258882Y-138927477D01*
X102150183Y-138984493D01*
X102022583Y-139024366D01*
X101866540Y-139049952D01*
X101672512Y-139064106D01*
X101640087Y-139065399D01*
X101336230Y-139076496D01*
X101336230Y-138865621D01*
X101336230Y-138654745D01*
X101566745Y-138644663D01*
X101721621Y-138631252D01*
X101838176Y-138603647D01*
X101926710Y-138557501D01*
X101997523Y-138488471D01*
X102024476Y-138451582D01*
X102059707Y-138383785D01*
X102076723Y-138303382D01*
X102080371Y-138214746D01*
X102074735Y-138109380D01*
X102054703Y-138032806D01*
X102024476Y-137977909D01*
X101964000Y-137902809D01*
X101893789Y-137849754D01*
X101803950Y-137814885D01*
X101684592Y-137794341D01*
X101528466Y-137784352D01*
X101261816Y-137775176D01*
X101261816Y-138832119D01*
X101261816Y-139889062D01*
X100988964Y-139889062D01*
X100716113Y-139889062D01*
X100716113Y-138622197D01*
X100716113Y-137355332D01*
X101367236Y-137363359D01*
G37*
G36*
X100046386Y-137654095D02*
G01*
X100058789Y-137966699D01*
X100238623Y-137973987D01*
X100418457Y-137981275D01*
X100418457Y-138191028D01*
X100418457Y-138400781D01*
X100230976Y-138400781D01*
X100043495Y-138400781D01*
X100051142Y-138899113D01*
X100053878Y-139068086D01*
X100056765Y-139194486D01*
X100060690Y-139285342D01*
X100066537Y-139347685D01*
X100075192Y-139388545D01*
X100087540Y-139414951D01*
X100104467Y-139433935D01*
X100120163Y-139447097D01*
X100183146Y-139481766D01*
X100258921Y-139484173D01*
X100272531Y-139482198D01*
X100363524Y-139467647D01*
X100403393Y-139644190D01*
X100423019Y-139735203D01*
X100437253Y-139809038D01*
X100443226Y-139850730D01*
X100443261Y-139852209D01*
X100420453Y-139879928D01*
X100359692Y-139902441D01*
X100272469Y-139918555D01*
X100170279Y-139927078D01*
X100064613Y-139926820D01*
X99966966Y-139916587D01*
X99921136Y-139906359D01*
X99762252Y-139842993D01*
X99642962Y-139752868D01*
X99574152Y-139660844D01*
X99554655Y-139625072D01*
X99539700Y-139589899D01*
X99528570Y-139548234D01*
X99520545Y-139492991D01*
X99514906Y-139417080D01*
X99510936Y-139313413D01*
X99507916Y-139174902D01*
X99505128Y-138994456D01*
X99504886Y-138977490D01*
X99496686Y-138400781D01*
X99374661Y-138400781D01*
X99252636Y-138400781D01*
X99252636Y-138189941D01*
X99252636Y-137979101D01*
X99376660Y-137979101D01*
X99500683Y-137979101D01*
X99501582Y-137811670D01*
X99502481Y-137644238D01*
X99768233Y-137492865D01*
X100033984Y-137341492D01*
X100046386Y-137654095D01*
G37*
G36*
X104145546Y-137341386D02*
G01*
X104364986Y-137392562D01*
X104566066Y-137481034D01*
X104611369Y-137508403D01*
X104767131Y-137632592D01*
X104887571Y-137784659D01*
X104976323Y-137970042D01*
X105021348Y-138121728D01*
X105052458Y-138251953D01*
X104782800Y-138251953D01*
X104513142Y-138251953D01*
X104486338Y-138152408D01*
X104428058Y-138026401D01*
X104331962Y-137921381D01*
X104207439Y-137843086D01*
X104063881Y-137797254D01*
X103910679Y-137789623D01*
X103895178Y-137791184D01*
X103722583Y-137833007D01*
X103578561Y-137915196D01*
X103463564Y-138037243D01*
X103378045Y-138198642D01*
X103322460Y-138398886D01*
X103315867Y-138437737D01*
X103301615Y-138633846D01*
X103317662Y-138826084D01*
X103361372Y-139004620D01*
X103430108Y-139159623D01*
X103521236Y-139281262D01*
X103548829Y-139306680D01*
X103648889Y-139378605D01*
X103750547Y-139421143D01*
X103869863Y-139439065D01*
X103993278Y-139438685D01*
X104099186Y-139431267D01*
X104173597Y-139417215D01*
X104234600Y-139391439D01*
X104292184Y-139354576D01*
X104402922Y-139246978D01*
X104461621Y-139150395D01*
X104523632Y-139021626D01*
X104787646Y-139021262D01*
X105051660Y-139020898D01*
X105030200Y-139116408D01*
X104968503Y-139302920D01*
X104868412Y-139472287D01*
X104785074Y-139573195D01*
X104617889Y-139720208D01*
X104423013Y-139827559D01*
X104204167Y-139893989D01*
X103965069Y-139918235D01*
X103791894Y-139909889D01*
X103557497Y-139862307D01*
X103348551Y-139772923D01*
X103167401Y-139643831D01*
X103016389Y-139477128D01*
X102897858Y-139274908D01*
X102814151Y-139039268D01*
X102812864Y-139034290D01*
X102793850Y-138929462D01*
X102780660Y-138793603D01*
X102774997Y-138645120D01*
X102774902Y-138624023D01*
X102793853Y-138342655D01*
X102850705Y-138093283D01*
X102945455Y-137875915D01*
X103078100Y-137690557D01*
X103248636Y-137537216D01*
X103288668Y-137509476D01*
X103479308Y-137411551D01*
X103692483Y-137350889D01*
X103917971Y-137327498D01*
X104145546Y-137341386D01*
G37*
G36*
X98010078Y-138171338D02*
G01*
X98066313Y-138280763D01*
X98125130Y-138392802D01*
X98175013Y-138485551D01*
X98180867Y-138496182D01*
X98254207Y-138628791D01*
X98426537Y-138310147D01*
X98598867Y-137991504D01*
X98876142Y-137984490D01*
X98986711Y-137982919D01*
X99076341Y-137983979D01*
X99135109Y-137987395D01*
X99153417Y-137992169D01*
X99141452Y-138017021D01*
X99108007Y-138078128D01*
X99056763Y-138168984D01*
X98991397Y-138283087D01*
X98915591Y-138413934D01*
X98889851Y-138458069D01*
X98811291Y-138593631D01*
X98741964Y-138715312D01*
X98685586Y-138816421D01*
X98645872Y-138890264D01*
X98626540Y-138930149D01*
X98625267Y-138934553D01*
X98637129Y-138962432D01*
X98670894Y-139026308D01*
X98722905Y-139119659D01*
X98789505Y-139235966D01*
X98867036Y-139368707D01*
X98901236Y-139426540D01*
X98982062Y-139563213D01*
X99053594Y-139685102D01*
X99112188Y-139785918D01*
X99154199Y-139859375D01*
X99175982Y-139899183D01*
X99178222Y-139904371D01*
X99155084Y-139908217D01*
X99092279Y-139910225D01*
X98999720Y-139910247D01*
X98900349Y-139908478D01*
X98622476Y-139901465D01*
X98447663Y-139598773D01*
X98383595Y-139488665D01*
X98327793Y-139394318D01*
X98285171Y-139323919D01*
X98260639Y-139285658D01*
X98257331Y-139281463D01*
X98240633Y-139296749D01*
X98204940Y-139348576D01*
X98154759Y-139429796D01*
X98094597Y-139533260D01*
X98062593Y-139590356D01*
X97883374Y-139913867D01*
X97599159Y-139913867D01*
X97488342Y-139912362D01*
X97399605Y-139908272D01*
X97342280Y-139902229D01*
X97325413Y-139895263D01*
X97340618Y-139869336D01*
X97377326Y-139807158D01*
X97431739Y-139715151D01*
X97500058Y-139599738D01*
X97578485Y-139467341D01*
X97613630Y-139408035D01*
X97891375Y-138939409D01*
X97661988Y-138539871D01*
X97585665Y-138407039D01*
X97514705Y-138283735D01*
X97454070Y-138178566D01*
X97408722Y-138100139D01*
X97385188Y-138059716D01*
X97337775Y-137979101D01*
X97625202Y-137979101D01*
X97912629Y-137979101D01*
X98010078Y-138171338D01*
G37*
G36*
X96599932Y-137969815D02*
G01*
X96690868Y-137976467D01*
X96762400Y-137990192D01*
X96829605Y-138013463D01*
X96875140Y-138033507D01*
X97041838Y-138136394D01*
X97181126Y-138275007D01*
X97283444Y-138439749D01*
X97286583Y-138446636D01*
X97319431Y-138531150D01*
X97341114Y-138619993D01*
X97354722Y-138729368D01*
X97361801Y-138841064D01*
X97373983Y-139095312D01*
X96750614Y-139095312D01*
X96127246Y-139095312D01*
X96127246Y-138922342D01*
X96127246Y-138749373D01*
X96493115Y-138742508D01*
X96858984Y-138735644D01*
X96850191Y-138673633D01*
X96810194Y-138553354D01*
X96732461Y-138454756D01*
X96690348Y-138423142D01*
X96626925Y-138392798D01*
X96552574Y-138380444D01*
X96461508Y-138381650D01*
X96327317Y-138403224D01*
X96224766Y-138453493D01*
X96151272Y-138536119D01*
X96104253Y-138654764D01*
X96081123Y-138813090D01*
X96077636Y-138925809D01*
X96082768Y-139088259D01*
X96099662Y-139211574D01*
X96130560Y-139305308D01*
X96177709Y-139379015D01*
X96186492Y-139389124D01*
X96270293Y-139462440D01*
X96366049Y-139502558D01*
X96487399Y-139514172D01*
X96543570Y-139512056D01*
X96634113Y-139503939D01*
X96693494Y-139488664D01*
X96740156Y-139458400D01*
X96791012Y-139406986D01*
X96877935Y-139312137D01*
X97111020Y-139324329D01*
X97213626Y-139330998D01*
X97296346Y-139338820D01*
X97347492Y-139346565D01*
X97357865Y-139350281D01*
X97358905Y-139382831D01*
X97337275Y-139443201D01*
X97299445Y-139519059D01*
X97251883Y-139598074D01*
X97201057Y-139667915D01*
X97177148Y-139694817D01*
X97036878Y-139805662D01*
X96865621Y-139881035D01*
X96661054Y-139921805D01*
X96549177Y-139929374D01*
X96433726Y-139930182D01*
X96326101Y-139926048D01*
X96243497Y-139917815D01*
X96220162Y-139913278D01*
X96029870Y-139841252D01*
X95866379Y-139730746D01*
X95732583Y-139586751D01*
X95631376Y-139414257D01*
X95565653Y-139218253D01*
X95538308Y-139003730D01*
X95552235Y-138775676D01*
X95553959Y-138764675D01*
X95611027Y-138540988D01*
X95704713Y-138350488D01*
X95834771Y-138193521D01*
X96000956Y-138070433D01*
X96074659Y-138032083D01*
X96144962Y-138001769D01*
X96209274Y-137982594D01*
X96282468Y-137972166D01*
X96379416Y-137968093D01*
X96474511Y-137967761D01*
X96599932Y-137969815D01*
G37*
G36*
X106024069Y-137360081D02*
G01*
X106189072Y-137363158D01*
X106335688Y-137367892D01*
X106455134Y-137373961D01*
X106538627Y-137381043D01*
X106566202Y-137385287D01*
X106721203Y-137437474D01*
X106863601Y-137520596D01*
X106979064Y-137625204D01*
X107025820Y-137688352D01*
X107066167Y-137761242D01*
X107088535Y-137828120D01*
X107098026Y-137909530D01*
X107099738Y-137986008D01*
X107092370Y-138122325D01*
X107064507Y-138227798D01*
X107009635Y-138319182D01*
X106941050Y-138394250D01*
X106889421Y-138440495D01*
X106836426Y-138474979D01*
X106765723Y-138506731D01*
X106681640Y-138537564D01*
X106663699Y-138550110D01*
X106681025Y-138566310D01*
X106738817Y-138589641D01*
X106780859Y-138603868D01*
X106942790Y-138679579D01*
X107066955Y-138786725D01*
X107151616Y-138922963D01*
X107195033Y-139085947D01*
X107200682Y-139169726D01*
X107186381Y-139344726D01*
X107136334Y-139491302D01*
X107046470Y-139619208D01*
X106989767Y-139675248D01*
X106927757Y-139729037D01*
X106869935Y-139772155D01*
X106809917Y-139805870D01*
X106741319Y-139831452D01*
X106657759Y-139850171D01*
X106552852Y-139863295D01*
X106420215Y-139872095D01*
X106253464Y-139877839D01*
X106046216Y-139881797D01*
X105943701Y-139883257D01*
X105255371Y-139892563D01*
X105255371Y-139442578D01*
X105776269Y-139442578D01*
X106104931Y-139442485D01*
X106243547Y-139441547D01*
X106342647Y-139438003D01*
X106412304Y-139430624D01*
X106462594Y-139418179D01*
X106503589Y-139399439D01*
X106515701Y-139392333D01*
X106600670Y-139314083D01*
X106648767Y-139212768D01*
X106657946Y-139100651D01*
X106626162Y-138989997D01*
X106591827Y-138935906D01*
X106520552Y-138864263D01*
X106432795Y-138815427D01*
X106319267Y-138786319D01*
X106170678Y-138773862D01*
X106099718Y-138772851D01*
X105850683Y-138772851D01*
X105850683Y-138601613D01*
X105850683Y-138430374D01*
X106080126Y-138421264D01*
X106244490Y-138407412D01*
X106367734Y-138378974D01*
X106456885Y-138333324D01*
X106518969Y-138267835D01*
X106527701Y-138253926D01*
X106564074Y-138152097D01*
X106565814Y-138042104D01*
X106533584Y-137943400D01*
X106516245Y-137917429D01*
X106459502Y-137860046D01*
X106388685Y-137820321D01*
X106294596Y-137795626D01*
X106168037Y-137783334D01*
X106037515Y-137780664D01*
X105776269Y-137780664D01*
X105776269Y-138611621D01*
X105776269Y-139442578D01*
X105255371Y-139442578D01*
X105255371Y-138625773D01*
X105255371Y-138611621D01*
X105255371Y-137358984D01*
X105849462Y-137358984D01*
X106024069Y-137360081D01*
G37*
G36*
X91043261Y-136949772D02*
G01*
X91259868Y-136950109D01*
X91436449Y-136950930D01*
X91577793Y-136952449D01*
X91688693Y-136954878D01*
X91773939Y-136958429D01*
X91838322Y-136963316D01*
X91886634Y-136969751D01*
X91923666Y-136977947D01*
X91954209Y-136988116D01*
X91983054Y-137000472D01*
X91989220Y-137003307D01*
X92158920Y-137108093D01*
X92296454Y-137248224D01*
X92397295Y-137417845D01*
X92456122Y-137606872D01*
X92461921Y-137662183D01*
X92467232Y-137760561D01*
X92471895Y-137895467D01*
X92475755Y-138060358D01*
X92478655Y-138248696D01*
X92480437Y-138453939D01*
X92480957Y-138641611D01*
X92480956Y-139545397D01*
X92420114Y-139497539D01*
X92335489Y-139450089D01*
X92227342Y-139414234D01*
X92119591Y-139396580D01*
X92060234Y-139398119D01*
X91984863Y-139409181D01*
X91984863Y-138544081D01*
X91984707Y-138301277D01*
X91983767Y-138102956D01*
X91981336Y-137943992D01*
X91976708Y-137819258D01*
X91969174Y-137723630D01*
X91958029Y-137651980D01*
X91942565Y-137599182D01*
X91922076Y-137560111D01*
X91895853Y-137529640D01*
X91863190Y-137502642D01*
X91838781Y-137484963D01*
X91818989Y-137471946D01*
X91796484Y-137461325D01*
X91766337Y-137452858D01*
X91723619Y-137446300D01*
X91663399Y-137441408D01*
X91580750Y-137437939D01*
X91470740Y-137435649D01*
X91328442Y-137434293D01*
X91148926Y-137433630D01*
X90927262Y-137433414D01*
X90795378Y-137433398D01*
X90537983Y-137433531D01*
X90325452Y-137434298D01*
X90153043Y-137436254D01*
X90016011Y-137439951D01*
X89909611Y-137445944D01*
X89829101Y-137454785D01*
X89769735Y-137467029D01*
X89726769Y-137483229D01*
X89695460Y-137503938D01*
X89671063Y-137529710D01*
X89648834Y-137561099D01*
X89644503Y-137567683D01*
X89634170Y-137587855D01*
X89625713Y-137616934D01*
X89618950Y-137659653D01*
X89613697Y-137720744D01*
X89609771Y-137804940D01*
X89606989Y-137916973D01*
X89605167Y-138061576D01*
X89604123Y-138243482D01*
X89603674Y-138467422D01*
X89603613Y-138624023D01*
X89603794Y-138875472D01*
X89604459Y-139082044D01*
X89605792Y-139248473D01*
X89607975Y-139379491D01*
X89611193Y-139479831D01*
X89615627Y-139554225D01*
X89621462Y-139607406D01*
X89628880Y-139644105D01*
X89638064Y-139669057D01*
X89644503Y-139680363D01*
X89668177Y-139714411D01*
X89693526Y-139742157D01*
X89725585Y-139764247D01*
X89769388Y-139781325D01*
X89829970Y-139794035D01*
X89912364Y-139803020D01*
X90021605Y-139808927D01*
X90162727Y-139812397D01*
X90340765Y-139814077D01*
X90560752Y-139814610D01*
X90693787Y-139814648D01*
X91563183Y-139814648D01*
X91563183Y-139941270D01*
X91587145Y-140098290D01*
X91624171Y-140189317D01*
X91685159Y-140310742D01*
X90737404Y-140309068D01*
X90452949Y-140307896D01*
X90215857Y-140305427D01*
X90023894Y-140301595D01*
X89874827Y-140296331D01*
X89766426Y-140289569D01*
X89696456Y-140281242D01*
X89677914Y-140277241D01*
X89508870Y-140206817D01*
X89359444Y-140095587D01*
X89237609Y-139950966D01*
X89155302Y-139791043D01*
X89143540Y-139757291D01*
X89133874Y-139720503D01*
X89126101Y-139675695D01*
X89120016Y-139617885D01*
X89115416Y-139542090D01*
X89112095Y-139443326D01*
X89109851Y-139316611D01*
X89108478Y-139156963D01*
X89107773Y-138959398D01*
X89107532Y-138718933D01*
X89107519Y-138624688D01*
X89107606Y-138369441D01*
X89108020Y-138158748D01*
X89108987Y-137987554D01*
X89110735Y-137850805D01*
X89113492Y-137743445D01*
X89117483Y-137660419D01*
X89122936Y-137596673D01*
X89130080Y-137547151D01*
X89139140Y-137506798D01*
X89150345Y-137470560D01*
X89160682Y-137441996D01*
X89238666Y-137295927D01*
X89354307Y-137161127D01*
X89495674Y-137050282D01*
X89566406Y-137010658D01*
X89690429Y-136949707D01*
X90781835Y-136949707D01*
X91043261Y-136949772D01*
G37*
D14*
%TO.C,R12*%
X81252500Y-55137258D02*
X81252500Y-54662742D01*
X82297500Y-55137258D02*
X82297500Y-54662742D01*
D17*
%TO.C,SW4*%
X56242865Y-70336062D02*
X59930530Y-73165707D01*
X57591551Y-68578420D02*
X57120784Y-69191935D01*
X60808449Y-72021580D02*
X61279216Y-71408065D01*
X62157135Y-70263938D02*
X58469470Y-67434293D01*
D15*
X57455907Y-67479275D02*
G75*
G02*
X57205907Y-67479275I-125000J0D01*
G01*
X57205907Y-67479275D02*
G75*
G02*
X57455907Y-67479275I125000J0D01*
G01*
D14*
%TO.C,R22*%
X70477859Y-136268495D02*
X70142326Y-136604028D01*
X71216786Y-137007422D02*
X70881253Y-137342955D01*
%TO.C,R39*%
X86546133Y-137285060D02*
X86881666Y-137620593D01*
X87285060Y-136546133D02*
X87620593Y-136881666D01*
%TO.C,R31*%
X80477500Y-77087742D02*
X80477500Y-77562258D01*
X81522500Y-77087742D02*
X81522500Y-77562258D01*
%TO.C,R23*%
X92337742Y-62977500D02*
X92812258Y-62977500D01*
X92337742Y-64022500D02*
X92812258Y-64022500D01*
%TO.C,C16*%
X85911252Y-56865000D02*
X85388748Y-56865000D01*
X85911252Y-58335000D02*
X85388748Y-58335000D01*
%TO.C,R10*%
X82377500Y-63762258D02*
X82377500Y-63287742D01*
X83422500Y-63762258D02*
X83422500Y-63287742D01*
%TO.C,C27*%
X93990000Y-84365580D02*
X93990000Y-84084420D01*
X95010000Y-84365580D02*
X95010000Y-84084420D01*
%TO.C,C15*%
X63190773Y-109539358D02*
X62991962Y-109738169D01*
X63912022Y-110260607D02*
X63713211Y-110459418D01*
%TO.C,R5*%
X82377500Y-66737742D02*
X82377500Y-67212258D01*
X83422500Y-66737742D02*
X83422500Y-67212258D01*
%TO.C,R34*%
X86477500Y-77087742D02*
X86477500Y-77562258D01*
X87522500Y-77087742D02*
X87522500Y-77562258D01*
%TO.C,R37*%
X86277500Y-113437742D02*
X86277500Y-113912258D01*
X87322500Y-113437742D02*
X87322500Y-113912258D01*
%TO.C,Y1*%
X58909764Y-116070711D02*
X61823044Y-118983991D01*
X61328070Y-113652405D02*
X58909764Y-116070711D01*
D12*
%TO.C,L1*%
X88300000Y-56525000D02*
X88300000Y-49525000D01*
X95300000Y-56525000D02*
X95300000Y-49525000D01*
D14*
%TO.C,Q5*%
X101100000Y-59900000D02*
X102700000Y-59900000D01*
X101100000Y-63100000D02*
X102700000Y-63100000D01*
X100650000Y-60050000D02*
X100410000Y-59720000D01*
X100890000Y-59720000D01*
X100650000Y-60050000D01*
G36*
X100650000Y-60050000D02*
G01*
X100410000Y-59720000D01*
X100890000Y-59720000D01*
X100650000Y-60050000D01*
G37*
%TO.C,C22*%
X85911252Y-50365000D02*
X85388748Y-50365000D01*
X85911252Y-51835000D02*
X85388748Y-51835000D01*
D17*
%TO.C,SW1*%
X46671200Y-97688651D02*
X46671200Y-102336851D01*
X48113341Y-102336851D02*
X48886659Y-102336851D01*
X48886659Y-97688651D02*
X48113341Y-97688651D01*
X50328800Y-102336851D02*
X50328800Y-97688651D01*
D15*
X47525000Y-103212751D02*
G75*
G02*
X47275000Y-103212751I-125000J0D01*
G01*
X47275000Y-103212751D02*
G75*
G02*
X47525000Y-103212751I125000J0D01*
G01*
D14*
%TO.C,R4*%
X76277500Y-66587742D02*
X76277500Y-67062258D01*
X77322500Y-66587742D02*
X77322500Y-67062258D01*
%TO.C,FB1*%
X67467426Y-114411325D02*
X67697631Y-114181120D01*
X68188675Y-115132574D02*
X68418880Y-114902369D01*
%TO.C,C11*%
X84901686Y-108637654D02*
X85100497Y-108836465D01*
X85622935Y-107916405D02*
X85821746Y-108115216D01*
%TO.C,C17*%
X85965580Y-55090000D02*
X85684420Y-55090000D01*
X85965580Y-56110000D02*
X85684420Y-56110000D01*
%TO.C,U4*%
X67777361Y-70327036D02*
X67812717Y-70291681D01*
X69064296Y-71613971D02*
X67777361Y-70327036D01*
X69099651Y-71578615D02*
X69064296Y-71613971D01*
X69948179Y-68156219D02*
X69983534Y-68120863D01*
X69983534Y-68120863D02*
X71270469Y-69407798D01*
X71270469Y-69407798D02*
X71235113Y-69443153D01*
X69969392Y-67710741D02*
X69566341Y-67774381D01*
X69629981Y-67371330D01*
X69969392Y-67710741D01*
G36*
X69969392Y-67710741D02*
G01*
X69566341Y-67774381D01*
X69629981Y-67371330D01*
X69969392Y-67710741D01*
G37*
%TO.C,R41*%
X71698303Y-74862770D02*
X71362770Y-75198303D01*
X72437230Y-75601697D02*
X72101697Y-75937230D01*
%TO.C,R26*%
X102462258Y-63777500D02*
X101987742Y-63777500D01*
X102462258Y-64822500D02*
X101987742Y-64822500D01*
%TO.C,R21*%
X59712502Y-130204712D02*
X60048035Y-129869179D01*
X60451429Y-130943639D02*
X60786962Y-130608106D01*
%TO.C,R16*%
X74377500Y-66587742D02*
X74377500Y-67062258D01*
X75422500Y-66587742D02*
X75422500Y-67062258D01*
%TO.C,R35*%
X87937742Y-82977500D02*
X88412258Y-82977500D01*
X87937742Y-84022500D02*
X88412258Y-84022500D01*
%TO.C,C14*%
X74037978Y-92690773D02*
X74236789Y-92491962D01*
X74759227Y-93412022D02*
X74958038Y-93213211D01*
%TO.C,C26*%
X82384419Y-138452500D02*
X82665579Y-138452500D01*
X82384419Y-139472500D02*
X82665579Y-139472500D01*
%TO.C,D7*%
X71440000Y-88090000D02*
X71490000Y-88090000D01*
X71440000Y-89910000D02*
X71440000Y-88090000D01*
X71490000Y-89910000D02*
X71440000Y-89910000D01*
X73390000Y-89910000D02*
X72610000Y-89910000D01*
X74510000Y-88090000D02*
X74560000Y-88090000D01*
X74560000Y-88090000D02*
X74560000Y-89910000D01*
X74560000Y-89910000D02*
X74510000Y-89910000D01*
X74840000Y-87790000D02*
X74510000Y-87550000D01*
X74840000Y-87310000D01*
X74840000Y-87790000D01*
G36*
X74840000Y-87790000D02*
G01*
X74510000Y-87550000D01*
X74840000Y-87310000D01*
X74840000Y-87790000D01*
G37*
%TO.C,D1*%
X83410000Y-57850000D02*
X77900000Y-57850000D01*
X83410000Y-61150000D02*
X77900000Y-61150000D01*
X83410000Y-61150000D02*
X83410000Y-57850000D01*
%TO.C,Q4*%
X94540000Y-61327500D02*
X95540000Y-61327500D01*
X94540000Y-63147500D02*
X94540000Y-61327500D01*
X94590000Y-63147500D02*
X94540000Y-63147500D01*
X96490000Y-63147500D02*
X95710000Y-63147500D01*
X96660000Y-61327500D02*
X97660000Y-61327500D01*
X97660000Y-61327500D02*
X97660000Y-63147500D01*
X97660000Y-63147500D02*
X97610000Y-63147500D01*
X96050000Y-63927500D02*
X95720000Y-63687500D01*
X96050000Y-63447500D01*
X96050000Y-63927500D01*
G36*
X96050000Y-63927500D02*
G01*
X95720000Y-63687500D01*
X96050000Y-63447500D01*
X96050000Y-63927500D01*
G37*
%TO.C,R24*%
X92812258Y-61177500D02*
X92337742Y-61177500D01*
X92812258Y-62222500D02*
X92337742Y-62222500D01*
%TO.C,R30*%
X81262742Y-147477500D02*
X81737258Y-147477500D01*
X81262742Y-148522500D02*
X81737258Y-148522500D01*
%TO.C,R11*%
X86212258Y-62877500D02*
X85737742Y-62877500D01*
X86212258Y-63922500D02*
X85737742Y-63922500D01*
%TO.C,C29*%
X86177379Y-119201800D02*
X85896219Y-119201800D01*
X86177379Y-120221800D02*
X85896219Y-120221800D01*
%TO.C,R19*%
X69962770Y-73798303D02*
X70298303Y-73462770D01*
X70701697Y-74537230D02*
X71037230Y-74201697D01*
%TO.C,R40*%
X88546133Y-135285060D02*
X88881666Y-135620593D01*
X89285060Y-134546133D02*
X89620593Y-134881666D01*
%TO.C,R28*%
X77977500Y-144937742D02*
X77977500Y-145412258D01*
X79022500Y-144937742D02*
X79022500Y-145412258D01*
%TO.C,R14*%
X94265000Y-70814564D02*
X94265000Y-70360436D01*
X95735000Y-70814564D02*
X95735000Y-70360436D01*
%TO.C,Q3*%
X84840000Y-59050000D02*
X86440000Y-59050000D01*
X84840000Y-62250000D02*
X86440000Y-62250000D01*
X84390000Y-59200000D02*
X84150000Y-58870000D01*
X84630000Y-58870000D01*
X84390000Y-59200000D01*
G36*
X84390000Y-59200000D02*
G01*
X84150000Y-58870000D01*
X84630000Y-58870000D01*
X84390000Y-59200000D01*
G37*
%TO.C,C12*%
X62155584Y-108482792D02*
X61956773Y-108681603D01*
X62876833Y-109204041D02*
X62678022Y-109402852D01*
D17*
%TO.C,SW5*%
X53672870Y-74621737D02*
X57698330Y-76945837D01*
X54780600Y-72703093D02*
X54393941Y-73372807D01*
X58419400Y-75696907D02*
X58806059Y-75027193D01*
X59527130Y-73778263D02*
X55501670Y-71454163D01*
D15*
X54503719Y-71647372D02*
G75*
G02*
X54253719Y-71647372I-125000J0D01*
G01*
X54253719Y-71647372D02*
G75*
G02*
X54503719Y-71647372I125000J0D01*
G01*
D17*
%TO.C,SW7*%
X50181764Y-84064964D02*
X54671580Y-85268006D01*
X50755167Y-81924995D02*
X50555017Y-82671963D01*
X55044833Y-83875005D02*
X55244983Y-83128037D01*
X55618236Y-81735036D02*
X51128420Y-80531994D01*
D15*
X50218738Y-81009261D02*
G75*
G02*
X49968738Y-81009261I-125000J0D01*
G01*
X49968738Y-81009261D02*
G75*
G02*
X50218738Y-81009261I125000J0D01*
G01*
D14*
%TO.C,U5*%
X61596771Y-133500000D02*
X61787689Y-133309081D01*
X65309081Y-129787689D02*
X65500000Y-129596771D01*
X65500000Y-129596771D02*
X69403229Y-133500000D01*
X65500000Y-137403229D02*
X61596771Y-133500000D01*
X65690919Y-137212311D02*
X65500000Y-137403229D01*
X69403229Y-133500000D02*
X69212311Y-133690919D01*
X65302010Y-129101796D02*
X64729254Y-129193720D01*
X64821177Y-128620963D01*
X65302010Y-129101796D01*
G36*
X65302010Y-129101796D02*
G01*
X64729254Y-129193720D01*
X64821177Y-128620963D01*
X65302010Y-129101796D01*
G37*
%TO.C,Q6*%
X79940000Y-143727500D02*
X80940000Y-143727500D01*
X79940000Y-145547500D02*
X79940000Y-143727500D01*
X79990000Y-145547500D02*
X79940000Y-145547500D01*
X81890000Y-145547500D02*
X81110000Y-145547500D01*
X82060000Y-143727500D02*
X83060000Y-143727500D01*
X83060000Y-143727500D02*
X83060000Y-145547500D01*
X83060000Y-145547500D02*
X83010000Y-145547500D01*
X81450000Y-146327500D02*
X81120000Y-146087500D01*
X81450000Y-145847500D01*
X81450000Y-146327500D01*
G36*
X81450000Y-146327500D02*
G01*
X81120000Y-146087500D01*
X81450000Y-145847500D01*
X81450000Y-146327500D01*
G37*
D12*
%TO.C,D5*%
X88000000Y-73100000D02*
X87000000Y-73100000D01*
X88000000Y-74900000D02*
X87000000Y-74900000D01*
D15*
X89225000Y-73500000D02*
G75*
G02*
X88975000Y-73500000I-125000J0D01*
G01*
X88975000Y-73500000D02*
G75*
G02*
X89225000Y-73500000I125000J0D01*
G01*
D18*
%TO.C,SW3*%
X68361075Y-56670545D02*
X68800908Y-57374425D01*
X70305879Y-59782881D02*
X70745712Y-60486761D01*
X70523598Y-55319251D02*
X68361075Y-56670545D01*
X70745712Y-60486761D02*
X78038925Y-55929455D01*
X73491766Y-53464533D02*
X70523598Y-55319251D01*
X75654288Y-52113239D02*
X73491766Y-53464533D01*
X75654288Y-52113239D02*
X76094121Y-52817119D01*
X78038925Y-55929455D02*
X77599092Y-55225575D01*
D19*
X77989265Y-53385444D02*
G75*
G02*
X77739265Y-53385444I-125000J0D01*
G01*
X77739265Y-53385444D02*
G75*
G02*
X77989265Y-53385444I125000J0D01*
G01*
D14*
%TO.C,C25*%
X82384419Y-136752500D02*
X82665579Y-136752500D01*
X82384419Y-137772500D02*
X82665579Y-137772500D01*
%TO.C,R36*%
X78937742Y-133977500D02*
X79412258Y-133977500D01*
X78937742Y-135022500D02*
X79412258Y-135022500D01*
%TO.C,R13*%
X82877500Y-54687742D02*
X82877500Y-55162258D01*
X83922500Y-54687742D02*
X83922500Y-55162258D01*
%TO.C,C6*%
X68790773Y-115287978D02*
X68591962Y-115486789D01*
X69512022Y-116009227D02*
X69313211Y-116208038D01*
%TO.C,C8*%
X69890773Y-116387978D02*
X69691962Y-116586789D01*
X70612022Y-117109227D02*
X70413211Y-117308038D01*
%TO.C,C9*%
X64491962Y-115713211D02*
X64690773Y-115912022D01*
X65213211Y-114991962D02*
X65412022Y-115190773D01*
%TO.C,D6*%
X66440000Y-88090000D02*
X66490000Y-88090000D01*
X66440000Y-89910000D02*
X66440000Y-88090000D01*
X66490000Y-89910000D02*
X66440000Y-89910000D01*
X68390000Y-89910000D02*
X67610000Y-89910000D01*
X69510000Y-88090000D02*
X69560000Y-88090000D01*
X69560000Y-88090000D02*
X69560000Y-89910000D01*
X69560000Y-89910000D02*
X69510000Y-89910000D01*
X69840000Y-87790000D02*
X69510000Y-87550000D01*
X69840000Y-87310000D01*
X69840000Y-87790000D01*
G36*
X69840000Y-87790000D02*
G01*
X69510000Y-87550000D01*
X69840000Y-87310000D01*
X69840000Y-87790000D01*
G37*
D18*
%TO.C,J2*%
X58775970Y-65097505D02*
X59200235Y-65521769D01*
X62240794Y-68562328D02*
X61321555Y-67643089D01*
X65097505Y-58775970D02*
X65521769Y-59200235D01*
X68562328Y-62240794D02*
X67643089Y-61321555D01*
D15*
X69839912Y-65189429D02*
G75*
G02*
X69589912Y-65189429I-125000J0D01*
G01*
X69589912Y-65189429D02*
G75*
G02*
X69839912Y-65189429I125000J0D01*
G01*
D14*
%TO.C,C5*%
X61377065Y-102083595D02*
X61178254Y-101884784D01*
X62098314Y-101362346D02*
X61899503Y-101163535D01*
%TO.C,R32*%
X90477500Y-77087742D02*
X90477500Y-77562258D01*
X91522500Y-77087742D02*
X91522500Y-77562258D01*
%TO.C,J3*%
X105905000Y-50065000D02*
X105905000Y-65935000D01*
X105905000Y-65935000D02*
X108980000Y-65935000D01*
X108980000Y-50065000D02*
X105905000Y-50065000D01*
X109995000Y-51485000D02*
X109995000Y-64515000D01*
X109995000Y-64515000D02*
X110495000Y-64515000D01*
X110495000Y-51485000D02*
X109995000Y-51485000D01*
X110495000Y-51505000D02*
X110495000Y-51485000D01*
X110495000Y-64515000D02*
X110495000Y-64495000D01*
%TO.C,R3*%
X76277500Y-63287742D02*
X76277500Y-63762258D01*
X77322500Y-63287742D02*
X77322500Y-63762258D01*
%TO.C,U7*%
X90140000Y-82890000D02*
X90315000Y-82890000D01*
X90140000Y-83565000D02*
X90140000Y-82890000D01*
X90140000Y-86110000D02*
X90140000Y-85435000D01*
X90315000Y-86110000D02*
X90140000Y-86110000D01*
X92685000Y-82890000D02*
X92860000Y-82890000D01*
X92860000Y-82890000D02*
X92860000Y-83565000D01*
X92860000Y-85435000D02*
X92860000Y-86110000D01*
X92860000Y-86110000D02*
X92685000Y-86110000D01*
X90990000Y-86570000D02*
X90510000Y-86570000D01*
X90750000Y-86240000D01*
X90990000Y-86570000D01*
G36*
X90990000Y-86570000D02*
G01*
X90510000Y-86570000D01*
X90750000Y-86240000D01*
X90990000Y-86570000D01*
G37*
%TO.C,U2*%
X85177500Y-52665000D02*
X86597500Y-52665000D01*
X86313068Y-54535000D02*
X85177500Y-54535000D01*
X86747500Y-54730000D02*
X86467500Y-54730000D01*
X86607500Y-54540000D01*
X86747500Y-54730000D01*
G36*
X86747500Y-54730000D02*
G01*
X86467500Y-54730000D01*
X86607500Y-54540000D01*
X86747500Y-54730000D01*
G37*
%TO.C,R20*%
X65881666Y-128963740D02*
X65546133Y-128628207D01*
X66620593Y-128224813D02*
X66285060Y-127889280D01*
%TO.C,R27*%
X84477500Y-77087742D02*
X84477500Y-77562258D01*
X85522500Y-77087742D02*
X85522500Y-77562258D01*
%TO.C,C2*%
X76490000Y-93365580D02*
X76490000Y-93084420D01*
X77510000Y-93365580D02*
X77510000Y-93084420D01*
%TO.C,C32*%
X86177379Y-122801800D02*
X85896219Y-122801800D01*
X86177379Y-123821800D02*
X85896219Y-123821800D01*
%TO.C,C24*%
X70987978Y-133909227D02*
X71186789Y-134108038D01*
X71709227Y-133187978D02*
X71908038Y-133386789D01*
%TO.C,C31*%
X86177379Y-121001800D02*
X85896219Y-121001800D01*
X86177379Y-122021800D02*
X85896219Y-122021800D01*
D18*
%TO.C,S1*%
X46876132Y-94714308D02*
X56527248Y-96416060D01*
X56527248Y-96416060D02*
X56744308Y-95185050D01*
X58046670Y-87798992D02*
X58263730Y-86567982D01*
X58263730Y-86567982D02*
X48612614Y-84866230D01*
D15*
X55284969Y-86893973D02*
G75*
G02*
X55034969Y-86893973I-125000J0D01*
G01*
X55034969Y-86893973D02*
G75*
G02*
X55284969Y-86893973I125000J0D01*
G01*
D18*
%TO.C,BZ1*%
X96500000Y-146750000D02*
G75*
G02*
X84500000Y-146750000I-6000000J0D01*
G01*
X84500000Y-146750000D02*
G75*
G02*
X96500000Y-146750000I6000000J0D01*
G01*
D14*
%TO.C,C28*%
X93634420Y-80990000D02*
X93915580Y-80990000D01*
X93634420Y-82010000D02*
X93915580Y-82010000D01*
%TO.C,R9*%
X86212258Y-68977500D02*
X85737742Y-68977500D01*
X86212258Y-70022500D02*
X85737742Y-70022500D01*
%TO.C,C23*%
X88890000Y-69834420D02*
X88890000Y-70115580D01*
X89910000Y-69834420D02*
X89910000Y-70115580D01*
%TO.C,Q2*%
X84190000Y-65552500D02*
X85190000Y-65552500D01*
X84190000Y-67372500D02*
X84190000Y-65552500D01*
X84240000Y-67372500D02*
X84190000Y-67372500D01*
X86140000Y-67372500D02*
X85360000Y-67372500D01*
X86310000Y-65552500D02*
X87310000Y-65552500D01*
X87310000Y-65552500D02*
X87310000Y-67372500D01*
X87310000Y-67372500D02*
X87260000Y-67372500D01*
X85700000Y-68152500D02*
X85370000Y-67912500D01*
X85700000Y-67672500D01*
X85700000Y-68152500D01*
G36*
X85700000Y-68152500D02*
G01*
X85370000Y-67912500D01*
X85700000Y-67672500D01*
X85700000Y-68152500D01*
G37*
%TO.C,C1*%
X83841026Y-109698314D02*
X84039837Y-109897125D01*
X84562275Y-108977065D02*
X84761086Y-109175876D01*
%TO.C,R18*%
X67901697Y-71262770D02*
X68237230Y-71598303D01*
X67162770Y-72001697D02*
X67498303Y-72337230D01*
%TO.C,R15*%
X74377500Y-63287742D02*
X74377500Y-63762258D01*
X75422500Y-63287742D02*
X75422500Y-63762258D01*
D17*
%TO.C,SW2*%
X47227449Y-107731266D02*
X48034600Y-112308849D01*
X49409250Y-107346556D02*
X48647680Y-107480841D01*
X49454832Y-112058424D02*
X50216402Y-111924139D01*
X51636633Y-111673714D02*
X50829482Y-107096131D01*
D15*
X50084655Y-106360092D02*
G75*
G02*
X49834655Y-106360092I-125000J0D01*
G01*
X49834655Y-106360092D02*
G75*
G02*
X50084655Y-106360092I125000J0D01*
G01*
D14*
%TO.C,R8*%
X94677500Y-76987742D02*
X94677500Y-77462258D01*
X95722500Y-76987742D02*
X95722500Y-77462258D01*
%TO.C,R6*%
X78737742Y-51977500D02*
X79212258Y-51977500D01*
X78737742Y-53022500D02*
X79212258Y-53022500D01*
%TO.C,R1*%
X66379407Y-113381666D02*
X66714940Y-113046133D01*
X67118334Y-114120593D02*
X67453867Y-113785060D01*
%TO.C,R29*%
X82477500Y-77087742D02*
X82477500Y-77562258D01*
X83522500Y-77087742D02*
X83522500Y-77562258D01*
%TO.C,R38*%
X74887742Y-77977500D02*
X75362258Y-77977500D01*
X74887742Y-79022500D02*
X75362258Y-79022500D01*
%TO.C,C30*%
X82990000Y-118134420D02*
X82990000Y-118415580D01*
X84010000Y-118134420D02*
X84010000Y-118415580D01*
%TO.C,Q1*%
X78927500Y-65240000D02*
X80747500Y-65240000D01*
X78927500Y-65290000D02*
X78927500Y-65240000D01*
X78927500Y-67190000D02*
X78927500Y-66410000D01*
X78927500Y-68360000D02*
X78927500Y-68310000D01*
X80747500Y-65240000D02*
X80747500Y-66240000D01*
X80747500Y-67360000D02*
X80747500Y-68360000D01*
X80747500Y-68360000D02*
X78927500Y-68360000D01*
X78627500Y-66750000D02*
X78147500Y-66750000D01*
X78387500Y-66420000D01*
X78627500Y-66750000D01*
G36*
X78627500Y-66750000D02*
G01*
X78147500Y-66750000D01*
X78387500Y-66420000D01*
X78627500Y-66750000D01*
G37*
D17*
%TO.C,J6*%
X63309000Y-79506100D02*
X63309000Y-84763900D01*
X63309000Y-84763900D02*
X79311000Y-84763900D01*
X79311000Y-79506100D02*
X63309000Y-79506100D01*
X79311000Y-84763900D02*
X79311000Y-79506100D01*
D20*
X67500000Y-79000000D02*
X67000000Y-78500000D01*
X68000000Y-78500000D01*
X67500000Y-79000000D01*
G36*
X67500000Y-79000000D02*
G01*
X67000000Y-78500000D01*
X68000000Y-78500000D01*
X67500000Y-79000000D01*
G37*
D14*
%TO.C,R25*%
X98377500Y-61437742D02*
X98377500Y-61912258D01*
X99422500Y-61437742D02*
X99422500Y-61912258D01*
%TO.C,C7*%
X64295959Y-110623167D02*
X64097148Y-110821978D01*
X65017208Y-111344416D02*
X64818397Y-111543227D01*
%TO.C,C19*%
X92990000Y-77034420D02*
X92990000Y-77315580D01*
X94010000Y-77034420D02*
X94010000Y-77315580D01*
D17*
%TO.C,SW6*%
X51652960Y-79200196D02*
X55947337Y-80978985D01*
X52500780Y-77153379D02*
X52204844Y-77867832D01*
X56499220Y-79646621D02*
X56795156Y-78932168D01*
X57347040Y-77599804D02*
X53052663Y-75821015D01*
D15*
X52089537Y-76159146D02*
G75*
G02*
X51839537Y-76159146I-125000J0D01*
G01*
X51839537Y-76159146D02*
G75*
G02*
X52089537Y-76159146I125000J0D01*
G01*
D14*
%TO.C,C3*%
X60316405Y-103144255D02*
X60117594Y-102945444D01*
X61037654Y-102423006D02*
X60838843Y-102224195D01*
%TO.C,U1*%
X63444942Y-105000000D02*
X63939916Y-104505025D01*
X63939916Y-105494975D02*
X63444942Y-105000000D01*
X73005025Y-95439916D02*
X73500000Y-94944942D01*
X73500000Y-94944942D02*
X73994975Y-95439916D01*
X73500000Y-115055058D02*
X73005025Y-114560084D01*
X73994975Y-114560084D02*
X73500000Y-115055058D01*
X83060084Y-104505025D02*
X83555058Y-105000000D01*
X83555058Y-105000000D02*
X83060084Y-105494975D01*
X63487368Y-105947523D02*
X62914611Y-105855599D01*
X63395444Y-105374767D01*
X63487368Y-105947523D01*
G36*
X63487368Y-105947523D02*
G01*
X62914611Y-105855599D01*
X63395444Y-105374767D01*
X63487368Y-105947523D01*
G37*
%TO.C,R2*%
X49012258Y-103777500D02*
X48537742Y-103777500D01*
X49012258Y-104822500D02*
X48537742Y-104822500D01*
%TO.C,R33*%
X88477500Y-77087742D02*
X88477500Y-77562258D01*
X89522500Y-77087742D02*
X89522500Y-77562258D01*
%TO.C,C13*%
X61090773Y-107387979D02*
X60891962Y-107586789D01*
X61812022Y-108109227D02*
X61613211Y-108308037D01*
D17*
%TO.C,U8*%
X84793500Y-116043500D02*
X84793500Y-116225771D01*
X84793500Y-118274229D02*
X84793500Y-118456500D01*
X87206500Y-116225771D02*
X87206500Y-116043500D01*
X87206500Y-118456500D02*
X87206500Y-118274229D01*
D16*
G36*
X86940501Y-118735900D02*
G01*
X86559501Y-118735900D01*
X86559501Y-118481900D01*
X86940501Y-118481900D01*
X86940501Y-118735900D01*
G37*
D14*
%TO.C,U6*%
X81390000Y-133890000D02*
X81565000Y-133890000D01*
X81390000Y-134315000D02*
X81390000Y-133890000D01*
X81390000Y-136110000D02*
X81390000Y-135685000D01*
X81565000Y-136110000D02*
X81390000Y-136110000D01*
X83435000Y-133890000D02*
X83610000Y-133890000D01*
X83592261Y-136110000D02*
X83435000Y-136110000D01*
X83610000Y-133890000D02*
X83610000Y-134315000D01*
X83640000Y-135870000D02*
X83640000Y-135590000D01*
X83920000Y-135590000D01*
X83640000Y-135870000D01*
G36*
X83640000Y-135870000D02*
G01*
X83640000Y-135590000D01*
X83920000Y-135590000D01*
X83640000Y-135870000D01*
G37*
%TO.C,U3*%
X90490000Y-69452500D02*
X90540000Y-69452500D01*
X90490000Y-71272500D02*
X90490000Y-69452500D01*
X90540000Y-71272500D02*
X90490000Y-71272500D01*
X91660000Y-69452500D02*
X92440000Y-69452500D01*
X93560000Y-69452500D02*
X93610000Y-69452500D01*
X93610000Y-69452500D02*
X93610000Y-71272500D01*
X93610000Y-71272500D02*
X93560000Y-71272500D01*
X90540000Y-71812500D02*
X90210000Y-72052500D01*
X90210000Y-71572500D01*
X90540000Y-71812500D01*
G36*
X90540000Y-71812500D02*
G01*
X90210000Y-72052500D01*
X90210000Y-71572500D01*
X90540000Y-71812500D01*
G37*
%TO.C,D4*%
X103710000Y-149550000D02*
X98200000Y-149550000D01*
X103710000Y-152850000D02*
X98200000Y-152850000D01*
X103710000Y-152850000D02*
X103710000Y-149550000D01*
%TO.C,C20*%
X82490000Y-51865580D02*
X82490000Y-51584420D01*
X83510000Y-51865580D02*
X83510000Y-51584420D01*
%TO.C,J1*%
X102490000Y-68940000D02*
X102490000Y-79060000D01*
X107390000Y-68350000D02*
X107390000Y-68940000D01*
X107390000Y-68940000D02*
X102490000Y-68940000D01*
X107390000Y-79060000D02*
X102490000Y-79060000D01*
X107390000Y-79060000D02*
X107390000Y-79650000D01*
X109610000Y-68350000D02*
X109610000Y-68940000D01*
X109610000Y-79060000D02*
X109610000Y-79650000D01*
X111710000Y-68940000D02*
X109610000Y-68940000D01*
X111710000Y-68940000D02*
X111710000Y-79060000D01*
X111710000Y-79060000D02*
X109610000Y-79060000D01*
X107390000Y-68350000D02*
G75*
G02*
X109610000Y-68350000I1110000J0D01*
G01*
X109610000Y-79650000D02*
G75*
G02*
X107390000Y-79650000I-1110000J0D01*
G01*
%TO.C,C21*%
X79640000Y-55065580D02*
X79640000Y-54784420D01*
X80660000Y-55065580D02*
X80660000Y-54784420D01*
%TD*%
M02*
