%TF.GenerationSoftware,KiCad,Pcbnew,9.0.5*%
%TF.CreationDate,2026-01-14T13:00:01-05:00*%
%TF.ProjectId,airbrake_mod,61697262-7261-46b6-955f-6d6f642e6b69,rev?*%
%TF.SameCoordinates,Original*%
%TF.FileFunction,AssemblyDrawing,Bot*%
%FSLAX46Y46*%
G04 Gerber Fmt 4.6, Leading zero omitted, Abs format (unit mm)*
G04 Created by KiCad (PCBNEW 9.0.5) date 2026-01-14 13:00:01*
%MOMM*%
%LPD*%
G01*
G04 APERTURE LIST*
%ADD10C,0.150000*%
%ADD11C,0.060000*%
%ADD12C,0.100000*%
G04 APERTURE END LIST*
D10*
X83805975Y-136400990D02*
X84094650Y-136567657D01*
X83832745Y-137021289D02*
X84332745Y-136155264D01*
X84332745Y-136155264D02*
X83920352Y-135917169D01*
X82643185Y-136224525D02*
X82660615Y-136289574D01*
X82660615Y-136289574D02*
X82760523Y-136402242D01*
X82760523Y-136402242D02*
X82843002Y-136449861D01*
X82843002Y-136449861D02*
X82990529Y-136480050D01*
X82990529Y-136480050D02*
X83120627Y-136445190D01*
X83120627Y-136445190D02*
X83209485Y-136386521D01*
X83209485Y-136386521D02*
X83345962Y-136245374D01*
X83345962Y-136245374D02*
X83417391Y-136121656D01*
X83417391Y-136121656D02*
X83471390Y-135932889D01*
X83471390Y-135932889D02*
X83477770Y-135826601D01*
X83477770Y-135826601D02*
X83442910Y-135696503D01*
X83442910Y-135696503D02*
X83343002Y-135583835D01*
X83343002Y-135583835D02*
X83260523Y-135536216D01*
X83260523Y-135536216D02*
X83112996Y-135506027D01*
X83112996Y-135506027D02*
X83047947Y-135523457D01*
X82414888Y-135762803D02*
X81755059Y-135381851D01*
X80698558Y-135211765D02*
X81193430Y-135497480D01*
X80945994Y-135354623D02*
X81445994Y-134488597D01*
X81445994Y-134488597D02*
X81457044Y-134659934D01*
X81457044Y-134659934D02*
X81491903Y-134790032D01*
X81491903Y-134790032D02*
X81550572Y-134878890D01*
X80456250Y-133917169D02*
X80621208Y-134012407D01*
X80621208Y-134012407D02*
X80679877Y-134101265D01*
X80679877Y-134101265D02*
X80697307Y-134166314D01*
X80697307Y-134166314D02*
X80708357Y-134337651D01*
X80708357Y-134337651D02*
X80654358Y-134526418D01*
X80654358Y-134526418D02*
X80463882Y-134856332D01*
X80463882Y-134856332D02*
X80375023Y-134915001D01*
X80375023Y-134915001D02*
X80309974Y-134932431D01*
X80309974Y-134932431D02*
X80203686Y-134926051D01*
X80203686Y-134926051D02*
X80038729Y-134830813D01*
X80038729Y-134830813D02*
X79980060Y-134741955D01*
X79980060Y-134741955D02*
X79962630Y-134676906D01*
X79962630Y-134676906D02*
X79969010Y-134570618D01*
X79969010Y-134570618D02*
X80088058Y-134364421D01*
X80088058Y-134364421D02*
X80176916Y-134305752D01*
X80176916Y-134305752D02*
X80241965Y-134288322D01*
X80241965Y-134288322D02*
X80348253Y-134294702D01*
X80348253Y-134294702D02*
X80513210Y-134389940D01*
X80513210Y-134389940D02*
X80571879Y-134478799D01*
X80571879Y-134478799D02*
X80589309Y-134543847D01*
X80589309Y-134543847D02*
X80582929Y-134650136D01*
X79837661Y-133560026D02*
X79755182Y-133512407D01*
X79755182Y-133512407D02*
X79648894Y-133506027D01*
X79648894Y-133506027D02*
X79583845Y-133523457D01*
X79583845Y-133523457D02*
X79494987Y-133582126D01*
X79494987Y-133582126D02*
X79358509Y-133723274D01*
X79358509Y-133723274D02*
X79239462Y-133929470D01*
X79239462Y-133929470D02*
X79185463Y-134118237D01*
X79185463Y-134118237D02*
X79179083Y-134224525D01*
X79179083Y-134224525D02*
X79196513Y-134289574D01*
X79196513Y-134289574D02*
X79255182Y-134378432D01*
X79255182Y-134378432D02*
X79337661Y-134426051D01*
X79337661Y-134426051D02*
X79443949Y-134432431D01*
X79443949Y-134432431D02*
X79508998Y-134415001D01*
X79508998Y-134415001D02*
X79597856Y-134356332D01*
X79597856Y-134356332D02*
X79734334Y-134215184D01*
X79734334Y-134215184D02*
X79853381Y-134008988D01*
X79853381Y-134008988D02*
X79907380Y-133820221D01*
X79907380Y-133820221D02*
X79913760Y-133713933D01*
X79913760Y-133713933D02*
X79896330Y-133648884D01*
X79896330Y-133648884D02*
X79837661Y-133560026D01*
X78839828Y-133478798D02*
X78946116Y-133485178D01*
X78946116Y-133485178D02*
X79011165Y-133467748D01*
X79011165Y-133467748D02*
X79100024Y-133409079D01*
X79100024Y-133409079D02*
X79123833Y-133367840D01*
X79123833Y-133367840D02*
X79130213Y-133261552D01*
X79130213Y-133261552D02*
X79112783Y-133196503D01*
X79112783Y-133196503D02*
X79054114Y-133107645D01*
X79054114Y-133107645D02*
X78889157Y-133012407D01*
X78889157Y-133012407D02*
X78782869Y-133006027D01*
X78782869Y-133006027D02*
X78717820Y-133023457D01*
X78717820Y-133023457D02*
X78628961Y-133082126D01*
X78628961Y-133082126D02*
X78605152Y-133123365D01*
X78605152Y-133123365D02*
X78598772Y-133229653D01*
X78598772Y-133229653D02*
X78616202Y-133294702D01*
X78616202Y-133294702D02*
X78674871Y-133383560D01*
X78674871Y-133383560D02*
X78839828Y-133478798D01*
X78839828Y-133478798D02*
X78898497Y-133567657D01*
X78898497Y-133567657D02*
X78915927Y-133632706D01*
X78915927Y-133632706D02*
X78909547Y-133738994D01*
X78909547Y-133738994D02*
X78814309Y-133903951D01*
X78814309Y-133903951D02*
X78725451Y-133962620D01*
X78725451Y-133962620D02*
X78660402Y-133980050D01*
X78660402Y-133980050D02*
X78554114Y-133973670D01*
X78554114Y-133973670D02*
X78389157Y-133878432D01*
X78389157Y-133878432D02*
X78330488Y-133789574D01*
X78330488Y-133789574D02*
X78313058Y-133724525D01*
X78313058Y-133724525D02*
X78319438Y-133618237D01*
X78319438Y-133618237D02*
X78414676Y-133453280D01*
X78414676Y-133453280D02*
X78503534Y-133394610D01*
X78503534Y-133394610D02*
X78568583Y-133377181D01*
X78568583Y-133377181D02*
X78674871Y-133383560D01*
X77918095Y-133551478D02*
X77770567Y-133521289D01*
X77770567Y-133521289D02*
X77564371Y-133402242D01*
X77564371Y-133402242D02*
X77505702Y-133313383D01*
X77505702Y-133313383D02*
X77488272Y-133248334D01*
X77488272Y-133248334D02*
X77494651Y-133142046D01*
X77494651Y-133142046D02*
X77542271Y-133059568D01*
X77542271Y-133059568D02*
X77631129Y-133000899D01*
X77631129Y-133000899D02*
X77696178Y-132983469D01*
X77696178Y-132983469D02*
X77802466Y-132989849D01*
X77802466Y-132989849D02*
X77991233Y-133043847D01*
X77991233Y-133043847D02*
X78097521Y-133050227D01*
X78097521Y-133050227D02*
X78162570Y-133032797D01*
X78162570Y-133032797D02*
X78251428Y-132974128D01*
X78251428Y-132974128D02*
X78299047Y-132891650D01*
X78299047Y-132891650D02*
X78305427Y-132785361D01*
X78305427Y-132785361D02*
X78287997Y-132720313D01*
X78287997Y-132720313D02*
X78229328Y-132631454D01*
X78229328Y-132631454D02*
X78023131Y-132512407D01*
X78023131Y-132512407D02*
X77875604Y-132482217D01*
X77610738Y-132274311D02*
X76533388Y-132807003D01*
X77033388Y-131940978D02*
X77110738Y-133140337D01*
X76203473Y-132616527D02*
X76703473Y-131750502D01*
X75708602Y-132330813D02*
X76365470Y-132050227D01*
X76208602Y-131464788D02*
X76417759Y-132245373D01*
X75527924Y-131786613D02*
X74868095Y-131405660D01*
X74394073Y-130417169D02*
X74559030Y-130512407D01*
X74559030Y-130512407D02*
X74617699Y-130601265D01*
X74617699Y-130601265D02*
X74635129Y-130666314D01*
X74635129Y-130666314D02*
X74646179Y-130837651D01*
X74646179Y-130837651D02*
X74592180Y-131026418D01*
X74592180Y-131026418D02*
X74401704Y-131356332D01*
X74401704Y-131356332D02*
X74312845Y-131415001D01*
X74312845Y-131415001D02*
X74247797Y-131432431D01*
X74247797Y-131432431D02*
X74141508Y-131426051D01*
X74141508Y-131426051D02*
X73976551Y-131330813D01*
X73976551Y-131330813D02*
X73917882Y-131241955D01*
X73917882Y-131241955D02*
X73900452Y-131176906D01*
X73900452Y-131176906D02*
X73906832Y-131070618D01*
X73906832Y-131070618D02*
X74025880Y-130864421D01*
X74025880Y-130864421D02*
X74114738Y-130805752D01*
X74114738Y-130805752D02*
X74179787Y-130788322D01*
X74179787Y-130788322D02*
X74286075Y-130794702D01*
X74286075Y-130794702D02*
X74451032Y-130889940D01*
X74451032Y-130889940D02*
X74509701Y-130978799D01*
X74509701Y-130978799D02*
X74527131Y-131043847D01*
X74527131Y-131043847D02*
X74520751Y-131150136D01*
X73934060Y-130261552D02*
X73916631Y-130196503D01*
X73916631Y-130196503D02*
X73857962Y-130107645D01*
X73857962Y-130107645D02*
X73651765Y-129988597D01*
X73651765Y-129988597D02*
X73545477Y-129982217D01*
X73545477Y-129982217D02*
X73480428Y-129999647D01*
X73480428Y-129999647D02*
X73391570Y-130058316D01*
X73391570Y-130058316D02*
X73343951Y-130140795D01*
X73343951Y-130140795D02*
X73313761Y-130288322D01*
X73313761Y-130288322D02*
X73522919Y-131068908D01*
X73522919Y-131068908D02*
X72986808Y-130759384D01*
X72950697Y-129583835D02*
X72868218Y-129536216D01*
X72868218Y-129536216D02*
X72761930Y-129529836D01*
X72761930Y-129529836D02*
X72696881Y-129547266D01*
X72696881Y-129547266D02*
X72608023Y-129605935D01*
X72608023Y-129605935D02*
X72471546Y-129747083D01*
X72471546Y-129747083D02*
X72352498Y-129953280D01*
X72352498Y-129953280D02*
X72298499Y-130142046D01*
X72298499Y-130142046D02*
X72292119Y-130248334D01*
X72292119Y-130248334D02*
X72309549Y-130313383D01*
X72309549Y-130313383D02*
X72368218Y-130402242D01*
X72368218Y-130402242D02*
X72450697Y-130449861D01*
X72450697Y-130449861D02*
X72556985Y-130456240D01*
X72556985Y-130456240D02*
X72622034Y-130438811D01*
X72622034Y-130438811D02*
X72710892Y-130380142D01*
X72710892Y-130380142D02*
X72847370Y-130238994D01*
X72847370Y-130238994D02*
X72966417Y-130032797D01*
X72966417Y-130032797D02*
X73020416Y-129844031D01*
X73020416Y-129844031D02*
X73026796Y-129737742D01*
X73026796Y-129737742D02*
X73009366Y-129672694D01*
X73009366Y-129672694D02*
X72950697Y-129583835D01*
X71790868Y-130068908D02*
X72290868Y-129202883D01*
X72052773Y-129615276D02*
X71557901Y-129329562D01*
X71295996Y-129783194D02*
X71795996Y-128917169D01*
X71218646Y-128583835D02*
X71136167Y-128536216D01*
X71136167Y-128536216D02*
X71029879Y-128529836D01*
X71029879Y-128529836D02*
X70964830Y-128547266D01*
X70964830Y-128547266D02*
X70875972Y-128605935D01*
X70875972Y-128605935D02*
X70739495Y-128747083D01*
X70739495Y-128747083D02*
X70620447Y-128953280D01*
X70620447Y-128953280D02*
X70566448Y-129142046D01*
X70566448Y-129142046D02*
X70560069Y-129248334D01*
X70560069Y-129248334D02*
X70577498Y-129313383D01*
X70577498Y-129313383D02*
X70636167Y-129402242D01*
X70636167Y-129402242D02*
X70718646Y-129449861D01*
X70718646Y-129449861D02*
X70824934Y-129456240D01*
X70824934Y-129456240D02*
X70889983Y-129438811D01*
X70889983Y-129438811D02*
X70978841Y-129380142D01*
X70978841Y-129380142D02*
X71115319Y-129238994D01*
X71115319Y-129238994D02*
X71234366Y-129032797D01*
X71234366Y-129032797D02*
X71288365Y-128844031D01*
X71288365Y-128844031D02*
X71294745Y-128737742D01*
X71294745Y-128737742D02*
X71277315Y-128672694D01*
X71277315Y-128672694D02*
X71218646Y-128583835D01*
X70220813Y-128502608D02*
X70327102Y-128508988D01*
X70327102Y-128508988D02*
X70392150Y-128491558D01*
X70392150Y-128491558D02*
X70481009Y-128432889D01*
X70481009Y-128432889D02*
X70504818Y-128391650D01*
X70504818Y-128391650D02*
X70511198Y-128285361D01*
X70511198Y-128285361D02*
X70493768Y-128220313D01*
X70493768Y-128220313D02*
X70435099Y-128131454D01*
X70435099Y-128131454D02*
X70270142Y-128036216D01*
X70270142Y-128036216D02*
X70163854Y-128029836D01*
X70163854Y-128029836D02*
X70098805Y-128047266D01*
X70098805Y-128047266D02*
X70009947Y-128105935D01*
X70009947Y-128105935D02*
X69986137Y-128147175D01*
X69986137Y-128147175D02*
X69979757Y-128253463D01*
X69979757Y-128253463D02*
X69997187Y-128318512D01*
X69997187Y-128318512D02*
X70055856Y-128407370D01*
X70055856Y-128407370D02*
X70220813Y-128502608D01*
X70220813Y-128502608D02*
X70279483Y-128591466D01*
X70279483Y-128591466D02*
X70296912Y-128656515D01*
X70296912Y-128656515D02*
X70290533Y-128762803D01*
X70290533Y-128762803D02*
X70195295Y-128927761D01*
X70195295Y-128927761D02*
X70106436Y-128986430D01*
X70106436Y-128986430D02*
X70041387Y-129003859D01*
X70041387Y-129003859D02*
X69935099Y-128997480D01*
X69935099Y-128997480D02*
X69770142Y-128902242D01*
X69770142Y-128902242D02*
X69711473Y-128813383D01*
X69711473Y-128813383D02*
X69694043Y-128748334D01*
X69694043Y-128748334D02*
X69700423Y-128642046D01*
X69700423Y-128642046D02*
X69795661Y-128477089D01*
X69795661Y-128477089D02*
X69884519Y-128418420D01*
X69884519Y-128418420D02*
X69949568Y-128400990D01*
X69949568Y-128400990D02*
X70055856Y-128407370D01*
D11*
X77846715Y-131598922D02*
X78046715Y-131252512D01*
X78046715Y-131252512D02*
X77964237Y-131204893D01*
X77964237Y-131204893D02*
X77905226Y-131192817D01*
X77905226Y-131192817D02*
X77853187Y-131206761D01*
X77853187Y-131206761D02*
X77817643Y-131230229D01*
X77817643Y-131230229D02*
X77763052Y-131286688D01*
X77763052Y-131286688D02*
X77734481Y-131336175D01*
X77734481Y-131336175D02*
X77712881Y-131411682D01*
X77712881Y-131411682D02*
X77710329Y-131454197D01*
X77710329Y-131454197D02*
X77724273Y-131506236D01*
X77724273Y-131506236D02*
X77764237Y-131551303D01*
X77764237Y-131551303D02*
X77846715Y-131598922D01*
X77483809Y-131389399D02*
X77417826Y-131351303D01*
X77417826Y-131351303D02*
X77394359Y-131315760D01*
X77394359Y-131315760D02*
X77387387Y-131289740D01*
X77387387Y-131289740D02*
X77382967Y-131221206D01*
X77382967Y-131221206D02*
X77404566Y-131145699D01*
X77404566Y-131145699D02*
X77480757Y-131013733D01*
X77480757Y-131013733D02*
X77516300Y-130990266D01*
X77516300Y-130990266D02*
X77542320Y-130983294D01*
X77542320Y-130983294D02*
X77584835Y-130985846D01*
X77584835Y-130985846D02*
X77650818Y-131023941D01*
X77650818Y-131023941D02*
X77674286Y-131059484D01*
X77674286Y-131059484D02*
X77681257Y-131085504D01*
X77681257Y-131085504D02*
X77678706Y-131128019D01*
X77678706Y-131128019D02*
X77631086Y-131210498D01*
X77631086Y-131210498D02*
X77595543Y-131233965D01*
X77595543Y-131233965D02*
X77569524Y-131240937D01*
X77569524Y-131240937D02*
X77527008Y-131238385D01*
X77527008Y-131238385D02*
X77461025Y-131200290D01*
X77461025Y-131200290D02*
X77437558Y-131164747D01*
X77437558Y-131164747D02*
X77430586Y-131138727D01*
X77430586Y-131138727D02*
X77433138Y-131096212D01*
D10*
X88805975Y-139200990D02*
X89094650Y-139367657D01*
X88832745Y-139821289D02*
X89332745Y-138955264D01*
X89332745Y-138955264D02*
X88920352Y-138717169D01*
X87643185Y-139024525D02*
X87660615Y-139089574D01*
X87660615Y-139089574D02*
X87760523Y-139202242D01*
X87760523Y-139202242D02*
X87843002Y-139249861D01*
X87843002Y-139249861D02*
X87990529Y-139280050D01*
X87990529Y-139280050D02*
X88120627Y-139245190D01*
X88120627Y-139245190D02*
X88209485Y-139186521D01*
X88209485Y-139186521D02*
X88345962Y-139045374D01*
X88345962Y-139045374D02*
X88417391Y-138921656D01*
X88417391Y-138921656D02*
X88471390Y-138732889D01*
X88471390Y-138732889D02*
X88477770Y-138626601D01*
X88477770Y-138626601D02*
X88442910Y-138496503D01*
X88442910Y-138496503D02*
X88343002Y-138383835D01*
X88343002Y-138383835D02*
X88260523Y-138336216D01*
X88260523Y-138336216D02*
X88112996Y-138306027D01*
X88112996Y-138306027D02*
X88047947Y-138323457D01*
X87414888Y-138562803D02*
X86755059Y-138181851D01*
X85698558Y-138011765D02*
X86193430Y-138297480D01*
X85945994Y-138154623D02*
X86445994Y-137288597D01*
X86445994Y-137288597D02*
X86457044Y-137459934D01*
X86457044Y-137459934D02*
X86491903Y-137590032D01*
X86491903Y-137590032D02*
X86550572Y-137678890D01*
X85456250Y-136717169D02*
X85621208Y-136812407D01*
X85621208Y-136812407D02*
X85679877Y-136901265D01*
X85679877Y-136901265D02*
X85697307Y-136966314D01*
X85697307Y-136966314D02*
X85708357Y-137137651D01*
X85708357Y-137137651D02*
X85654358Y-137326418D01*
X85654358Y-137326418D02*
X85463882Y-137656332D01*
X85463882Y-137656332D02*
X85375023Y-137715001D01*
X85375023Y-137715001D02*
X85309974Y-137732431D01*
X85309974Y-137732431D02*
X85203686Y-137726051D01*
X85203686Y-137726051D02*
X85038729Y-137630813D01*
X85038729Y-137630813D02*
X84980060Y-137541955D01*
X84980060Y-137541955D02*
X84962630Y-137476906D01*
X84962630Y-137476906D02*
X84969010Y-137370618D01*
X84969010Y-137370618D02*
X85088058Y-137164421D01*
X85088058Y-137164421D02*
X85176916Y-137105752D01*
X85176916Y-137105752D02*
X85241965Y-137088322D01*
X85241965Y-137088322D02*
X85348253Y-137094702D01*
X85348253Y-137094702D02*
X85513210Y-137189940D01*
X85513210Y-137189940D02*
X85571879Y-137278799D01*
X85571879Y-137278799D02*
X85589309Y-137343847D01*
X85589309Y-137343847D02*
X85582929Y-137450136D01*
X84837661Y-136360026D02*
X84755182Y-136312407D01*
X84755182Y-136312407D02*
X84648894Y-136306027D01*
X84648894Y-136306027D02*
X84583845Y-136323457D01*
X84583845Y-136323457D02*
X84494987Y-136382126D01*
X84494987Y-136382126D02*
X84358509Y-136523274D01*
X84358509Y-136523274D02*
X84239462Y-136729470D01*
X84239462Y-136729470D02*
X84185463Y-136918237D01*
X84185463Y-136918237D02*
X84179083Y-137024525D01*
X84179083Y-137024525D02*
X84196513Y-137089574D01*
X84196513Y-137089574D02*
X84255182Y-137178432D01*
X84255182Y-137178432D02*
X84337661Y-137226051D01*
X84337661Y-137226051D02*
X84443949Y-137232431D01*
X84443949Y-137232431D02*
X84508998Y-137215001D01*
X84508998Y-137215001D02*
X84597856Y-137156332D01*
X84597856Y-137156332D02*
X84734334Y-137015184D01*
X84734334Y-137015184D02*
X84853381Y-136808988D01*
X84853381Y-136808988D02*
X84907380Y-136620221D01*
X84907380Y-136620221D02*
X84913760Y-136513933D01*
X84913760Y-136513933D02*
X84896330Y-136448884D01*
X84896330Y-136448884D02*
X84837661Y-136360026D01*
X83839828Y-136278798D02*
X83946116Y-136285178D01*
X83946116Y-136285178D02*
X84011165Y-136267748D01*
X84011165Y-136267748D02*
X84100024Y-136209079D01*
X84100024Y-136209079D02*
X84123833Y-136167840D01*
X84123833Y-136167840D02*
X84130213Y-136061552D01*
X84130213Y-136061552D02*
X84112783Y-135996503D01*
X84112783Y-135996503D02*
X84054114Y-135907645D01*
X84054114Y-135907645D02*
X83889157Y-135812407D01*
X83889157Y-135812407D02*
X83782869Y-135806027D01*
X83782869Y-135806027D02*
X83717820Y-135823457D01*
X83717820Y-135823457D02*
X83628961Y-135882126D01*
X83628961Y-135882126D02*
X83605152Y-135923365D01*
X83605152Y-135923365D02*
X83598772Y-136029653D01*
X83598772Y-136029653D02*
X83616202Y-136094702D01*
X83616202Y-136094702D02*
X83674871Y-136183560D01*
X83674871Y-136183560D02*
X83839828Y-136278798D01*
X83839828Y-136278798D02*
X83898497Y-136367657D01*
X83898497Y-136367657D02*
X83915927Y-136432706D01*
X83915927Y-136432706D02*
X83909547Y-136538994D01*
X83909547Y-136538994D02*
X83814309Y-136703951D01*
X83814309Y-136703951D02*
X83725451Y-136762620D01*
X83725451Y-136762620D02*
X83660402Y-136780050D01*
X83660402Y-136780050D02*
X83554114Y-136773670D01*
X83554114Y-136773670D02*
X83389157Y-136678432D01*
X83389157Y-136678432D02*
X83330488Y-136589574D01*
X83330488Y-136589574D02*
X83313058Y-136524525D01*
X83313058Y-136524525D02*
X83319438Y-136418237D01*
X83319438Y-136418237D02*
X83414676Y-136253280D01*
X83414676Y-136253280D02*
X83503534Y-136194610D01*
X83503534Y-136194610D02*
X83568583Y-136177181D01*
X83568583Y-136177181D02*
X83674871Y-136183560D01*
X82918095Y-136351478D02*
X82770567Y-136321289D01*
X82770567Y-136321289D02*
X82564371Y-136202242D01*
X82564371Y-136202242D02*
X82505702Y-136113383D01*
X82505702Y-136113383D02*
X82488272Y-136048334D01*
X82488272Y-136048334D02*
X82494651Y-135942046D01*
X82494651Y-135942046D02*
X82542271Y-135859568D01*
X82542271Y-135859568D02*
X82631129Y-135800899D01*
X82631129Y-135800899D02*
X82696178Y-135783469D01*
X82696178Y-135783469D02*
X82802466Y-135789849D01*
X82802466Y-135789849D02*
X82991233Y-135843847D01*
X82991233Y-135843847D02*
X83097521Y-135850227D01*
X83097521Y-135850227D02*
X83162570Y-135832797D01*
X83162570Y-135832797D02*
X83251428Y-135774128D01*
X83251428Y-135774128D02*
X83299047Y-135691650D01*
X83299047Y-135691650D02*
X83305427Y-135585361D01*
X83305427Y-135585361D02*
X83287997Y-135520313D01*
X83287997Y-135520313D02*
X83229328Y-135431454D01*
X83229328Y-135431454D02*
X83023131Y-135312407D01*
X83023131Y-135312407D02*
X82875604Y-135282217D01*
X82610738Y-135074311D02*
X81533388Y-135607003D01*
X82033388Y-134740978D02*
X82110738Y-135940337D01*
X81203473Y-135416527D02*
X81703473Y-134550502D01*
X80708602Y-135130813D02*
X81365470Y-134850227D01*
X81208602Y-134264788D02*
X81417759Y-135045373D01*
X80527924Y-134586613D02*
X79868095Y-134205660D01*
X79394073Y-133217169D02*
X79559030Y-133312407D01*
X79559030Y-133312407D02*
X79617699Y-133401265D01*
X79617699Y-133401265D02*
X79635129Y-133466314D01*
X79635129Y-133466314D02*
X79646179Y-133637651D01*
X79646179Y-133637651D02*
X79592180Y-133826418D01*
X79592180Y-133826418D02*
X79401704Y-134156332D01*
X79401704Y-134156332D02*
X79312845Y-134215001D01*
X79312845Y-134215001D02*
X79247797Y-134232431D01*
X79247797Y-134232431D02*
X79141508Y-134226051D01*
X79141508Y-134226051D02*
X78976551Y-134130813D01*
X78976551Y-134130813D02*
X78917882Y-134041955D01*
X78917882Y-134041955D02*
X78900452Y-133976906D01*
X78900452Y-133976906D02*
X78906832Y-133870618D01*
X78906832Y-133870618D02*
X79025880Y-133664421D01*
X79025880Y-133664421D02*
X79114738Y-133605752D01*
X79114738Y-133605752D02*
X79179787Y-133588322D01*
X79179787Y-133588322D02*
X79286075Y-133594702D01*
X79286075Y-133594702D02*
X79451032Y-133689940D01*
X79451032Y-133689940D02*
X79509701Y-133778799D01*
X79509701Y-133778799D02*
X79527131Y-133843847D01*
X79527131Y-133843847D02*
X79520751Y-133950136D01*
X78934060Y-133061552D02*
X78916631Y-132996503D01*
X78916631Y-132996503D02*
X78857962Y-132907645D01*
X78857962Y-132907645D02*
X78651765Y-132788597D01*
X78651765Y-132788597D02*
X78545477Y-132782217D01*
X78545477Y-132782217D02*
X78480428Y-132799647D01*
X78480428Y-132799647D02*
X78391570Y-132858316D01*
X78391570Y-132858316D02*
X78343951Y-132940795D01*
X78343951Y-132940795D02*
X78313761Y-133088322D01*
X78313761Y-133088322D02*
X78522919Y-133868908D01*
X78522919Y-133868908D02*
X77986808Y-133559384D01*
X77950697Y-132383835D02*
X77868218Y-132336216D01*
X77868218Y-132336216D02*
X77761930Y-132329836D01*
X77761930Y-132329836D02*
X77696881Y-132347266D01*
X77696881Y-132347266D02*
X77608023Y-132405935D01*
X77608023Y-132405935D02*
X77471546Y-132547083D01*
X77471546Y-132547083D02*
X77352498Y-132753280D01*
X77352498Y-132753280D02*
X77298499Y-132942046D01*
X77298499Y-132942046D02*
X77292119Y-133048334D01*
X77292119Y-133048334D02*
X77309549Y-133113383D01*
X77309549Y-133113383D02*
X77368218Y-133202242D01*
X77368218Y-133202242D02*
X77450697Y-133249861D01*
X77450697Y-133249861D02*
X77556985Y-133256240D01*
X77556985Y-133256240D02*
X77622034Y-133238811D01*
X77622034Y-133238811D02*
X77710892Y-133180142D01*
X77710892Y-133180142D02*
X77847370Y-133038994D01*
X77847370Y-133038994D02*
X77966417Y-132832797D01*
X77966417Y-132832797D02*
X78020416Y-132644031D01*
X78020416Y-132644031D02*
X78026796Y-132537742D01*
X78026796Y-132537742D02*
X78009366Y-132472694D01*
X78009366Y-132472694D02*
X77950697Y-132383835D01*
X76790868Y-132868908D02*
X77290868Y-132002883D01*
X77052773Y-132415276D02*
X76557901Y-132129562D01*
X76295996Y-132583194D02*
X76795996Y-131717169D01*
X76218646Y-131383835D02*
X76136167Y-131336216D01*
X76136167Y-131336216D02*
X76029879Y-131329836D01*
X76029879Y-131329836D02*
X75964830Y-131347266D01*
X75964830Y-131347266D02*
X75875972Y-131405935D01*
X75875972Y-131405935D02*
X75739495Y-131547083D01*
X75739495Y-131547083D02*
X75620447Y-131753280D01*
X75620447Y-131753280D02*
X75566448Y-131942046D01*
X75566448Y-131942046D02*
X75560069Y-132048334D01*
X75560069Y-132048334D02*
X75577498Y-132113383D01*
X75577498Y-132113383D02*
X75636167Y-132202242D01*
X75636167Y-132202242D02*
X75718646Y-132249861D01*
X75718646Y-132249861D02*
X75824934Y-132256240D01*
X75824934Y-132256240D02*
X75889983Y-132238811D01*
X75889983Y-132238811D02*
X75978841Y-132180142D01*
X75978841Y-132180142D02*
X76115319Y-132038994D01*
X76115319Y-132038994D02*
X76234366Y-131832797D01*
X76234366Y-131832797D02*
X76288365Y-131644031D01*
X76288365Y-131644031D02*
X76294745Y-131537742D01*
X76294745Y-131537742D02*
X76277315Y-131472694D01*
X76277315Y-131472694D02*
X76218646Y-131383835D01*
X75220813Y-131302608D02*
X75327102Y-131308988D01*
X75327102Y-131308988D02*
X75392150Y-131291558D01*
X75392150Y-131291558D02*
X75481009Y-131232889D01*
X75481009Y-131232889D02*
X75504818Y-131191650D01*
X75504818Y-131191650D02*
X75511198Y-131085361D01*
X75511198Y-131085361D02*
X75493768Y-131020313D01*
X75493768Y-131020313D02*
X75435099Y-130931454D01*
X75435099Y-130931454D02*
X75270142Y-130836216D01*
X75270142Y-130836216D02*
X75163854Y-130829836D01*
X75163854Y-130829836D02*
X75098805Y-130847266D01*
X75098805Y-130847266D02*
X75009947Y-130905935D01*
X75009947Y-130905935D02*
X74986137Y-130947175D01*
X74986137Y-130947175D02*
X74979757Y-131053463D01*
X74979757Y-131053463D02*
X74997187Y-131118512D01*
X74997187Y-131118512D02*
X75055856Y-131207370D01*
X75055856Y-131207370D02*
X75220813Y-131302608D01*
X75220813Y-131302608D02*
X75279483Y-131391466D01*
X75279483Y-131391466D02*
X75296912Y-131456515D01*
X75296912Y-131456515D02*
X75290533Y-131562803D01*
X75290533Y-131562803D02*
X75195295Y-131727761D01*
X75195295Y-131727761D02*
X75106436Y-131786430D01*
X75106436Y-131786430D02*
X75041387Y-131803859D01*
X75041387Y-131803859D02*
X74935099Y-131797480D01*
X74935099Y-131797480D02*
X74770142Y-131702242D01*
X74770142Y-131702242D02*
X74711473Y-131613383D01*
X74711473Y-131613383D02*
X74694043Y-131548334D01*
X74694043Y-131548334D02*
X74700423Y-131442046D01*
X74700423Y-131442046D02*
X74795661Y-131277089D01*
X74795661Y-131277089D02*
X74884519Y-131218420D01*
X74884519Y-131218420D02*
X74949568Y-131200990D01*
X74949568Y-131200990D02*
X75055856Y-131207370D01*
D11*
X82846715Y-134398922D02*
X83046715Y-134052512D01*
X83046715Y-134052512D02*
X82964237Y-134004893D01*
X82964237Y-134004893D02*
X82905226Y-133992817D01*
X82905226Y-133992817D02*
X82853187Y-134006761D01*
X82853187Y-134006761D02*
X82817643Y-134030229D01*
X82817643Y-134030229D02*
X82763052Y-134086688D01*
X82763052Y-134086688D02*
X82734481Y-134136175D01*
X82734481Y-134136175D02*
X82712881Y-134211682D01*
X82712881Y-134211682D02*
X82710329Y-134254197D01*
X82710329Y-134254197D02*
X82724273Y-134306236D01*
X82724273Y-134306236D02*
X82764237Y-134351303D01*
X82764237Y-134351303D02*
X82846715Y-134398922D01*
X82565104Y-133972402D02*
X82607619Y-133974954D01*
X82607619Y-133974954D02*
X82633638Y-133967982D01*
X82633638Y-133967982D02*
X82669182Y-133944515D01*
X82669182Y-133944515D02*
X82678706Y-133928019D01*
X82678706Y-133928019D02*
X82681257Y-133885504D01*
X82681257Y-133885504D02*
X82674286Y-133859484D01*
X82674286Y-133859484D02*
X82650818Y-133823941D01*
X82650818Y-133823941D02*
X82584835Y-133785846D01*
X82584835Y-133785846D02*
X82542320Y-133783294D01*
X82542320Y-133783294D02*
X82516300Y-133790266D01*
X82516300Y-133790266D02*
X82480757Y-133813733D01*
X82480757Y-133813733D02*
X82471233Y-133830229D01*
X82471233Y-133830229D02*
X82468681Y-133872744D01*
X82468681Y-133872744D02*
X82475653Y-133898764D01*
X82475653Y-133898764D02*
X82499121Y-133934307D01*
X82499121Y-133934307D02*
X82565104Y-133972402D01*
X82565104Y-133972402D02*
X82588571Y-134007946D01*
X82588571Y-134007946D02*
X82595543Y-134033965D01*
X82595543Y-134033965D02*
X82592991Y-134076480D01*
X82592991Y-134076480D02*
X82554896Y-134142463D01*
X82554896Y-134142463D02*
X82519353Y-134165931D01*
X82519353Y-134165931D02*
X82493333Y-134172903D01*
X82493333Y-134172903D02*
X82450818Y-134170351D01*
X82450818Y-134170351D02*
X82384835Y-134132256D01*
X82384835Y-134132256D02*
X82361367Y-134096712D01*
X82361367Y-134096712D02*
X82354395Y-134070693D01*
X82354395Y-134070693D02*
X82356947Y-134028178D01*
X82356947Y-134028178D02*
X82395043Y-133962195D01*
X82395043Y-133962195D02*
X82430586Y-133938727D01*
X82430586Y-133938727D02*
X82456605Y-133931755D01*
X82456605Y-133931755D02*
X82499121Y-133934307D01*
D12*
%TO.C,D9*%
X76789176Y-131240160D02*
X77189175Y-130547339D01*
X77189175Y-130547339D02*
X78315009Y-131197340D01*
X78174817Y-132040161D02*
X76789176Y-131240160D01*
X78315009Y-131197340D02*
X78424816Y-131607148D01*
X78424816Y-131607148D02*
X78174817Y-132040161D01*
%TO.C,D8*%
X81789176Y-134040160D02*
X82189175Y-133347339D01*
X82189175Y-133347339D02*
X83315009Y-133997340D01*
X83174817Y-134840161D02*
X81789176Y-134040160D01*
X83315009Y-133997340D02*
X83424816Y-134407148D01*
X83424816Y-134407148D02*
X83174817Y-134840161D01*
%TD*%
M02*
