%TF.GenerationSoftware,KiCad,Pcbnew,9.0.5*%
%TF.CreationDate,2025-12-13T23:41:19-05:00*%
%TF.ProjectId,airbrake_mod,61697262-7261-46b6-955f-6d6f642e6b69,rev?*%
%TF.SameCoordinates,Original*%
%TF.FileFunction,Soldermask,Bot*%
%TF.FilePolarity,Negative*%
%FSLAX46Y46*%
G04 Gerber Fmt 4.6, Leading zero omitted, Abs format (unit mm)*
G04 Created by KiCad (PCBNEW 9.0.5) date 2025-12-13 23:41:19*
%MOMM*%
%LPD*%
G01*
G04 APERTURE LIST*
G04 Aperture macros list*
%AMRoundRect*
0 Rectangle with rounded corners*
0 $1 Rounding radius*
0 $2 $3 $4 $5 $6 $7 $8 $9 X,Y pos of 4 corners*
0 Add a 4 corners polygon primitive as box body*
4,1,4,$2,$3,$4,$5,$6,$7,$8,$9,$2,$3,0*
0 Add four circle primitives for the rounded corners*
1,1,$1+$1,$2,$3*
1,1,$1+$1,$4,$5*
1,1,$1+$1,$6,$7*
1,1,$1+$1,$8,$9*
0 Add four rect primitives between the rounded corners*
20,1,$1+$1,$2,$3,$4,$5,0*
20,1,$1+$1,$4,$5,$6,$7,0*
20,1,$1+$1,$6,$7,$8,$9,0*
20,1,$1+$1,$8,$9,$2,$3,0*%
%AMHorizOval*
0 Thick line with rounded ends*
0 $1 width*
0 $2 $3 position (X,Y) of the first rounded end (center of the circle)*
0 $4 $5 position (X,Y) of the second rounded end (center of the circle)*
0 Add line between two ends*
20,1,$1,$2,$3,$4,$5,0*
0 Add two circle primitives to create the rounded ends*
1,1,$1,$2,$3*
1,1,$1,$4,$5*%
%AMRotRect*
0 Rectangle, with rotation*
0 The origin of the aperture is its center*
0 $1 length*
0 $2 width*
0 $3 Rotation angle, in degrees counterclockwise*
0 Add horizontal line*
21,1,$1,$2,0,0,$3*%
G04 Aperture macros list end*
%ADD10C,3.200000*%
%ADD11HorizOval,1.100000X-0.291456X0.466426X0.291456X-0.466426X0*%
%ADD12RotRect,1.308000X1.308000X212.000000*%
%ADD13C,1.308000*%
%ADD14HorizOval,1.000000X-0.282843X0.282843X0.282843X-0.282843X0*%
%ADD15HorizOval,1.000000X-0.424264X0.424264X0.424264X-0.424264X0*%
%ADD16C,1.270000*%
%ADD17RoundRect,0.250001X-0.759999X0.499999X-0.759999X-0.499999X0.759999X-0.499999X0.759999X0.499999X0*%
%ADD18O,2.020000X1.500000*%
%ADD19RotRect,1.508000X1.508000X260.000000*%
%ADD20C,1.508000*%
%ADD21RoundRect,0.440800X0.661200X-0.661200X0.661200X0.661200X-0.661200X0.661200X-0.661200X-0.661200X0*%
%ADD22C,2.204000*%
%ADD23C,1.168400*%
%ADD24C,1.400000*%
%ADD25RoundRect,0.770000X-0.980000X0.980000X-0.980000X-0.980000X0.980000X-0.980000X0.980000X0.980000X0*%
%ADD26C,3.500000*%
%ADD27RoundRect,0.218750X0.317568X0.112544X-0.061318X0.331294X-0.317568X-0.112544X0.061318X-0.331294X0*%
G04 APERTURE END LIST*
D10*
%TO.C,H2*%
X55550000Y-100000000D03*
%TD*%
%TO.C,H3*%
X100000000Y-144450000D03*
%TD*%
D11*
%TO.C,SW3*%
X76676997Y-54127331D03*
X69723003Y-58472669D03*
D12*
X74896096Y-55240161D03*
D13*
X73200000Y-56300000D03*
X71503904Y-57359839D03*
%TD*%
D14*
%TO.C,J2*%
X69304790Y-63195388D03*
D15*
X66476363Y-60366961D03*
D14*
X63195388Y-69304790D03*
D15*
X60366961Y-66476363D03*
%TD*%
D16*
%TO.C,J3*%
X109875000Y-50500000D03*
X109875000Y-65500000D03*
D17*
X107915000Y-53500000D03*
D18*
X107915000Y-56500000D03*
X107915000Y-59500000D03*
X107915000Y-62500000D03*
%TD*%
D19*
%TO.C,S1*%
X54882132Y-88469665D03*
D20*
X56501411Y-93913555D03*
X53999999Y-93472488D03*
X56942477Y-91412143D03*
X54441066Y-90971077D03*
X57383544Y-88910731D03*
%TD*%
D21*
%TO.C,BZ1*%
X90500000Y-150000000D03*
D22*
X90500000Y-143500000D03*
%TD*%
D23*
%TO.C,J6*%
X67500000Y-81500000D03*
X67500000Y-82770000D03*
X68770000Y-81500000D03*
X68770000Y-82770000D03*
X70040000Y-81500000D03*
X70040000Y-82770000D03*
X71310000Y-81500000D03*
X71310000Y-82770000D03*
X72580000Y-81500000D03*
X72580000Y-82770000D03*
X73850000Y-81500000D03*
X73850000Y-82770000D03*
X75120000Y-81500000D03*
X75120000Y-82770000D03*
%TD*%
D10*
%TO.C,H1*%
X100000000Y-55550000D03*
%TD*%
D24*
%TO.C,J1*%
X108500000Y-68500000D03*
X108500000Y-79500000D03*
D25*
X98500000Y-76500000D03*
D26*
X98500000Y-71500000D03*
%TD*%
D27*
%TO.C,D9*%
X78363992Y-131687500D03*
X77000000Y-130900000D03*
%TD*%
%TO.C,D8*%
X83363992Y-134487500D03*
X82000000Y-133700000D03*
%TD*%
M02*
