%TF.GenerationSoftware,KiCad,Pcbnew,9.0.5*%
%TF.CreationDate,2025-12-13T23:41:19-05:00*%
%TF.ProjectId,airbrake_mod,61697262-7261-46b6-955f-6d6f642e6b69,rev?*%
%TF.SameCoordinates,Original*%
%TF.FileFunction,Profile,NP*%
%FSLAX46Y46*%
G04 Gerber Fmt 4.6, Leading zero omitted, Abs format (unit mm)*
G04 Created by KiCad (PCBNEW 9.0.5) date 2025-12-13 23:41:19*
%MOMM*%
%LPD*%
G01*
G04 APERTURE LIST*
%TA.AperFunction,Profile*%
%ADD10C,0.250000*%
%TD*%
G04 APERTURE END LIST*
D10*
X96031250Y-84407499D02*
X96031250Y-88217501D01*
X57050000Y-100000000D02*
G75*
G02*
X54050000Y-100000000I-1500000J0D01*
G01*
X54050000Y-100000000D02*
G75*
G02*
X57050000Y-100000000I1500000J0D01*
G01*
X111712500Y-137550000D02*
X111712500Y-149301340D01*
X88287500Y-93574999D02*
G75*
G02*
X92375001Y-89487500I4087500J-1D01*
G01*
X111712500Y-149301340D02*
G75*
G02*
X108249754Y-153340813I-4087500J0D01*
G01*
X96031250Y-84407499D02*
G75*
G02*
X97301249Y-83137550I1269950J-1D01*
G01*
X92375000Y-133462500D02*
G75*
G02*
X88287500Y-129375000I0J4087500D01*
G01*
X92375000Y-133462500D02*
X107625000Y-133462500D01*
X108249754Y-153340812D02*
G75*
G02*
X108249754Y-46659188I-8249754J53340812D01*
G01*
X101500000Y-55550000D02*
G75*
G02*
X98500000Y-55550000I-1500000J0D01*
G01*
X98500000Y-55550000D02*
G75*
G02*
X101500000Y-55550000I1500000J0D01*
G01*
X111712500Y-79050004D02*
G75*
G02*
X107625003Y-83137500I-4087500J4D01*
G01*
X111712500Y-50698658D02*
X111712500Y-79050004D01*
X107625003Y-83137500D02*
X97301249Y-83137500D01*
X107625000Y-133462500D02*
G75*
G02*
X111712500Y-137550000I0J-4087500D01*
G01*
X101500000Y-144450000D02*
G75*
G02*
X98500000Y-144450000I-1500000J0D01*
G01*
X98500000Y-144450000D02*
G75*
G02*
X101500000Y-144450000I1500000J0D01*
G01*
X108249754Y-46659188D02*
G75*
G02*
X111712539Y-50698658I-624754J-4039512D01*
G01*
X96031250Y-88217501D02*
G75*
G02*
X94761251Y-89487450I-1269950J1D01*
G01*
X92375001Y-89487500D02*
X94761251Y-89487500D01*
X88287500Y-129375000D02*
X88287500Y-93574999D01*
M02*
