%TF.GenerationSoftware,KiCad,Pcbnew,9.0.5*%
%TF.CreationDate,2025-12-13T23:41:19-05:00*%
%TF.ProjectId,airbrake_mod,61697262-7261-46b6-955f-6d6f642e6b69,rev?*%
%TF.SameCoordinates,Original*%
%TF.FileFunction,Soldermask,Top*%
%TF.FilePolarity,Negative*%
%FSLAX46Y46*%
G04 Gerber Fmt 4.6, Leading zero omitted, Abs format (unit mm)*
G04 Created by KiCad (PCBNEW 9.0.5) date 2025-12-13 23:41:19*
%MOMM*%
%LPD*%
G01*
G04 APERTURE LIST*
G04 Aperture macros list*
%AMRoundRect*
0 Rectangle with rounded corners*
0 $1 Rounding radius*
0 $2 $3 $4 $5 $6 $7 $8 $9 X,Y pos of 4 corners*
0 Add a 4 corners polygon primitive as box body*
4,1,4,$2,$3,$4,$5,$6,$7,$8,$9,$2,$3,0*
0 Add four circle primitives for the rounded corners*
1,1,$1+$1,$2,$3*
1,1,$1+$1,$4,$5*
1,1,$1+$1,$6,$7*
1,1,$1+$1,$8,$9*
0 Add four rect primitives between the rounded corners*
20,1,$1+$1,$2,$3,$4,$5,0*
20,1,$1+$1,$4,$5,$6,$7,0*
20,1,$1+$1,$6,$7,$8,$9,0*
20,1,$1+$1,$8,$9,$2,$3,0*%
%AMHorizOval*
0 Thick line with rounded ends*
0 $1 width*
0 $2 $3 position (X,Y) of the first rounded end (center of the circle)*
0 $4 $5 position (X,Y) of the second rounded end (center of the circle)*
0 Add line between two ends*
20,1,$1,$2,$3,$4,$5,0*
0 Add two circle primitives to create the rounded ends*
1,1,$1,$2,$3*
1,1,$1,$4,$5*%
%AMRotRect*
0 Rectangle, with rotation*
0 The origin of the aperture is its center*
0 $1 length*
0 $2 width*
0 $3 Rotation angle, in degrees counterclockwise*
0 Add horizontal line*
21,1,$1,$2,0,0,$3*%
G04 Aperture macros list end*
%ADD10RoundRect,0.200000X0.053033X-0.335876X0.335876X-0.053033X-0.053033X0.335876X-0.335876X0.053033X0*%
%ADD11RoundRect,0.218750X0.335876X0.026517X0.026517X0.335876X-0.335876X-0.026517X-0.026517X-0.335876X0*%
%ADD12RoundRect,0.225000X0.250000X-0.225000X0.250000X0.225000X-0.250000X0.225000X-0.250000X-0.225000X0*%
%ADD13RoundRect,0.225000X-0.250000X0.225000X-0.250000X-0.225000X0.250000X-0.225000X0.250000X0.225000X0*%
%ADD14RoundRect,0.150000X-0.353553X-0.848528X0.848528X0.353553X0.353553X0.848528X-0.848528X-0.353553X0*%
%ADD15RoundRect,0.100000X0.200000X0.100000X-0.200000X0.100000X-0.200000X-0.100000X0.200000X-0.100000X0*%
%ADD16RoundRect,0.225000X0.335876X0.017678X0.017678X0.335876X-0.335876X-0.017678X-0.017678X-0.335876X0*%
%ADD17RoundRect,0.200000X-0.335876X-0.053033X-0.053033X-0.335876X0.335876X0.053033X0.053033X0.335876X0*%
%ADD18RoundRect,0.150000X-0.850000X-0.350000X0.850000X-0.350000X0.850000X0.350000X-0.850000X0.350000X0*%
%ADD19RoundRect,0.200000X-0.275000X0.200000X-0.275000X-0.200000X0.275000X-0.200000X0.275000X0.200000X0*%
%ADD20RoundRect,0.200000X0.275000X-0.200000X0.275000X0.200000X-0.275000X0.200000X-0.275000X-0.200000X0*%
%ADD21RotRect,0.990600X0.711200X322.500000*%
%ADD22RoundRect,0.150000X0.350000X-0.850000X0.350000X0.850000X-0.350000X0.850000X-0.350000X-0.850000X0*%
%ADD23RoundRect,0.200000X-0.053033X0.335876X-0.335876X0.053033X0.053033X-0.335876X0.335876X-0.053033X0*%
%ADD24RoundRect,0.200000X-0.200000X-0.275000X0.200000X-0.275000X0.200000X0.275000X-0.200000X0.275000X0*%
%ADD25RoundRect,0.250000X0.250000X0.475000X-0.250000X0.475000X-0.250000X-0.475000X0.250000X-0.475000X0*%
%ADD26RoundRect,0.150000X-0.350000X0.850000X-0.350000X-0.850000X0.350000X-0.850000X0.350000X0.850000X0*%
%ADD27RoundRect,0.225000X-0.017678X0.335876X-0.335876X0.017678X0.017678X-0.335876X0.335876X-0.017678X0*%
%ADD28RoundRect,0.250000X-0.565685X0.070711X0.070711X-0.565685X0.565685X-0.070711X-0.070711X0.565685X0*%
%ADD29RoundRect,0.235000X1.515000X0.940000X-1.515000X0.940000X-1.515000X-0.940000X1.515000X-0.940000X0*%
%ADD30R,0.700000X0.510000*%
%ADD31R,0.711200X0.990600*%
%ADD32RoundRect,0.150000X0.848528X-0.353553X-0.353553X0.848528X-0.848528X0.353553X0.353553X-0.848528X0*%
%ADD33RoundRect,0.218750X0.026517X-0.335876X0.335876X-0.026517X-0.026517X0.335876X-0.335876X0.026517X0*%
%ADD34RoundRect,0.225000X-0.335876X-0.017678X-0.017678X-0.335876X0.335876X0.017678X0.017678X0.335876X0*%
%ADD35RoundRect,0.225000X0.225000X0.250000X-0.225000X0.250000X-0.225000X-0.250000X0.225000X-0.250000X0*%
%ADD36C,3.200000*%
%ADD37RoundRect,0.150000X-0.468458X0.256326X0.256326X-0.468458X0.468458X-0.256326X-0.256326X0.468458X0*%
%ADD38RoundRect,0.200000X0.200000X0.275000X-0.200000X0.275000X-0.200000X-0.275000X0.200000X-0.275000X0*%
%ADD39RoundRect,0.225000X0.017678X-0.335876X0.335876X-0.017678X-0.017678X0.335876X-0.335876X0.017678X0*%
%ADD40RoundRect,0.225000X-0.225000X-0.250000X0.225000X-0.250000X0.225000X0.250000X-0.225000X0.250000X0*%
%ADD41RoundRect,0.150000X-0.150000X0.512500X-0.150000X-0.512500X0.150000X-0.512500X0.150000X0.512500X0*%
%ADD42RoundRect,0.250000X1.000000X0.650000X-1.000000X0.650000X-1.000000X-0.650000X1.000000X-0.650000X0*%
%ADD43RoundRect,0.150000X0.150000X-0.512500X0.150000X0.512500X-0.150000X0.512500X-0.150000X-0.512500X0*%
%ADD44RoundRect,0.250000X0.450000X-0.262500X0.450000X0.262500X-0.450000X0.262500X-0.450000X-0.262500X0*%
%ADD45RotRect,0.990600X0.711200X330.000000*%
%ADD46RotRect,0.990600X0.711200X345.000000*%
%ADD47RoundRect,0.162500X-0.574524X0.344715X0.344715X-0.574524X0.574524X-0.344715X-0.344715X0.574524X0*%
%ADD48HorizOval,1.100000X-0.291456X0.466426X0.291456X-0.466426X0*%
%ADD49RotRect,1.308000X1.308000X212.000000*%
%ADD50C,1.308000*%
%ADD51RotRect,0.600000X1.150000X225.000000*%
%ADD52RotRect,0.300000X1.150000X225.000000*%
%ADD53HorizOval,1.000000X-0.282843X0.282843X0.282843X-0.282843X0*%
%ADD54HorizOval,1.000000X-0.424264X0.424264X0.424264X-0.424264X0*%
%ADD55C,1.270000*%
%ADD56RoundRect,0.250001X-0.759999X0.499999X-0.759999X-0.499999X0.759999X-0.499999X0.759999X0.499999X0*%
%ADD57O,2.020000X1.500000*%
%ADD58RoundRect,0.087500X0.087500X-0.225000X0.087500X0.225000X-0.087500X0.225000X-0.087500X-0.225000X0*%
%ADD59RoundRect,0.087500X0.225000X-0.087500X0.225000X0.087500X-0.225000X0.087500X-0.225000X-0.087500X0*%
%ADD60RoundRect,0.087500X0.250000X0.087500X-0.250000X0.087500X-0.250000X-0.087500X0.250000X-0.087500X0*%
%ADD61RoundRect,0.150000X0.850000X0.350000X-0.850000X0.350000X-0.850000X-0.350000X0.850000X-0.350000X0*%
%ADD62RoundRect,0.200000X0.335876X0.053033X0.053033X0.335876X-0.335876X-0.053033X-0.053033X-0.335876X0*%
%ADD63RotRect,1.508000X1.508000X260.000000*%
%ADD64C,1.508000*%
%ADD65RoundRect,0.440800X0.661200X-0.661200X0.661200X0.661200X-0.661200X0.661200X-0.661200X-0.661200X0*%
%ADD66C,2.204000*%
%ADD67RotRect,0.990600X0.711200X280.000000*%
%ADD68RoundRect,0.150000X0.353553X0.848528X-0.848528X-0.353553X-0.353553X-0.848528X0.848528X0.353553X0*%
%ADD69RoundRect,0.150000X-0.512500X-0.150000X0.512500X-0.150000X0.512500X0.150000X-0.512500X0.150000X0*%
%ADD70C,1.168400*%
%ADD71RotRect,0.990600X0.711200X337.500000*%
%ADD72RoundRect,0.075000X-0.459619X-0.565685X0.565685X0.459619X0.459619X0.565685X-0.565685X-0.459619X0*%
%ADD73RoundRect,0.075000X0.459619X-0.565685X0.565685X-0.459619X-0.459619X0.565685X-0.565685X0.459619X0*%
%ADD74R,0.355600X0.381000*%
%ADD75R,0.381000X0.355600*%
%ADD76RoundRect,0.087500X0.125000X0.087500X-0.125000X0.087500X-0.125000X-0.087500X0.125000X-0.087500X0*%
%ADD77RoundRect,0.087500X0.087500X0.125000X-0.087500X0.125000X-0.087500X-0.125000X0.087500X-0.125000X0*%
%ADD78C,1.400000*%
%ADD79RoundRect,0.770000X-0.980000X0.980000X-0.980000X-0.980000X0.980000X-0.980000X0.980000X0.980000X0*%
%ADD80C,3.500000*%
G04 APERTURE END LIST*
D10*
%TO.C,R42*%
X72716637Y-77383363D03*
X73883363Y-76216637D03*
%TD*%
D11*
%TO.C,D2*%
X65743153Y-72643153D03*
X66856847Y-73756847D03*
%TD*%
D12*
%TO.C,C18*%
X81400000Y-52500000D03*
X81400000Y-50950000D03*
%TD*%
D13*
%TO.C,C10*%
X75100000Y-116600000D03*
X75100000Y-118150000D03*
%TD*%
D14*
%TO.C,TP15*%
X73000000Y-123000000D03*
%TD*%
D15*
%TO.C,D3*%
X83965200Y-73550001D03*
X83965200Y-74449999D03*
X82034800Y-74449999D03*
X82034800Y-73550001D03*
%TD*%
D16*
%TO.C,C4*%
X62989771Y-113489771D03*
X61893755Y-112393755D03*
%TD*%
D17*
%TO.C,R17*%
X72383363Y-68283363D03*
X71216637Y-67116637D03*
%TD*%
D18*
%TO.C,TP18*%
X92575000Y-59900000D03*
%TD*%
D19*
%TO.C,R7*%
X95200000Y-73200000D03*
X95200000Y-74850000D03*
%TD*%
D20*
%TO.C,R12*%
X81775000Y-55725000D03*
X81775000Y-54075000D03*
%TD*%
D21*
%TO.C,SW4*%
X58069372Y-68077432D03*
X61639464Y-70816860D03*
X56760536Y-69783140D03*
X60330628Y-72522568D03*
%TD*%
D18*
%TO.C,TP31*%
X79000000Y-136762500D03*
%TD*%
D22*
%TO.C,TP37*%
X83500000Y-121500000D03*
%TD*%
D23*
%TO.C,R22*%
X71262919Y-136222362D03*
X70096193Y-137389088D03*
%TD*%
D17*
%TO.C,R39*%
X86500000Y-136500000D03*
X87666726Y-137666726D03*
%TD*%
D19*
%TO.C,R31*%
X81000000Y-76500000D03*
X81000000Y-78150000D03*
%TD*%
D24*
%TO.C,R23*%
X91750000Y-63500000D03*
X93400000Y-63500000D03*
%TD*%
D18*
%TO.C,TP33*%
X90000000Y-81500000D03*
%TD*%
D25*
%TO.C,C16*%
X86600000Y-57600000D03*
X84700000Y-57600000D03*
%TD*%
D20*
%TO.C,R10*%
X82900000Y-64350000D03*
X82900000Y-62700000D03*
%TD*%
D14*
%TO.C,TP12*%
X69000000Y-125500000D03*
%TD*%
D12*
%TO.C,C27*%
X94500000Y-85000000D03*
X94500000Y-83450000D03*
%TD*%
D22*
%TO.C,TP21*%
X103000000Y-49500000D03*
%TD*%
D26*
%TO.C,TP30*%
X79000000Y-131262500D03*
%TD*%
D27*
%TO.C,C15*%
X64000000Y-109451380D03*
X62903984Y-110547396D03*
%TD*%
D19*
%TO.C,R5*%
X82900000Y-66150000D03*
X82900000Y-67800000D03*
%TD*%
%TO.C,R34*%
X87000000Y-76500000D03*
X87000000Y-78150000D03*
%TD*%
%TO.C,R37*%
X86800000Y-112850000D03*
X86800000Y-114500000D03*
%TD*%
D28*
%TO.C,Y1*%
X60196699Y-116141421D03*
X61752334Y-117697056D03*
X62954415Y-116494975D03*
X61398780Y-114939340D03*
%TD*%
D29*
%TO.C,L1*%
X91800000Y-56050000D03*
X91800000Y-50000000D03*
%TD*%
D30*
%TO.C,Q5*%
X100740000Y-60550000D03*
X100740000Y-61500000D03*
X100740000Y-62450000D03*
X103060000Y-62450000D03*
X103060000Y-61500000D03*
X103060000Y-60550000D03*
%TD*%
D18*
%TO.C,TP8*%
X109000000Y-138000000D03*
%TD*%
D25*
%TO.C,C22*%
X86600000Y-51100000D03*
X84700000Y-51100000D03*
%TD*%
D31*
%TO.C,SW1*%
X47425001Y-102262752D03*
X47425001Y-97762750D03*
X49574999Y-102262752D03*
X49574999Y-97762750D03*
%TD*%
D18*
%TO.C,TP9*%
X109000000Y-142000000D03*
%TD*%
D32*
%TO.C,TP34*%
X83000000Y-111000000D03*
%TD*%
D19*
%TO.C,R4*%
X76800000Y-66000000D03*
X76800000Y-67650000D03*
%TD*%
D33*
%TO.C,FB1*%
X67386306Y-115213694D03*
X68500000Y-114100000D03*
%TD*%
D34*
%TO.C,C11*%
X84813708Y-107828427D03*
X85909724Y-108924443D03*
%TD*%
D35*
%TO.C,C17*%
X86600000Y-55600000D03*
X85050000Y-55600000D03*
%TD*%
D36*
%TO.C,H2*%
X55550000Y-100000000D03*
%TD*%
D22*
%TO.C,TP6*%
X97100000Y-49500000D03*
%TD*%
D37*
%TO.C,U4*%
X69391332Y-68391332D03*
X68719581Y-69063083D03*
X68047830Y-69734834D03*
X69656498Y-71343502D03*
X70328249Y-70671751D03*
X71000000Y-70000000D03*
%TD*%
D23*
%TO.C,R41*%
X72483363Y-74816637D03*
X71316637Y-75983363D03*
%TD*%
D38*
%TO.C,R26*%
X103050000Y-64300000D03*
X101400000Y-64300000D03*
%TD*%
D10*
%TO.C,R21*%
X59666369Y-130989772D03*
X60833095Y-129823046D03*
%TD*%
D18*
%TO.C,TP1*%
X89300000Y-59900000D03*
%TD*%
D19*
%TO.C,R16*%
X74900000Y-66000000D03*
X74900000Y-67650000D03*
%TD*%
D24*
%TO.C,R35*%
X87350000Y-83500000D03*
X89000000Y-83500000D03*
%TD*%
D39*
%TO.C,C14*%
X73950000Y-93500000D03*
X75046016Y-92403984D03*
%TD*%
D40*
%TO.C,C26*%
X81749999Y-138962500D03*
X83299999Y-138962500D03*
%TD*%
D41*
%TO.C,D7*%
X73949999Y-87862500D03*
X73000000Y-87862500D03*
X72050001Y-87862500D03*
X72050001Y-90137500D03*
X73949999Y-90137500D03*
%TD*%
D42*
%TO.C,D1*%
X81900000Y-59500000D03*
X77900000Y-59500000D03*
%TD*%
D43*
%TO.C,Q4*%
X95150000Y-63375000D03*
X97050000Y-63375000D03*
X96100000Y-61100000D03*
%TD*%
D38*
%TO.C,R24*%
X93400000Y-61700000D03*
X91750000Y-61700000D03*
%TD*%
D24*
%TO.C,R30*%
X80675000Y-148000000D03*
X82325000Y-148000000D03*
%TD*%
D22*
%TO.C,TP27*%
X84000000Y-131262500D03*
%TD*%
D14*
%TO.C,TP14*%
X74500000Y-124500000D03*
%TD*%
D38*
%TO.C,R11*%
X86800000Y-63400000D03*
X85150000Y-63400000D03*
%TD*%
D35*
%TO.C,C29*%
X86811799Y-119711800D03*
X85261799Y-119711800D03*
%TD*%
D36*
%TO.C,H3*%
X100000000Y-144450000D03*
%TD*%
D10*
%TO.C,R19*%
X69916637Y-74583363D03*
X71083363Y-73416637D03*
%TD*%
D17*
%TO.C,R40*%
X88500000Y-134500000D03*
X89666726Y-135666726D03*
%TD*%
D19*
%TO.C,R28*%
X78500000Y-144350000D03*
X78500000Y-146000000D03*
%TD*%
D44*
%TO.C,R14*%
X95000000Y-71500000D03*
X95000000Y-69675000D03*
%TD*%
D22*
%TO.C,TP28*%
X81500000Y-131262500D03*
%TD*%
D18*
%TO.C,TP4*%
X82800000Y-69500000D03*
%TD*%
D30*
%TO.C,Q3*%
X84480000Y-59700000D03*
X84480000Y-60650000D03*
X84480000Y-61600000D03*
X86800000Y-61600000D03*
X86800000Y-60650000D03*
X86800000Y-59700000D03*
%TD*%
D27*
%TO.C,C12*%
X62964811Y-108394814D03*
X61868795Y-109490830D03*
%TD*%
D45*
%TO.C,SW5*%
X55188941Y-72144023D03*
X59086058Y-74394024D03*
X54113942Y-74005976D03*
X58011059Y-76255977D03*
%TD*%
D22*
%TO.C,TP2*%
X78900000Y-63500000D03*
%TD*%
D46*
%TO.C,SW7*%
X51004896Y-81279288D03*
X55351564Y-82443974D03*
X50448436Y-83356026D03*
X54795104Y-84520712D03*
%TD*%
D47*
%TO.C,U5*%
X64310293Y-129616216D03*
X63412267Y-130514242D03*
X62514242Y-131412267D03*
X61616216Y-132310293D03*
X66689707Y-137383784D03*
X67587733Y-136485758D03*
X68485758Y-135587733D03*
X69383784Y-134689707D03*
%TD*%
D43*
%TO.C,Q6*%
X80550000Y-145775000D03*
X82450000Y-145775000D03*
X81500000Y-143500000D03*
%TD*%
D14*
%TO.C,TP16*%
X71500000Y-121500000D03*
%TD*%
D15*
%TO.C,D5*%
X88465200Y-73550001D03*
X88465200Y-74449999D03*
X86534800Y-74449999D03*
X86534800Y-73550001D03*
%TD*%
D48*
%TO.C,SW3*%
X76676997Y-54127331D03*
X69723003Y-58472669D03*
D49*
X74896096Y-55240161D03*
D50*
X73200000Y-56300000D03*
X71503904Y-57359839D03*
%TD*%
D40*
%TO.C,C25*%
X81749999Y-137262500D03*
X83299999Y-137262500D03*
%TD*%
D14*
%TO.C,TP23*%
X85500000Y-85500000D03*
%TD*%
D22*
%TO.C,TP5*%
X81000000Y-63500000D03*
%TD*%
D24*
%TO.C,R36*%
X78350000Y-134500000D03*
X80000000Y-134500000D03*
%TD*%
D19*
%TO.C,R13*%
X83400000Y-54100000D03*
X83400000Y-55750000D03*
%TD*%
D22*
%TO.C,TP20*%
X100000000Y-49500000D03*
%TD*%
D27*
%TO.C,C6*%
X69600000Y-115200000D03*
X68503984Y-116296016D03*
%TD*%
%TO.C,C8*%
X70700000Y-116300000D03*
X69603984Y-117396016D03*
%TD*%
D34*
%TO.C,C9*%
X64403984Y-114903984D03*
X65500000Y-116000000D03*
%TD*%
D32*
%TO.C,TP36*%
X81900000Y-112800000D03*
%TD*%
D41*
%TO.C,D6*%
X68949999Y-87862500D03*
X68000000Y-87862500D03*
X67050001Y-87862500D03*
X67050001Y-90137500D03*
X68949999Y-90137500D03*
%TD*%
D51*
%TO.C,J2*%
X68919417Y-64393934D03*
X68353732Y-64959619D03*
D52*
X67540559Y-65772792D03*
X66833452Y-66479899D03*
X66479899Y-66833452D03*
X65772792Y-67540559D03*
D51*
X64959619Y-68353732D03*
X64393934Y-68919417D03*
X64393934Y-68919417D03*
X64959619Y-68353732D03*
D52*
X65419239Y-67894112D03*
X66126345Y-67187006D03*
X67187006Y-66126345D03*
X67894112Y-65419239D03*
D51*
X68353732Y-64959619D03*
X68919417Y-64393934D03*
D53*
X69304790Y-63195388D03*
D54*
X66476363Y-60366961D03*
D53*
X63195388Y-69304790D03*
D54*
X60366961Y-66476363D03*
%TD*%
D16*
%TO.C,C5*%
X62186292Y-102171573D03*
X61090276Y-101075557D03*
%TD*%
D19*
%TO.C,R32*%
X91000000Y-76500000D03*
X91000000Y-78150000D03*
%TD*%
D55*
%TO.C,J3*%
X109875000Y-50500000D03*
X109875000Y-65500000D03*
D56*
X107915000Y-53500000D03*
D57*
X107915000Y-56500000D03*
X107915000Y-59500000D03*
X107915000Y-62500000D03*
%TD*%
D18*
%TO.C,TP19*%
X99200000Y-64300000D03*
%TD*%
D22*
%TO.C,TP7*%
X91500000Y-74000000D03*
%TD*%
D19*
%TO.C,R3*%
X76800000Y-62700000D03*
X76800000Y-64350000D03*
%TD*%
D58*
%TO.C,U7*%
X90750000Y-85662500D03*
X91250000Y-85662500D03*
X91750000Y-85662500D03*
X92250000Y-85662500D03*
D59*
X92412500Y-85000000D03*
X92412500Y-84500000D03*
X92412500Y-84000000D03*
D58*
X92250000Y-83337500D03*
X91750000Y-83337500D03*
X91250000Y-83337500D03*
X90750000Y-83337500D03*
D59*
X90587500Y-84000000D03*
X90587500Y-84500000D03*
X90587500Y-85000000D03*
%TD*%
D60*
%TO.C,U2*%
X86600000Y-54100000D03*
X86600000Y-53600000D03*
X86600000Y-53100000D03*
X85175000Y-53100000D03*
X85175000Y-53600000D03*
X85175000Y-54100000D03*
%TD*%
D61*
%TO.C,TP35*%
X83000000Y-115500000D03*
%TD*%
D62*
%TO.C,R20*%
X66666726Y-129009873D03*
X65500000Y-127843147D03*
%TD*%
D19*
%TO.C,R27*%
X85000000Y-76500000D03*
X85000000Y-78150000D03*
%TD*%
D12*
%TO.C,C2*%
X77000000Y-94000000D03*
X77000000Y-92450000D03*
%TD*%
D35*
%TO.C,C32*%
X86811799Y-123311800D03*
X85261799Y-123311800D03*
%TD*%
D34*
%TO.C,C24*%
X70900000Y-133100000D03*
X71996016Y-134196016D03*
%TD*%
D35*
%TO.C,C31*%
X86811799Y-121511800D03*
X85261799Y-121511800D03*
%TD*%
D18*
%TO.C,TP11*%
X109000000Y-150000000D03*
%TD*%
D63*
%TO.C,S1*%
X54882132Y-88469665D03*
D64*
X56501411Y-93913555D03*
X53999999Y-93472488D03*
X56942477Y-91412143D03*
X54441066Y-90971077D03*
X57383544Y-88910731D03*
%TD*%
D65*
%TO.C,BZ1*%
X90500000Y-150000000D03*
D66*
X90500000Y-143500000D03*
%TD*%
D40*
%TO.C,C28*%
X93000000Y-81500000D03*
X94550000Y-81500000D03*
%TD*%
D38*
%TO.C,R9*%
X86800000Y-69500000D03*
X85150000Y-69500000D03*
%TD*%
D13*
%TO.C,C23*%
X89400000Y-69200000D03*
X89400000Y-70750000D03*
%TD*%
D18*
%TO.C,TP32*%
X94000000Y-88000000D03*
%TD*%
D43*
%TO.C,Q2*%
X84800000Y-67600000D03*
X86700000Y-67600000D03*
X85750000Y-65325000D03*
%TD*%
D34*
%TO.C,C1*%
X83753048Y-108889087D03*
X84849064Y-109985103D03*
%TD*%
D17*
%TO.C,R18*%
X68283363Y-72383363D03*
X67116637Y-71216637D03*
%TD*%
D19*
%TO.C,R15*%
X74900000Y-62700000D03*
X74900000Y-64350000D03*
%TD*%
D67*
%TO.C,SW2*%
X50100000Y-107300000D03*
X50881417Y-111731637D03*
X47982665Y-107673343D03*
X48764082Y-112104980D03*
%TD*%
D19*
%TO.C,R8*%
X95200000Y-76400000D03*
X95200000Y-78050000D03*
%TD*%
D68*
%TO.C,TP13*%
X76000000Y-126000000D03*
%TD*%
D24*
%TO.C,R6*%
X78150000Y-52500000D03*
X79800000Y-52500000D03*
%TD*%
D10*
%TO.C,R1*%
X66333274Y-114166726D03*
X67500000Y-113000000D03*
%TD*%
D19*
%TO.C,R29*%
X83000000Y-76500000D03*
X83000000Y-78150000D03*
%TD*%
D24*
%TO.C,R38*%
X74300000Y-78500000D03*
X75950000Y-78500000D03*
%TD*%
D18*
%TO.C,TP26*%
X91000000Y-88000000D03*
%TD*%
D13*
%TO.C,C30*%
X83500000Y-117500000D03*
X83500000Y-119050000D03*
%TD*%
D69*
%TO.C,Q1*%
X78700000Y-65850000D03*
X78700000Y-67750000D03*
X80975000Y-66800000D03*
%TD*%
D70*
%TO.C,J6*%
X67500000Y-81500000D03*
X67500000Y-82770000D03*
X68770000Y-81500000D03*
X68770000Y-82770000D03*
X70040000Y-81500000D03*
X70040000Y-82770000D03*
X71310000Y-81500000D03*
X71310000Y-82770000D03*
X72580000Y-81500000D03*
X72580000Y-82770000D03*
X73850000Y-81500000D03*
X73850000Y-82770000D03*
X75120000Y-81500000D03*
X75120000Y-82770000D03*
%TD*%
D19*
%TO.C,R25*%
X98900000Y-60850000D03*
X98900000Y-62500000D03*
%TD*%
D27*
%TO.C,C7*%
X65105186Y-110535189D03*
X64009170Y-111631205D03*
%TD*%
D18*
%TO.C,TP22*%
X108000000Y-48500000D03*
%TD*%
D13*
%TO.C,C19*%
X93500000Y-76400000D03*
X93500000Y-77950000D03*
%TD*%
D71*
%TO.C,SW6*%
X52832654Y-76545792D03*
X56990114Y-78267869D03*
X52009886Y-78532131D03*
X56167346Y-80254208D03*
%TD*%
D16*
%TO.C,C3*%
X61125632Y-103232233D03*
X60029616Y-102136217D03*
%TD*%
D72*
%TO.C,U1*%
X63830315Y-106184404D03*
X64183868Y-106537957D03*
X64537422Y-106891511D03*
X64890975Y-107245064D03*
X65244528Y-107598617D03*
X65598082Y-107952171D03*
X65951635Y-108305724D03*
X66305189Y-108659278D03*
X66658742Y-109012831D03*
X67012295Y-109366384D03*
X67365849Y-109719938D03*
X67719402Y-110073491D03*
X68072955Y-110427045D03*
X68426509Y-110780598D03*
X68780062Y-111134151D03*
X69133616Y-111487705D03*
X69487169Y-111841258D03*
X69840722Y-112194811D03*
X70194276Y-112548365D03*
X70547829Y-112901918D03*
X70901383Y-113255472D03*
X71254936Y-113609025D03*
X71608489Y-113962578D03*
X71962043Y-114316132D03*
X72315596Y-114669685D03*
D73*
X74684404Y-114669685D03*
X75037957Y-114316132D03*
X75391511Y-113962578D03*
X75745064Y-113609025D03*
X76098617Y-113255472D03*
X76452171Y-112901918D03*
X76805724Y-112548365D03*
X77159278Y-112194811D03*
X77512831Y-111841258D03*
X77866384Y-111487705D03*
X78219938Y-111134151D03*
X78573491Y-110780598D03*
X78927045Y-110427045D03*
X79280598Y-110073491D03*
X79634151Y-109719938D03*
X79987705Y-109366384D03*
X80341258Y-109012831D03*
X80694811Y-108659278D03*
X81048365Y-108305724D03*
X81401918Y-107952171D03*
X81755472Y-107598617D03*
X82109025Y-107245064D03*
X82462578Y-106891511D03*
X82816132Y-106537957D03*
X83169685Y-106184404D03*
D72*
X83169685Y-103815596D03*
X82816132Y-103462043D03*
X82462578Y-103108489D03*
X82109025Y-102754936D03*
X81755472Y-102401383D03*
X81401918Y-102047829D03*
X81048365Y-101694276D03*
X80694811Y-101340722D03*
X80341258Y-100987169D03*
X79987705Y-100633616D03*
X79634151Y-100280062D03*
X79280598Y-99926509D03*
X78927045Y-99572955D03*
X78573491Y-99219402D03*
X78219938Y-98865849D03*
X77866384Y-98512295D03*
X77512831Y-98158742D03*
X77159278Y-97805189D03*
X76805724Y-97451635D03*
X76452171Y-97098082D03*
X76098617Y-96744528D03*
X75745064Y-96390975D03*
X75391511Y-96037422D03*
X75037957Y-95683868D03*
X74684404Y-95330315D03*
D73*
X72315596Y-95330315D03*
X71962043Y-95683868D03*
X71608489Y-96037422D03*
X71254936Y-96390975D03*
X70901383Y-96744528D03*
X70547829Y-97098082D03*
X70194276Y-97451635D03*
X69840722Y-97805189D03*
X69487169Y-98158742D03*
X69133616Y-98512295D03*
X68780062Y-98865849D03*
X68426509Y-99219402D03*
X68072955Y-99572955D03*
X67719402Y-99926509D03*
X67365849Y-100280062D03*
X67012295Y-100633616D03*
X66658742Y-100987169D03*
X66305189Y-101340722D03*
X65951635Y-101694276D03*
X65598082Y-102047829D03*
X65244528Y-102401383D03*
X64890975Y-102754936D03*
X64537422Y-103108489D03*
X64183868Y-103462043D03*
X63830315Y-103815596D03*
%TD*%
D38*
%TO.C,R2*%
X49600000Y-104300000D03*
X47950000Y-104300000D03*
%TD*%
D19*
%TO.C,R33*%
X89000000Y-76500000D03*
X89000000Y-78150000D03*
%TD*%
D14*
%TO.C,TP25*%
X87500000Y-89500000D03*
%TD*%
%TO.C,TP17*%
X70000000Y-120000000D03*
%TD*%
D27*
%TO.C,C13*%
X61900000Y-107300000D03*
X60803984Y-108396016D03*
%TD*%
D74*
%TO.C,U8*%
X86750001Y-116411800D03*
X86250000Y-116411800D03*
X85750000Y-116411800D03*
X85249999Y-116411800D03*
D75*
X85161800Y-117000000D03*
X85161800Y-117500000D03*
D74*
X85249999Y-118088200D03*
X85750000Y-118088200D03*
X86250000Y-118088200D03*
X86750001Y-118088200D03*
D75*
X86838200Y-117500000D03*
X86838200Y-117000000D03*
%TD*%
D18*
%TO.C,TP10*%
X109000000Y-146000000D03*
%TD*%
D76*
%TO.C,U6*%
X83262500Y-135250000D03*
X83262500Y-134750000D03*
D77*
X83000000Y-134237500D03*
X82500000Y-134237500D03*
X82000000Y-134237500D03*
D76*
X81737500Y-134750000D03*
X81737500Y-135250000D03*
D77*
X82000000Y-135762500D03*
X82500000Y-135762500D03*
X83000000Y-135762500D03*
%TD*%
D43*
%TO.C,U3*%
X91100000Y-71500000D03*
X92050000Y-71500000D03*
X93000000Y-71500000D03*
X93000000Y-69225000D03*
X91100000Y-69225000D03*
%TD*%
D42*
%TO.C,D4*%
X102200000Y-151200000D03*
X98200000Y-151200000D03*
%TD*%
D22*
%TO.C,TP3*%
X93500000Y-74000000D03*
%TD*%
%TO.C,TP29*%
X86500000Y-131262500D03*
%TD*%
D12*
%TO.C,C20*%
X83000000Y-52500000D03*
X83000000Y-50950000D03*
%TD*%
D36*
%TO.C,H1*%
X100000000Y-55550000D03*
%TD*%
D78*
%TO.C,J1*%
X108500000Y-68500000D03*
X108500000Y-79500000D03*
D79*
X98500000Y-76500000D03*
D80*
X98500000Y-71500000D03*
%TD*%
D12*
%TO.C,C21*%
X80150000Y-55700000D03*
X80150000Y-54150000D03*
%TD*%
D14*
%TO.C,TP24*%
X86500000Y-87500000D03*
%TD*%
M02*
